<?xml version="1.0" encoding="UTF-8" standalone="no"?>
<svg width="100%" height="100%" viewBox="0 0 90 90" preserveAspectRatio="xMinYMid meet" version="1.1" xmlns="http://www.w3.org/2000/svg" xmlns:xlink="http://www.w3.org/1999/xlink" xmlns:sketch="http://www.bohemiancoding.com/sketch/ns">
    <!-- Generator: Sketch 3.3.3 (12072) - http://www.bohemiancoding.com/sketch -->
    <title>search</title>
    <desc>Created with Sketch.</desc>
    <defs></defs>
    <g id="Page-1" stroke="none" stroke-width="1" fill="none" fill-rule="evenodd" sketch:type="MSPage">
        <g id="search" sketch:type="MSArtboardGroup" opacity="0.6" fill="#000000">
            <path d="M34.3134627,54.2312461 C23.3131747,54.2312461 14.3956793,45.3137508 14.3956793,34.3134627 C14.3956793,23.3131747 23.3131747,14.3956793 34.3134627,14.3956793 C45.3137508,14.3956793 54.2312461,23.3131747 54.2312461,34.3134627 C54.2312461,45.3137508 45.3137508,54.2312461 34.3134627,54.2312461 L34.3134627,54.2312461 L34.3134627,54.2312461 Z M59.5779512,49.1881795 C62.1507909,44.8276633 63.6269255,39.7429479 63.6269255,34.3134627 C63.6269255,18.1240843 50.5028412,5 34.3134627,5 C18.1240843,5 5,18.1240843 5,34.3134627 C5,50.5028412 18.1240843,63.6269255 34.3134627,63.6269255 C40.0013164,63.6269255 45.3108071,62.006961 49.80572,59.2032469 C49.8382061,59.2370415 49.8710961,59.270591 49.9043926,59.3038876 L73.241322,82.6408169 C75.9706343,85.3701292 80.4059441,85.3732842 83.1396141,82.6396141 C85.8677217,79.9115066 85.8738227,75.4743277 83.1408169,72.741322 L59.8038876,49.4043926 C59.729809,49.3303141 59.6544737,49.2582438 59.5779497,49.1881821 L59.5779512,49.1881795 Z" id="magglass" sketch:type="MSShapeGroup"></path>
        </g>
    </g>
</svg>