<svg xmlns="http://www.w3.org/2000/svg" viewBox="0 0 300 300" enable-background="new 0 0 300 300"><path d="M186.693 100.868c-1.318 0-2.381-1.064-2.381-2.381 0-1.318 1.064-2.381 2.381-2.381h14.845c.844 0 1.643-.178 2.381-.458v5.206h-17.226v.014z" fill="#808285"/><path d="M230.792 140.326h-39.783c-3.68 0-6.682-3.002-6.682-6.686v-28.94c.738.28 1.537.443 2.381.443h44.084v35.183zM180.067 98.502l.015.413-.015.239v23.129h-13.887c-1.302 0-2.366-1.064-2.366-2.366s1.064-2.366 2.366-2.366h8.087c1.17 0 2.132-.962 2.132-2.128v-21.446c0-1.17-.962-2.132-2.132-2.132h-8.087c-1.302 0-2.366-1.064-2.366-2.366s1.064-2.366 2.366-2.366h35.373c1.318 0 2.381 1.064 2.381 2.381 0 1.318-1.064 2.381-2.381 2.381h-14.845c-3.669-.014-6.641 2.958-6.641 6.627zM91.278 245.317v-3.727h11.862c.253 0 .485-.062.71-.145v6.02c-1.416-.9-3.083-1.442-4.882-1.442h-7.834c.081-.221.144-.454.144-.706zM84.332 250.284h14.635c1.927 0 3.579 1.127 4.371 2.753h-23.38c.792-1.626 2.447-2.753 4.374-2.753zM79.447 257.295h16.225v1.976h-16.225zM99.929 257.295h3.92v1.976h-3.92zM124.053 257.295h3.923v1.976h-3.923zM132.234 257.295h16.222v1.976h-16.222zM147.945 253.037h-23.381c.792-1.624 2.447-2.753 4.374-2.753h14.632c1.928 0 3.583 1.127 4.375 2.753zM128.939 246.026c-1.8 0-3.469.539-4.885 1.442v-5.876h12.001v3.727c0 .253.062.485.145.71h-7.261v-.003z" fill="#A7A9AC"/><path d="M74.301 159.388h6.165c1.175 0 2.129-.954 2.129-2.129v-11.933c0-1.175-.954-2.129-2.129-2.129h-6.165v-15.007h12.33v61.038h-12.33v-29.84zM113.829 191.417c-5.49 0-10.122 4.542-10.122 9.915v36.23c-.224-.079-.457-.145-.71-.145h-11.861v-7.323c5.299-.701 9.418-5.197 9.418-10.687 0-5.49-4.119-9.991-9.418-10.69v-20.749h1.763c-.079.224-.145.457-.145.71v1.626c0 1.175.954 2.129 2.129 2.129s2.129-.954 2.129-2.129v-1.626c0-.253-.062-.485-.145-.71h2.918c-.079.224-.145.457-.145.71v1.626c0 1.175.954 2.129 2.129 2.129s2.129-.954 2.129-2.129v-1.626c0-.253-.062-.485-.145-.71h18.632c-.079.224-.145.457-.145.71v1.626c0 1.175.954 2.129 2.129 2.129s2.129-.954 2.129-2.129v-1.626c0-.253-.062-.485-.145-.71h3.463c-.079.224-.145.457-.145.71v1.626c0 1.175.954 2.129 2.129 2.129s2.129-.954 2.129-2.129v-1.626c0-.253-.062-.485-.145-.71h1.411c.25 0 .483-.062.707-.142v20.917c-5.166.817-9.143 5.265-9.143 10.661s3.974 9.841 9.146 10.658v7.352h-12.001v-36.08c.008-5.466-4.517-9.917-10.075-9.917zM135.91 183.855c-.224-.077-.457-.142-.707-.142h-44.067v-46.664h44.768v24.811l.006 21.995zM113.775 59.128c21.428 0 38.859 17.647 38.859 39.333v25.464h-78.191v-25.464c0-21.686 17.644-39.333 39.332-39.333z" fill="#E6E7E8"/><path d="M114.025 71.299c12.54 0 22.742 10.204 22.742 22.748 0 12.54-10.201 22.745-22.742 22.745-12.543 0-22.748-10.204-22.748-22.745.001-12.544 10.205-22.748 22.748-22.748z" fill="#BCBEC0"/><g fill="#fff"><circle cx="123.314" cy="152.448" r="1.946"/><circle cx="103.829" cy="152.448" r="1.947"/></g><circle cx="113.724" cy="168.966" r="1.947" fill="#fff"/><path d="M140.108 160.12v-32.144h12.287v.153c.003 2.904.006 7.353.009 12.043h-6.304c-1.174 0-2.127.953-2.127 2.127s.953 2.127 2.127 2.127h6.306v2.376h-6.306c-1.174 0-2.127.953-2.127 2.127s.953 2.127 2.127 2.127h6.306c.003 5.368 0 9.525-.008 9.865-.051 1.001-.145 6.153 2.986 9.477.692.734 1.565 1.313 2.521 1.818l-3.355 11.839c-3.777-1.494-6.44-3.59-8.201-5.498-6.496-7.069-6.34-16.503-6.241-18.437z" fill="#E6E7E8"/><path d="M114.017 71.216c12.543 0 22.746 10.203 22.746 22.761 0 12.539-10.203 22.742-22.746 22.742-12.539 0-22.758-10.203-22.758-22.742 0-12.558 10.219-22.761 22.758-22.761zm0 49.763c14.894 0 27.005-12.111 27.005-27.002 0-14.894-12.111-27.021-27.005-27.021-14.89.001-27.017 12.112-27.017 27.021 0 14.891 12.127 27.002 27.017 27.002zM99.479 91.433c0-.534-.22-1.109-.621-1.511-.799-.799-2.219-.799-3.014 0-.401.401-.625.931-.625 1.511 0 .56.223 1.14.625 1.507.398.401.931.621 1.507.621.56 0 1.109-.22 1.507-.621.386-.397.621-.931.621-1.507zM98.608 86.788c.356.223.738.326 1.14.326.708 0 1.405-.356 1.802-.992 2.722-4.316 7.383-6.891 12.467-6.891 1.17 0 2.132-.962 2.132-2.128 0-1.17-.962-2.132-2.132-2.132-6.565 0-12.569 3.313-16.075 8.874-.621.993-.326 2.307.666 2.943zM230.792 140.326h-39.783c-3.68 0-6.682-3.002-6.682-6.686v-28.94c.738.28 1.537.443 2.381.443h44.084v35.183zm-50.725-41.824l.015.413-.015.239v23.129h-13.887c-1.302 0-2.366-1.064-2.366-2.366s1.064-2.366 2.366-2.366h8.087c1.17 0 2.132-.962 2.132-2.128v-21.446c0-1.17-.962-2.132-2.132-2.132h-8.087c-1.302 0-2.366-1.064-2.366-2.366s1.064-2.366 2.366-2.366h35.373c1.318 0 2.381 1.064 2.381 2.381 0 1.318-1.064 2.381-2.381 2.381h-14.845c-3.669-.014-6.641 2.958-6.641 6.627zm-7.928 81.679c0 3.358-2.737 6.095-6.092 6.095-2.68 0-5.058-.284-7.174-.742l3.343-11.786c.606.102 1.242.163 1.908.223v5.232c0 1.17.962 2.132 2.128 2.132 1.17 0 2.132-.962 2.132-2.132v-4.657c2.203.917 3.755 3.09 3.755 5.635zm-31.798-19.877v-32.196h12.304v.148c0 2.915 0 7.368.015 12.055h-6.315c-1.166 0-2.128.962-2.128 2.128 0 1.17.962 2.132 2.128 2.132h6.315v2.381h-6.315c-1.166 0-2.128.962-2.128 2.128 0 1.17.962 2.132 2.128 2.132h6.315c0 5.369 0 9.537-.015 9.878-.042 1.007-.148 6.167 2.991 9.495.693.738 1.567 1.318 2.525 1.817l-3.354 11.862c-3.786-1.492-6.448-3.593-8.208-5.501-6.508-7.071-6.36-16.52-6.258-18.459zm-4.286 23.5c-.223-.072-.458-.148-.712-.148h-44.084v-46.674h44.781v24.817l.015 22.005zm-7.114 62.276c-1.806 0-3.476.534-4.88 1.45v-5.872h12.009v3.729c0 .25.057.488.148.708h-7.277v-.015zm19.017 7.011h-23.397c.799-1.628 2.457-2.752 4.38-2.752h14.64c1.924 0 3.579 1.124 4.377 2.752zm.504 6.24h-16.223v-1.98h16.223v1.98zm-24.401-1.981h3.919v1.98h-3.919v-1.98zm11.994-31.662c-2.813-.757-4.895-3.286-4.895-6.33 0-3.048 2.082-5.577 4.88-6.33l.015 12.66zm-22.08-34.327c-5.49 0-10.131 4.539-10.131 9.923v36.251c-.223-.076-.458-.148-.712-.148h-11.857v-7.322c5.293-.697 9.42-5.206 9.42-10.692 0-5.49-4.127-9.999-9.42-10.692v-20.766h1.757c-.072.223-.148.458-.148.712v1.624c0 1.17.962 2.132 2.132 2.132 1.166 0 2.128-.962 2.128-2.132v-1.624c0-.254-.057-.488-.148-.712h2.915c-.076.223-.148.458-.148.712v1.624c0 1.17.962 2.132 2.128 2.132 1.17 0 2.132-.962 2.132-2.132v-1.624c0-.254-.061-.488-.148-.712h18.635c-.076.223-.151.458-.151.712v1.624c0 1.17.962 2.132 2.132 2.132 1.17 0 2.128-.962 2.128-2.132v-1.624c0-.254-.057-.488-.148-.712h3.46c-.072.223-.148.458-.148.712v1.624c0 1.17.962 2.132 2.132 2.132 1.166 0 2.128-.962 2.128-2.132v-1.624c0-.254-.057-.488-.148-.712h1.405c.254 0 .488-.057.712-.148v20.925c-5.16.814-9.139 5.266-9.139 10.665 0 5.399 3.979 9.847 9.155 10.661v7.352h-12.009v-36.088c.042-5.469-4.501-9.921-10.044-9.921zm-14.049 65.989h3.918v1.98h-3.918v-1.98zm-20.498 0h16.223v1.98h-16.223v-1.98zm4.895-7.011h14.64c1.923 0 3.578 1.124 4.377 2.752h-23.397c.784-1.628 2.442-2.752 4.38-2.752zm6.936-4.967v-3.725h11.858c.254 0 .488-.061.712-.151v6.02c-1.42-.901-3.089-1.45-4.88-1.45h-7.837c.087-.206.147-.445.147-.694zm-10.665-44.531c-3.4 0-6.167-2.764-6.167-6.167v-1.242h12.335v1.242c0 3.403-2.764 6.167-6.168 6.167zm10.665 12.111c2.942.651 5.16 3.271 5.16 6.421 0 3.135-2.219 5.766-5.16 6.417v-12.838zm-16.832-53.625h6.167c1.17 0 2.132-.962 2.132-2.128v-11.933c0-1.17-.962-2.132-2.132-2.132h-6.167v-15.011h12.335v61.064h-12.335v-29.86zm0-11.948h4.04v7.674h-4.04v-7.674zm61.655-14.656h-45.061v-4.6h45.061v4.6zm-22.315-73.694c21.429 0 38.867 17.658 38.867 39.355v25.465h-78.207v-25.465c0-21.697 17.643-39.355 39.34-39.355zm58.372 37.076v17.185h-3.771v-17.185h3.771zm14.554 4.763c-1.318 0-2.381-1.064-2.381-2.381 0-1.318 1.064-2.381 2.381-2.381h14.845c.844 0 1.643-.178 2.381-.458v5.206h-17.226v.014zm-114.159-54.378c1.435 0 2.59 1.166 2.59 2.586 0 1.435-1.17 2.59-2.59 2.59-1.435 0-2.586-1.17-2.586-2.59 0-1.435 1.166-2.586 2.586-2.586zm160.39 54.378h-24.73v-10.661l-.042-.239.042-.473c0-3.653-2.972-6.641-6.641-6.641h-33.184v-6.906c0-1.17-.962-2.132-2.132-2.132-1.166 0-2.128.962-2.128 2.132v7.277c-2.635.871-4.555 3.328-4.555 6.254 0 2.93 1.919 5.384 4.555 6.254v17.867l.015.045c-2.65.871-4.57 3.328-4.57 6.254 0 2.93 1.919 5.384 4.555 6.258v43.554c-2.457-.239-4.32-.92-5.384-2.044-1.613-1.715-1.908-4.907-1.848-6.239.015-.148.042-.371.015-33.173v-29.871c0-24.049-19.346-43.615-43.126-43.615-17.363 0-32.329 10.218-39.34 24.935v-24.075c2.87-.829 4.971-3.434 4.971-6.569 0-3.029-1.999-5.573-4.717-6.478v-4.555c0-1.166-.962-2.128-2.132-2.128-1.166 0-2.128.962-2.128 2.128v4.555c-2.737.905-4.717 3.449-4.717 6.478 0 2.945 1.878 5.429 4.479 6.406v139.165c0 5.751 4.676 10.423 10.427 10.423 2.427 0 4.645-.871 6.417-2.26v42.532c0 .254.061.488.148.712h-2.839c-5.043 0-9.139 4.096-9.139 9.139v6.239c0 1.17.962 2.132 2.132 2.132h28.66c1.17 0 2.132-.962 2.132-2.132v-60.133c0-3.059 2.692-5.664 5.872-5.664 3.161 0 5.827 2.59 5.827 5.664v60.178c0 1.17.958 2.128 2.128 2.128h28.66c1.17 0 2.132-.958 2.132-2.128v-6.243c0-5.043-4.096-9.139-9.139-9.139h-3.404c.076-.22.148-.458.148-.708v-67.955c.875 1.435 1.893 2.87 3.15 4.214 2.442 2.662 6.315 5.634 12.024 7.379l.163.091.28.042c2.397.697 5.119 1.155 8.197 1.302v64.54c0 1.17.958 2.128 2.128 2.128 1.17 0 2.128-.958 2.128-2.128v-64.748c4.585-1.064 8.034-5.16 8.034-10.071s-3.449-9.007-8.034-10.071v-43.584h11.684v7.129c0 6.035 4.91 10.945 10.945 10.945h41.911c1.17 0 2.132-.962 2.132-2.132v-39.458c-.035-1.164-.996-2.126-2.162-2.126zM113.722 177.061c-4.199 0-7.617-3.415-7.617-7.617v-11.297c2.294-.916 3.937-3.15 3.937-5.755 0-1.227-.371-2.381-.992-3.339 2.631-2.029 6.478-2.086 9.17-.163-.681 1.003-1.094 2.203-1.094 3.502 0 2.722 1.772 5.028 4.229 5.857v11.195c-.016 4.202-3.431 7.617-7.633 7.617zm-9.893-26.619c1.079 0 1.954.871 1.954 1.95s-.875 1.954-1.954 1.954-1.954-.875-1.954-1.954c0-1.064.875-1.95 1.954-1.95zm21.429 1.949c0 1.079-.871 1.954-1.954 1.954-1.079 0-1.95-.875-1.95-1.954s.871-1.95 1.95-1.95c1.068.001 1.954.871 1.954 1.95zm-1.939-6.209c-.515 0-1.003.072-1.477.189-2.203-2.082-5.073-3.252-8.121-3.252-3.089 0-5.989 1.185-8.208 3.328-.53-.163-1.094-.265-1.685-.265-3.415 0-6.213 2.779-6.213 6.209 0 2.722 1.776 5.028 4.229 5.857v11.195c0 6.554 5.327 11.877 11.877 11.877 6.554 0 11.877-5.323 11.877-11.877v-11.297c2.291-.916 3.919-3.15 3.919-5.755 0-3.414-2.779-6.209-6.198-6.209zM113.722 170.863c-1.079 0-1.95-.871-1.95-1.95 0-1.083.871-1.954 1.95-1.954s1.954.871 1.954 1.954c-.001 1.08-.89 1.95-1.954 1.95zm0-8.147c-3.415 0-6.209 2.779-6.209 6.213 0 3.415 2.779 6.209 6.209 6.209s6.213-2.779 6.213-6.209c-.001-3.434-2.795-6.213-6.213-6.213z" fill="#414042"/><path d="M82.309 176.675c0 2.279-3.43 2.279-3.43 0 0-2.276 3.43-2.276 3.43 0M82.309 134.855c0 2.275-3.43 2.275-3.43 0 0-2.295 3.43-2.295 3.43 0M148.049 134.855c0 2.275-3.419 2.275-3.419 0 0-2.295 3.419-2.295 3.419 0" fill="#010101"/><path fill="#E6E7E8" d="M90.854 127.976h45.001v4.596h-45.001z"/></svg>