<svg xmlns="http://www.w3.org/2000/svg" viewBox="0 0 300 300" enable-background="new 0 0 300 300"><g stroke="#414042" stroke-width="2" stroke-miterlimit="10"><path d="M116.122 63.039c-9.033 3.804-17.48 8.987-24.998 15.277-16.644 13.866-28.522 33.344-33.118 54.515-1.153 5.432-1.989 10.953-2.122 16.497 3.454.734 6.492 3.128 7.938 6.357 1.252 2.711 1.321 5.917.269 8.707-1.174 3.073-3.758 5.579-6.886 6.605 2.37 14.239 8.105 27.892 16.393 39.703 12.456 17.795 30.918 31.311 51.693 37.691 12.511 3.873 25.813 5.183 38.844 3.917 12.329-1.208 24.423-4.752 35.442-10.432 17.954-9.238 33.017-24.085 42.31-42.027-.474-.33-.925-.691-1.356-1.052-3.793-3.136-5.012-8.897-2.856-13.323 1.74-3.862 5.859-6.492 10.094-6.469.757-.012 1.515.147 2.269.078 1.966-7.961 3.131-16.136 3.162-24.333.101-13.144-2.428-26.296-7.487-38.437-4.053-9.834-9.744-18.98-16.722-26.999-14.962-17.274-36.087-29.198-58.703-32.699-1.029 3.625-4.168 6.492-7.782 7.429-2.902.734-6.096.35-8.66-1.22-2.688-1.57-4.596-4.313-5.238-7.351-11.145.666-22.199 3.219-32.486 7.566zm36.428-18.633c2.937-2.405 7.137-3.151 10.716-1.885 4.145 1.356 7.305 5.342 7.553 9.71 1.705.431 3.457.656 5.171 1.041 21.477 4.504 41.327 16.202 55.792 32.676 7.192 8.154 13.086 17.457 17.379 27.45 8.999 20.844 10.739 44.684 5.024 66.632-.066.33-.292.804.136 1.006 2.63 1.841 4.426 4.833 4.744 8.039.393 3.454-.939 7.068-3.524 9.418-2.495 2.393-6.108 3.411-9.496 2.914-3.648 6.807-7.894 13.311-12.918 19.194-11.788 13.959-27.371 24.718-44.637 30.736-23.848 8.38-50.812 7.576-74.081-2.324-19.931-8.368-37.049-23.218-48.193-41.735-6.585-10.906-11.169-23.047-13.256-35.613-2.688-.272-5.342-1.298-7.261-3.252-2.879-2.746-4.009-7.07-3.003-10.886 1.018-4.189 4.663-7.475 8.874-8.241.824-20.483 8.097-40.628 20.417-56.989 11.201-14.95 26.525-26.808 43.857-33.786 9.212-3.749 19.003-6.096 28.906-7.024 1.275-.191 2.596-.066 3.85-.405.414-2.62 1.917-5.005 3.95-6.676zM136.177 80.823c-10.56 2.63-20.529 7.588-28.996 14.419-13.699 10.976-23.397 26.863-26.738 44.105-2.836 14.046-1.492 28.895 3.746 42.229 3.85 9.779 9.747 18.778 17.266 26.128.679.272 1.286-.711 1.954-.902 3.555-1.966 8.198-1.76 11.574.509 2.607 1.714 4.449 4.573 4.9 7.666.373 1.989-.066 3.986-.552 5.906 10.805 5.556 22.908 8.707 35.092 8.582 12.184.136 24.313-2.992 35.118-8.571-.205-1.22-.679-2.382-.656-3.636-.214-3.532 1.379-7.125 4.168-9.325 2.122-1.729 4.877-2.622 7.608-2.451 2.396.012 4.619 1.049 6.55 2.382 2.382-2.087 4.414-4.561 6.414-7.024 7.735-9.721 12.985-21.408 15.13-33.647 2.203-12.444 1.22-25.429-2.844-37.399-3.839-11.346-10.467-21.735-19.084-30.045-7.735-7.452-17.049-13.268-27.178-16.835-13.855-4.936-29.189-5.658-43.472-2.091zm-13.427.023c16.43-7.16 35.298-8.47 52.587-3.795 11.109 3.003 21.544 8.458 30.352 15.855 7.779 6.516 14.294 14.52 19.093 23.463 6.267 11.641 9.53 24.874 9.441 38.087-.035 17.624-6.154 35.162-17.118 48.97-2.145 2.789-4.608 5.319-7.001 7.871.769 1.784 1.39 3.691 1.275 5.669-.043 4.324-2.844 8.455-6.854 10.094-4.165 1.795-9.438.789-12.488-2.599-10.432 5.466-22.03 8.741-33.818 9.227-14.228.665-28.681-2.463-41.215-9.259-1.512 1.457-3.318 2.662-5.385 3.148-3.66.971-7.782-.043-10.525-2.662-2.336-2.148-3.691-5.33-3.555-8.516-.023-1.795.587-3.512 1.298-5.125-1.717-1.919-3.613-3.694-5.241-5.703-8.082-9.53-13.898-20.992-16.745-33.161-3.691-15.583-2.573-32.274 3.24-47.201 3.885-10.013 9.814-19.24 17.344-26.906 7.182-7.386 15.842-13.347 25.315-17.457zM124.094 111.672c.113.642.575 1.174.801 1.784 1.344 3.252 1.119 7.16-.731 10.175-1.457 2.46-3.908 4.313-6.674 5.047-2.7.743-5.634.405-8.152-.815-4.798 8.198-7.273 17.74-7.036 27.236.147 11.438 4.313 22.764 11.516 31.65 6.64 8.279 15.855 14.453 26.05 17.39 11.291 3.321 23.712 2.642 34.575-1.908 9.022-3.726 16.928-10.062 22.561-18.02 6.741-9.441 10.184-21.194 9.542-32.791-4.246.405-8.527-2.032-10.536-5.747-1.659-3.015-1.83-6.822-.428-9.984 1.026-2.382 2.934-4.313 5.226-5.51-2.518-5.047-5.984-9.608-10.016-13.537-7.744-7.579-17.908-12.638-28.635-14.205-13.221-2.025-27.246 1.308-38.063 9.235zm15.199-12.026c12.771-3.581 26.805-2.474 38.842 3.116 11.597 5.339 21.298 14.734 26.921 26.207 2.709-.066 5.498.621 7.654 2.315 3.084 2.292 4.81 6.244 4.405 10.059-.327 3.885-2.856 7.351-6.302 9.103.746 11.247-1.974 22.694-7.756 32.372-5.828 9.834-14.69 17.864-25.102 22.585-11.146 5.137-23.984 6.423-35.931 3.726-10.273-2.292-19.85-7.556-27.314-14.974-8.458-8.334-14.181-19.399-16.011-31.132-2.055-12.69.338-26.094 6.831-37.205.205-.327.497-.766.092-1.084-3.376-4.131-3.084-10.646.575-14.508 2.654-2.96 6.943-4.293 10.817-3.388 1.434.283 2.688 1.049 3.986 1.648 5.534-3.963 11.711-7.044 18.293-8.84z" fill="#414042"/><path d="M149.986 123.277c6.177-.867 12.612.093 18.214 2.882 8.626 4.177 15.052 12.577 16.792 22.018 1.275 6.672.327 13.762-2.758 19.815-4.142 8.4-12.317 14.679-21.498 16.508-6.729 1.379-13.913.486-20.064-2.573-8.707-4.258-15.176-12.794-16.803-22.359-1.263-6.912-.101-14.239 3.275-20.402 4.573-8.491 13.291-14.568 22.842-15.889z" fill="#58595B"/><circle cx="114.504" cy="117.863" r="11.379" fill="#6D6E71"/><circle cx="53.712" cy="160.371" r="11.379" fill="#6D6E71"/><circle cx="108.786" cy="216.68" r="11.379" fill="#939598"/><circle cx="159.613" cy="53.292" r="11.379" fill="#808285"/><circle cx="200.311" cy="216.743" r="11.379" fill="#6D6E71"/><circle cx="247.752" cy="190.393" r="11.379" fill="#6D6E71"/><circle cx="205.794" cy="140.466" r="11.379" fill="#414042"/></g></svg>