<svg xmlns="http://www.w3.org/2000/svg" viewBox="0 0 300 300" enable-background="new 0 0 300 300"><path d="M159.79 232.1c-44.236 0-79.842-37.11-79.842-82.455 0-43.102 32.232-78.337 73.085-82.085-14.247 14.622-22.488 34.101-22.488 54.715 0 46.11 40.858 83.2 89.951 80.956-14.99 17.995-37.083 28.869-60.706 28.869z" fill="#D1D3D4"/><path d="M164.673 215.218c-15.736 1.874-30.359-3.378-41.602-15.362-1.499-1.504-3.748-1.504-5.247 0-1.504 1.499-1.504 3.748 0 5.247 11.244 11.619 25.861 18 41.228 18 2.244 0 4.488 0 6.751-.37 1.874-.375 3.378-2.249 3.378-4.123-.76-2.283-2.634-3.762-4.508-3.392zM159.79 239.464c-48.085 0-87.205-40.293-87.205-89.819 0-22.557 8.206-44.12 23.107-60.719 14.825-16.514 34.95-26.706 56.669-28.698.226-.021.452-.031.675-.031 2.817 0 5.414 1.616 6.644 4.194 1.327 2.784.779 6.099-1.373 8.308-13.154 13.5-20.398 31.107-20.398 49.576 0 40.632 35.153 73.69 78.361 73.69 1.289 0 2.598-.031 3.89-.089l.338-.008c2.786 0 5.345 1.576 6.593 4.088 1.298 2.614.93 5.747-.938 7.989-16.687 20.03-40.876 31.519-66.363 31.519z" fill="#414042"/><path d="M159.79 232.1c-44.236 0-79.842-37.11-79.842-82.455 0-43.102 32.232-78.337 73.085-82.085-14.247 14.622-22.488 34.101-22.488 54.715 0 46.11 40.858 83.2 89.951 80.956-14.991 17.995-37.084 28.869-60.706 28.869z" fill="#D1D3D4"/><path d="M164.673 215.218c-15.736 1.874-30.359-3.378-41.602-15.362-1.499-1.504-3.748-1.504-5.247 0-1.504 1.499-1.504 3.748 0 5.247 11.244 11.619 25.861 18 41.228 18 2.244 0 4.488 0 6.751-.37 1.874-.375 3.378-2.249 3.378-4.123-.76-2.283-2.634-3.762-4.508-3.392z" fill="#414042"/></svg>