<?xml version="1.0" encoding="utf-8"?>
<!-- Generator: Adobe Illustrator 19.1.0, SVG Export Plug-In . SVG Version: 6.00 Build 0)  -->
<svg version="1.1" id="Layer_1" xmlns="http://www.w3.org/2000/svg" xmlns:xlink="http://www.w3.org/1999/xlink" x="0px" y="0px"
	 viewBox="-429 231 100 100" style="enable-background:new -429 231 100 100;" xml:space="preserve">
<g fill="#ffffff">
	<path d="M-345.8,317c0.1,0.7,0,1.4,0,2.2c1.1,0,2.7,0,3.9,0c0-1,0.1-1.9,0.1-3c3.1,0.3,5.8,0.4,8.7,1.6c0,0.2,0,0.3,0.1,0.5
		c-0.7,0.2-1.4,0.6-2.2,0.7c-4.4,0.5-8.9,1.2-13.3,1.4c-11.5,0.4-23.1,0.8-34.6,0.7c-11.7,0-23.4-0.2-35-1.7
		c-1.3-0.2-2.6-0.5-3.8-0.7c-0.3-0.1-0.6-0.3-1.1-0.5c1.4-1.1,3-1.1,4.4-1.3c2.6-0.4,5.2-0.6,7.9-0.8c0.8-0.1,1.1-0.4,1.4-1.1
		c2.5-5.9,3.8-12.1,4.1-18.4c0.2-5.7-0.1-11.3-1.2-16.8c0-0.2-0.1-0.5-0.1-0.6c-1.4,0.5-2.7,1.2-4.1,1.4c-6.6,1.2-12-5.2-9.8-11.5
		c0.2-0.7,0.2-1.1-0.3-1.7c-2.8-3.6-2.4-8.7,0.9-11.8c0.5-0.5,0.7-0.9,0.7-1.7c-0.1-5.7,4.1-9.7,9.8-9.2c0.4,0,1-0.2,1.3-0.6
		c3.6-4.1,9.1-4.5,13.2-0.8c0.3,0.3,1,0.4,1.3,0.2c6.7-2.7,13.2,2.1,12.5,9.4c0,0.4,0.2,1,0.6,1.3c5,3.9,5,10.6-0.1,14.5
		c-0.5,0.4-0.8,0.6-0.7,1.3c0.5,3.6-0.8,6.6-3.7,8.7c-3,2-6.2,2.1-9.3,0.4c-0.2-0.1-0.4-0.2-0.9-0.4c-0.4,2.3-0.8,4.5-1.1,6.7
		c-1.2,9.8-0.2,19.4,3,28.8c0.3,1,0.8,1.2,1.7,1.2c1.4-0.1,2.2,0,3.8,0c0,1.4,0,2.9,0,4.4c1.2,0,3.2,0,4.4,0c0-1.1-0.1-2.3-0.1-2.3
		s0.3,0,0.1,0c0.3,0.1,0.1-0.1,0.1-0.1s0.1-0.3,0.2,0.1c1.1,0,2.9,0.1,4,0.1c0-0.6,0.1-1.5,0.1-2.3c9.9,0.2,18.9,0.4,28.8,0.6
		c0.1,0.6,0,1.5,0.1,1.9c1,0,3.2,0,3.9,0c0.1-0.4,0-1.8,0-1.8s0.1,0,0.4,0"/>
	<path d="M-340.5,307.7c-0.7,0.1-1.3,0-1.9,0.1c0,2.8,0,5.6,0,8.3c0,0.5,0,1,0,1.5c0,1.6,0.1,1.2-1.5,1.3c-1,0-1.4,0.1-1.4-1
		c0.1-3.3,0-6.6,0-10.1c-0.5,0-0.9,0-1.5,0c0,2.5,0,5,0,7.5c0,0.4-0.1,1.3-0.3,1.3c-0.7,0.1-1.5,0.1-2.3,0c-0.1,0-0.2-0.7-0.2-1.1
		c0-2.6,0-5.1,0-7.7c-10.1,0-20.1,0-30.3,0c0,3,0,5.9,0,8.8c-0.3,0.1-0.4,0.1-0.5,0.2c-2.4,0.2-2.4,0.2-2.4-2.1c0-2.3,0-4.5,0-6.8
		c-0.5,0-0.8,0-1.3,0c0,2.4,0,4.8,0,7.2c0,1,0,2,0,2.9c0.1,1.3-0.6,1.3-1.6,1.3c-1,0-1.4-0.2-1.3-1.3c0.1-3,0-5.9,0-8.9
		c0-0.4,0-0.8-0.1-1.2c-0.5,0-0.6,0-1.3,0c0-0.9,0.1-1.4,0.2-2c1.5-2.2,3.2-4.3,3.2-4.3s2.4,0,4.4,0c12.1,0,24.2,0,36.3,0
		c0.4,0,1.1,0,1.1,0s0.5,0.7,0.7,1.2c0.5,1.3,1.2,2.5,1.7,3.7C-340.5,306.6-340.5,307.2-340.5,307.7z"/>
	<path d="M-343,294.6c0,0.9,0,1.2,0,2.1c-13.9,0-27.9,0-41.9,0c0-0.9,0-1.2,0-2.1C-371,294.6-357,294.6-343,294.6z"/>
	<path d="M-343,298c0,0.9,0,1.3,0,2.3c-0.4,0-0.9,0.1-1.3,0.1c-13.1,0-26.2-0.1-39.3-0.1c-0.6,0-1.3,0-1.3,0s0-0.4,0-1
		c0-0.6,0-1.5,0-1.5s0.8,0,1.3,0c13.1,0,26.2,0,39.3,0C-343.9,298-343.5,298-343,298z"/>
	<path d="M-384.8,290.8c13.9,0,27.8,0,41.7,0c0,0.9,0,1.5,0,2.5c-0.5,0-0.9,0-1.4,0c-12.8,0-25.7,0-38.5,0c-1.1,0-1.9,0-1.9,0
		S-384.8,292.3-384.8,290.8z"/>
</g>
</svg>
