<?xml version="1.0" encoding="utf-8"?>
<!-- Generator: Adobe Illustrator 19.1.0, SVG Export Plug-In . SVG Version: 6.00 Build 0)  -->
<svg version="1.1" id="Layer_1" xmlns="http://www.w3.org/2000/svg" xmlns:xlink="http://www.w3.org/1999/xlink" x="0px" y="0px"
	 viewBox="-429 231 100 100" style="enable-background:new -429 231 100 100;" xml:space="preserve">
<style type="text/css">
	.st0{fill:#FFFFFF;}
</style>
<g>
	<g>
		<path class="st0" d="M-334.3,248.4c-2.4,0-4.4,1.9-4.4,4.4v3.9L-346,236c-0.8-2.4-3.4-3.6-5.8-2.8c-2.4,0.8-3.6,3.5-2.8,5.8
			l7.8,22.1l-16.9-26c-1.5-2.3-4.6-3-6.9-1.5c-2.3,1.5-3,4.6-1.5,6.9l13.4,20.7l15.6,8.7c0.8,0.5,1.1,1.5,0.7,2.4
			c-0.3,0.6-0.9,0.9-1.5,0.9c-0.3,0-0.6-0.1-0.8-0.2l-8.8-4.9c-2.9-1.7-9.1-4.4-14.8-3.5c-4.8,0.8-9.1,3.2-12.1,7
			c-1.7,2.1-1.4,5.2,0.7,7c2.1,1.7,5.2,1.4,7-0.7c1.5-1.8,3.6-3.1,6-3.5c2.6-0.4,5.1,0.2,7.2,1.7c2.1,1.5,3.5,3.8,3.9,6.3
			c0.8,5.3-2.8,10.2-8,11.1c-5.2,0.8-10.2-2.8-11.1-8c-0.4-2.7-3-4.5-5.7-4.1c-2.7,0.4-4.2,3.1-4.1,5.7c-0.1,5.1,4.2,10.1,9,13.9
			l19.4,14.3v14h26.1v-76.6C-329.9,250.4-331.9,248.4-334.3,248.4z"/>
	</g>
	<polygon class="st0" points="-406.5,275.6 -414.1,278.7 -414.1,281.2 -406.5,284.1 	"/>
	<polygon class="st0" points="-406.5,273.4 -406.5,266 -414.1,272.6 -414.1,276.5 	"/>
	<polygon class="st0" points="-406.5,286.3 -414.1,283.3 -414.1,287.1 -406.5,293.6 	"/>
	<polygon class="st0" points="-417.8,280.9 -428.7,280.9 -428.7,279.5 -417.8,279.5 	"/>
	<polygon class="st0" points="-412.5,265.5 -418.4,258.7 -417.3,257.7 -411.4,264.6 	"/>
	<polygon class="st0" points="-399.3,265.5 -400.4,264.6 -394.5,257.7 -393.4,258.7 	"/>
	<polygon class="st0" points="-394.5,300.8 -400.4,293.9 -399.3,293 -393.4,299.9 	"/>
	<polygon class="st0" points="-417.3,300.8 -418.4,299.9 -413,293.2 -411.9,294.1 	"/>
	<polygon class="st0" points="-417.2,271.5 -426.4,267.8 -425.8,266.5 -416.7,270.2 	"/>
	<polygon class="st0" points="-425.2,293.2 -425.8,291.9 -417.3,287.7 -416.7,289 	"/>
	<polygon class="st0" points="-405.5,261 -407,261 -407,252.4 -405.5,252.4 	"/>
	<polygon class="st0" points="-405.5,305.5 -407,305.5 -407,297.6 -405.5,297.6 	"/>
</g>
<g>
	<g>
		<polygon class="st0" points="-404.6,275.4 -404.6,284.1 -394.1,279.8 		"/>
		<path class="st0" d="M-382.3,278.1l-9.4,0l-13-12v7.1l13,5.4v2.3l-13,5.4v7.3l13-12.1h9.3c1,0,1.7-0.8,1.7-1.7
			C-380.5,278.9-381.3,278.1-382.3,278.1z"/>
	</g>
</g>
</svg>
