<svg xmlns="http://www.w3.org/2000/svg" xmlns:xlink="http://www.w3.org/1999/xlink" version="1.1" x="0px" y="0px" viewBox="0 0 612 563.9" enable-background="new 0 0 612 563.9" xml:space="preserve"><g fill="#ffffff"><path d="M212.9,432.1c-12.2-7.2-23.7-16.1-34.2-26.6c-10.5-10.5-19.4-22-26.6-34.2c-39.2-66.3-30.4-153.1,26.6-210.1   C286.9,53,425.2,13.9,496.5,68.6c-22.1,4.9-60.8,28.9-107.6,66c12.2,7.2,23.7,16.1,34.2,26.6c10.5,10.5,19.4,22,26.6,34.2   c39.2,66.3,30.4,153.1-26.6,210.1c-108.2,108.2-246.5,147.3-317.7,92.6C127.5,493.1,166.2,469.2,212.9,432.1z M345.9,328.5   c25.3-25.3,25.3-66.2,0-91.5s-66.2-25.3-91.5,0s-25.3,66.2,0,91.5S320.6,353.8,345.9,328.5z"></path></g></svg>