<svg xmlns="http://www.w3.org/2000/svg" xmlns:xlink="http://www.w3.org/1999/xlink" version="1.1" viewBox="0 0 76.037 69.262" overflow="visible" enable-background="new 0 0 76.037 69.262" xml:space="preserve" x="0px" y="0px"><g fill="#ffffff"><polygon points="28.742,69.262 21.438,37.328 37.531,37.328  "></polygon><polygon points="45.17,69.259 37.865,37.328 53.959,37.328  "></polygon><polygon points="14.958,61.421 9.448,37.328 21.589,37.328  "></polygon><polygon points="59.824,61.421 54.313,37.328 66.453,37.328  "></polygon><polygon points="4.166,55.54 0,37.328 9.178,37.328  "></polygon><polygon points="71.023,55.54 66.857,37.328 76.037,37.328  "></polygon></g><g fill="#ffffff"><g><path d="M18.826,1.256C11.689-3.604,3.189,6.738,3.189,13.5c0,6.761,7.002,12.243,15.637,12.243    c8.636,0,15.638-5.481,15.638-12.243C34.464,6.738,28.209,7.645,18.826,1.256z M22.77,19.994c0,0-1.298-2.696-1.298-6.022    c0-3.325,1.298-6.021,1.298-6.021s1.298,2.696,1.298,6.021C24.068,17.298,22.77,19.994,22.77,19.994z"></path></g></g><g fill="#ffffff"><g><path d="M55.91,1.706c-9.385,6.388-15.639,5.482-15.639,12.244c0,6.761,7.002,12.244,15.639,12.244    c8.633,0,15.635-5.482,15.635-12.244C71.545,7.188,63.047-3.154,55.91,1.706z M49.665,19.874c0,0-1.298-2.695-1.298-6.021    c0-3.325,1.298-6.021,1.298-6.021s1.299,2.696,1.299,6.021C50.964,17.179,49.665,19.874,49.665,19.874z"></path></g></g></svg>