<svg xmlns="http://www.w3.org/2000/svg" xmlns:xlink="http://www.w3.org/1999/xlink" version="1.1" x="0px" y="0px" viewBox="0 0 64 64" enable-background="new 0 0 64 64" xml:space="preserve"><g><g><path fill="#000000" d="M38.504,21.337c-4.76,0-8.921-2.971-10.357-7.393c-0.138-0.423-0.249-0.855-0.331-1.283    c-0.99-5.242,2.206-10.399,7.432-11.998c1.062-0.325,2.159-0.49,3.262-0.49c4.76,0,8.922,2.971,10.357,7.392    c0.862,2.654,0.625,5.484-0.667,7.968c-1.334,2.564-3.619,4.451-6.435,5.313C40.704,21.172,39.606,21.337,38.504,21.337z     M38.51,2.174c-0.904,0-1.805,0.135-2.676,0.402c-4.251,1.301-6.853,5.476-6.053,9.712c0.066,0.344,0.156,0.694,0.268,1.038    c1.167,3.595,4.565,6.01,8.455,6.01c0.904,0,1.805-0.135,2.676-0.402c2.299-0.704,4.162-2.24,5.246-4.324    c1.043-2.004,1.234-4.287,0.539-6.427C45.798,4.589,42.399,2.174,38.51,2.174z"></path><polygon fill="#000000" points="12.581,52.945 4.606,47.224 28.041,12.374 29.7,13.49 7.348,46.729 12.282,50.27 39.496,19.604     40.992,20.932   "></polygon><rect x="9.412" y="42.218" transform="matrix(0.7912 0.6116 -0.6116 0.7912 29.3328 0.5268)" fill="#000000" width="8.966" height="2"></rect><rect x="28.541" y="10.038" transform="matrix(0.8233 0.5677 -0.5677 0.8233 13.0356 -19.7914)" fill="#000000" width="19.52" height="2"></rect><path fill="#000000" d="M9.192,63.829c-0.743,0-1.507-0.074-2.296-0.235c-2.125-0.433-3.467-1.449-3.99-3.02    c-1.419-4.261,4.276-10.84,4.93-11.576l1.495,1.328c-2.173,2.449-5.325,7.227-4.527,9.616c0.104,0.314,0.423,1.271,2.492,1.692    c5.59,1.137,9.919-2.998,13.74-6.647c1.511-1.442,2.938-2.806,4.295-3.653c4.998-3.12,10.479-2.472,12.69-0.084l-1.467,1.359    c-1.421-1.533-5.858-2.268-10.164,0.421c-1.184,0.739-2.539,2.033-3.974,3.404C18.921,59.772,14.673,63.829,9.192,63.829z"></path></g><g><path fill="#000000" d="M42.59,61.48c-2.851,0-5.084-1.484-5.084-3.379s2.233-3.379,5.084-3.379s5.084,1.484,5.084,3.379    S45.44,61.48,42.59,61.48z M42.59,56.723c-1.854,0-3.084,0.83-3.084,1.379s1.23,1.379,3.084,1.379s3.084-0.83,3.084-1.379    S44.443,56.723,42.59,56.723z"></path><path fill="#000000" d="M56.24,59.102c-2.851,0-5.084-1.484-5.084-3.379c0-1.894,2.233-3.377,5.084-3.377s5.084,1.483,5.084,3.377    C61.324,57.617,59.091,59.102,56.24,59.102z M56.24,54.346c-1.854,0-3.084,0.829-3.084,1.377c0,0.549,1.23,1.379,3.084,1.379    s3.084-0.83,3.084-1.379C59.324,55.175,58.094,54.346,56.24,54.346z"></path><polygon fill="#000000" points="47.627,57.758 45.627,57.758 45.627,42.879 61.324,40.271 61.324,55.723 59.324,55.723     59.324,42.63 47.627,44.574   "></polygon><rect x="52.476" y="39.695" transform="matrix(0.1641 0.9864 -0.9864 0.1641 90.7063 -13.7659)" fill="#000000" width="2" height="13.884"></rect></g></g></svg>