<svg xmlns="http://www.w3.org/2000/svg" xmlns:xlink="http://www.w3.org/1999/xlink" version="1.1" x="0px" y="0px" viewBox="0 0 100 100" style="enable-background:new 0 0 100 100;" xml:space="preserve"><path d="M12.5,42.5C8.364,42.5,5,45.864,5,50s3.364,7.5,7.5,7.5S20,54.136,20,50S16.636,42.5,12.5,42.5z M12.5,52.5  c-1.379,0-2.5-1.121-2.5-2.5s1.121-2.5,2.5-2.5S15,48.621,15,50S13.879,52.5,12.5,52.5z"></path><path d="M75.729,75.729C75.27,76.2,75,76.84,75,77.5s0.27,1.3,0.729,1.77C76.2,79.729,76.84,80,77.5,80s1.3-0.271,1.77-0.73  C79.729,78.8,80,78.16,80,77.5s-0.271-1.3-0.73-1.771C78.34,74.8,76.66,74.8,75.729,75.729z"></path><path d="M72.6,69.069c-0.97-0.979-2.56-0.979-3.54-0.01c-0.97,0.98-0.97,2.561,0,3.54c0.49,0.49,1.13,0.73,1.771,0.73  c0.64,0,1.279-0.24,1.77-0.73c0.98-0.979,0.98-2.56,0-3.54V69.069z"></path><path d="M62.399,62.399c-0.979,0.971-0.979,2.561,0,3.53c0.49,0.49,1.131,0.74,1.771,0.74s1.28-0.25,1.77-0.74  c0.971-0.97,0.971-2.56,0-3.53C64.96,61.42,63.37,61.42,62.399,62.399z"></path><path d="M55.729,55.729C55.27,56.2,55,56.84,55,57.5s0.27,1.3,0.729,1.77C56.2,59.729,56.84,60,57.5,60s1.3-0.271,1.77-0.73  C59.729,58.8,60,58.16,60,57.5s-0.271-1.3-0.73-1.771C58.34,54.8,56.67,54.8,55.729,55.729z"></path><polygon points="86.25,12.715 83.018,9.482 79.482,13.018 86.25,19.785 95.518,10.518 91.982,6.982 "></polygon><polygon points="91.035,80.43 87.5,83.965 83.965,80.43 80.43,83.965 83.965,87.5 80.43,91.035 83.965,94.57 87.5,91.035   91.035,94.57 94.57,91.035 91.035,87.5 94.57,83.965 "></polygon><polygon points="77.5,18.965 48.965,47.5 25,47.5 25,52.5 51.035,52.5 81.035,22.5 "></polygon></svg>