<svg xmlns="http://www.w3.org/2000/svg" xmlns:xlink="http://www.w3.org/1999/xlink" version="1.1" x="0px" y="0px" viewBox="0 0 57.662 100" enable-background="new 0 0 57.662 100" xml:space="preserve"><path d="M44.494,95H13.169C6.44,95,2.883,91.443,2.883,84.714V15.286C2.883,8.557,6.44,5,13.169,5h31.325  C51.223,5,54.78,8.557,54.78,15.286v69.429C54.779,91.443,51.223,95,44.494,95z M13.169,6.87c-5.662,0-8.416,2.753-8.416,8.416  v69.429c0,5.662,2.753,8.416,8.416,8.416h31.325c5.662,0,8.416-2.753,8.416-8.416V15.286c0-5.662-2.753-8.416-8.416-8.416H13.169z"></path><circle cx="28.881" cy="74.429" r="2.104"></circle><ellipse cx="29.349" cy="36.792" rx="10.052" ry="12.156"></ellipse><path d="M33.089,50.584h-8.182c-2.947,0-5.619,1.145-7.622,3.002C17.15,53.65,10.401,61.7,10.401,61.7v5.949H44.31v-5.844  C44.31,55.608,39.286,50.584,33.089,50.584z"></path><circle cx="28.881" cy="74.429" r="2.104"></circle><path d="M28.881,70.922c-1.933,0-3.506,1.573-3.506,3.506s1.573,3.506,3.506,3.506s3.506-1.573,3.506-3.506  S30.815,70.922,28.881,70.922z M28.881,77.468c-1.676,0-3.039-1.363-3.039-3.039s1.363-3.039,3.039-3.039s3.039,1.363,3.039,3.039  C31.92,76.104,30.557,77.468,28.881,77.468z"></path><path d="M43.792,12.948H13.87c-0.832,0-1.543,0.009-2.179,0.047c-3.413,0.196-4.096,1.131-4.096,5.33v55.636  c0,4.198,0.683,5.133,4.096,5.33c0.636,0.037,1.346,0.047,2.179,0.047h29.922c2.665,0,4.236-0.103,5.134-0.823  c0.907-0.72,1.141-2.067,1.141-4.554V18.325C50.067,13.35,49.122,12.948,43.792,12.948z M28.881,78.403  c-2.191,0-3.974-1.783-3.974-3.974s1.783-3.974,3.974-3.974s3.974,1.783,3.974,3.974S31.073,78.403,28.881,78.403z M49.132,69.519  H8.531V19.026h40.601C49.132,19.026,49.132,69.519,49.132,69.519z"></path></svg>