<svg xmlns="http://www.w3.org/2000/svg" xmlns:xlink="http://www.w3.org/1999/xlink" version="1.1" x="0px" y="0px" viewBox="0 0 100 100" enable-background="new 0 0 100 100" xml:space="preserve"><path fill="#000000" d="M75.95,99.67H25.451c-1.875,0-3.479-1.348-3.801-3.195L8.14,19.19c-0.198-1.122,0.113-2.275,0.846-3.147  c0.733-0.873,1.815-1.377,2.955-1.377h77.518c1.14,0,2.222,0.504,2.955,1.377c0.733,0.873,1.044,2.025,0.846,3.147L79.751,96.474  C79.429,98.322,77.825,99.67,75.95,99.67z M28.694,91.95h44.012l12.16-69.565H16.534L28.694,91.95z"></path><g><path fill="#000000" d="M38.677,82.614c-1.949,0-3.622-1.469-3.833-3.449l-4.908-45.827c-0.228-2.119,1.306-4.022,3.426-4.249   c2.152-0.225,4.022,1.31,4.248,3.427l4.908,45.827c0.228,2.119-1.306,4.022-3.426,4.249C38.952,82.607,38.813,82.614,38.677,82.614   z"></path><path fill="#000000" d="M62.725,82.614c-0.136,0-0.275-0.007-0.415-0.022c-2.12-0.227-3.654-2.13-3.426-4.249l4.908-45.827   c0.226-2.118,2.094-3.664,4.248-3.427c2.12,0.227,3.654,2.13,3.426,4.249l-4.908,45.827C66.348,81.145,64.674,82.614,62.725,82.614   z"></path><path fill="#000000" d="M50.584,82.468c-2.132,0-3.86-1.728-3.86-3.86V33.073c0-2.132,1.728-3.86,3.86-3.86   c2.132,0,3.86,1.728,3.86,3.86v45.535C54.444,80.739,52.716,82.468,50.584,82.468z"></path></g><path fill="#000000" d="M90.307,4.55H76.429c0.041-0.225,0.07-0.453,0.07-0.69c0-2.132-1.728-3.86-3.86-3.86h-44.11  c-2.132,0-3.86,1.728-3.86,3.86c0,0.236,0.029,0.465,0.07,0.69H10.86C8.728,4.55,7,6.278,7,8.409s1.728,3.86,3.86,3.86h79.447  c2.132,0,3.86-1.728,3.86-3.86S92.439,4.55,90.307,4.55z"></path></svg>