<?xml version="1.0" encoding="utf-8"?><!DOCTYPE svg PUBLIC "-//W3C//DTD SVG 1.1//EN" "http://www.w3.org/Graphics/SVG/1.1/DTD/svg11.dtd"><svg version="1.1" xmlns="http://www.w3.org/2000/svg" xmlns:xlink="http://www.w3.org/1999/xlink" x="0px" y="0px" viewBox="0 0 100 95.174" enable-background="new 0 0 100 95.174" xml:space="preserve"><path fill="#010101" d="M80.173,18.2c-0.029,0.03-0.052,0.101-0.1,0.101c-0.149,0.02-0.289,0.07-0.435,0.101
	c-0.099,0.023-0.18,0.053-0.269,0.101c-0.16,0.102-0.383,0.115-0.537,0.234c-0.189,0.143-0.432,0.188-0.602,0.368
	c-0.13,0.14-0.319,0.16-0.47,0.268c-0.112,0.071-0.193,0.197-0.302,0.268c-0.139,0.099-0.286,0.179-0.401,0.302
	c-0.058,0.078-0.09,0.173-0.166,0.234c-0.16,0.14-0.331,0.273-0.47,0.436c-0.01-0.01-0.024-0.017-0.034-0.033
	c0,0.051,0.01,0.116,0,0.167c-0.129,0.187-0.31,0.346-0.436,0.536c-0.074,0.234-0.303,0.382-0.401,0.603
	c-0.023,0.235-0.192,0.403-0.301,0.603c-0.099,0.15-0.109,0.35-0.201,0.502c-0.119,0.214-0.231,0.402-0.302,0.636
	c-0.034,0.197-0.131,0.369-0.135,0.57c-0.029,0.227-0.106,0.541,0.101,0.703c0.075-0.119,0.194-0.263,0.235-0.402
	c0.02-0.14,0.025-0.27,0.066-0.402c0.034-0.112-0.005-0.257,0.101-0.335c0.038-0.17,0.083-0.333,0.135-0.502
	c0.04-0.139,0.071-0.287,0.167-0.402c0.163-0.214,0.201-0.505,0.335-0.736c0.194-0.204,0.251-0.487,0.469-0.67
	c0.183-0.194,0.274-0.483,0.469-0.67c0.163-0.16,0.272-0.35,0.436-0.502c0.269-0.16,0.388-0.464,0.67-0.603
	c0.217-0.102,0.372-0.317,0.603-0.401c0.197-0.082,0.328-0.268,0.535-0.335c0.174-0.061,0.337-0.187,0.504-0.268
	c0.037,0.014,0.062,0.017,0.101,0.034c-0.038,0.12-0.154,0.217-0.235,0.301c-0.178,0.157-0.315,0.326-0.47,0.503
	c-0.221,0.241-0.335,0.545-0.534,0.804c-0.31,0.371-0.628,0.784-0.805,1.239c-0.193,0.476-0.226,0.997-0.201,1.507
	c0.021,0.234,0.057,0.495,0.268,0.636c-0.091,0.153-0.101,0.329-0.101,0.503c0.024,0.146,0.063,0.29,0.101,0.436
	c0.085,0.143,0.191,0.331,0.369,0.368c-0.01-0.156-0.064-0.31-0.033-0.469c0.051-0.129,0.125-0.25,0.234-0.335
	c0.152-0.125,0.352-0.137,0.536-0.168c0.102-0.02,0.206,0.063,0.267,0.134c0.123,0.129,0.039,0.368,0.201,0.469
	c0.055-0.231-0.074-0.48-0.201-0.67c0.164-0.058,0.34-0.062,0.504-0.134c0.285-0.092,0.534-0.272,0.803-0.402
	c-0.023,0.156-0.112,0.29-0.167,0.436c-0.082,0.299-0.187,0.602-0.269,0.904c-0.044,0.149-0.082,0.3-0.166,0.436
	c0.02,0.14-0.038,0.267-0.067,0.402c-0.037,0.183-0.127,0.355-0.168,0.536c-0.021,0.099,0.065,0.173,0.135,0.234
	c-0.29,0.068-0.502,0.321-0.638,0.569c-0.184,0.306-0.312,0.656-0.535,0.938c-0.059,0.075-0.12,0.149-0.167,0.234
	c-0.137,0.377-0.5,0.571-0.704,0.904c-0.116,0.241-0.423,0.292-0.602,0.469c-0.178,0.177-0.44,0.166-0.638,0.301
	c-0.245,0.154-0.539,0.143-0.803,0.235c-0.086,0-0.181-0.051-0.269-0.034c-0.065,0.007-0.123,0.06-0.168,0.1
	c0.081-0.027,0.18-0.033,0.269-0.033c-0.045,0.125-0.141,0.226-0.134,0.368c0.047-0.071,0.064-0.201,0.167-0.201
	c0.288,0.014,0.542-0.109,0.804-0.201c0.088-0.03,0.179-0.003,0.268-0.034c0.215-0.095,0.409-0.264,0.637-0.334
	c0.181-0.085,0.329-0.26,0.469-0.402c0.064-0.075,0.173-0.09,0.234-0.167c0.177-0.2,0.3-0.442,0.437-0.67
	c0.08-0.136,0.246-0.209,0.334-0.335c0.139-0.163,0.196-0.349,0.301-0.536c0.164-0.278,0.289-0.592,0.503-0.837
	c0.092-0.105,0.253-0.129,0.369-0.201c0.064-0.041,0.125-0.077,0.2-0.101c0.062,0.133,0.098,0.293,0.033,0.436
	c-0.048,0.115-0.09,0.243-0.101,0.368c0.126-0.208,0.266-0.418,0.269-0.669c-0.011-0.123-0.077-0.25-0.101-0.369
	c0.037-0.242,0.141-0.462,0.167-0.703c0.093-0.503,0.116-1.015,0.269-1.507c0.108-0.35,0.226-0.702,0.368-1.038
	c0.2-0.251,0.434-0.515,0.569-0.804c0.214,0.061,0.399,0.156,0.569,0.301c0.188,0.116,0.396,0.233,0.57,0.369
	c0.387,0.251,0.757,0.541,1.205,0.67c0.248,0.088,0.545,0.145,0.803,0.067c0.113-0.02,0.224,0.004,0.336-0.034
	c0.014-0.061,0.03-0.136,0-0.201c-0.062-0.16-0.137-0.31-0.201-0.469c-0.054-0.123-0.056-0.276-0.101-0.402
	c-0.017-0.071-0.04-0.126-0.034-0.201c0.035-0.074,0.094-0.044,0.135,0c0.228,0.207,0.499,0.383,0.771,0.536
	c0.105,0.055,0.104,0.203,0.134,0.302c0.088,0.051,0.157,0.136,0.233,0.201c0.272,0.214,0.585,0.375,0.939,0.402
	c0.128,0.01,0.205-0.101,0.334-0.101c0.17-0.007,0.329-0.017,0.503-0.034c0.197,0.02,0.402,0.091,0.604,0.034
	c0.148-0.054,0.315,0,0.468,0c0.225,0,0.445,0.017,0.67,0c0.231,0.184,0.506,0.31,0.77,0.436c0.296,0.129,0.592,0.207,0.906,0.268
	c0.006,0.412,0.019,0.798,0.065,1.206c0.112,0.404,0.039,0.834,0.135,1.239c0.017-0.204-0.004-0.402,0.033-0.603
	c0.082,0.078,0.173,0.174,0.301,0.134c0.14,0.367,0.363,0.708,0.57,1.038c0.174,0.228,0.296,0.476,0.469,0.703
	c0.071,0.105,0.152,0.21,0.267,0.268c0.131,0.061,0.19,0.223,0.269,0.335c0.099,0.146,0.186,0.3,0.336,0.402
	c0.184,0.136,0.268,0.353,0.435,0.502c0.068,0.061,0.171,0.103,0.234,0.168c0.126,0.119,0.236,0.257,0.402,0.334
	c0.081,0.038,0.133,0.11,0.201,0.167c0.136,0.112,0.296,0.187,0.469,0.235c0.115,0.03,0.097,0.173,0.1,0.268
	c0.068-0.129,0.031-0.27,0-0.402c0.096,0.003,0.167,0.076,0.235,0.134c-0.03-0.058-0.066-0.141-0.134-0.168
	c-0.112-0.047-0.223-0.026-0.335-0.066c-0.093-0.038-0.149-0.131-0.234-0.168c-0.118-0.047-0.228-0.14-0.336-0.201
	c-0.159-0.119-0.31-0.246-0.435-0.402c-0.173-0.153-0.376-0.271-0.502-0.469c-0.157-0.289-0.425-0.474-0.57-0.77
	c-0.077-0.16-0.209-0.313-0.335-0.436c-0.109-0.108-0.202-0.22-0.301-0.334c-0.153-0.184-0.239-0.402-0.368-0.603
	c-0.127-0.194-0.195-0.399-0.303-0.603c-0.061-0.102-0.043-0.229-0.033-0.335c0.048-0.472-0.029-0.941-0.067-1.406
	c0.555,0.091,1.125,0.091,1.676-0.034c0.221-0.01,0.445-0.03,0.669-0.067c0.102-0.03,0.196-0.07,0.303-0.101
	c0.054,0.123,0.092,0.273,0.133,0.402c0.119,0.286,0.245,0.559,0.436,0.804c0.137,0.275,0.22,0.565,0.369,0.837
	c-0.037-0.187-0.124-0.342-0.101-0.536c0.064,0.031,0.13,0.033,0.168,0.101c0.391,0.66,0.816,1.288,1.306,1.876
	c0.095,0.102,0.253,0.152,0.335,0.268c0.156,0.194,0.295,0.423,0.468,0.603c0.075,0.082,0.193,0.113,0.269,0.201
	c0.122,0.136,0.219,0.29,0.369,0.401c0.074,0.058,0.193,0.08,0.268,0.134c0.197,0.153,0.367,0.34,0.603,0.436
	c0.289,0.071,0.568,0.184,0.871,0.167c0.119-0.017,0.171,0.12,0.233,0.201c-0.02-0.133-0.139-0.227-0.2-0.335
	c0.099-0.027,0.21-0.011,0.301,0.034c-0.061-0.058-0.108-0.134-0.2-0.134c-0.092,0.011-0.177,0.084-0.269,0.067
	c-0.218-0.018-0.432-0.093-0.636-0.168c-0.217-0.129-0.473-0.246-0.67-0.402c-0.181-0.173-0.379-0.306-0.569-0.469
	c-0.103-0.082-0.14-0.213-0.234-0.301c-0.177-0.173-0.363-0.359-0.536-0.536c-0.074-0.071-0.104-0.19-0.167-0.268
	c-0.078-0.102-0.159-0.167-0.234-0.268c-0.045-0.062-0.083-0.113-0.134-0.167c-0.178-0.156-0.29-0.389-0.437-0.569
	c-0.203-0.251-0.368-0.512-0.568-0.771c-0.102-0.109-0.047-0.276-0.1-0.402c-0.11-0.482-0.317-0.907-0.47-1.373h0.201
	c-0.01-0.01-0.023-0.05-0.034-0.067c0.367-0.105,0.723-0.251,1.038-0.469c0.085-0.061,0.207-0.096,0.302-0.134
	c-0.01-0.01-0.054-0.017-0.067-0.033c0.095-0.088,0.189-0.18,0.235-0.302c-0.276-0.102-0.517-0.282-0.738-0.469
	c-0.095-0.075-0.186-0.14-0.267-0.234c-0.102-0.133-0.267-0.233-0.368-0.369c-0.072-0.102-0.188-0.146-0.269-0.234
	c-0.146-0.164-0.323-0.272-0.47-0.435c-0.138-0.102-0.225-0.273-0.334-0.402c-0.075-0.062-0.129-0.104-0.2-0.168
	c-0.381-0.319-0.833-0.555-1.24-0.837c-0.218-0.123-0.465-0.2-0.703-0.269c-0.633-0.176-1.293-0.279-1.942-0.167
	c-0.697,0.105-1.335,0.473-1.909,0.871c-0.215,0.153-0.406,0.338-0.536,0.57c-0.089,0.156-0.108,0.332-0.033,0.502
	c0.136,0.343,0.385,0.608,0.604,0.904c0.026,0.037,0.056,0.093,0.066,0.134c-0.106,0.027-0.236,0.071-0.335,0
	c-0.181-0.092-0.257-0.266-0.335-0.436c-0.241-0.527-0.508-1.052-0.87-1.507c-0.17-0.224-0.395-0.431-0.671-0.502
	c-0.114-0.034-0.249-0.067-0.368-0.034c-0.108,0.035-0.213,0.127-0.301,0.201c-0.3-0.272-0.607-0.558-1.005-0.669
	c-0.32-0.079-0.639-0.185-0.972-0.168c-0.299-0.017-0.626,0.021-0.87,0.201c-0.33,0.217-0.628,0.559-1.039,0.603
	c-0.194-0.384-0.61-0.615-1.005-0.737c-0.312-0.095-0.648-0.034-0.971-0.034c0.057-0.149,0.199-0.25,0.302-0.369
	c0.054-0.068,0.125-0.117,0.2-0.167c0.105-0.068,0.176-0.204,0.301-0.234c-0.02,0-0.079,0-0.1,0
	c0.048-0.082,0.116-0.153,0.167-0.234C80.248,18.303,80.229,18.237,80.173,18.2L80.173,18.2z"></path><path fill="#010101" d="M51.872,18.668c0.038,0.014,0.097,0.017,0.135,0.034c-0.038,0.12-0.152,0.217-0.234,0.301
	c-0.073,0.065-0.138,0.129-0.201,0.201c-0.028-0.109-0.036-0.226-0.067-0.334C51.631,18.806,51.744,18.732,51.872,18.668
	L51.872,18.668z"></path><path fill="#010101" d="M38.979,19.741c0.111-0.021,0.227-0.027,0.335,0.033c0.507,0.278,0.838,0.798,1.272,1.172
	c0.302,0.253,0.603,0.518,0.905,0.771c-0.097,0.096-0.193,0.17-0.301,0.268h0.402c0.47-0.061,0.743,0.376,1.104,0.569
	c0.556,0.29,1.019,0.715,1.575,1.005c-0.06,0.435-0.155,0.905-0.034,1.34c0.145,0.362,0.389,0.679,0.569,1.005
	c-0.061,0.062-0.195,0.172-0.268,0.234c-1.364-0.64-2.689-1.406-4.187-1.708c-0.519-0.133-1.042-0.299-1.574-0.335
	c-0.097-0.242-0.22-0.484-0.268-0.737c-0.036-0.362,0.18-0.709,0.167-1.072c-0.023-0.821,0.002-1.624-0.034-2.445
	C38.752,19.817,38.867,19.762,38.979,19.741L38.979,19.741z"></path><path fill="#010101" d="M53.949,20.679c0.062-0.018,0.141-0.034,0.202,0c0.142,0.078,0.245,0.229,0.367,0.334
	c0.085,0.072,0.149,0.13,0.234,0.201c-0.027,0.026-0.036,0.073-0.067,0.101h0.101c0.133-0.018,0.2,0.079,0.302,0.134
	c0.156,0.081,0.312,0.22,0.47,0.301c-0.018,0.122-0.034,0.247,0,0.368c0.04,0.102,0.083,0.177,0.134,0.269
	c-0.018,0.017-0.047,0.05-0.066,0.066c-0.385-0.18-0.752-0.384-1.173-0.469c-0.146-0.037-0.285-0.083-0.436-0.101
	c-0.027-0.068-0.087-0.129-0.101-0.201c-0.01-0.102,0.07-0.2,0.067-0.301C53.977,21.15,53.96,20.909,53.949,20.679z"></path><path fill="#010101" d="M81.513,20.679c0.061-0.018,0.106-0.034,0.168,0c0.143,0.078,0.246,0.229,0.368,0.334
	c0.085,0.072,0.184,0.13,0.269,0.201c-0.027,0.026-0.071,0.073-0.101,0.101h0.134c0.133-0.018,0.199,0.079,0.302,0.134
	c0.156,0.081,0.278,0.22,0.435,0.301c-0.016,0.122-0.033,0.247,0,0.368c0.041,0.102,0.083,0.177,0.134,0.269
	c-0.017,0.017-0.046,0.05-0.066,0.066c-0.384-0.18-0.75-0.384-1.172-0.469c-0.146-0.037-0.286-0.083-0.437-0.101
	c-0.026-0.068-0.053-0.129-0.065-0.201c-0.012-0.102,0.036-0.2,0.033-0.301C81.507,21.15,81.523,20.909,81.513,20.679L81.513,20.679
	z"></path><path fill="#010101" d="M59.141,22.688c0.078,0.023,0.163,0.029,0.234,0.067c0.033,0.065-0.004,0.163,0,0.234h-0.067
	C59.257,22.891,59.182,22.79,59.141,22.688z"></path><path fill="#010101" d="M86.705,22.688c0.077,0.023,0.128,0.029,0.2,0.067c0.034,0.065,0.03,0.163,0.033,0.234h-0.101
	C86.788,22.891,86.745,22.79,86.705,22.688z"></path><path fill="#010101" d="M60.949,23.023c0.033-0.027,0.104,0.019,0.067,0.066C60.975,23.158,60.857,23.067,60.949,23.023z"></path><path fill="#010101" d="M88.479,23.023c0.034-0.027,0.104,0.019,0.067,0.066C88.506,23.158,88.388,23.067,88.479,23.023z"></path><path fill="#010101" d="M52.711,23.425c-0.023,0.156-0.113,0.29-0.168,0.435c-0.039,0.143-0.087,0.294-0.134,0.436
	c-0.014-0.223-0.048-0.447-0.067-0.67C52.463,23.559,52.584,23.485,52.711,23.425z"></path><path fill="#010101" d="M90.656,81.667L69.591,59.998c-2.599-2.678-6.673-3.122-9.746-1.272L50.6,49.146l-5.124-5.358
	c4.408-4.801,6.695-10.825,6.933-16.88c0.06-0.123,0.132-0.228,0.134-0.368c-0.01-0.123-0.077-0.25-0.101-0.369
	c0.037-0.242,0.106-0.462,0.134-0.703c0.092-0.503,0.148-1.015,0.303-1.507c0.108-0.35,0.225-0.702,0.367-1.038
	c0.2-0.252,0.399-0.515,0.536-0.804c0.214,0.061,0.433,0.156,0.603,0.301c0.187,0.116,0.362,0.233,0.535,0.369
	c0.388,0.252,0.791,0.541,1.239,0.67c0.249,0.087,0.513,0.145,0.771,0.066c0.112-0.02,0.223,0.004,0.334-0.033
	c0.015-0.062,0.064-0.136,0.034-0.201c-0.062-0.16-0.137-0.31-0.2-0.469c-0.056-0.123-0.058-0.276-0.101-0.402
	c-0.018-0.071-0.042-0.126-0.034-0.201c0.034-0.074,0.093-0.044,0.135,0c0.227,0.208,0.497,0.383,0.77,0.536
	c0.105,0.054,0.104,0.203,0.134,0.301c0.089,0.051,0.122,0.137,0.201,0.201c0.272,0.214,0.584,0.375,0.938,0.402
	c0.13,0.01,0.239-0.101,0.368-0.101c0.17-0.007,0.33-0.017,0.503-0.034c0.197,0.02,0.402,0.091,0.603,0.034
	c0.149-0.054,0.282,0,0.436,0c0.224,0,0.479,0.017,0.702,0c0.232,0.183,0.473,0.31,0.738,0.436c0.296,0.129,0.625,0.207,0.938,0.268
	c0.007,0.412,0.02,0.798,0.066,1.206c0.112,0.404,0.04,0.834,0.135,1.239c0.018-0.204-0.004-0.402,0.033-0.603
	c0.081,0.078,0.138,0.174,0.269,0.134c0.139,0.367,0.36,0.708,0.569,1.038c0.172,0.228,0.295,0.476,0.468,0.703
	c0.071,0.105,0.186,0.21,0.302,0.268c0.129,0.061,0.189,0.223,0.269,0.335c0.099,0.146,0.152,0.3,0.301,0.402
	c0.184,0.136,0.303,0.353,0.469,0.502c0.068,0.061,0.136,0.103,0.201,0.168c0.126,0.119,0.235,0.257,0.402,0.334
	c0.081,0.038,0.166,0.11,0.234,0.167c0.136,0.112,0.295,0.188,0.468,0.235c0.117,0.03,0.098,0.173,0.101,0.268
	c0.068-0.129,0.031-0.27,0-0.402c0.096,0.003,0.167,0.077,0.235,0.134c-0.03-0.058-0.066-0.141-0.135-0.168
	c-0.112-0.047-0.223-0.026-0.335-0.066c-0.091-0.038-0.183-0.131-0.268-0.168c-0.119-0.048-0.192-0.14-0.301-0.201
	c-0.159-0.119-0.31-0.246-0.436-0.402c-0.174-0.153-0.377-0.271-0.502-0.469c-0.157-0.289-0.457-0.475-0.604-0.771
	c-0.078-0.16-0.209-0.313-0.335-0.435c-0.108-0.109-0.17-0.22-0.269-0.335c-0.151-0.184-0.272-0.402-0.401-0.603
	c-0.125-0.193-0.196-0.399-0.301-0.603c-0.062-0.102-0.011-0.23,0-0.335c0.048-0.472-0.063-0.941-0.101-1.406
	c0.554,0.091,1.124,0.092,1.674-0.034c0.221-0.01,0.446-0.03,0.67-0.067c0.103-0.03,0.229-0.069,0.335-0.1
	c0.055,0.123,0.093,0.273,0.135,0.402c0.118,0.285,0.244,0.559,0.435,0.804c0.137,0.275,0.22,0.565,0.368,0.837
	c-0.037-0.187-0.124-0.342-0.101-0.536c0.065,0.031,0.13,0.033,0.168,0.101c0.391,0.66,0.816,1.288,1.306,1.876
	c0.096,0.102,0.255,0.152,0.336,0.268c0.155,0.194,0.296,0.423,0.469,0.603c0.074,0.082,0.192,0.113,0.268,0.201
	c0.122,0.136,0.219,0.29,0.368,0.402c0.075,0.057,0.16,0.08,0.234,0.134c0.197,0.153,0.369,0.341,0.604,0.436
	c0.287,0.071,0.567,0.184,0.869,0.167c0.119-0.017,0.17,0.12,0.235,0.201c-0.021-0.132-0.106-0.226-0.168-0.335
	c0.099-0.027,0.209-0.011,0.302,0.034c-0.061-0.058-0.143-0.134-0.234-0.134c-0.092,0.01-0.177,0.084-0.269,0.067
	c-0.217-0.017-0.432-0.093-0.636-0.168c-0.219-0.129-0.439-0.246-0.637-0.401c-0.18-0.174-0.379-0.306-0.569-0.469
	c-0.102-0.081-0.173-0.213-0.269-0.301c-0.176-0.173-0.361-0.359-0.535-0.536c-0.075-0.071-0.069-0.19-0.134-0.268
	c-0.078-0.102-0.193-0.167-0.269-0.268c-0.044-0.062-0.083-0.113-0.134-0.167c-0.176-0.156-0.255-0.389-0.401-0.569
	c-0.205-0.251-0.402-0.512-0.604-0.771c-0.102-0.109-0.012-0.276-0.067-0.402c-0.108-0.482-0.315-0.907-0.468-1.373h0.2
	c-0.01-0.01-0.022-0.05-0.034-0.067c0.368-0.105,0.724-0.251,1.039-0.469c0.086-0.061,0.173-0.097,0.269-0.134
	c-0.011-0.01-0.021-0.017-0.034-0.033c0.096-0.088,0.19-0.18,0.234-0.302c-0.274-0.102-0.515-0.282-0.736-0.469
	c-0.096-0.075-0.188-0.14-0.268-0.234c-0.104-0.133-0.267-0.233-0.369-0.369c-0.071-0.102-0.186-0.146-0.268-0.234
	c-0.146-0.163-0.322-0.272-0.469-0.435c-0.14-0.102-0.227-0.273-0.335-0.402c-0.075-0.062-0.163-0.103-0.235-0.167
	c-0.381-0.319-0.797-0.555-1.205-0.837c-0.217-0.123-0.466-0.2-0.703-0.269c-0.633-0.176-1.293-0.279-1.942-0.167
	c-0.696,0.105-1.335,0.473-1.91,0.871c-0.213,0.153-0.406,0.338-0.534,0.569c-0.089,0.157-0.108,0.333-0.033,0.503
	c0.135,0.343,0.384,0.608,0.602,0.904c0.027,0.037,0.023,0.093,0.033,0.134c-0.104,0.027-0.235,0.071-0.334,0
	c-0.181-0.092-0.225-0.266-0.301-0.436c-0.243-0.527-0.541-1.052-0.906-1.507c-0.169-0.224-0.395-0.431-0.669-0.502
	c-0.116-0.034-0.217-0.067-0.335-0.034c-0.108,0.034-0.213,0.126-0.302,0.201c-0.298-0.271-0.641-0.558-1.038-0.669
	c-0.319-0.079-0.638-0.185-0.971-0.168c-0.3-0.017-0.594,0.021-0.838,0.201c-0.33,0.218-0.627,0.559-1.038,0.603
	c-0.193-0.384-0.61-0.615-1.004-0.737c-0.313-0.095-0.649-0.034-0.972-0.034c0.058-0.149,0.199-0.25,0.301-0.369
	c0.055-0.068,0.093-0.116,0.168-0.167c0.105-0.068,0.175-0.204,0.302-0.234c-0.021,0-0.048,0-0.067,0
	c0.048-0.082,0.116-0.153,0.168-0.234c0.006-0.064-0.013-0.13-0.067-0.167c-0.031,0.03-0.087,0.101-0.134,0.101
	c-0.15,0.02-0.257,0.07-0.402,0.101c-0.099,0.023-0.214,0.053-0.301,0.101c-0.116,0.074-0.245,0.112-0.368,0.167
	c-1.124-3.93-3.198-7.631-6.197-10.75c-5.253-5.465-12.387-8.134-19.525-7.904c-6.298,0.203-12.594,2.671-17.55,7.436
	C-2.406,17.612-2.694,34.205,7.195,44.491c9.392,9.769,24.846,10.591,35.435,1.942l5.191,5.392l9.312,9.646
	c-1.854,3.005-1.526,7.005,1.038,9.646l21.032,21.669c3.024,3.117,8.035,3.193,11.152,0.168l0.135-0.101
	C93.606,89.828,93.682,84.784,90.656,81.667z M10.577,41.242c-8.409-8.748-8.003-22.471,0.57-30.712
	C15.433,6.41,21,4.372,26.553,4.468c5.554,0.096,11.101,2.324,15.306,6.698c1.137,1.183,2.097,2.479,2.914,3.818
	c-1.043-0.048-2.163,0.177-3.015,0.804c-1.171,0.772-2.223,1.886-3.684,2.043c-0.688-1.364-2.15-2.111-3.55-2.545
	c-1.111-0.337-2.27-0.134-3.417-0.134c0.205-0.531,0.676-0.85,1.038-1.272c0.193-0.242,0.405-0.489,0.67-0.669
	c0.375-0.242,0.625-0.662,1.072-0.771c-0.072-0.012-0.229-0.034-0.301-0.034c0.169-0.29,0.421-0.547,0.603-0.837
	c0.024-0.23-0.108-0.436-0.302-0.57c-0.108,0.108-0.166,0.276-0.335,0.302c-0.531,0.072-1.021,0.293-1.541,0.402
	c-0.35,0.085-0.691,0.165-1.004,0.335c-0.568,0.362-1.266,0.448-1.809,0.871c-0.676,0.507-1.607,0.632-2.211,1.272
	c-0.458,0.495-1.177,0.551-1.708,0.938c-0.398,0.254-0.584,0.719-0.971,0.972c-0.495,0.35-1.03,0.637-1.44,1.072
	c-0.206,0.277-0.326,0.62-0.603,0.837c-0.567,0.495-1.146,0.995-1.641,1.574c-0.037-0.037-0.131-0.098-0.167-0.134
	c0,0.181,0.003,0.389-0.033,0.57c-0.459,0.664-1.061,1.199-1.507,1.875c-0.266,0.833-1.057,1.358-1.407,2.144
	c-0.084,0.833-0.686,1.465-1.072,2.177c-0.35,0.531-0.344,1.198-0.669,1.742c-0.423,0.76-0.885,1.512-1.139,2.344
	c-0.121,0.7-0.489,1.331-0.502,2.043c-0.108,0.809-0.301,1.798,0.436,2.378c0.266-0.422,0.592-0.845,0.737-1.339
	c0.072-0.495,0.156-0.97,0.301-1.44c0.121-0.398-0.04-0.928,0.335-1.206c0.133-0.604,0.322-1.171,0.502-1.775
	c0.145-0.495,0.231-1.029,0.569-1.44c0.58-0.761,0.701-1.758,1.172-2.579c0.688-0.725,0.902-1.793,1.674-2.445
	c0.652-0.688,0.953-1.647,1.641-2.311c0.58-0.567,0.995-1.266,1.574-1.809c0.954-0.567,1.443-1.682,2.445-2.177
	c0.773-0.362,1.29-1.105,2.11-1.407c0.7-0.29,1.172-0.963,1.909-1.206c0.615-0.217,1.116-0.648,1.708-0.938
	c0.132,0.049,0.269,0.105,0.402,0.167c-0.133,0.422-0.515,0.703-0.804,1.005c-0.627,0.555-1.098,1.214-1.641,1.842
	c-0.785,0.856-1.297,1.929-2.01,2.847c-1.099,1.316-2.119,2.736-2.747,4.354c-0.688,1.69-0.821,3.548-0.737,5.359
	c0.073,0.833,0.223,1.804,0.971,2.311c-0.326,0.544-0.368,1.193-0.368,1.809c0.084,0.519,0.235,1.021,0.368,1.541
	c0.302,0.507,0.645,1.105,1.273,1.239c-0.036-0.555-0.243-1.106-0.134-1.674c0.181-0.458,0.484-0.903,0.871-1.206
	c0.543-0.446,1.257-0.427,1.909-0.536c0.363-0.072,0.654,0.216,0.871,0.469c0.435,0.458,0.124,1.279,0.704,1.641
	c0.193-0.821-0.19-1.668-0.636-2.344c0.58-0.206,1.195-0.284,1.775-0.536c1.014-0.326,1.893-0.948,2.847-1.407
	c-0.084,0.555-0.376,1.055-0.569,1.574c-0.29,1.062-0.715,2.107-1.005,3.182c-0.157,0.531-0.267,1.091-0.569,1.574
	c0.073,0.495-0.16,0.957-0.268,1.44c-0.133,0.652-0.391,1.269-0.536,1.909c-0.073,0.35,0.16,0.621,0.402,0.837
	c-4.611,3.555-7.106,6.392-7.871,7.77C18.926,47.241,14.24,45.052,10.577,41.242z M41.289,41.878
	c-4.476,4.303-10.348,6.331-16.143,6.029c1.459-1.125,3.823-3.486,6.933-7.436c0.229-0.144,0.471-0.25,0.736-0.335
	c0.058,2.251-0.183,3.584,0.737,0.402c-0.036-0.435-0.25-0.816-0.335-1.239c0.133-0.857,0.439-1.655,0.536-2.512
	c0.326-1.787,0.495-3.608,1.038-5.359c0.386-1.243,0.799-2.489,1.306-3.684c0.712-0.894,1.459-1.788,1.943-2.813v0
	c0.761,0.217,1.473,0.553,2.076,1.072c0.664,0.41,1.327,0.823,1.942,1.307c1.377,0.893,2.727,1.852,4.321,2.311
	c0.388,0.139,0.822,0.24,1.239,0.301c-0.006,0.035-0.027,0.066-0.033,0.101c-0.031,0.022-0.074,0.042-0.101,0.067
	c0.03-0.01,0.069,0.007,0.101,0C46.806,34.455,44.707,38.594,41.289,41.878z M81.848,90.208L60.815,68.504
	c-1.14-1.175-1.427-2.767-0.938-4.187L85.9,91.312C84.497,91.703,82.957,91.349,81.848,90.208z M88.814,88.767L62.591,61.572
	c0.461-0.166,0.926-0.241,1.406-0.234c1.051,0.017,2.098,0.433,2.914,1.272l21.033,21.669C89.167,85.54,89.457,87.284,88.814,88.767
	z"></path></svg>