<svg xmlns="http://www.w3.org/2000/svg" xmlns:xlink="http://www.w3.org/1999/xlink" version="1.1" x="0px" y="0px" viewBox="0 0 100 100" enable-background="new 0 0 100 100" xml:space="preserve"><g><g><path d="M94.701,17.418c-2.408,0-4.357,1.949-4.357,4.353v3.938l-7.298-20.7c-0.839-2.377-3.448-3.624-5.829-2.795    c-2.385,0.844-3.633,3.454-2.795,5.837l7.796,22.11L65.332,4.163c-1.51-2.318-4.609-2.973-6.932-1.475    c-2.317,1.513-2.977,4.612-1.475,6.934l13.443,20.686l15.632,8.748c0.843,0.474,1.141,1.532,0.672,2.378    c-0.321,0.563-0.913,0.889-1.522,0.889c-0.286,0-0.577-0.071-0.849-0.22l-8.834-4.924c-2.856-1.704-9.052-4.421-14.777-3.455    c-4.757,0.809-9.074,3.238-12.118,6.994c-1.726,2.123-1.396,5.241,0.727,6.965c2.123,1.72,5.242,1.398,6.964-0.729    c1.508-1.847,3.627-3.074,5.979-3.451c2.555-0.403,5.096,0.204,7.187,1.722c2.084,1.51,3.466,3.75,3.872,6.292    c0.837,5.255-2.758,10.219-8.011,11.057c-5.233,0.849-10.23-2.758-11.064-8.016c-0.435-2.697-2.984-4.511-5.673-4.103    c-2.699,0.425-4.229,3.08-4.107,5.667c-0.062,5.077,4.152,10.109,9.025,13.864l19.45,14.349v14.021h26.133V21.771    C99.059,19.367,97.108,17.418,94.701,17.418z"></path></g><polygon points="22.472,44.608 14.896,47.718 14.896,50.182 22.472,53.147  "></polygon><polygon points="22.472,42.438 22.472,34.992 14.896,41.6 14.896,45.547  "></polygon><polygon points="22.472,55.301 14.896,52.334 14.896,56.106 22.472,62.605  "></polygon><polygon points="11.23,49.912 0.281,49.912 0.281,48.474 11.23,48.474 11.23,49.912  "></polygon><polygon points="16.534,34.526 10.579,27.658 11.665,26.716 17.619,33.584 16.534,34.526  "></polygon><polygon points="29.656,34.526 28.571,33.584 34.525,26.716 35.611,27.658 29.656,34.526  "></polygon><polygon points="34.525,69.813 28.571,62.942 29.656,62.003 35.611,68.872 34.525,69.813  "></polygon><polygon points="11.681,69.794 10.562,68.891 15.993,62.177 17.112,63.082 11.681,69.794  "></polygon><polygon points="11.753,40.535 2.617,36.805 3.16,35.474 12.295,39.204 11.753,40.535  "></polygon><polygon points="3.789,62.164 3.164,60.868 11.711,56.743 12.336,58.038 3.789,62.164  "></polygon><polygon points="23.454,29.972 22.017,29.972 22.017,21.425 23.454,21.425 23.454,29.972  "></polygon><polygon points="23.454,74.46 22.017,74.46 22.017,66.553 23.454,66.553 23.454,74.46  "></polygon></g><g><g><polygon points="24.389,44.417 24.389,53.128 34.909,48.771   "></polygon><path d="M46.744,47.104l-9.366-0.029l-12.989-11.97v7.139l12.989,5.416v2.26l-12.989,5.381v7.316l13.04-12.063h9.315    c0.952,0,1.726-0.772,1.726-1.725C48.47,47.876,47.696,47.104,46.744,47.104z"></path></g></g></svg>