<svg xmlns="http://www.w3.org/2000/svg" viewBox="0 0 300 300" enable-background="new 0 0 300 300"><path d="M180.566 218.838c7.116-13.596 10.863-28.775 12.788-41.874 2.021 4.224 4.352 10.1 6.17 17.419 2.363 9.507 4.101 22.824 2.239 38.954-7.8-8.548-16.579-12.745-21.197-14.499" fill="#BCBEC0"/><path d="M197.877 253.023c-3.544-7.645-10.923-17.852-25.45-21.476 2.172-2.78 4.133-5.7 5.919-8.747 4.32 1.571 14.511 6.154 22.578 16.488-.716 4.411-1.71 8.978-3.047 13.735" fill="#A7A9AC"/><path d="M163.275 232.979h-26.603c-28.668-29.678-26.026-87.558-25.995-88.179 1.102-27.968 7.848-48.358 15.338-62.666h47.996c7.084 13.628 14.109 34.089 15.243 62.697.047.59 2.704 58.438-25.979 88.148" fill="#D1D3D4"/><path fill="#BCBEC0" d="M158.191 243.56h-17.104l-1.663-4.614h20.728z"/><path d="M102.069 253.023c-1.321-4.741-2.331-9.308-3.047-13.719 8.051-10.302 18.258-14.917 22.594-16.488 1.786 3.031 3.743 5.951 5.919 8.731-14.543 3.624-21.922 13.847-25.466 21.476" fill="#A7A9AC"/><path d="M106.608 177.024c1.925 13.083 5.668 28.25 12.785 41.814-4.614 1.754-13.393 5.935-21.193 14.483-3.028-26.432 3.634-46.134 8.408-56.297M130.566 74.271h38.922c.684 1.058 1.368 2.208 2.053 3.389h-43.039c.679-1.166 1.364-2.3 2.064-3.389" fill="#BCBEC0"/><path d="M147.722 54.616c.979-.016 3.23-.016 4.475-.016 2.22 1.679 7.956 6.48 14.248 15.211h-32.848c6.245-8.699 11.901-13.5 14.125-15.195" fill="#D1D3D4"/><path d="M147.654 139.045c-7.94 0-14.388 6.448-14.388 14.388v28.731c0 7.94 6.448 14.388 14.388 14.388h3.699c7.94 0 14.388-6.448 14.388-14.388v-28.731c0-7.94-6.448-14.388-14.388-14.388h-3.699z" fill="#A7A9AC"/><path d="M149.979 149.781c-3.978 0-7.228 3.246-7.228 7.224s3.25 7.228 7.228 7.228c3.978 0 7.224-3.234 7.224-7.228 0-3.979-3.246-7.224-7.224-7.224M149.979 101.924c-3.978 0-7.228 3.246-7.228 7.224s3.25 7.228 7.228 7.228c3.978 0 7.224-3.234 7.224-7.228 0-3.978-3.246-7.224-7.224-7.224" fill="#fff"/><g fill="#414042"><path d="M149.829 101.924c-3.978 0-7.228 3.246-7.228 7.224s3.25 7.228 7.228 7.228 7.224-3.234 7.224-7.228c0-3.978-3.246-7.224-7.224-7.224m0 20.418c-7.271 0-13.194-5.919-13.194-13.194 0-7.271 5.923-13.19 13.194-13.19s13.19 5.919 13.19 13.19c.001 7.275-5.918 13.194-13.19 13.194M149.829 149.796c-3.978 0-7.228 3.25-7.228 7.228s3.25 7.224 7.228 7.224 7.224-3.246 7.224-7.224c0-3.994-3.246-7.228-7.224-7.228m0 20.402c-7.271 0-13.194-5.919-13.194-13.19s5.923-13.194 13.194-13.194 13.19 5.923 13.19 13.194c.001 7.271-5.918 13.19-13.19 13.19M147.654 139.045c-7.94 0-14.388 6.448-14.388 14.388v28.731c0 7.94 6.448 14.388 14.388 14.388h3.699c7.94 0 14.388-6.448 14.388-14.388v-28.731c0-7.94-6.448-14.388-14.388-14.388h-3.699zm3.699 63.473h-3.699c-11.217 0-20.354-9.137-20.354-20.354v-28.731c0-11.217 9.137-20.354 20.354-20.354h3.699c11.217 0 20.354 9.137 20.354 20.354v28.731c0 11.233-9.137 20.354-20.354 20.354M180.562 218.771c7.116-13.596 10.863-28.775 12.788-41.874 2.021 4.224 4.352 10.1 6.17 17.419 2.363 9.507 4.101 22.824 2.239 38.954-7.8-8.549-16.579-12.745-21.197-14.499m17.311 34.185c-3.544-7.645-10.923-17.852-25.45-21.476 2.172-2.78 4.133-5.7 5.919-8.747 4.32 1.571 14.511 6.154 22.578 16.488-.716 4.411-1.711 8.977-3.047 13.735m-34.603-20.044h-26.603c-28.668-29.678-26.026-87.558-25.995-88.179 1.102-27.968 7.848-48.358 15.338-62.666h47.996c7.084 13.628 14.109 34.089 15.243 62.697.048.589 2.705 58.438-25.979 88.148m-5.083 10.58h-17.104l-1.663-4.614h20.728l-1.961 4.614zm-56.123 9.464c-1.321-4.741-2.331-9.308-3.047-13.719 8.051-10.302 18.258-14.917 22.594-16.488 1.786 3.031 3.743 5.951 5.919 8.731-14.543 3.623-21.921 13.846-25.466 21.476m4.539-75.999c1.925 13.083 5.668 28.25 12.785 41.814-4.614 1.754-13.393 5.935-21.193 14.483-3.028-26.432 3.635-46.134 8.408-56.297m23.958-102.754h38.922c.684 1.058 1.368 2.208 2.053 3.389h-43.039c.68-1.165 1.364-2.299 2.064-3.389m17.156-19.654c.979-.016 3.23-.016 4.475-.016 2.22 1.679 7.956 6.48 14.248 15.211h-32.848c6.245-8.699 11.902-13.5 14.125-15.195m46.83 112.137c1.118-12.383.716-21.253.668-22.188-2.534-63.72-32.582-89.655-39.435-94.75l-1.989-13.051c-.251-1.635-1.77-2.753-3.405-2.502-.465.076-.899.247-1.257.497-.871.342-1.567 1.102-1.802 2.096-1.539 6.571-2.422 10.378-2.844 12.693-6.014 4.368-37.184 30.036-39.762 94.969-.048.951-.465 9.837.668 22.22-4.117 6.277-25.279 42.482-6.245 96.835.418 1.213 1.551 2.005 2.812 2.005l.263-.016c1.352-.123 2.47-1.15 2.689-2.486.032-.231 4.025-22.578 27.112-26.337.139.155.294.31.438.449l3.711 10.366c.422 1.181 1.555 1.973 2.812 1.973h21.178c1.197 0 2.287-.716 2.753-1.818l4.38-10.302c.219-.235.438-.449.64-.684 22.98 3.715 26.957 25.406 27.128 26.337.219 1.352 1.321 2.363 2.689 2.486l.263.016c1.261 0 2.395-.792 2.812-2.005 19.018-54.336-2.16-90.526-6.277-96.803"/></g></svg>