<svg xmlns="http://www.w3.org/2000/svg" viewBox="0 0 300 300" enable-background="new 0 0 300 300"><ellipse fill="#FFFFFF" cx="176" cy="120" rx="19" ry="46"></ellipse>
<path d="M96.603 187.263h1.977c-2.979-4.559-4.572-12.28-4.742-23.007-.894-.168-1.763-.339-2.619-.511-.184 8.581 1.056 20.633 5.384 23.518zM96.417 227.79c.105.012 11.569 1.45 18.026-4.226 2.95-2.585 4.447-6.373 4.447-11.252 0-6.026-2.621-13.187-9.958-15.244-.198-.06-.395-.141-.572-.246-.38-.232-2.187-1.484-4.139-5.067h-8.227c-.35 0-.701-.081-1.018-.246-8.248-4.195-8.407-22.509-8.219-28.718-14.394-3.269-22.761-7.074-27.14-9.583 1.186 16.119 7.361 70.53 36.8 74.582zm4.199-25.082c.608-1.078 1.977-1.453 3.067-.845 5.487 3.124 8.562 9.197 7.838 15.466-.41 3.51-2.025 6.822-4.54 9.314-.431.431-1.006.644-1.578.644-.587 0-1.159-.225-1.59-.668-.878-.878-.869-2.306.009-3.172 1.827-1.8 2.938-4.106 3.232-6.643.524-4.471-1.674-8.811-5.594-11.033-1.078-.607-1.452-1.988-.844-3.063zM133.898 120.593c0-2.316.078-4.607.225-6.86-10.799-.662-34.091 2.307-34.091 2.307 2.282 5.966 9.533 12.776 9.533 12.776-23.728 1.585-53.005.532-62.163.134 1.611 10.623 5.763 17.482 9.606 17.615l.029-.004c.646-.005 1.221.237 1.638.636.692.569 10.05 7.896 37.647 12.891l.316.057c12.632 2.267 29.055 4.041 50.176 4.464-7.702-7.693-12.916-24.308-12.916-44.016zM165.071 161.871c.383.515.775.998 1.174 1.464-.398-.465-.791-.949-1.174-1.464zM156.606 74.124l-.234-.012c-.326-.036-32.336-3.1-71.081 7.99-1.3.527-2.971 1.393-3.848 2.528-.201.656-.656 1.216-1.357 1.462l-27.88 9.814c-3.357 4.963-5.499 13.959-5.499 23.516 0 2.131.1 4.173.28 6.117 23.31-.674 39.794-2.208 49.498-2.208-6.574-2.27-13.908-11.581-13.908-11.581 16.202-2.617 43.551-2.911 51.999-2.938 1.604-13.984 5.991-25.968 12.098-32.148.878-.89 2.294-.89 3.184-.024.875.866.887 2.291.021 3.169-6.972 7.056-11.477 23.061-11.477 40.773 0 26.391 9.419 44.115 18.215 44.115l.063.006c2.479-.03 5.015-1.554 7.366-4.263l-.01-.014c-5.897-8.901-9.686-23.807-9.686-41.015s3.789-32.114 9.686-41.015l.005-.007c-2.373-2.746-4.934-4.265-7.435-4.265zM72.575 83.975c-12.998-4.247-20.521-6.795-24.849-8.482l4.492 15.642 20.357-7.16zM171.898 119.189c0 6.364 2.174 9.5 2.842 9.569h8.445c-.314-2.991-.502-6.099-.502-9.323 0-3.393.201-6.658.551-9.793l.003-.021h-8.496c-.669.068-2.843 3.192-2.843 9.568zM215.393 112.1l-8.703-2.318c-.129-.033-.258-.081-.386-.141-.713.048-2.89 3.16-2.89 9.548 0 6.376 2.165 9.488 2.833 9.569l.045-.024c.129-.057.258-.105.386-.141l8.727-2.315 4.588-1.216 22.075-5.873-22.099-5.873-4.576-1.216zM201.425 83.355c-2.234 0-4.549 1.638-6.655 4.585-1.03 1.465-2.025 3.264-2.914 5.337-1.417 3.297-2.621 7.287-3.45 11.872-.258 1.441-.47 2.95-.644 4.492-.362 3.079-.575 6.343-.575 9.793 0 3.288.201 6.388.527 9.335.177 1.545.386 3.055.632 4.492.821 4.762 2.06 8.916 3.522 12.306.889 2.072 1.872 3.872 2.914 5.337 2.105 2.947 4.42 4.585 6.655 4.585 5.429 0 11.345-9.601 13.44-24.405l-6.854 1.814c-.56.234-1.144.35-1.743.35h-.012c-4.819 0-7.335-7.077-7.335-14.061 0-6.996 2.516-14.061 7.326-14.061.596 0 1.18.117 1.755.35l6.778 1.804c-2.17-14.532-8.002-23.925-13.367-23.925z" fill="none"/><path d="M101.458 205.772c3.92 2.222 6.119 6.562 5.594 11.033-.294 2.537-1.405 4.843-3.232 6.643-.878.866-.886 2.294-.009 3.172.431.443 1.003.668 1.59.668.572 0 1.147-.213 1.578-.644 2.516-2.492 4.13-5.804 4.54-9.314.725-6.268-2.351-12.342-7.838-15.466-1.09-.608-2.459-.234-3.067.845-.606 1.074-.232 2.455.844 3.063zM105.132 191.756h-.911c1.952 3.583 3.759 4.836 4.139 5.067.177.105.374.186.572.246 7.338 2.057 9.958 9.218 9.958 15.244 0 4.879-1.497 8.667-4.447 11.252-6.457 5.675-17.922 4.238-18.026 4.226-29.44-4.053-35.614-58.464-36.799-74.581-1.649-.945-2.735-1.707-3.362-2.187-.443-.048-.879-.14-1.309-.262.282 5.306 1.435 20.987 5.717 37.336 6.996 26.697 19.152 41.962 35.145 44.163.186.024 1.731.222 4.001.222 4.609 0 12.225-.809 17.571-5.523 3.977-3.474 5.99-8.398 5.99-14.645 0-9.467-5.019-17.047-12.812-19.446-.198-.182-.557-.542-1.002-1.111h-4.377l-.048-.001zM57.037 146.562l-.029.004.113.008c.548 0 1.087.213 1.509.587l.044.037c-.416-.399-.991-.64-1.637-.636zM138.403 120.581c0-17.712 4.504-33.717 11.477-40.773.866-.878.854-2.303-.021-3.169-.889-.866-2.306-.866-3.184.024-6.106 6.179-10.494 18.164-12.098 32.148 1.635-.005 2.574 0 2.574 0l-.982 5.112c-.614-.082-1.301-.144-2.045-.19-.147 2.253-.225 4.544-.225 6.86 0 19.708 5.214 36.322 12.916 44.017 3.16.063 6.418.098 9.791.098l.075-.006-.063-.006c-8.796 0-18.215-17.723-18.215-44.115zM156.606 169.201l.014-.001-.019.001h.005zM166.245 163.335c-.399-.465-.792-.949-1.174-1.464-.345-.464-.69-.93-1.024-1.432-2.351 2.709-4.886 4.233-7.366 4.263 1.21.034 2.184 1.021 2.184 2.24 0 1.235-1.008 2.249-2.244 2.257 3.699-.008 7.153-1.865 10.213-5.168l-.012-.012c-.197-.213-.384-.458-.577-.684zM59.355 148.74c.003.107.062 1.744.263 4.469 4.379 2.51 12.746 6.314 27.14 9.583.026-.87.06-1.505.078-1.828.069-1.24 1.132-2.198 2.375-2.105 1.24.069 2.174 1.135 2.105 2.375-.047.791-.08 1.633-.099 2.511.856.172 1.725.344 2.619.511-.01-.64-.017-1.286-.017-1.947 0-1.24 1.006-2.246 2.246-2.246l.255.026c-27.597-4.995-36.955-12.321-37.647-12.891.409.39.664.929.682 1.542zM57.008 146.566c-3.843-.132-7.995-6.991-9.606-17.615-1.845-.08-2.892-.134-2.892-.134-.398-2.318 0-3.208 0-3.208l2.478-.071c-.18-1.944-.28-3.986-.28-6.117 0-9.557 2.141-18.553 5.499-23.516l27.88-9.814c.701-.246 1.156-.806 1.357-1.462.878-1.135 2.549-2.001 3.848-2.528 38.745-11.09 70.755-8.026 71.081-7.99l.234.012c2.501 0 5.063 1.519 7.436 4.263.876-1.333 1.797-2.522 2.768-3.563l.006-.006c-3.029-3.269-6.432-5.151-10.093-5.187-2.15-.198-33.013-2.761-70.473 7.535-7.182-1.497-38.583-7.978-41.788-7.978-.186 0-.362.057-.548.105l-.294.024c-.937.267-1.545 1.099-1.602 2.034-.06.422-.072.785.174 1.171l6.086 21.174c-3.768 5.804-6.074 15.373-6.074 25.726 0 16.474 5.341 29.244 12.743 31.337-.058-1.085-.08-1.746-.084-1.88-.037-1.228.918-2.248 2.144-2.312zm-9.282-71.073c4.328 1.686 11.851 4.235 24.849 8.482l-20.356 7.161-4.493-15.643zM96.638 160.146c.962.254 1.675 1.122 1.675 2.164 0 .503.009.949.021 1.429l5.019.632v-.281c0-1.24 1.006-2.246 2.246-2.246s2.246 1.006 2.246 2.246c0 .816.01 1.595.024 2.356 13.045 1.661 29.087 2.757 48.727 2.757h.004c-3.526-.002-6.838-1.645-9.787-4.591-21.12-.425-37.542-2.2-50.175-4.466zM59.618 153.209c-.2-2.725-.259-4.363-.263-4.469-.018-.612-.274-1.152-.68-1.541l-.044-.037c-.422-.374-.961-.587-1.509-.587l-.113-.008c-1.226.063-2.181 1.084-2.145 2.314.004.133.026.795.084 1.88.43.122.866.214 1.309.262.626.479 1.712 1.241 3.361 2.186zM158.864 166.943c0-1.218-.973-2.206-2.184-2.24l-.075.006c-3.373 0-6.632-.035-9.791-.098 2.949 2.946 6.261 4.589 9.787 4.591l.019-.001c1.236-.01 2.244-1.023 2.244-2.258zM183.185 128.758h-8.445c-.668-.069-2.842-3.205-2.842-9.569 0-6.376 2.174-9.5 2.842-9.569h8.496c.164-1.523.373-3.014.617-4.471l.004-.021h-9.117c-4.807 0-7.335 7.065-7.335 14.061 0 6.984 2.516 14.061 7.335 14.061h9.055c-.245-1.458-.445-2.939-.609-4.48l-.001-.012zM189.802 151.386c-3.486 8.437-8.185 13.323-12.734 13.323-2.501 0-5.064-1.521-7.439-4.271-.97-1.123-1.896-2.444-2.794-3.953-4.6-7.85-7.99-20.836-7.99-37.062s3.39-29.212 7.99-37.062c.887-1.521 1.824-2.83 2.782-3.953 2.375-2.749 4.939-4.283 7.442-4.283 4.549 0 9.242 4.891 12.737 13.312.937-1.59 1.944-2.995 3.019-4.175-4.058-8.482-9.581-13.63-15.756-13.63-3.708 0-7.18 1.87-10.243 5.187l.006.006c-.973 1.054-1.896 2.246-2.773 3.57l-.007-.007-.005.007c-5.897 8.901-9.686 23.807-9.686 41.015s3.789 32.114 9.686 41.015l.01.014.001-.001c.331.503.677.968 1.023 1.433.383.515.776.998 1.174 1.464.197.23.388.479.588.697 3.061 3.302 6.519 5.157 10.225 5.157 6.172 0 11.691-5.142 15.749-13.615-1.06-1.178-2.064-2.591-2.999-4.178l-.006-.01zM164.041 78.388l.007.007c.878-1.324 1.8-2.516 2.773-3.57l-.006-.006-.006.006c-.971 1.04-1.892 2.23-2.768 3.563zM164.048 160.438l-.002.002c.335.502.679.968 1.024 1.432-.345-.465-.691-.931-1.022-1.434zM166.821 164.02l.012.012c-.2-.217-.391-.467-.588-.697.193.226.38.471.576.685zM214.876 131.086c-2.095 14.804-8.011 24.405-13.44 24.405-2.234 0-4.549-1.638-6.655-4.585-1.042-1.465-2.025-3.264-2.914-5.337-1.462-3.39-2.701-7.544-3.522-12.306-.246-1.438-.455-2.947-.632-4.492-.326-2.947-.527-6.047-.527-9.335 0-3.45.213-6.715.575-9.793.174-1.542.386-3.052.644-4.492.83-4.585 2.034-8.574 3.45-11.872.89-2.072 1.884-3.872 2.914-5.337 2.105-2.947 4.42-4.585 6.655-4.585 5.366 0 11.198 9.394 13.367 23.927l.029.008 4.665 1.245c-2.146-17.285-9.303-29.661-18.061-29.661-3.124 0-6.047 1.59-8.61 4.411-1.075 1.18-2.081 2.585-3.019 4.175-2.663 4.536-4.734 10.599-5.938 17.667h.008c-.246 1.461-.455 2.959-.62 4.492h-.009l-.003.021c-.35 3.136-.551 6.4-.551 9.793 0 3.224.188 6.332.502 9.323h.001c.165 1.545.374 3.031.611 4.492h-.002l.002.012c1.179 7.26 3.283 13.503 6.005 18.124l.006-.013c.925 1.59 1.932 3.007 3.007 4.187l-.008.015.008.009c2.564 2.821 5.487 4.411 8.622 4.411 8.842 0 16.05-12.619 18.121-30.149l-4.644 1.23-.037.01zM183.236 109.62h.009c.165-1.533.374-3.031.62-4.492h-.008l-.004.021c-.244 1.457-.452 2.948-.617 4.471zM183.186 128.758h-.001l.001.012c.164 1.541.364 3.023.609 4.48h.002c-.237-1.462-.447-2.947-.611-4.492zM189.807 151.372l-.006.013.006.011c.935 1.587 1.939 3 2.999 4.178l.008-.015c-1.075-1.18-2.081-2.597-3.007-4.187zM251.544 111.899c-2.633 0-4.927 1.417-6.202 3.51l-25.831-6.867-.025-.007.004.031-4.693-1.252-.005-.032-6.778-1.804c-.575-.234-1.159-.35-1.755-.35-4.81 0-7.326 7.065-7.326 14.061 0 6.984 2.516 14.061 7.335 14.061h.012c.599 0 1.183-.117 1.743-.35l6.854-1.814.002-.01 4.681-1.24-.001.01.037-.01 25.783-6.855c1.276 2.093 3.567 3.507 6.199 3.507 4.025 0 7.29-3.261 7.29-7.287-.037-4.037-3.301-7.302-7.324-7.302zm-31.551 13.163l-4.588 1.216-8.727 2.315c-.129.036-.258.084-.386.141l-.045.024c-.668-.081-2.833-3.193-2.833-9.569 0-6.388 2.177-9.5 2.89-9.548.129.06.258.108.386.141l8.703 2.318 4.576 1.216 22.099 5.873-22.075 5.873zM214.792 107.282l.005.032 4.693 1.252-.004-.031-4.665-1.245-.029-.008zM214.878 131.076l-.002.01.038-.01 4.644-1.23.001-.01zM109.565 128.817s-7.251-6.81-9.533-12.776c0 0 23.292-2.969 34.091-2.307.109-1.666.268-3.303.454-4.922-8.448.027-35.797.32-51.999 2.938 0 0 7.334 9.311 13.908 11.581-9.705 0-26.189 1.534-49.498 2.208.109 1.175.247 2.315.414 3.413 9.158.398 38.435 1.451 62.163-.135zM136.169 113.924l.982-5.112s-.939-.005-2.574 0c-.186 1.618-.345 3.255-.454 4.922.744.045 1.432.108 2.046.19zM44.509 125.61s-.398.889 0 3.208c0 0 1.047.054 2.892.134-.167-1.098-.305-2.237-.414-3.413l-2.478.071zM96.638 160.146l-.316-.057.316.057zM98.579 187.263h-1.977c-4.328-2.885-5.568-14.938-5.385-23.518-1.545-.311-3.035-.629-4.46-.953-.188 6.208-.029 24.523 8.219 28.718.318.165.668.246 1.018.246h8.227c-.219-.401-.438-.823-.659-1.285-.536-1.123-.057-2.459 1.054-2.995 1.123-.539 2.456-.06 2.995 1.051.712 1.494 1.396 2.525 1.945 3.229h2.185c1.135 0 2.093-.854 2.234-1.977.141-1.039-.479-2.025-1.462-2.375-.347-.224-4.32-3.168-4.645-20.96-5.128-.653-9.796-1.392-14.032-2.188.171 10.727 1.764 18.448 4.743 23.007zM104.617 187.476c-1.111.536-1.59 1.872-1.054 2.995.22.461.44.884.659 1.285h5.336c-.549-.703-1.234-1.734-1.945-3.229-.54-1.111-1.873-1.59-2.996-1.051zM105.6 161.842c-1.24 0-2.246 1.006-2.246 2.246v.281l-5.019-.632c-.012-.479-.021-.925-.021-1.429 0-1.041-.713-1.909-1.675-2.164l-.316-.057-.255-.026c-1.24 0-2.246 1.006-2.246 2.246 0 .661.007 1.307.017 1.947 4.236.795 8.904 1.535 14.032 2.188-.014-.761-.024-1.539-.024-2.356-.001-1.237-1.008-2.244-2.247-2.244zM89.211 158.859c-1.243-.093-2.306.866-2.375 2.105-.019.322-.052.957-.078 1.828 1.425.324 2.915.641 4.46.953.019-.878.052-1.719.099-2.511.069-1.24-.866-2.306-2.106-2.375z" fill="#414042"/><path d="M96.603 187.263h1.977c-2.979-4.559-4.572-12.28-4.742-23.007-.894-.168-1.763-.339-2.619-.511-.184 8.581 1.056 20.633 5.384 23.518z" fill="#BCBEC0"/><path d="M96.417 227.79c.105.012 11.569 1.45 18.026-4.226 2.95-2.585 4.447-6.373 4.447-11.252 0-6.026-2.621-13.187-9.958-15.244-.198-.06-.395-.141-.572-.246-.38-.232-2.187-1.484-4.139-5.067h-8.227c-.35 0-.701-.081-1.018-.246-8.248-4.195-8.407-22.509-8.219-28.718-14.394-3.269-22.761-7.074-27.14-9.583 1.186 16.119 7.361 70.53 36.8 74.582zm4.199-25.082c.608-1.078 1.977-1.453 3.067-.845 5.487 3.124 8.562 9.197 7.838 15.466-.41 3.51-2.025 6.822-4.54 9.314-.431.431-1.006.644-1.578.644-.587 0-1.159-.225-1.59-.668-.878-.878-.869-2.306.009-3.172 1.827-1.8 2.938-4.106 3.232-6.643.524-4.471-1.674-8.811-5.594-11.033-1.078-.607-1.452-1.988-.844-3.063z" fill="#808285"/><path d="M133.898 120.593c0-2.316.078-4.607.225-6.86-10.799-.662-34.091 2.307-34.091 2.307 2.282 5.966 9.533 12.776 9.533 12.776-23.728 1.585-53.005.532-62.163.134 1.611 10.623 5.763 17.482 9.606 17.615l.029-.004c.646-.005 1.221.237 1.638.636.692.569 10.05 7.896 37.647 12.891l.316.057c12.632 2.267 29.055 4.041 50.176 4.464-7.702-7.693-12.916-24.308-12.916-44.016zM156.606 74.124l-.234-.012c-.326-.036-32.336-3.1-71.081 7.99-1.3.527-2.971 1.393-3.848 2.528-.201.656-.656 1.216-1.357 1.462l-27.88 9.814c-3.357 4.963-5.499 13.959-5.499 23.516 0 2.131.1 4.173.28 6.117 23.31-.674 39.794-2.208 49.498-2.208-6.574-2.27-13.908-11.581-13.908-11.581 16.202-2.617 43.551-2.911 51.999-2.938 1.604-13.984 5.991-25.968 12.098-32.148.878-.89 2.294-.89 3.184-.024.875.866.887 2.291.021 3.169-6.972 7.056-11.477 23.061-11.477 40.773 0 26.391 9.419 44.115 18.215 44.115l.063.006c2.479-.03 5.015-1.554 7.366-4.263l-.01-.014c-5.897-8.901-9.686-23.807-9.686-41.015s3.789-32.114 9.686-41.015l.005-.007c-2.373-2.746-4.934-4.265-7.435-4.265z" fill="#BCBEC0"/><path d="M72.575 83.975c-12.998-4.247-20.521-6.795-24.849-8.482l4.492 15.642 20.357-7.16z" fill="#808285"/><path d="M171.898 119.189c0 6.364 2.174 9.5 2.842 9.569h8.445c-.314-2.991-.502-6.099-.502-9.323 0-3.393.201-6.658.551-9.793l.003-.021h-8.496c-.669.068-2.843 3.192-2.843 9.568zM215.393 112.1l-8.703-2.318c-.129-.033-.258-.081-.386-.141-.713.048-2.89 3.16-2.89 9.548 0 6.376 2.165 9.488 2.833 9.569l.045-.024c.129-.057.258-.105.386-.141l8.727-2.315 4.588-1.216 22.075-5.873-22.099-5.873-4.576-1.216z" fill="#BCBEC0"/><path d="M201.425 83.355c-2.234 0-4.549 1.638-6.655 4.585-1.03 1.465-2.025 3.264-2.914 5.337-1.417 3.297-2.621 7.287-3.45 11.872-.258 1.441-.47 2.95-.644 4.492-.362 3.079-.575 6.343-.575 9.793 0 3.288.201 6.388.527 9.335.177 1.545.386 3.055.632 4.492.821 4.762 2.06 8.916 3.522 12.306.889 2.072 1.872 3.872 2.914 5.337 2.105 2.947 4.42 4.585 6.655 4.585 5.429 0 11.345-9.601 13.44-24.405l-6.854 1.814c-.56.234-1.144.35-1.743.35h-.012c-4.819 0-7.335-7.077-7.335-14.061 0-6.996 2.516-14.061 7.326-14.061.596 0 1.18.117 1.755.35l6.778 1.804c-2.17-14.532-8.002-23.925-13.367-23.925z" fill="#D1D3D4"/></svg>