<svg xmlns="http://www.w3.org/2000/svg" viewBox="0 0 300 300" enable-background="new 0 0 300 300"><path fill="#939598" d="M49.961 112.229l3.183-.735 7.2 30.911-3.183.734z"/><path fill="#D1D3D4" d="M63.419 135.225l-4.208-18.079 28.231-6.57 4.307 18.052zM90.434 103.206l26.773-6.391 7.37 30.874-26.774 6.379z"/><path d="M120.088 88.819c-.299-1.266.485-2.547 1.751-2.847l5.764-1.377c.182-.034.374-.059.556-.059 1.096 0 2.038.747 2.291 1.822l12.603 52.846c.145.614.049 1.253-.29 1.784-.324.531-.843.917-1.457 1.062l-3.066.722-2.714.651c-1.266.303-2.544-.506-2.843-1.747l-12.595-52.857z" fill="#BCBEC0"/><path d="M156.812 153.737v-10.624l3.063-.726v5.644c0 .954.784 1.738 1.738 1.738.951 0 1.735-.784 1.735-1.738v-6.462l1.22-.29v17.354h-1.775c-.154 0-.287.059-.432.083-1.291-2.158-3.232-3.859-5.585-4.81l.036-.169zM152.496 157.68c3.81 0 6.91 3.1 6.91 6.913 0 3.81-3.1 6.91-6.91 6.91-2.522 0-4.705-1.362-5.912-3.378l-.12-.228c-.54-.988-.88-2.099-.88-3.303 0-.759.12-1.522.361-2.232.953-2.799 3.584-4.682 6.551-4.682zM136.105 163.253h4.955c-.046.448-.108.892-.108 1.34 0 .457.086.892.133 1.337h-4.98v-2.677zM139.433 170.56h2.22l-19.948 66.632h-2.232zM151.878 176.071l.605.062c.747 0 1.47-.083 2.17-.216v61.781h-2.776v-61.627zM164.904 170.56h2.22l19.947 66.632h-2.232zM178.532 165.929h-14.64c.049-.445.133-.88.133-1.337 0-.46-.083-.892-.133-1.34h14.64v2.677z" fill="#939598"/><path d="M184.743 131.669c-1.253.287-2.544-.497-2.847-1.751l-12.603-52.834c-.303-1.266.482-2.544 1.747-2.847l5.767-1.374c.179-.037.374-.062.553-.062 1.099 0 2.038.747 2.291 1.822l12.603 52.846c.303 1.266-.482 2.544-1.747 2.847l-5.764 1.353z" fill="#BCBEC0"/><path fill="#D1D3D4" d="M193.172 111.311l-7.367-30.874 20.115-4.789 7.357 30.874z"/><path fill="#BCBEC0" d="M145.031 127.566l29.848-7.114 1.121 4.727-29.849 7.116z"/><path d="M147.683 140.533c.083-.797.059-1.605-.133-2.402l-.315-1.337 29.849-7.116.315 1.34c.191.793.506 1.531.942 2.195l-30.658 7.32z" fill="#A7A9AC"/><path fill="#D1D3D4" d="M166.435 85.068l7.37 30.874-29.849 7.116-7.369-30.874zM233.545 111.433l-13.57 3.232-11.353-47.664 13.57-3.232z"/><path d="M236.759 104.907l-8.756-36.724c9.404-1.062 18.379 5.042 20.633 14.486 2.257 9.429-3.004 18.932-11.877 22.238z" fill="#fff"/><g fill="#414042"><path d="M149.748 164.56c0 3.64 5.462 3.64 5.462 0-.001-3.644-5.462-3.644-5.462 0M183.684 125.088c0 3.362 5.054 3.362 5.054 0 0-3.378-5.054-3.378-5.054 0M173.048 80.475c0 3.365 5.051 3.365 5.051 0 0-3.374-5.051-3.374-5.051 0M134.468 136.82c0 3.365 5.051 3.365 5.051 0 0-3.375-5.051-3.375-5.051 0M123.829 92.21c0 3.365 5.054 3.365 5.054 0s-5.054-3.365-5.054 0"/><path d="M233.264 71.864c3.955.627 7.573 2.847 9.923 6.104.568.784.386 1.868-.386 2.424-.312.228-.661.324-1.013.324-.54 0-1.071-.253-1.411-.722-1.809-2.507-4.606-4.22-7.657-4.702-.954-.145-1.593-1.037-1.436-1.991.146-.943 1.026-1.594 1.98-1.437zM49.952 112.229l3.183-.735 7.2 30.911-3.183.735-7.2-30.911zm13.457 22.963l-4.208-18.08 28.231-6.57 4.307 18.052-28.33 6.598zm27.015-32.019l26.774-6.391 7.37 30.874-26.774 6.379-7.37-30.862zm29.654-14.387c-.299-1.266.485-2.547 1.751-2.847l5.764-1.377c.182-.034.374-.059.556-.059 1.096 0 2.038.747 2.291 1.822l12.603 52.846c.145.614.049 1.253-.29 1.785-.324.531-.843.917-1.457 1.062l-3.066.722-2.714.651c-1.266.303-2.544-.506-2.843-1.747l-12.595-52.858zm36.724 64.918v-10.624l3.063-.726v5.644c0 .954.784 1.738 1.738 1.738.951 0 1.735-.784 1.735-1.738v-6.462l1.22-.29v17.354h-1.775c-.154 0-.287.059-.432.083-1.291-2.158-3.232-3.859-5.585-4.81l.036-.169zm-4.316 3.943c3.81 0 6.91 3.1 6.91 6.913 0 3.81-3.1 6.91-6.91 6.91-2.522 0-4.705-1.362-5.912-3.378l-.12-.228c-.54-.988-.88-2.099-.88-3.303 0-.759.12-1.522.361-2.232.954-2.799 3.584-4.682 6.551-4.682zm-16.391 5.573h4.955c-.046.448-.108.892-.108 1.34 0 .457.086.892.133 1.337h-4.98v-2.677zm3.328 7.307h2.22l-19.947 66.632h-2.232l19.959-66.632zm-3.075 33.795l9.166-30.62c.54.42 1.121.772 1.723 1.084v29.537h-10.889zm15.521-28.284l.605.062c.747 0 1.47-.083 2.17-.216v61.781h-2.776v-61.627zm18.295 28.271h-10.889v-30.488c.494-.364.976-.75 1.411-1.182l9.478 31.683v-.013zm-5.27-33.782h2.22l19.947 66.632h-2.232l-19.935-66.632zm13.628-4.631h-14.64c.049-.445.133-.88.133-1.337 0-.46-.083-.892-.133-1.34h14.64v2.677zm6.212-34.26c-1.253.287-2.544-.497-2.847-1.751l-12.603-52.834c-.303-1.266.482-2.544 1.747-2.847l5.767-1.374c.179-.037.374-.062.553-.062 1.099 0 2.038.747 2.291 1.822l12.603 52.846c.303 1.266-.482 2.544-1.747 2.847l-5.764 1.353zm8.428-20.358l-7.366-30.874 20.114-4.788 7.357 30.874-20.105 4.788zm-48.141 16.255l29.849-7.113 1.121 4.727-29.849 7.116-1.121-4.73zm2.652 12.967c.083-.797.059-1.605-.133-2.402l-.315-1.337 29.849-7.116.315 1.34c.191.793.506 1.531.942 2.195l-30.658 7.32zm18.753-55.465l7.37 30.874-29.849 7.116-7.37-30.874 29.849-7.116zm42.185-18.055l13.569-3.232 11.358 47.663-13.566 3.232-11.361-47.663zm28.139 37.895l-8.756-36.724c9.404-1.062 18.379 5.042 20.633 14.486 2.257 9.428-3.004 18.931-11.877 22.238zm-191.865 6.15l8.249 35.418c.253 1.062 1.204 1.788 2.254 1.788.182 0 .352-.012.531-.062l7.694-1.785c.593-.133 1.111-.506 1.436-1.025.327-.519.435-1.145.29-1.747l-.905-3.909 28.354-6.61 1.013 4.257c.253 1.074 1.204 1.785 2.254 1.785.182 0 .361-.012.543-.059l29.027-6.922 2.522 10.562c.759 3.161 3.557 5.369 6.801 5.369.543 0 1.096-.062 1.627-.195l5.764-1.374 9.818-2.34v8.864c-3.967.108-7.524 2.245-9.528 5.548h-8.864c-1.278 0-2.316 1.037-2.316 2.316v1.34h-2.797c-1.278 0-2.316 1.037-2.316 2.316 0 1.278 1.037 2.316 2.316 2.316h2.797v1.337c0 1.278 1.037 2.316 2.316 2.316h.809l-20.441 68.283c-.207.701-.074 1.46.361 2.053.432.577 1.121.926 1.856.926h7.058c1.025 0 1.93-.673 2.217-1.652l9.336-31.185h12.275v31.028c0 1.278 1.037 2.316 2.316 2.316h7.407c1.278 0 2.316-1.037 2.316-2.316v-31.028h12.275l9.336 31.185c.29.979 1.192 1.652 2.217 1.652h7.058c.735 0 1.423-.337 1.856-.926.435-.593.568-1.352.361-2.053l-20.441-68.296h8.901c1.278 0 2.316-1.037 2.316-2.316v-7.308c0-1.278-1.037-2.316-2.316-2.316h-11.649v-18.462l16.619-3.967 5.764-1.377c3.751-.892 6.076-4.668 5.184-8.416l-2.519-10.565 20.117-4.789 1.664 6.984c.253 1.059 1.204 1.772 2.254 1.772.182 0 .361-.012.543-.062l18.077-4.304c1.244-.29 2.016-1.544 1.713-2.785l-.759-3.186c11.362-3.918 18.151-15.931 15.304-27.857s-14.328-19.611-26.23-17.959l-.759-3.171c-.145-.602-.506-1.108-1.037-1.436-.519-.312-1.145-.42-1.751-.278l-18.077 4.307c-.602.145-1.108.506-1.436 1.037-.324.519-.423 1.145-.278 1.747l1.266 5.307-20.102 4.788-.568-2.402c-.76-3.158-3.557-5.366-6.801-5.366-.543 0-1.096.062-1.627.195l-5.767 1.374c-3.76.905-6.076 4.68-5.184 8.429l.565 2.402-29.849 7.113-.565-2.399c-.759-3.158-3.56-5.366-6.801-5.366-.543 0-1.099.059-1.63.191l-5.764 1.377c-3.764.892-6.079 4.677-5.184 8.429l.565 2.39-29.027 6.922c-1.244.29-2.016 1.544-1.713 2.785l.966 4.054-28.222 6.573-1.025-4.415c-.133-.602-.506-1.121-1.025-1.448-.519-.324-1.145-.435-1.751-.29l-7.694 1.797c-1.241.29-2.013 1.531-1.76 2.776z"/></g></svg>