<svg xmlns="http://www.w3.org/2000/svg" xmlns:xlink="http://www.w3.org/1999/xlink" version="1.1" x="0px" y="0px" viewBox="0 0 100 100" enable-background="new 0 0 100 100" xml:space="preserve"><g fill="#ffffff"><path fill-rule="evenodd" clip-rule="evenodd" d="M45.231,55.714c0.015,0.002,0.029,0.005,0.044,0.007"></path><path fill-rule="evenodd" clip-rule="evenodd" d="M45.231,55.714c-3.461,1.024-8.289,4.439-11.396,1.522  c-0.432-1.489,1.067-2.327,1.671-3.459c0.058-2.938-3.606-3.706-5.694-3.541c-4.186,0.328-3.381,3.397-0.982,6.339  c-3.201,3.32-8.154-0.817-11.764-1.713c-1.596,3.307-3.688,7.982-1.969,11.57c0.295,0.114,0.716,0.182,0.872,0.196  c3.201-2.609,5.357-1.635,5.75,1.152c0.536,3.792-1.579,6.169-6.12,3.868c-2.061,2.919,0.313,7.826,2.926,9.973  c3.133-1.141,6.499-3.895,9.999-2.706c1.388,2.969-3.187,3.851-0.234,6.188c1.832,1.451,6.093,1.797,7.492-1.105  c-0.206-1.664-2.119-2.57-2.167-4.224c3.569-2.543,8.029,1.405,11.731,2.141c0.852-3.418,3.543-8.591,0.3-11.28  c-1.442,0.091-2.521,1.303-3.926,1.47c-4.056-2.409,0.183-11.755,4.271-6.461c3.699-1.164,0.122-7.291-0.716-9.924L45.231,55.714z"></path><path fill-rule="evenodd" clip-rule="evenodd" d="M70.443,49.764c2.759-0.897,8.542-4.119,5.932-7.377  c-6.575,0.02-2.74-7.476,1.548-7.745c2.178,0.264,1.664,2.81,2.69,4.147c4.465,1.216,5.414-5.81,6.591-9.021  c-4.522-0.705-14.71-5.85-5.896-9.029c1.258-3.888-3.915-7.145-6.623-5.886c-1.903,0.886-0.971,2.847-2.277,4.761  c-3.96,0.195-5.556-4.593-7.024-7.519c-3.236,1.204-8.339,3.235-8.455,7.163c1.568,1.804,4.754,0.097,5.666,2.156  c1.021,2.309-4.765,7.473-6.4,5.154c-1.012-1.281-0.313-3.73-2.378-4.12c-3.265,1.325-5.033,5.065-5.759,8.315  c3.227,1.479,7.968,1.472,10.006,5.026c0.118,0.743-0.534,1.374-1.098,1.768c-1.415,0.396-3.163,0.446-4.098,1.749  c-0.146,3.283,3.595,5.821,5.566,5.508c2.846-0.453,1.202-6.122,4.724-5.002C65.409,40.528,68.904,47.7,70.443,49.764z"></path><path fill-rule="evenodd" clip-rule="evenodd" d="M17.066,53.14c3.84,0.832,5.81,4.08,9.653,2.334  c-2.398-2.941-1.093-6.631,3.093-6.96c2.088-0.165,7.188,1.091,7.13,4.029c-0.099,1.133-1.035,1.65-1.378,3.256  c1.452,3.148,6.206-0.784,9.667-1.808c-1.312-3.147-3.791-6.23-3.399-9.802c1.554-2.194,3.548,0.906,5.439,0.566  c2.665-1.795,2.058-8.211-1.527-8.438c-1.483,0.407-2.8,2.148-4.476,1.281c-2.437-3.573-0.313-8.34,0.664-12.102  c-3.068-2.768-13.458-4.183-7.889,2.032c0,0.114-0.069,0.392-0.175,0.694c-2.314,2.329-9.989,1.178-6.078-3.045  c0.045-0.623,0.242-1.449-0.392-1.851c-3.167-0.499-7.023,0.124-9.488,2.055c1.322,3.217,3.477,7.517,1.585,10.722  c-0.356,0.063-0.627,0.139-0.798,0.188c-2.872-2.45-4.205-2.468-5.339,0.199c-1.044,2.457,0.043,10.955,5.292,5.469  C22.719,43.129,17.593,50.181,17.066,53.14z"></path><path fill-rule="evenodd" clip-rule="evenodd" d="M57.493,84.949c0.7-1.458-0.97-2.538-1.287-3.843  c0.152-3.421,4.755-3.271,6.306-2.208c3.489,2.398-1.237,4.279-0.007,7.353c3.374,1.723,7.281,0.088,10.602-1.063  c0.08-0.094,0.176-0.186,0.24-0.322c-1.603-3.656-3.866-7.624-3.001-11.801c1.763-2.145,3.599,0.949,5.385,1.418  c5.854-0.883,1.9-12.543-2.915-7.198c-4.566-2.958-0.475-9.737,1.609-13.357c-0.102-0.168-0.236-0.373-0.433-0.467  c-3.668-2.596-15.145-3.603-11.097,3.618c-0.777,3.088-5.264,4.763-7.235,3.119c-2.329-1.939,0.741-3.369,1.499-5.718  c-2.385-3.494-7.155,0.239-10.161,1.24c0.836,2.633,4.059,9.655-0.918,10.863c-4.311-3.646-6.232,1.622-3.56,4.217  c1.368,0.267,1.565-1.435,3.931-1.311c3.744,2.636,1.469,9.008,0.618,12.426C50.124,83.543,53.964,86.859,57.493,84.949z"></path></g></svg>