<?xml version="1.0" encoding="utf-8"?>
<!-- Generator: Adobe Illustrator 19.1.0, SVG Export Plug-In . SVG Version: 6.00 Build 0)  -->
<svg version="1.1" id="Layer_3" xmlns="http://www.w3.org/2000/svg" xmlns:xlink="http://www.w3.org/1999/xlink" x="0px" y="0px"
	 viewBox="-2973 2111 100 100" style="enable-background:new -2973 2111 100 100;" xml:space="preserve">
<style type="text/css">
	.st0{fill:#FFFFFF;}
	.st1{stroke:#FFFFFF;stroke-width:3;stroke-miterlimit:10;}
	.st2{fill:#FFFFFF;stroke:#231F20;stroke-width:0.1895;stroke-miterlimit:10;}
	.st3{stroke:#231F20;stroke-width:0.1895;stroke-miterlimit:10;}
</style>
<path class="st0" d="M-2928.4,2130.2c8.6,0.6,15.8-1.2,17.7,2.3s4,8.6,5.1,11.2c1.1,2.7,2.7,1.6,2.7,1.6s2.9,2.5,2,3.8
	c-0.9,1.3,0,11.1-1.9,11c-1.9-0.1-2.6-2.1-3.8-0.3c-1.2,1.8-0.2,2.1-0.4,5.3s-2.1,9.9-2.1,9.9s-6.2,8.3-9.2,9.5
	c-3,1.2-10.8,3-15.7-3.7c-4.9-6.7-4.5,0.7-7-10.6s-1.9-1.1-4.6-14.4c-2.7-13.3-3.6-7.6-2.5-11.7
	C-2947,2140-2937.1,2129.6-2928.4,2130.2z"/>
<path d="M-2946.8,2137.2"/>
<g>
	<path class="st1" d="M-2900.9,2189.4c-0.2-0.8-0.3-1.7-0.6-2.6c1,0.1,2,0.2,2.9,0.3c0.3,1.2,0.4,2.2,0.5,2.8
		C-2898.8,2189.8-2899.8,2189.7-2900.9,2189.4z M-2913.6,2185.4c0.7,0.4,1.5,0.8,2.4,1.1c-0.2-0.8-0.4-1.6-0.7-2.2
		C-2912.6,2184.7-2913.1,2185.1-2913.6,2185.4z M-2944.1,2176.1c0.6-0.3,1.1-0.5,1.6-0.7c0-0.1,0-0.1,0-0.2
		c-0.5,0.2-1.1,0.5-1.7,0.8C-2944.1,2176-2944.1,2176.1-2944.1,2176.1z M-2941.8,2186.7c-0.9-0.2-1.7-0.5-2.6-0.8
		c-0.4,0.6-0.9,1.2-1.3,1.8c0.9,0.3,1.9,0.5,2.8,0.6C-2942.4,2187.8-2942.1,2187.2-2941.8,2186.7z M-2949.1,2190.9
		c0.5-0.8,1-1.7,1.6-2.5c-1.2-0.4-2.4-0.8-3.4-1.3c-1.2,1.2-2.2,2.3-2.8,3C-2952.6,2190.3-2951.1,2190.7-2949.1,2190.9z
		 M-2897.8,2186c-0.1-0.6-0.3-1.3-0.5-2c1.2,0,2.4,0,3.4-0.1c0.2,1,0.3,1.8,0.4,2.3C-2895.1,2186.2-2896.4,2186.2-2897.8,2186z
		 M-2901.4,2176.7c0.6,0.8,1,1.7,1.5,2.6c1.2,0,2.4-0.1,3.6-0.2c-0.3-0.7-0.6-1.3-1-2C-2898.8,2177.2-2900.1,2177-2901.4,2176.7z
		 M-2893.9,2182.7c1-0.1,1.8-0.1,2.3-0.2c0-0.6-0.2-1.6-0.5-2.8c-0.8,0.1-1.7,0.3-2.6,0.4
		C-2894.4,2181.1-2894.1,2181.9-2893.9,2182.7z M-2915.1,2186.3c-0.8,0.4-1.5,0.8-2.3,1.2c0.6,0.4,1.4,0.9,2.4,1.4
		C-2914.9,2187.8-2914.9,2187-2915.1,2186.3z M-2895.1,2182.8c-0.2-0.8-0.5-1.6-0.8-2.5c-1.1,0.1-2.3,0.2-3.5,0.2
		c0.3,0.8,0.6,1.6,0.8,2.4C-2897.4,2182.9-2896.1,2182.9-2895.1,2182.8z M-2904.4,2180.2c0.5,0.7,1,1.6,1.4,2.4
		c1,0.1,2.1,0.2,3.1,0.2c-0.3-0.8-0.5-1.6-0.9-2.3C-2901.9,2180.5-2903.2,2180.4-2904.4,2180.2z M-2901.6,2193.1
		c-0.1-0.6-0.2-1.6-0.4-2.7c-0.9-0.2-1.9-0.4-3-0.7c0.1,0.9,0.1,1.7,0.2,2.6C-2903.6,2192.6-2902.4,2192.9-2901.6,2193.1z
		 M-2902.2,2189.1c-0.2-0.8-0.4-1.6-0.6-2.5c-0.9-0.1-1.9-0.3-2.8-0.5c0.2,0.7,0.4,1.5,0.5,2.3
		C-2904.1,2188.7-2903.1,2188.9-2902.2,2189.1z M-2900.4,2173.8c-0.2,0.2-0.3,0.4-0.5,0.6c-0.3,0.3-0.6,0.7-0.9,1
		c1.2,0.3,2.3,0.5,3.6,0.5C-2898.9,2175.1-2899.6,2174.4-2900.4,2173.8z M-2911.1,2187.9c-1-0.4-1.9-0.8-2.7-1.2
		c0.1,0.8,0.1,1.7,0,2.7c0.9,0.4,1.9,0.7,2.9,1.1C-2911.1,2189.5-2911.1,2188.7-2911.1,2187.9z M-2911.6,2195.4
		c-1.1-0.5-2.3-1-3.4-1.6c-0.3,0.9-0.5,1.8-0.8,2.6c1.3,0.8,2.5,1.6,3.7,2.3C-2911.9,2198-2911.8,2196.8-2911.6,2195.4z
		 M-2911.1,2191.6c-1-0.3-2-0.7-3-1.1c-0.1,0.7-0.3,1.4-0.5,2.1c1.1,0.5,2.2,1,3.2,1.5C-2911.2,2193.4-2911.1,2192.5-2911.1,2191.6z
		 M-2905.1,2178.8c1.1,0.3,2.4,0.5,3.8,0.5c-0.5-1-1.1-1.9-1.7-2.6C-2903.6,2177.4-2904.4,2178.1-2905.1,2178.8z M-2908.1,2181.5
		c1.1,0.4,2.4,0.8,3.8,1c-0.5-1-1.1-1.9-1.8-2.6C-2906.9,2180.4-2907.4,2181-2908.1,2181.5z M-2895.1,2179c1-0.1,1.9-0.2,2.7-0.4
		c-0.2-0.7-0.5-1.3-0.8-2c-1,0.2-1.9,0.4-2.8,0.4C-2895.6,2177.7-2895.4,2178.4-2895.1,2179z M-2925.1,2194.9
		c-0.4-0.4-0.7-0.8-1-1.2c-0.6,0.7-1.3,1.3-2.1,2c0.4,0.5,0.7,1,1.1,1.5C-2926.4,2196.4-2925.8,2195.7-2925.1,2194.9z
		 M-2947.6,2177.5c0.1,0.1,0.2,0.3,0.3,0.4c0.7-0.4,1.3-0.9,2-1.2c-0.1-0.1-0.1-0.1-0.2-0.2
		C-2946.1,2176.8-2946.8,2177.2-2947.6,2177.5z M-2950.8,2180.5c0.8-0.6,1.7-1.3,2.6-1.9c-0.2-0.2-0.3-0.4-0.4-0.6
		c-1.1,0.5-2.3,1-3.4,1.5C-2951.6,2179.8-2951.2,2180.1-2950.8,2180.5z M-2927.9,2198c-0.4-0.5-0.8-1.1-1.2-1.6
		c-1,0.8-2.1,1.5-3.1,2.2c0.5,0.9,0.9,1.7,1.3,2.3C-2930.1,2200.1-2929.1,2199.2-2927.9,2198z M-2899.4,2184.1c-1,0-2-0.1-3-0.2
		c0.2,0.6,0.4,1.1,0.6,1.7c1,0.1,2,0.2,2.9,0.3C-2899.1,2185.3-2899.2,2184.7-2899.4,2184.1z M-2888.2,2177.9l-3.4-1.6
		c-0.1,0-0.2,0.1-0.3,0.1c0.3,0.7,0.6,1.4,0.8,2.1C-2889.9,2178.2-2888.8,2178-2888.2,2177.9z M-2896.8,2175.9
		c0.9,0,1.9-0.2,2.9-0.4c0-0.1-0.1-0.1-0.1-0.2c-0.1,0-0.1-0.1-0.1-0.2l-5.4-2.5c-0.1,0.1-0.1,0.1-0.2,0.2
		C-2898.4,2173.7-2897.6,2174.8-2896.8,2175.9z M-2922.6,2197.5c-0.6-0.6-1.1-1.1-1.7-1.7c-0.7,0.8-1.4,1.6-2.1,2.3
		c0.7,0.8,1.4,1.6,2,2.2C-2923.9,2199.7-2923.4,2198.7-2922.6,2197.5z M-2906.1,2193.2c-1.2-0.3-2.6-0.7-4-1.2
		c-0.1,0.9-0.1,1.8-0.2,2.6c1.5,0.6,3,1.2,4.1,1.6C-2906.1,2195.5-2906.1,2194.5-2906.1,2193.2z M-2903.8,2183.7
		c-1.1-0.1-2.2-0.3-3.2-0.6c0.3,0.5,0.6,1.1,0.9,1.8c1,0.2,1.9,0.4,2.9,0.5C-2903.4,2184.8-2903.6,2184.3-2903.8,2183.7z
		 M-2906.1,2191.9c0-0.8-0.1-1.7-0.2-2.5c-1.3-0.3-2.5-0.7-3.7-1.1c0,0.8,0.1,1.6,0,2.5C-2908.6,2191.2-2907.2,2191.6-2906.1,2191.9
		z M-2906.4,2188.1c-0.1-0.8-0.3-1.5-0.6-2.2c-1.3-0.3-2.5-0.6-3.5-1.1c0.2,0.7,0.4,1.4,0.5,2.2
		C-2908.9,2187.4-2907.6,2187.8-2906.4,2188.1z M-2920.9,2194.3c-0.5-0.4-1-0.8-1.4-1.1c-0.3,0.6-0.7,1.1-1.1,1.7
		c0.5,0.5,1,1.1,1.5,1.6C-2921.6,2195.7-2921.4,2195-2920.9,2194.3z M-2917.1,2196.9c-0.9-0.6-1.9-1.3-2.8-1.9
		c-0.4,0.8-0.8,1.6-1.1,2.3c1,0.9,1.9,1.9,2.8,2.7C-2918.1,2199.1-2917.6,2198.1-2917.1,2196.9z M-2910.8,2183.5
		c0.9,0.4,2,0.8,3.2,1.1c-0.4-0.8-1-1.6-1.6-2.2C-2909.6,2182.7-2910.2,2183.1-2910.8,2183.5z M-2945.1,2194.6
		c0.2-0.6,0.3-1.3,0.5-2c-1.3-0.1-2.6-0.2-3.9-0.4c-0.7,1.1-1.2,2.1-1.6,2.7C-2948.6,2194.9-2946.9,2194.8-2945.1,2194.6z
		 M-2950.1,2186.2c1,0.4,2.1,0.8,3.2,1.2c0.5-0.7,0.9-1.4,1.4-2c-0.8-0.4-1.6-0.9-2.4-1.3
		C-2948.6,2184.8-2949.4,2185.5-2950.1,2186.2z M-2946.9,2183.2c0.7,0.4,1.5,0.9,2.2,1.2c0.5-0.6,1.1-1.2,1.6-1.7
		c-0.7-0.4-1.3-0.8-1.9-1.2C-2945.6,2182.2-2946.2,2182.7-2946.9,2183.2z M-2939.8,2195c-1.5,0.3-3,0.5-4.4,0.7
		c-0.2,1.1-0.4,2-0.5,2.6c1.4-0.4,3.2-0.9,5.1-1.5C-2939.6,2196.2-2939.6,2195.6-2939.8,2195z M-2942.1,2189.6
		c-0.3,0.6-0.5,1.2-0.8,1.8c1.1,0,2.2,0,3.2-0.1c0.1-0.6,0.2-1.2,0.4-1.7C-2940.1,2189.8-2941.1,2189.8-2942.1,2189.6z
		 M-2942.8,2181.6c-0.1-0.5-0.1-1-0.1-1.5c-0.4,0.3-0.7,0.5-1.1,0.8C-2943.6,2181.1-2943.1,2181.4-2942.8,2181.6z M-2944.1,2191.4
		c0.2-0.7,0.5-1.3,0.8-1.9c-1-0.2-1.9-0.4-2.9-0.7c-0.5,0.8-1,1.6-1.5,2.3C-2946.6,2191.2-2945.4,2191.3-2944.1,2191.4z
		 M-2939.8,2192.5c-1.1,0.1-2.3,0.1-3.5,0.1c-0.2,0.6-0.4,1.2-0.5,1.8c1.3-0.2,2.7-0.4,4-0.6
		C-2939.8,2193.4-2939.9,2192.9-2939.8,2192.5z M-2953.9,2184.5c0.6,0.3,1.6,0.8,2.8,1.3c0.7-0.7,1.5-1.5,2.4-2.3
		c-0.7-0.5-1.4-1-2-1.4C-2952.1,2183-2953.2,2183.9-2953.9,2184.5z M-2881.1,2181.2l-6-2.8c0,0.3-0.2,0.5-0.4,0.5s-1.4,0.3-3.3,0.7
		c0.5,1.9,0.5,3.4,0.5,3.5c0,0.3-0.2,0.6-0.5,0.6c-0.1,0-1.2,0.1-2.7,0.2c0.3,1.6,0.4,2.8,0.4,2.9c0,0.2,0,0.3-0.2,0.4
		c-0.1,0.1-0.3,0.2-0.4,0.2c-0.2,0-1.6-0.1-3.6-0.2c0.4,1.8,0.6,3.2,0.6,3.3c0,0.2,0,0.4-0.2,0.5c-0.1,0.1-0.3,0.2-0.5,0.2
		s-1.4-0.2-3.2-0.6c0.3,1.7,0.4,3,0.4,3.1c0,0.2-0.1,0.4-0.2,0.5c-0.1,0.1-0.3,0.2-0.5,0.1c-0.4-0.1-1.9-0.4-3.8-0.9
		c0,2-0.2,3.4-0.3,3.6c0,0.2-0.1,0.3-0.3,0.4c-0.1,0.1-0.3,0.1-0.5,0.1c-0.2-0.1-2.1-0.7-4.5-1.7c-0.3,2.2-0.7,3.8-0.7,4
		c0,0.2-0.2,0.3-0.3,0.4c-0.2,0.1-0.4,0.1-0.5,0c-0.4-0.3-2.2-1.3-4.2-2.6c-0.7,1.8-1.3,3.2-1.4,3.6c-0.2,0.2-0.4,0.3-0.6,0.3
		s-0.4,0-0.5-0.1c-0.3-0.3-1.7-1.5-3.2-3c-1.1,1.8-2,3.1-2.1,3.2c-0.1,0.1-0.3,0.2-0.4,0.2l0,0c-0.2,0-0.3-0.1-0.4-0.2
		c-0.3-0.3-1.3-1.3-2.5-2.7c-1.8,1.8-3.4,3.1-3.5,3.2c-0.1,0.1-0.2,0.1-0.4,0.1h-0.1c-0.2,0-0.3-0.1-0.4-0.2
		c-0.1-0.1-0.9-1.3-1.7-2.9c-2.3,1.4-4.1,2.3-4.3,2.4c-0.1,0-0.2,0.1-0.3,0.1c-0.1,0-0.2,0-0.2,0c-0.2-0.1-0.3-0.2-0.3-0.4
		c0-0.1-0.5-1.5-0.8-3.4c-3.2,1.1-5.9,1.7-5.9,1.7c-0.2,0-0.4,0-0.5-0.1c-0.1-0.1-0.2-0.3-0.2-0.5c0-0.1,0.2-1.4,0.5-3.2
		c-3,0.3-5.4,0.4-5.6,0.4c-0.2,0-0.4-0.1-0.5-0.3c-0.1-0.2-0.1-0.4,0-0.6c0.1-0.2,0.8-1.5,1.8-3.3c-2.9-0.4-5-0.9-5.2-0.9
		s-0.4-0.2-0.4-0.4c-0.1-0.2,0-0.4,0.1-0.6c0.1-0.1,1.3-1.6,3.2-3.5c-1.8-0.8-3.1-1.4-3.2-1.5c-0.2-0.1-0.3-0.3-0.3-0.5
		s0.1-0.4,0.2-0.5c0.2-0.1,1.6-1.4,3.6-2.9c-0.6-0.5-1.1-0.9-1.4-1.2c-4.1,1.8-7.4,3.3-7.4,3.3l-11.3,22.8l97.3-0.2L-2881.1,2181.2z
		 M-2947.9,2182.6c0.6-0.6,1.3-1.1,2-1.7c-0.5-0.4-1-0.9-1.5-1.4c-0.8,0.6-1.6,1.1-2.4,1.7
		C-2949.2,2181.7-2948.6,2182.1-2947.9,2182.6z M-2946.4,2178.8c0.4,0.5,0.9,0.9,1.4,1.3c0.6-0.5,1.3-1,1.9-1.4
		c-0.3-0.3-0.8-0.7-1.3-1.2C-2945.1,2177.9-2945.8,2178.4-2946.4,2178.8z M-2939.6,2188.5c-0.4-0.4-0.7-0.7-1-1.2
		c-0.3,0.3-0.6,0.8-0.9,1.2C-2940.9,2188.6-2940.2,2188.6-2939.6,2188.5z M-2942.4,2183.7c-0.4,0.3-0.8,0.7-1.2,1.2
		c0.6,0.2,1.2,0.4,1.8,0.6C-2941.9,2185-2942.1,2184.4-2942.4,2183.7z M-2943.2,2177c0.2,0.1,0.3,0.3,0.4,0.4c0-0.2,0-0.4,0.1-0.6
		C-2942.9,2176.8-2943.1,2176.9-2943.2,2177z M-2915.2,2190.1c-1.1-0.5-2.1-1-2.8-1.6c-0.1,0.6-0.2,1.3-0.3,2
		c0.8,0.6,1.7,1.1,2.7,1.6C-2915.6,2191.4-2915.4,2190.7-2915.2,2190.1z M-2925.4,2190.5c-0.5,0.1-0.9,0.2-1.4,0.3
		c0.2,0.3,0.4,0.7,0.7,1.1C-2925.9,2191.4-2925.6,2190.9-2925.4,2190.5z M-2921.9,2192.1c0.4,0.3,0.9,0.7,1.3,1.1
		c0.3-0.7,0.5-1.5,0.8-2.2c-0.5-0.4-0.9-0.7-1.2-1.1C-2921.1,2190.6-2921.4,2191.3-2921.9,2192.1z M-2924.4,2191.3
		c-0.2,0.5-0.5,1-0.9,1.5c0.3,0.4,0.6,0.8,1,1.1c0.4-0.5,0.7-1,1.1-1.6C-2923.8,2192-2924.1,2191.6-2924.4,2191.3z M-2928.9,2194.7
		c0.8-0.6,1.5-1.3,2.1-2c-0.3-0.4-0.6-0.9-0.9-1.3c-0.4,0.7-1.1,1.3-2,2C-2929.6,2193.9-2929.2,2194.3-2928.9,2194.7z
		 M-2930.4,2192.4c0.6-0.4,1-0.9,1.4-1.3c-0.6,0.1-1.2,0.1-1.8,0.1C-2930.6,2191.6-2930.6,2192-2930.4,2192.4z M-2915.9,2193.3
		c-1-0.5-1.9-1.1-2.7-1.6c-0.2,0.7-0.5,1.5-0.8,2.2c0.9,0.6,1.8,1.3,2.8,1.9C-2916.6,2195-2916.2,2194.1-2915.9,2193.3z
		 M-2919.2,2188.3c-0.4,0.2-0.7,0.3-1.1,0.5c0.3,0.3,0.6,0.6,0.9,0.9C-2919.4,2189.2-2919.2,2188.8-2919.2,2188.3z M-2922.1,2189.5
		c-0.6,0.2-1.2,0.4-1.8,0.6c0.2,0.4,0.6,0.8,1.1,1.2C-2922.4,2190.7-2922.2,2190.1-2922.1,2189.5z M-2929.9,2195.5
		c-0.3-0.4-0.6-0.9-0.8-1.3c-0.8,0.5-1.8,1-2.9,1.5c0.2,0.6,0.5,1.2,0.8,1.8C-2931.9,2196.9-2930.9,2196.2-2929.9,2195.5z
		 M-2933.9,2198.1c-0.3-0.6-0.6-1.3-0.9-2c-0.7,0.3-1.3,0.6-2.1,0.8c-0.5,0.2-0.9,0.3-1.4,0.5c0.2,1,0.4,2,0.6,2.7
		C-2936.6,2199.7-2935.2,2199-2933.9,2198.1z M-2935.1,2195.1c-0.1-0.4-0.2-0.8-0.3-1.2c-1,0.3-2.1,0.6-3.2,0.9
		c0,0.5,0.1,1.1,0.2,1.6C-2937.2,2196-2936.1,2195.5-2935.1,2195.1z M-2938.4,2191.2c0.8-0.1,1.6-0.4,2.2-0.6
		c-0.6-0.2-1.2-0.5-1.8-0.8C-2938.2,2190.1-2938.4,2190.6-2938.4,2191.2z M-2938.6,2193.5c1.1-0.2,2.1-0.5,3.1-0.9
		c0-0.4,0-0.8,0-1.1c-0.9,0.4-1.9,0.7-3,0.8C-2938.6,2192.8-2938.6,2193.1-2938.6,2193.5z M-2934.2,2191c-0.1,0.4-0.1,0.8-0.1,1.2
		c0.7-0.3,1.3-0.6,1.7-1C-2933.2,2191.2-2933.8,2191.1-2934.2,2191z M-2931.8,2191.9c-0.7,0.6-1.5,1.1-2.5,1.5
		c0.1,0.4,0.2,0.8,0.3,1.1c1-0.5,1.9-1,2.7-1.5C-2931.4,2192.7-2931.6,2192.3-2931.8,2191.9z"/>
	<path class="st1" d="M-2925.9,2176.2c-0.7,0-2.3-0.3-2.3-0.3s1.4,1,2.3,1c1,0,1.7,0,2.4-0.2s1.4-0.9,1.7-1.1
		c0.3-0.2-1.1,0.4-1.8,0.5C-2924.4,2176.2-2925.2,2176.2-2925.9,2176.2z"/>
	<path class="st1" d="M-2926.1,2174.1c0.3,0,1.9-0.2,3-0.5c1.8-0.4,3.6-1.2,5.1-2.2c-1.2-0.8-2.4-0.7-3.6-1c-0.2,0-2.9-0.2-2.9-0.2
		l-1.3,0.9l-1.3-0.6c-0.7-0.2-2,0.3-2.7,0.4c-1.3,0.3-2.5,0.7-3.5,1.3c0.1,0.1,3.4,1.4,4.9,1.6
		C-2928.1,2173.9-2926.4,2174.1-2926.1,2174.1z"/>
	<path class="st1" d="M-2931.6,2164.7c0.7,0.2,1,0.1,2.2,1.3c0.4,0.4,0.9,0.7,1.8,0.7c1.3,0,1.6-0.7,2.3-1.3
		c0.2-0.2,0.4-0.5,0.6-0.7c0.8-0.8,1.2-1,2.2-1.2c0.3-0.1,0.9-0.1,1.2-0.3c0.9-0.5,0.8-1.3-0.1-2c0,0-0.4-0.2-0.3,0
		c1.4,1.6-1.1,1.7-1.8,1.9c-0.4,0.1-0.8,0.4-1.1,0.7c-0.6,0.6-0.9,1.3-1.7,1.8c-1,0.6-1.9,0.5-2.8-0.3c-0.7-0.6-1.5-0.8-2.3-1.1
		c-0.3-0.1-0.9-0.2-1-0.6c-0.2-1,0.4-2.1,0.4-2.2c0,0-0.2,0.1-0.3,0.3c-0.3,0.5-1,1.3-0.7,2.3
		C-2932.8,2164.5-2931.9,2164.6-2931.6,2164.7z"/>
	<path class="st1" d="M-2936.6,2170.3c0.2-3.7,0.7-5,2.6-9.1c0.1-0.1-0.5,0.2-0.5,0.2c-2.1,3.5-2.6,5.2-2.3,8.8
		C-2936.8,2170.4-2936.8,2170.4-2936.6,2170.3z"/>
	<path class="st1" d="M-2916.2,2167.9c0.4-2.6-0.9-4.8-3.3-6.4c0,0-0.4-0.1-0.4,0c1.9,1.7,3.2,4.4,3.5,6.5
		C-2916.2,2168-2916.2,2168-2916.2,2167.9z"/>
	<path class="st1" d="M-2911.1,2165.4c0.2-3.1,1.3-7.5,3-11c0-0.1-0.4,0.1-0.4,0.1c-2.5,3.7-2.9,6.5-2.8,10.8
		C-2911.2,2165.4-2911.1,2165.4-2911.1,2165.4z"/>
	<path class="st1" d="M-2904.6,2151.7c0.1,0.6,0,1.1-0.2,1.8c-0.2,0.8-0.4,1.2-0.4,1.2l0.5-0.1c0.8-1,1-1.3,1.2-1.6
		c0.4-0.6,0.6-1.5,0.6-2.2c0-0.6-0.4-0.9-0.6-1.3c-0.3-0.4-1.1-0.6-1.4-0.3c-0.4,0.3-0.4,1-0.1,1.2S-2904.6,2151.1-2904.6,2151.7z"
		/>
	<path class="st1" d="M-2915.9,2153.4c-1.7,0.1-3.6,0.2-5.8-0.4c0,0-0.9-0.3-0.6,0.1c3,1,3.9,1,5.9,0.8
		C-2915.6,2153.8-2915.4,2153.3-2915.9,2153.4z"/>
	<path class="st1" d="M-2932.6,2154c-1.4,0.7-2.5,1-4.4,1.4c-0.5,0.1,0.6,0.5,1.3,0.4c1.6-0.4,2.2-0.6,3.7-1.8
		C-2931.8,2153.6-2932.6,2154-2932.6,2154z"/>
	<path class="st1" d="M-2940.9,2152.4c0.3-0.7,1.5-1.6,2.4-1.9c-0.1,0.3-0.2,0.6-0.2,0.9c0,1.1,0.9,1.9,2,1.8c1.1,0,1.9-0.9,1.8-2
		c0-0.1,0-0.3-0.1-0.4c0.6,0.3,1.2,0.8,1.7,1.3c-1.9,1.2-4,1.5-6.2,0.9c0,0-0.1,0-0.2-0.1c-0.4-0.1-0.8-0.3-1-0.3
		c-0.1,0-0.1,0-0.1,0.1c0,0.1,0,0.1,1,0.7c1,0.4,1.8,0.5,2.6,0.5c1.4,0,2.6-0.5,4.4-1.3c0.1,0.1,0.1,0.1,0.2,0.2
		c0.2,0.2,0.8-0.1,0.6-0.3c-0.9-1-1.8-1.8-3.2-2.3c-0.6-0.2-1.1-0.4-1.7-0.4c-0.3,0-0.7,0-1.1,0c-1.3,0.1-2.2,0.7-3.2,1.8
		C-2941.4,2151.9-2941.1,2152.6-2940.9,2152.4z M-2937.6,2150.6c0.3,0,0.5,0.2,0.5,0.5c0,0.3-0.2,0.5-0.5,0.5s-0.5-0.2-0.5-0.5
		C-2938.1,2150.8-2937.9,2150.6-2937.6,2150.6z"/>
	<path class="st1" d="M-2922.1,2151.3c1.5,0.6,2.5,1,3.6,1c0.8,0,1.6-0.2,2.4-0.7c0.8-0.6,0.8-0.6,0.8-0.7c0,0,0,0-0.1,0
		c-0.1,0-0.3,0.1-0.8,0.3c-0.1,0-0.2,0.1-0.2,0.1c-0.7,0.3-1.4,0.5-2.2,0.5c-1,0-2.1-0.3-3.1-0.9c0.4-0.4,0.9-0.8,1.5-1.3v0.1
		c0,1,0.8,1.8,1.8,1.8s1.8-0.8,1.8-1.8c0-0.5-0.2-0.9-0.5-1.2c0.6,0.1,1.3,0.7,1.8,1.4c0.2,0.2,1,0.5,0.9,0.3
		c-0.8-1-1.8-2.3-3.2-2.3c-0.2,0-0.3,0-0.5,0.1c-0.6,0.1-1.2,0.3-1.7,0.6c-1.2,0.7-2.2,1.8-3.1,2.6
		C-2922.9,2151.4-2922.4,2151.4-2922.1,2151.3z M-2919.1,2149c0.3,0,0.5,0.2,0.5,0.5s-0.2,0.5-0.5,0.5s-0.5-0.2-0.5-0.5
		S-2919.4,2149-2919.1,2149z"/>
	<path class="st1" d="M-2942.4,2144c-0.6,0.2-1.1,0.6-1.8,1.1c-0.1,0.1-0.1,0.2-0.1,0.2c0.7-0.2,1.3-0.5,2-0.8
		c0.4-0.2,0.8-0.4,2.2-0.3c0.1,0-0.5-0.3-0.5-0.3C-2941.2,2143.8-2942.1,2143.9-2942.4,2144z"/>
	<path class="st1" d="M-2935.6,2142.8c-0.7-0.4-5.1-0.3-5.7-0.2c-0.7,0.1-1.8,0.4-2.6,0.8c-0.4,0.3-0.2,0.1-0.1,0.2
		c1.3-0.1,2.5-0.3,2.8-0.4c0.4-0.1,4.8-0.5,6,0C-2935.1,2143.2-2935.6,2142.8-2935.6,2142.8z"/>
	<path class="st1" d="M-2901.9,2148c0.2,0,0.2-2.6,0-2.7c-0.1-0.2-0.8-0.5-0.9-0.4C-2902.9,2145-2902.1,2148-2901.9,2148z"/>
	<path class="st1" d="M-2947.6,2149.4c-0.1-0.1-0.6,0.4-0.7,0.5c-0.1,0.2,0.6,2.2,0.6,2C-2947.6,2150.5-2947.6,2149.5-2947.6,2149.4
		z"/>
	<path class="st1" d="M-2900.4,2144.7c0-0.1-0.1-0.2-0.1-0.2s-0.5-1.2-2.3-1.6c-0.1,0-0.1,0-0.2,0c0.4-1.5,0.6-2.1,0.6-3.8
		c-0.1-1.8-0.1-6.7-1.6-10.1c-0.7-1.5-4.1-6-5.1-6.9c-2-1.9-4.4-1.9-6.9-2.1c-1.2-2.2-4.9-3.6-6.5-3.8c-6.1-0.8-13.8,1.5-19.1,4.9
		c-4.7,3-6.3,6.9-7.1,10.4c-0.7,3.2,0.7,10.9,0.9,13.5c0.1,1,0.2,1.8,0.3,2.5c-0.8,0.3-1.4,0.9-1.8,1.7c-0.5,1.1,0.3,3.8,0.9,4.8
		c0.3,0.5,0.7,1,1.2,1.5c0.3,0.3,0.6,0.7,0.8,0.9c0.2,0.2,0.2,0.4,0.2,0.8c0,0.1,0,0.3,0,0.4c0.1,0.9,0.8,2.9,0.8,3
		c-0.4,0.5-0.6,1.2-0.6,1.9c0,1.8,1.5,3.3,3.3,3.3c0.4,0,0.9-0.1,1.2-0.2c0.2,0.7,0.3,1.4,0.4,2.2c0,0.5,0.2,0.9,0.2,1.5
		c0.4,1.9,1,3.3,1.7,4.6c-0.5,0.2-1,0.4-1.5,0.7c-1.4,6.1-0.5,12.8,4.9,14.5c8.8,2.8,23.8-4.2,33.4-15.6c0.4-0.5,0.8-0.9,1.1-1.4
		l-6.4-3c0.1-0.6,0.2-1.2,0.3-1.8c0.1-0.6,0.2-3.8,0.3-4.6c0.6,0.5,1.4,0.9,2.2,0.9c1.8,0,3.3-1.5,3.3-3.3c0-1.1-0.5-2-1.3-2.6
		c0.2-0.2,0.4-0.4,0.5-0.6c0.6-0.9,1.6-5.8,1.7-5.9c0.3-1.1,0.2-2.2,0.4-3.3C-2900.1,2146.8-2899.9,2146-2900.4,2144.7z
		 M-2916.2,2123.2c0.4-0.1,0.8-0.1,1.2-0.1c0.7,0,1.3,0.1,1.9,0.4c0.6,0.3,0,0.4-0.3,0.3c-0.2-0.1-0.5-0.1-0.7-0.1
		c-0.7,0-1.5,0.1-2.1,0.2c-1,0.2-1.8,0.8-2.5,1.4c-0.2,0.2-1-0.2-0.9-0.3C-2918.6,2124-2917.6,2123.4-2916.2,2123.2z
		 M-2921.2,2121.9c0.4-0.2,0.7-0.3,1.1-0.4c0.4,0,0.9,0,1.6,0.1c0.1,0,0.5,0.1,0.2,0.2c-0.1,0-0.3,0-0.4,0.1
		c-0.8,0.1-1.7,0.1-2.3,0.7c-0.7,0.6-1.1,2.4-1.1,2.4c-0.1,0.1-0.8,0.3-0.8,0.2C-2923.1,2123.3-2922.6,2122.7-2921.2,2121.9z
		 M-2937.2,2123.4c1.4-0.4,3-0.5,4.4,0.2c1.6,0.7,4.3,3.5,4.4,4.1c0.1,0.6-1,0.2-1.3-0.2c0,0-2.1-2.5-3.4-3.1
		c-1.3-0.7-2.9-0.7-4.4-0.6C-2938.1,2123.7-2937.4,2123.4-2937.2,2123.4z M-2944.1,2136.2c0.8-0.8,4.3-2.8,7.1-3.4
		c-1.3-0.8-2.4-1.4-2.7-1.5c-1.3-0.6,0.1-0.6,2.3,0c2.4,0.7,3.6,2,2.6,0.9c-0.3-0.4-1.1-1-2-1.5c-0.8-0.5-2-1.2-2.7-1.3
		c-3.1-0.8-1.7-0.9,0-0.7c0.3,0,1.9,0.5,3.2,1.3c0.8,0.5,2,1.6,2.3,1.9c2.5,2.2,2.7,1,1.5-0.4c-0.5-0.6-2.1-2.5-3.4-3.4
		c-3.7-2.4-5.8-1.5-6.6-1.8c-0.6-0.2,1-0.7,2.5-0.6c1.1,0,3.2,0.6,4.5,1.4c2.8,1.7,4.6,4.8,5,5.1c0.3,0.3,0.5,0.3,0.6,0.3
		c6.2-3.3,11.2-2.3,14.2-1c3.1,1.4,0.4,1.3,0.4,1.3c5.3,3,1.4,2.3,1.4,2.4c4.8,2.5,1.7,2,1.5,2c-0.1,0,1.8,2.1,2.9,3.6
		c0.9,1.3,1.8,3.2,2.5,4.7l-2.4,1h-0.3l-0.1-0.5c0,0-2.3,0.1-3.8,0.2c-1.8-0.3-3.8-0.3-5.8,0c-0.3,0-0.6,0.1-0.9,0.2
		c1-0.5,2.7-1.3,3.1-1.5c0.6-0.2,1.4-0.4,1.9-0.6c0.5-0.1,1,0.1,1.7,0.1c0.7,0,1.6-0.4,1.3-0.4c-0.3,0-2.2-0.4-2.7-0.5
		c-0.5-0.1-1.5,0.1-1.9,0.2c-0.4,0.1-1.7,0.6-2.2,0.7c-0.5,0.1-2.5,1-3,1.3s-1.7,0.7-2.1,1c-0.4,0.2,0.3,0.7,0.5,0.8
		c-1.3,0.7-1.9,1.5-2.2,2.1c-0.4,0-1.6,0-2.2,0.1c-0.4,0-1.3,0.3-1.7,0.5c-0.5-0.8-1.6-1.8-4.2-2.2c0.2-0.1,0.5-0.2,0.6-0.5
		c0.2-0.5-0.6-0.6-0.6-0.6s-1.2-0.3-1.8-0.4c-0.7,0-1.3-0.1-2.1-0.1s-1.6-0.1-2.4,0c-0.8,0.1-1.5,0-2.2,0.5c-0.3,0.2-1,0.5-0.5,0.7
		c0.1,0,0.5-0.2,0.7-0.2c0.4-0.1,1.4-0.1,1.8-0.1c0.4,0,0.8,0.1,1.2,0.1c0.4,0.1,0.9,0.2,1.5,0.3c0.4,0.1,0.8,0.2,1.1,0.2
		c-0.1,0-0.1,0-0.2,0c-2,0.1-4,0.5-5.7,1.1c-0.4,0.1-0.8,0.1-1.3,0.2c-0.3,0-0.6,0.1-0.9,0.1c0,0,0-1.2,0-1.8c0-0.5,0-1-0.1-1.5
		c-0.1-0.7,0-2.2,0-2.9c-1,2-1.4,0.2,0-2.2c-1.4,1.6-1.5-0.9,0.4-2.4C-2946.6,2139.3-2944.9,2137-2944.1,2136.2z M-2925.6,2150.6
		c0-0.4,0.5-2.7,6.2-3.5c1-0.2,2-0.2,3-0.2s2,0.1,3,0.3c2.5,0.4,2.2,3.3,2.2,3.3c0,0.3-0.1,0.6-0.1,0.9c-0.1,0.6-0.1,1.3-0.2,1.9
		c-0.1,0.8-0.5,1.9-1,2.4c-0.5,0.4-1.2,0.6-1.9,0.8h-0.2c-1,0.3-1.9,0.5-2.8,0.5h-0.4c-0.6,0-1.2,0.1-1.8,0.1
		c-1.1,0-1.9-0.1-2.4-0.4c-1.3-0.7-1.9-1.7-2.7-3l-0.2-0.3C-2925.4,2152.6-2925.6,2151.5-2925.6,2150.6z M-2943.6,2156.8
		c0.1,0.3,0.2,0.6,0.3,0.9l0,0c-0.1-0.4-0.2-0.7-0.3-1.1c-0.3-1.2-0.7-2.4-1.1-3.7l0,0c0-0.1,0-0.2,0-0.3c0-0.3,0-0.7,0.1-1.1l0,0
		c0.1-0.4,0.3-0.8,0.7-1.1c0.2-0.2,0.5-0.4,0.9-0.5c1.7-0.7,3.7-1.1,5.8-1.2c0.3,0,0.7,0,1,0c3.7,0,5.4,1.2,5.8,2.3
		c0.3,0.9,0.3,2-0.1,2.9l-0.1,0.4c-0.5,1.4-1,2.6-2.1,3.5c-0.9,0.7-2.8,1-4.1,1.1h-0.4c-0.8,0.1-1.8,0.1-2.8,0h-0.2
		c-0.6-0.1-1.2-0.1-1.7-0.4c-0.1,0-0.2-0.1-0.2-0.1c-0.2-0.1-0.4-0.3-0.6-0.6c-0.1-0.1-0.2-0.2-0.3-0.4c-0.2-0.3-0.3-0.6-0.5-0.9
		C-2943.6,2157-2943.6,2157-2943.6,2156.8z M-2945.6,2155.8c-0.5-0.7-1.8-1.5-2.3-2.2c-0.6-1-1-3.5-0.8-4.2c0.1-0.4,0.6-1,1.3-1.3
		c0.2,0.9,0.3,1.5,0.5,2l-0.7,0.2l0.3,1.2c0,0,0.4-0.2,0.8,0c0.1,0.1,0.2,0.2,0.4,0.3c0.1,0.4,0.2,0.7,0.3,1.1
		c0,0.2,0.1,0.3,0.1,0.5c0,0.1-0.1,0.1-0.1,0.2c-0.1,0.3,0.4,2.6,0.8,3.1l0.1,0.1l0.1,0.1c0,0.1,0.1,0.3,0.1,0.4
		c0.1,0.3,0.2,0.6,0.2,0.9c0.1,0.4,0.2,0.8,0.4,1.2c-0.4,0.1-0.7,0.3-1,0.6c-0.2-0.8-0.4-1.7-0.5-2.6
		C-2945.2,2156.8-2945.2,2156.3-2945.6,2155.8z M-2942.6,2164.8c-1.3,0-2.4-1.1-2.4-2.4c0-0.2,0-0.4,0.1-0.6
		c0.1-0.3,0.3-0.7,0.5-0.9c0.3-0.3,0.6-0.6,1-0.7c0.1,0.2,0.1,0.3,0.2,0.5c0.1,0.3,0.3,0.7,0.4,1.1c0,0,0,0-0.1,0.1c0,0,0,0,0.1-0.1
		c0.1,0.3,0.2,0.6,0.3,0.8c0.1,0.2,0.1,0.3,0.2,0.4c0.2,0.5,0.5,1,0.7,1.5C-2941.9,2164.8-2942.2,2164.8-2942.6,2164.8z
		 M-2926.9,2187.4c-1.9-0.2-4.4-3.9-6.4-7.6c0.2,0.2,0.5,0.4,0.7,0.5c0.7,0.4,1,0.7,1.5,1c0.3,0.2,0.9,0.7,1.2,0.9
		c1.3,0.9,2.1,1.1,4,1.5c0.5,0.2,2.5,0,4.5-0.4C-2923.8,2185.8-2925.9,2187.5-2926.9,2187.4z M-2902.4,2160c0,1.3-1.1,2.4-2.4,2.4
		c-0.8,0-1.4-0.4-1.9-0.9c-0.1-0.2-0.3-0.4-0.3-0.6c-0.1-0.3-0.2-0.6-0.2-0.9c0-1.3,1.1-2.4,2.4-2.4c0.2,0,0.3,0,0.5,0.1
		c0.3,0.1,0.6,0.2,0.9,0.4C-2902.8,2158.5-2902.4,2159.2-2902.4,2160z M-2900.9,2147.7c-0.2,3.2-1.1,6.4-2.5,9.3
		c-1-0.5-2.3-0.3-3.2,0.4c-0.9,0.7-1.4,1.9-1.3,3c0.1,0.5,0.2,0.9,0.3,1.4c0.1,0.6,0,1.2-0.1,1.7c-0.3,2.6-0.7,5.3-2,7.6
		c-0.9,1.7-2.3,3.1-3.5,4.5c-2.5,2.9-5,6.4-8.8,7.2c-2.3,0.5-4.7-0.1-6.8-1.1c-1.3-0.7-2.5-1.5-3.6-2.4c-1-0.8-2.1-1.5-2.9-2.4
		c-1.8-2-3.5-4.3-4.3-6.9c-0.5-1.6-0.7-3.3-1.1-4.9c-0.5-2.2-1.4-4.2-2.3-6.3c1.3,0.7,2.8,0.8,4.2,0.8c1.8,0,3.6-0.1,5.3-0.8
		c1.5-0.6,2.8-1.8,3.2-3.4l0.3,2.1l0.2-3.4c0.1-0.2,0.1-0.5,0.2-0.7c0.5-1.1,2-1.9,2.9-1.2c0.5,0.4,0.8,0.9,1,1.4l0.5,3.8l0.2-2.5
		c0.9,1.6,2.7,2.7,4.6,3c2.2,0.4,4.4-0.1,6.5-0.8c0.7-0.2,1.5-0.5,2-1c0.8-0.7,1.1-1.8,1.3-2.9c0.2-1.1,0.3-2.3,0.2-3.4
		c0-0.5-0.1-1,0.1-1.5c0.6-1.2,2.5-0.9,3.5-1.9c0.1,1,0.2,2,0.3,3c0.5-1.5,1-2.9,1.5-4.4c0.1-0.4,0.3-0.9,0.6-1.2
		c0.8-0.8,2.2-0.4,2.9,0.5c0.5,0.7,0.6,1.5,0.6,2.4C-2900.9,2147.2-2900.9,2147.5-2900.9,2147.7z"/>
</g>
<g>
	<path class="st0" d="M-2900.9,2189.4c-0.2-0.8-0.3-1.7-0.6-2.6c1,0.1,2,0.2,2.9,0.3c0.3,1.2,0.4,2.2,0.5,2.8
		C-2898.8,2189.8-2899.8,2189.7-2900.9,2189.4z M-2913.6,2185.4c0.7,0.4,1.5,0.8,2.4,1.1c-0.2-0.8-0.4-1.6-0.7-2.2
		C-2912.6,2184.7-2913.1,2185.1-2913.6,2185.4z M-2944.1,2176.1c0.6-0.3,1.1-0.5,1.6-0.7c0-0.1,0-0.1,0-0.2
		c-0.5,0.2-1.1,0.5-1.7,0.8C-2944.1,2176-2944.1,2176.1-2944.1,2176.1z M-2941.8,2186.7c-0.9-0.2-1.7-0.5-2.6-0.8
		c-0.4,0.6-0.9,1.2-1.3,1.8c0.9,0.3,1.9,0.5,2.8,0.6C-2942.4,2187.8-2942.1,2187.2-2941.8,2186.7z M-2949.1,2190.9
		c0.5-0.8,1-1.7,1.6-2.5c-1.2-0.4-2.4-0.8-3.4-1.3c-1.2,1.2-2.2,2.3-2.8,3C-2952.6,2190.3-2951.1,2190.7-2949.1,2190.9z
		 M-2897.8,2186c-0.1-0.6-0.3-1.3-0.5-2c1.2,0,2.4,0,3.4-0.1c0.2,1,0.3,1.8,0.4,2.3C-2895.1,2186.2-2896.4,2186.2-2897.8,2186z
		 M-2901.4,2176.7c0.6,0.8,1,1.7,1.5,2.6c1.2,0,2.4-0.1,3.6-0.2c-0.3-0.7-0.6-1.3-1-2C-2898.8,2177.2-2900.1,2177-2901.4,2176.7z
		 M-2893.9,2182.7c1-0.1,1.8-0.1,2.3-0.2c0-0.6-0.2-1.6-0.5-2.8c-0.8,0.1-1.7,0.3-2.6,0.4
		C-2894.4,2181.1-2894.1,2181.9-2893.9,2182.7z M-2915.1,2186.3c-0.8,0.4-1.5,0.8-2.3,1.2c0.6,0.4,1.4,0.9,2.4,1.4
		C-2914.9,2187.8-2914.9,2187-2915.1,2186.3z M-2895.1,2182.8c-0.2-0.8-0.5-1.6-0.8-2.5c-1.1,0.1-2.3,0.2-3.5,0.2
		c0.3,0.8,0.6,1.6,0.8,2.4C-2897.4,2182.9-2896.1,2182.9-2895.1,2182.8z M-2904.4,2180.2c0.5,0.7,1,1.6,1.4,2.4
		c1,0.1,2.1,0.2,3.1,0.2c-0.3-0.8-0.5-1.6-0.9-2.3C-2901.9,2180.5-2903.2,2180.4-2904.4,2180.2z M-2901.6,2193.1
		c-0.1-0.6-0.2-1.6-0.4-2.7c-0.9-0.2-1.9-0.4-3-0.7c0.1,0.9,0.1,1.7,0.2,2.6C-2903.6,2192.6-2902.4,2192.9-2901.6,2193.1z
		 M-2902.2,2189.1c-0.2-0.8-0.4-1.6-0.6-2.5c-0.9-0.1-1.9-0.3-2.8-0.5c0.2,0.7,0.4,1.5,0.5,2.3
		C-2904.1,2188.7-2903.1,2188.9-2902.2,2189.1z M-2900.4,2173.8c-0.2,0.2-0.3,0.4-0.5,0.6c-0.3,0.3-0.6,0.7-0.9,1
		c1.2,0.3,2.3,0.5,3.6,0.5C-2898.9,2175.1-2899.6,2174.4-2900.4,2173.8z M-2911.1,2187.9c-1-0.4-1.9-0.8-2.7-1.2
		c0.1,0.8,0.1,1.7,0,2.7c0.9,0.4,1.9,0.7,2.9,1.1C-2911.1,2189.5-2911.1,2188.7-2911.1,2187.9z M-2911.6,2195.4
		c-1.1-0.5-2.3-1-3.4-1.6c-0.3,0.9-0.5,1.8-0.8,2.6c1.3,0.8,2.5,1.6,3.7,2.3C-2911.9,2198-2911.8,2196.8-2911.6,2195.4z
		 M-2911.1,2191.6c-1-0.3-2-0.7-3-1.1c-0.1,0.7-0.3,1.4-0.5,2.1c1.1,0.5,2.2,1,3.2,1.5C-2911.2,2193.4-2911.1,2192.5-2911.1,2191.6z
		 M-2905.1,2178.8c1.1,0.3,2.4,0.5,3.8,0.5c-0.5-1-1.1-1.9-1.7-2.6C-2903.6,2177.4-2904.4,2178.1-2905.1,2178.8z M-2908.1,2181.5
		c1.1,0.4,2.4,0.8,3.8,1c-0.5-1-1.1-1.9-1.8-2.6C-2906.9,2180.4-2907.4,2181-2908.1,2181.5z M-2895.1,2179c1-0.1,1.9-0.2,2.7-0.4
		c-0.2-0.7-0.5-1.3-0.8-2c-1,0.2-1.9,0.4-2.8,0.4C-2895.6,2177.7-2895.4,2178.4-2895.1,2179z M-2925.1,2194.9
		c-0.4-0.4-0.7-0.8-1-1.2c-0.6,0.7-1.3,1.3-2.1,2c0.4,0.5,0.7,1,1.1,1.5C-2926.4,2196.4-2925.8,2195.7-2925.1,2194.9z
		 M-2947.6,2177.5c0.1,0.1,0.2,0.3,0.3,0.4c0.7-0.4,1.3-0.9,2-1.2c-0.1-0.1-0.1-0.1-0.2-0.2
		C-2946.1,2176.8-2946.8,2177.2-2947.6,2177.5z M-2950.8,2180.5c0.8-0.6,1.7-1.3,2.6-1.9c-0.2-0.2-0.3-0.4-0.4-0.6
		c-1.1,0.5-2.3,1-3.4,1.5C-2951.6,2179.8-2951.2,2180.1-2950.8,2180.5z M-2927.9,2198c-0.4-0.5-0.8-1.1-1.2-1.6
		c-1,0.8-2.1,1.5-3.1,2.2c0.5,0.9,0.9,1.7,1.3,2.3C-2930.1,2200.1-2929.1,2199.2-2927.9,2198z M-2899.4,2184.1c-1,0-2-0.1-3-0.2
		c0.2,0.6,0.4,1.1,0.6,1.7c1,0.1,2,0.2,2.9,0.3C-2899.1,2185.3-2899.2,2184.7-2899.4,2184.1z M-2888.2,2177.9l-3.4-1.6
		c-0.1,0-0.2,0.1-0.3,0.1c0.3,0.7,0.6,1.4,0.8,2.1C-2889.9,2178.2-2888.8,2178-2888.2,2177.9z M-2896.8,2175.9
		c0.9,0,1.9-0.2,2.9-0.4c0-0.1-0.1-0.1-0.1-0.2c-0.1,0-0.1-0.1-0.1-0.2l-5.4-2.5c-0.1,0.1-0.1,0.1-0.2,0.2
		C-2898.4,2173.7-2897.6,2174.8-2896.8,2175.9z M-2922.6,2197.5c-0.6-0.6-1.1-1.1-1.7-1.7c-0.7,0.8-1.4,1.6-2.1,2.3
		c0.7,0.8,1.4,1.6,2,2.2C-2923.9,2199.7-2923.4,2198.7-2922.6,2197.5z M-2906.1,2193.2c-1.2-0.3-2.6-0.7-4-1.2
		c-0.1,0.9-0.1,1.8-0.2,2.6c1.5,0.6,3,1.2,4.1,1.6C-2906.1,2195.5-2906.1,2194.5-2906.1,2193.2z M-2903.8,2183.7
		c-1.1-0.1-2.2-0.3-3.2-0.6c0.3,0.5,0.6,1.1,0.9,1.8c1,0.2,1.9,0.4,2.9,0.5C-2903.4,2184.8-2903.6,2184.3-2903.8,2183.7z
		 M-2906.1,2191.9c0-0.8-0.1-1.7-0.2-2.5c-1.3-0.3-2.5-0.7-3.7-1.1c0,0.8,0.1,1.6,0,2.5C-2908.6,2191.2-2907.2,2191.6-2906.1,2191.9
		z M-2906.4,2188.1c-0.1-0.8-0.3-1.5-0.6-2.2c-1.3-0.3-2.5-0.6-3.5-1.1c0.2,0.7,0.4,1.4,0.5,2.2
		C-2908.9,2187.4-2907.6,2187.8-2906.4,2188.1z M-2920.9,2194.3c-0.5-0.4-1-0.8-1.4-1.1c-0.3,0.6-0.7,1.1-1.1,1.7
		c0.5,0.5,1,1.1,1.5,1.6C-2921.6,2195.7-2921.4,2195-2920.9,2194.3z M-2917.1,2196.9c-0.9-0.6-1.9-1.3-2.8-1.9
		c-0.4,0.8-0.8,1.6-1.1,2.3c1,0.9,1.9,1.9,2.8,2.7C-2918.1,2199.1-2917.6,2198.1-2917.1,2196.9z M-2910.8,2183.5
		c0.9,0.4,2,0.8,3.2,1.1c-0.4-0.8-1-1.6-1.6-2.2C-2909.6,2182.7-2910.2,2183.1-2910.8,2183.5z M-2945.1,2194.6
		c0.2-0.6,0.3-1.3,0.5-2c-1.3-0.1-2.6-0.2-3.9-0.4c-0.7,1.1-1.2,2.1-1.6,2.7C-2948.6,2194.9-2946.9,2194.8-2945.1,2194.6z
		 M-2950.1,2186.2c1,0.4,2.1,0.8,3.2,1.2c0.5-0.7,0.9-1.4,1.4-2c-0.8-0.4-1.6-0.9-2.4-1.3
		C-2948.6,2184.8-2949.4,2185.5-2950.1,2186.2z M-2946.9,2183.2c0.7,0.4,1.5,0.9,2.2,1.2c0.5-0.6,1.1-1.2,1.6-1.7
		c-0.7-0.4-1.3-0.8-1.9-1.2C-2945.6,2182.2-2946.2,2182.7-2946.9,2183.2z M-2939.8,2195c-1.5,0.3-3,0.5-4.4,0.7
		c-0.2,1.1-0.4,2-0.5,2.6c1.4-0.4,3.2-0.9,5.1-1.5C-2939.6,2196.2-2939.6,2195.6-2939.8,2195z M-2942.1,2189.6
		c-0.3,0.6-0.5,1.2-0.8,1.8c1.1,0,2.2,0,3.2-0.1c0.1-0.6,0.2-1.2,0.4-1.7C-2940.1,2189.8-2941.1,2189.8-2942.1,2189.6z
		 M-2942.8,2181.6c-0.1-0.5-0.1-1-0.1-1.5c-0.4,0.3-0.7,0.5-1.1,0.8C-2943.6,2181.1-2943.1,2181.4-2942.8,2181.6z M-2944.1,2191.4
		c0.2-0.7,0.5-1.3,0.8-1.9c-1-0.2-1.9-0.4-2.9-0.7c-0.5,0.8-1,1.6-1.5,2.3C-2946.6,2191.2-2945.4,2191.3-2944.1,2191.4z
		 M-2939.8,2192.5c-1.1,0.1-2.3,0.1-3.5,0.1c-0.2,0.6-0.4,1.2-0.5,1.8c1.3-0.2,2.7-0.4,4-0.6
		C-2939.8,2193.4-2939.9,2192.9-2939.8,2192.5z M-2953.9,2184.5c0.6,0.3,1.6,0.8,2.8,1.3c0.7-0.7,1.5-1.5,2.4-2.3
		c-0.7-0.5-1.4-1-2-1.4C-2952.1,2183-2953.2,2183.9-2953.9,2184.5z M-2881.1,2181.2l-6-2.8c0,0.3-0.2,0.5-0.4,0.5s-1.4,0.3-3.3,0.7
		c0.5,1.9,0.5,3.4,0.5,3.5c0,0.3-0.2,0.6-0.5,0.6c-0.1,0-1.2,0.1-2.7,0.2c0.3,1.6,0.4,2.8,0.4,2.9c0,0.2,0,0.3-0.2,0.4
		c-0.1,0.1-0.3,0.2-0.4,0.2c-0.2,0-1.6-0.1-3.6-0.2c0.4,1.8,0.6,3.2,0.6,3.3c0,0.2,0,0.4-0.2,0.5c-0.1,0.1-0.3,0.2-0.5,0.2
		s-1.4-0.2-3.2-0.6c0.3,1.7,0.4,3,0.4,3.1c0,0.2-0.1,0.4-0.2,0.5c-0.1,0.1-0.3,0.2-0.5,0.1c-0.4-0.1-1.9-0.4-3.8-0.9
		c0,2-0.2,3.4-0.3,3.6c0,0.2-0.1,0.3-0.3,0.4c-0.1,0.1-0.3,0.1-0.5,0.1c-0.2-0.1-2.1-0.7-4.5-1.7c-0.3,2.2-0.7,3.8-0.7,4
		c0,0.2-0.2,0.3-0.3,0.4c-0.2,0.1-0.4,0.1-0.5,0c-0.4-0.3-2.2-1.3-4.2-2.6c-0.7,1.8-1.3,3.2-1.4,3.6c-0.2,0.2-0.4,0.3-0.6,0.3
		s-0.4,0-0.5-0.1c-0.3-0.3-1.7-1.5-3.2-3c-1.1,1.8-2,3.1-2.1,3.2c-0.1,0.1-0.3,0.2-0.4,0.2l0,0c-0.2,0-0.3-0.1-0.4-0.2
		c-0.3-0.3-1.3-1.3-2.5-2.7c-1.8,1.8-3.4,3.1-3.5,3.2c-0.1,0.1-0.2,0.1-0.4,0.1h-0.1c-0.2,0-0.3-0.1-0.4-0.2
		c-0.1-0.1-0.9-1.3-1.7-2.9c-2.3,1.4-4.1,2.3-4.3,2.4c-0.1,0-0.2,0.1-0.3,0.1c-0.1,0-0.2,0-0.2,0c-0.2-0.1-0.3-0.2-0.3-0.4
		c0-0.1-0.5-1.5-0.8-3.4c-3.2,1.1-5.9,1.7-5.9,1.7c-0.2,0-0.4,0-0.5-0.1c-0.1-0.1-0.2-0.3-0.2-0.5c0-0.1,0.2-1.4,0.5-3.2
		c-3,0.3-5.4,0.4-5.6,0.4c-0.2,0-0.4-0.1-0.5-0.3c-0.1-0.2-0.1-0.4,0-0.6c0.1-0.2,0.8-1.5,1.8-3.3c-2.9-0.4-5-0.9-5.2-0.9
		s-0.4-0.2-0.4-0.4c-0.1-0.2,0-0.4,0.1-0.6c0.1-0.1,1.3-1.6,3.2-3.5c-1.8-0.8-3.1-1.4-3.2-1.5c-0.2-0.1-0.3-0.3-0.3-0.5
		s0.1-0.4,0.2-0.5c0.2-0.1,1.6-1.4,3.6-2.9c-0.6-0.5-1.1-0.9-1.4-1.2c-4.1,1.8-7.4,3.3-7.4,3.3l-11.3,22.8l97.3-0.2L-2881.1,2181.2z
		 M-2947.9,2182.6c0.6-0.6,1.3-1.1,2-1.7c-0.5-0.4-1-0.9-1.5-1.4c-0.8,0.6-1.6,1.1-2.4,1.7
		C-2949.2,2181.7-2948.6,2182.1-2947.9,2182.6z M-2946.4,2178.8c0.4,0.5,0.9,0.9,1.4,1.3c0.6-0.5,1.3-1,1.9-1.4
		c-0.3-0.3-0.8-0.7-1.3-1.2C-2945.1,2177.9-2945.8,2178.4-2946.4,2178.8z M-2939.6,2188.5c-0.4-0.4-0.7-0.7-1-1.2
		c-0.3,0.3-0.6,0.8-0.9,1.2C-2940.9,2188.6-2940.2,2188.6-2939.6,2188.5z M-2942.4,2183.7c-0.4,0.3-0.8,0.7-1.2,1.2
		c0.6,0.2,1.2,0.4,1.8,0.6C-2941.9,2185-2942.1,2184.4-2942.4,2183.7z M-2943.2,2177c0.2,0.1,0.3,0.3,0.4,0.4c0-0.2,0-0.4,0.1-0.6
		C-2942.9,2176.8-2943.1,2176.9-2943.2,2177z M-2915.2,2190.1c-1.1-0.5-2.1-1-2.8-1.6c-0.1,0.6-0.2,1.3-0.3,2
		c0.8,0.6,1.7,1.1,2.7,1.6C-2915.6,2191.4-2915.4,2190.7-2915.2,2190.1z M-2925.4,2190.5c-0.5,0.1-0.9,0.2-1.4,0.3
		c0.2,0.3,0.4,0.7,0.7,1.1C-2925.9,2191.4-2925.6,2190.9-2925.4,2190.5z M-2921.9,2192.1c0.4,0.3,0.9,0.7,1.3,1.1
		c0.3-0.7,0.5-1.5,0.8-2.2c-0.5-0.4-0.9-0.7-1.2-1.1C-2921.1,2190.6-2921.4,2191.3-2921.9,2192.1z M-2924.4,2191.3
		c-0.2,0.5-0.5,1-0.9,1.5c0.3,0.4,0.6,0.8,1,1.1c0.4-0.5,0.7-1,1.1-1.6C-2923.8,2192-2924.1,2191.6-2924.4,2191.3z M-2928.9,2194.7
		c0.8-0.6,1.5-1.3,2.1-2c-0.3-0.4-0.6-0.9-0.9-1.3c-0.4,0.7-1.1,1.3-2,2C-2929.6,2193.9-2929.2,2194.3-2928.9,2194.7z
		 M-2930.4,2192.4c0.6-0.4,1-0.9,1.4-1.3c-0.6,0.1-1.2,0.1-1.8,0.1C-2930.6,2191.6-2930.6,2192-2930.4,2192.4z M-2915.9,2193.3
		c-1-0.5-1.9-1.1-2.7-1.6c-0.2,0.7-0.5,1.5-0.8,2.2c0.9,0.6,1.8,1.3,2.8,1.9C-2916.6,2195-2916.2,2194.1-2915.9,2193.3z
		 M-2919.2,2188.3c-0.4,0.2-0.7,0.3-1.1,0.5c0.3,0.3,0.6,0.6,0.9,0.9C-2919.4,2189.2-2919.2,2188.8-2919.2,2188.3z M-2922.1,2189.5
		c-0.6,0.2-1.2,0.4-1.8,0.6c0.2,0.4,0.6,0.8,1.1,1.2C-2922.4,2190.7-2922.2,2190.1-2922.1,2189.5z M-2929.9,2195.5
		c-0.3-0.4-0.6-0.9-0.8-1.3c-0.8,0.5-1.8,1-2.9,1.5c0.2,0.6,0.5,1.2,0.8,1.8C-2931.9,2196.9-2930.9,2196.2-2929.9,2195.5z
		 M-2933.9,2198.1c-0.3-0.6-0.6-1.3-0.9-2c-0.7,0.3-1.3,0.6-2.1,0.8c-0.5,0.2-0.9,0.3-1.4,0.5c0.2,1,0.4,2,0.6,2.7
		C-2936.6,2199.7-2935.2,2199-2933.9,2198.1z M-2935.1,2195.1c-0.1-0.4-0.2-0.8-0.3-1.2c-1,0.3-2.1,0.6-3.2,0.9
		c0,0.5,0.1,1.1,0.2,1.6C-2937.2,2196-2936.1,2195.5-2935.1,2195.1z M-2938.4,2191.2c0.8-0.1,1.6-0.4,2.2-0.6
		c-0.6-0.2-1.2-0.5-1.8-0.8C-2938.2,2190.1-2938.4,2190.6-2938.4,2191.2z M-2938.6,2193.5c1.1-0.2,2.1-0.5,3.1-0.9
		c0-0.4,0-0.8,0-1.1c-0.9,0.4-1.9,0.7-3,0.8C-2938.6,2192.8-2938.6,2193.1-2938.6,2193.5z M-2934.2,2191c-0.1,0.4-0.1,0.8-0.1,1.2
		c0.7-0.3,1.3-0.6,1.7-1C-2933.2,2191.2-2933.8,2191.1-2934.2,2191z M-2931.8,2191.9c-0.7,0.6-1.5,1.1-2.5,1.5
		c0.1,0.4,0.2,0.8,0.3,1.1c1-0.5,1.9-1,2.7-1.5C-2931.4,2192.7-2931.6,2192.3-2931.8,2191.9z"/>
	<path class="st0" d="M-2925.9,2176.2c-0.7,0-2.3-0.3-2.3-0.3s1.4,1,2.3,1c1,0,1.7,0,2.4-0.2s1.4-0.9,1.7-1.1
		c0.3-0.2-1.1,0.4-1.8,0.5C-2924.4,2176.2-2925.2,2176.2-2925.9,2176.2z"/>
	<path class="st0" d="M-2926.1,2174.1c0.3,0,1.9-0.2,3-0.5c1.8-0.4,3.6-1.2,5.1-2.2c-1.2-0.8-2.4-0.7-3.6-1c-0.2,0-2.9-0.2-2.9-0.2
		l-1.3,0.9l-1.3-0.6c-0.7-0.2-2,0.3-2.7,0.4c-1.3,0.3-2.5,0.7-3.5,1.3c0.1,0.1,3.4,1.4,4.9,1.6
		C-2928.1,2173.9-2926.4,2174.1-2926.1,2174.1z"/>
	<path class="st2" d="M-2931.6,2164.7c0.7,0.2,1,0.1,2.2,1.3c0.4,0.4,0.9,0.7,1.8,0.7c1.3,0,1.6-0.7,2.3-1.3
		c0.2-0.2,0.4-0.5,0.6-0.7c0.8-0.8,1.2-1,2.2-1.2c0.3-0.1,0.9-0.1,1.2-0.3c0.9-0.5,0.8-1.3-0.1-2c0,0-0.4-0.2-0.3,0
		c1.4,1.6-1.1,1.7-1.8,1.9c-0.4,0.1-0.8,0.4-1.1,0.7c-0.6,0.6-0.9,1.3-1.7,1.8c-1,0.6-1.9,0.5-2.8-0.3c-0.7-0.6-1.5-0.8-2.3-1.1
		c-0.3-0.1-0.9-0.2-1-0.6c-0.2-1,0.4-2.1,0.4-2.2c0,0-0.2,0.1-0.3,0.3c-0.3,0.5-1,1.3-0.7,2.3
		C-2932.8,2164.5-2931.9,2164.6-2931.6,2164.7z"/>
	<path class="st0" d="M-2936.6,2170.3c0.2-3.7,0.7-5,2.6-9.1c0.1-0.1-0.5,0.2-0.5,0.2c-2.1,3.5-2.6,5.2-2.3,8.8
		C-2936.8,2170.4-2936.8,2170.4-2936.6,2170.3z"/>
	<path class="st0" d="M-2916.2,2167.9c0.4-2.6-0.9-4.8-3.3-6.4c0,0-0.4-0.1-0.4,0c1.9,1.7,3.2,4.4,3.5,6.5
		C-2916.2,2168-2916.2,2168-2916.2,2167.9z"/>
	<path class="st0" d="M-2911.1,2165.4c0.2-3.1,1.3-7.5,3-11c0-0.1-0.4,0.1-0.4,0.1c-2.5,3.7-2.9,6.5-2.8,10.8
		C-2911.2,2165.4-2911.1,2165.4-2911.1,2165.4z"/>
	<path class="st0" d="M-2904.6,2151.7c0.1,0.6,0,1.1-0.2,1.8c-0.2,0.8-0.4,1.2-0.4,1.2l0.5-0.1c0.8-1,1-1.3,1.2-1.6
		c0.4-0.6,0.6-1.5,0.6-2.2c0-0.6-0.4-0.9-0.6-1.3c-0.3-0.4-1.1-0.6-1.4-0.3c-0.4,0.3-0.4,1-0.1,1.2S-2904.6,2151.1-2904.6,2151.7z"
		/>
	<path class="st0" d="M-2915.9,2153.4c-1.7,0.1-3.6,0.2-5.8-0.4c0,0-0.9-0.3-0.6,0.1c3,1,3.9,1,5.9,0.8
		C-2915.6,2153.8-2915.4,2153.3-2915.9,2153.4z"/>
	<path class="st0" d="M-2932.6,2154c-1.4,0.7-2.5,1-4.4,1.4c-0.5,0.1,0.6,0.5,1.3,0.4c1.6-0.4,2.2-0.6,3.7-1.8
		C-2931.8,2153.6-2932.6,2154-2932.6,2154z"/>
	<path class="st0" d="M-2940.9,2152.4c0.3-0.7,1.5-1.6,2.4-1.9c-0.1,0.3-0.2,0.6-0.2,0.9c0,1.1,0.9,1.9,2,1.8c1.1,0,1.9-0.9,1.8-2
		c0-0.1,0-0.3-0.1-0.4c0.6,0.3,1.2,0.8,1.7,1.3c-1.9,1.2-4,1.5-6.2,0.9c0,0-0.1,0-0.2-0.1c-0.4-0.1-0.8-0.3-1-0.3
		c-0.1,0-0.1,0-0.1,0.1c0,0.1,0,0.1,1,0.7c1,0.4,1.8,0.5,2.6,0.5c1.4,0,2.6-0.5,4.4-1.3c0.1,0.1,0.1,0.1,0.2,0.2
		c0.2,0.2,0.8-0.1,0.6-0.3c-0.9-1-1.8-1.8-3.2-2.3c-0.6-0.2-1.1-0.4-1.7-0.4c-0.3,0-0.7,0-1.1,0c-1.3,0.1-2.2,0.7-3.2,1.8
		C-2941.4,2151.9-2941.1,2152.6-2940.9,2152.4z M-2937.6,2150.6c0.3,0,0.5,0.2,0.5,0.5c0,0.3-0.2,0.5-0.5,0.5s-0.5-0.2-0.5-0.5
		C-2938.1,2150.8-2937.9,2150.6-2937.6,2150.6z"/>
	<path class="st0" d="M-2922.1,2151.3c1.5,0.6,2.5,1,3.6,1c0.8,0,1.6-0.2,2.4-0.7c0.8-0.6,0.8-0.6,0.8-0.7c0,0,0,0-0.1,0
		c-0.1,0-0.3,0.1-0.8,0.3c-0.1,0-0.2,0.1-0.2,0.1c-0.7,0.3-1.4,0.5-2.2,0.5c-1,0-2.1-0.3-3.1-0.9c0.4-0.4,0.9-0.8,1.5-1.3v0.1
		c0,1,0.8,1.8,1.8,1.8s1.8-0.8,1.8-1.8c0-0.5-0.2-0.9-0.5-1.2c0.6,0.1,1.3,0.7,1.8,1.4c0.2,0.2,1,0.5,0.9,0.3
		c-0.8-1-1.8-2.3-3.2-2.3c-0.2,0-0.3,0-0.5,0.1c-0.6,0.1-1.2,0.3-1.7,0.6c-1.2,0.7-2.2,1.8-3.1,2.6
		C-2922.9,2151.4-2922.4,2151.4-2922.1,2151.3z M-2919.1,2149c0.3,0,0.5,0.2,0.5,0.5s-0.2,0.5-0.5,0.5s-0.5-0.2-0.5-0.5
		S-2919.4,2149-2919.1,2149z"/>
	<path class="st0" d="M-2942.4,2144c-0.6,0.2-1.1,0.6-1.8,1.1c-0.1,0.1-0.1,0.2-0.1,0.2c0.7-0.2,1.3-0.5,2-0.8
		c0.4-0.2,0.8-0.4,2.2-0.3c0.1,0-0.5-0.3-0.5-0.3C-2941.2,2143.8-2942.1,2143.9-2942.4,2144z"/>
	<path class="st0" d="M-2935.6,2142.8c-0.7-0.4-5.1-0.3-5.7-0.2c-0.7,0.1-1.8,0.4-2.6,0.8c-0.4,0.3-0.2,0.1-0.1,0.2
		c1.3-0.1,2.5-0.3,2.8-0.4c0.4-0.1,4.8-0.5,6,0C-2935.1,2143.2-2935.6,2142.8-2935.6,2142.8z"/>
	<path class="st0" d="M-2901.9,2148c0.2,0,0.2-2.6,0-2.7c-0.1-0.2-0.8-0.5-0.9-0.4C-2902.9,2145-2902.1,2148-2901.9,2148z"/>
	<path class="st0" d="M-2947.6,2149.4c-0.1-0.1-0.6,0.4-0.7,0.5c-0.1,0.2,0.6,2.2,0.6,2C-2947.6,2150.5-2947.6,2149.5-2947.6,2149.4
		z"/>
	<path class="st0" d="M-2900.4,2144.7c0-0.1-0.1-0.2-0.1-0.2s-0.5-1.2-2.3-1.6c-0.1,0-0.1,0-0.2,0c0.4-1.5,0.6-2.1,0.6-3.8
		c-0.1-1.8-0.1-6.7-1.6-10.1c-0.7-1.5-4.1-6-5.1-6.9c-2-1.9-4.4-1.9-6.9-2.1c-1.2-2.2-4.9-3.6-6.5-3.8c-6.1-0.8-13.8,1.5-19.1,4.9
		c-4.7,3-6.3,6.9-7.1,10.4c-0.7,3.2,0.7,10.9,0.9,13.5c0.1,1,0.2,1.8,0.3,2.5c-0.8,0.3-1.4,0.9-1.8,1.7c-0.5,1.1,0.3,3.8,0.9,4.8
		c0.3,0.5,0.7,1,1.2,1.5c0.3,0.3,0.6,0.7,0.8,0.9c0.2,0.2,0.2,0.4,0.2,0.8c0,0.1,0,0.3,0,0.4c0.1,0.9,0.8,2.9,0.8,3
		c-0.4,0.5-0.6,1.2-0.6,1.9c0,1.8,1.5,3.3,3.3,3.3c0.4,0,0.9-0.1,1.2-0.2c0.2,0.7,0.3,1.4,0.4,2.2c0,0.5,0.2,0.9,0.2,1.5
		c0.4,1.9,1,3.3,1.7,4.6c-0.5,0.2-1,0.4-1.5,0.7c-1.4,6.1-0.5,12.8,4.9,14.5c8.8,2.8,23.8-4.2,33.4-15.6c0.4-0.5,0.8-0.9,1.1-1.4
		l-6.4-3c0.1-0.6,0.2-1.2,0.3-1.8c0.1-0.6,0.2-3.8,0.3-4.6c0.6,0.5,1.4,0.9,2.2,0.9c1.8,0,3.3-1.5,3.3-3.3c0-1.1-0.5-2-1.3-2.6
		c0.2-0.2,0.4-0.4,0.5-0.6c0.6-0.9,1.6-5.8,1.7-5.9c0.3-1.1,0.2-2.2,0.4-3.3C-2900.1,2146.8-2899.9,2146-2900.4,2144.7z
		 M-2916.2,2123.2c0.4-0.1,0.8-0.1,1.2-0.1c0.7,0,1.3,0.1,1.9,0.4c0.6,0.3,0,0.4-0.3,0.3c-0.2-0.1-0.5-0.1-0.7-0.1
		c-0.7,0-1.5,0.1-2.1,0.2c-1,0.2-1.8,0.8-2.5,1.4c-0.2,0.2-1-0.2-0.9-0.3C-2918.6,2124-2917.6,2123.4-2916.2,2123.2z
		 M-2921.2,2121.9c0.4-0.2,0.7-0.3,1.1-0.4c0.4,0,0.9,0,1.6,0.1c0.1,0,0.5,0.1,0.2,0.2c-0.1,0-0.3,0-0.4,0.1
		c-0.8,0.1-1.7,0.1-2.3,0.7c-0.7,0.6-1.1,2.4-1.1,2.4c-0.1,0.1-0.8,0.3-0.8,0.2C-2923.1,2123.3-2922.6,2122.7-2921.2,2121.9z
		 M-2937.2,2123.4c1.4-0.4,3-0.5,4.4,0.2c1.6,0.7,4.3,3.5,4.4,4.1c0.1,0.6-1,0.2-1.3-0.2c0,0-2.1-2.5-3.4-3.1
		c-1.3-0.7-2.9-0.7-4.4-0.6C-2938.1,2123.7-2937.4,2123.4-2937.2,2123.4z M-2944.1,2136.2c0.8-0.8,4.3-2.8,7.1-3.4
		c-1.3-0.8-2.4-1.4-2.7-1.5c-1.3-0.6,0.1-0.6,2.3,0c2.4,0.7,3.6,2,2.6,0.9c-0.3-0.4-1.1-1-2-1.5c-0.8-0.5-2-1.2-2.7-1.3
		c-3.1-0.8-1.7-0.9,0-0.7c0.3,0,1.9,0.5,3.2,1.3c0.8,0.5,2,1.6,2.3,1.9c2.5,2.2,2.7,1,1.5-0.4c-0.5-0.6-2.1-2.5-3.4-3.4
		c-3.7-2.4-5.8-1.5-6.6-1.8c-0.6-0.2,1-0.7,2.5-0.6c1.1,0,3.2,0.6,4.5,1.4c2.8,1.7,4.6,4.8,5,5.1c0.3,0.3,0.5,0.3,0.6,0.3
		c6.2-3.3,11.2-2.3,14.2-1c3.1,1.4,0.4,1.3,0.4,1.3c5.3,3,1.4,2.3,1.4,2.4c4.8,2.5,1.7,2,1.5,2c-0.1,0,1.8,2.1,2.9,3.6
		c0.9,1.3,1.8,3.2,2.5,4.7l-2.4,1h-0.3l-0.1-0.5c0,0-2.3,0.1-3.8,0.2c-1.8-0.3-3.8-0.3-5.8,0c-0.3,0-0.6,0.1-0.9,0.2
		c1-0.5,2.7-1.3,3.1-1.5c0.6-0.2,1.4-0.4,1.9-0.6c0.5-0.1,1,0.1,1.7,0.1c0.7,0,1.6-0.4,1.3-0.4c-0.3,0-2.2-0.4-2.7-0.5
		c-0.5-0.1-1.5,0.1-1.9,0.2c-0.4,0.1-1.7,0.6-2.2,0.7c-0.5,0.1-2.5,1-3,1.3s-1.7,0.7-2.1,1c-0.4,0.2,0.3,0.7,0.5,0.8
		c-1.3,0.7-1.9,1.5-2.2,2.1c-0.4,0-1.6,0-2.2,0.1c-0.4,0-1.3,0.3-1.7,0.5c-0.5-0.8-1.6-1.8-4.2-2.2c0.2-0.1,0.5-0.2,0.6-0.5
		c0.2-0.5-0.6-0.6-0.6-0.6s-1.2-0.3-1.8-0.4c-0.7,0-1.3-0.1-2.1-0.1s-1.6-0.1-2.4,0c-0.8,0.1-1.5,0-2.2,0.5c-0.3,0.2-1,0.5-0.5,0.7
		c0.1,0,0.5-0.2,0.7-0.2c0.4-0.1,1.4-0.1,1.8-0.1c0.4,0,0.8,0.1,1.2,0.1c0.4,0.1,0.9,0.2,1.5,0.3c0.4,0.1,0.8,0.2,1.1,0.2
		c-0.1,0-0.1,0-0.2,0c-2,0.1-4,0.5-5.7,1.1c-0.4,0.1-0.8,0.1-1.3,0.2c-0.3,0-0.6,0.1-0.9,0.1c0,0,0-1.2,0-1.8c0-0.5,0-1-0.1-1.5
		c-0.1-0.7,0-2.2,0-2.9c-1,2-1.4,0.2,0-2.2c-1.4,1.6-1.5-0.9,0.4-2.4C-2946.6,2139.3-2944.9,2137-2944.1,2136.2z M-2925.6,2150.6
		c0-0.4,0.5-2.7,6.2-3.5c1-0.2,2-0.2,3-0.2s2,0.1,3,0.3c2.5,0.4,2.2,3.3,2.2,3.3c0,0.3-0.1,0.6-0.1,0.9c-0.1,0.6-0.1,1.3-0.2,1.9
		c-0.1,0.8-0.5,1.9-1,2.4c-0.5,0.4-1.2,0.6-1.9,0.8h-0.2c-1,0.3-1.9,0.5-2.8,0.5h-0.4c-0.6,0-1.2,0.1-1.8,0.1
		c-1.1,0-1.9-0.1-2.4-0.4c-1.3-0.7-1.9-1.7-2.7-3l-0.2-0.3C-2925.4,2152.6-2925.6,2151.5-2925.6,2150.6z M-2943.6,2156.8
		c0.1,0.3,0.2,0.6,0.3,0.9l0,0c-0.1-0.4-0.2-0.7-0.3-1.1c-0.3-1.2-0.7-2.4-1.1-3.7l0,0c0-0.1,0-0.2,0-0.3c0-0.3,0-0.7,0.1-1.1l0,0
		c0.1-0.4,0.3-0.8,0.7-1.1c0.2-0.2,0.5-0.4,0.9-0.5c1.7-0.7,3.7-1.1,5.8-1.2c0.3,0,0.7,0,1,0c3.7,0,5.4,1.2,5.8,2.3
		c0.3,0.9,0.3,2-0.1,2.9l-0.1,0.4c-0.5,1.4-1,2.6-2.1,3.5c-0.9,0.7-2.8,1-4.1,1.1h-0.4c-0.8,0.1-1.8,0.1-2.8,0h-0.2
		c-0.6-0.1-1.2-0.1-1.7-0.4c-0.1,0-0.2-0.1-0.2-0.1c-0.2-0.1-0.4-0.3-0.6-0.6c-0.1-0.1-0.2-0.2-0.3-0.4c-0.2-0.3-0.3-0.6-0.5-0.9
		C-2943.6,2157-2943.6,2157-2943.6,2156.8z M-2945.6,2155.8c-0.5-0.7-1.8-1.5-2.3-2.2c-0.6-1-1-3.5-0.8-4.2c0.1-0.4,0.6-1,1.3-1.3
		c0.2,0.9,0.3,1.5,0.5,2l-0.7,0.2l0.3,1.2c0,0,0.4-0.2,0.8,0c0.1,0.1,0.2,0.2,0.4,0.3c0.1,0.4,0.2,0.7,0.3,1.1
		c0,0.2,0.1,0.3,0.1,0.5c0,0.1-0.1,0.1-0.1,0.2c-0.1,0.3,0.4,2.6,0.8,3.1l0.1,0.1l0.1,0.1c0,0.1,0.1,0.3,0.1,0.4
		c0.1,0.3,0.2,0.6,0.2,0.9c0.1,0.4,0.2,0.8,0.4,1.2c-0.4,0.1-0.7,0.3-1,0.6c-0.2-0.8-0.4-1.7-0.5-2.6
		C-2945.2,2156.8-2945.2,2156.3-2945.6,2155.8z M-2942.6,2164.8c-1.3,0-2.4-1.1-2.4-2.4c0-0.2,0-0.4,0.1-0.6
		c0.1-0.3,0.3-0.7,0.5-0.9c0.3-0.3,0.6-0.6,1-0.7c0.1,0.2,0.1,0.3,0.2,0.5c0.1,0.3,0.3,0.7,0.4,1.1c0,0,0,0-0.1,0.1c0,0,0,0,0.1-0.1
		c0.1,0.3,0.2,0.6,0.3,0.8c0.1,0.2,0.1,0.3,0.2,0.4c0.2,0.5,0.5,1,0.7,1.5C-2941.9,2164.8-2942.2,2164.8-2942.6,2164.8z
		 M-2926.9,2187.4c-1.9-0.2-4.4-3.9-6.4-7.6c0.2,0.2,0.5,0.4,0.7,0.5c0.7,0.4,1,0.7,1.5,1c0.3,0.2,0.9,0.7,1.2,0.9
		c1.3,0.9,2.1,1.1,4,1.5c0.5,0.2,2.5,0,4.5-0.4C-2923.8,2185.8-2925.9,2187.5-2926.9,2187.4z M-2902.4,2160c0,1.3-1.1,2.4-2.4,2.4
		c-0.8,0-1.4-0.4-1.9-0.9c-0.1-0.2-0.3-0.4-0.3-0.6c-0.1-0.3-0.2-0.6-0.2-0.9c0-1.3,1.1-2.4,2.4-2.4c0.2,0,0.3,0,0.5,0.1
		c0.3,0.1,0.6,0.2,0.9,0.4C-2902.8,2158.5-2902.4,2159.2-2902.4,2160z M-2900.9,2147.7c-0.2,3.2-1.1,6.4-2.5,9.3
		c-1-0.5-2.3-0.3-3.2,0.4c-0.9,0.7-1.4,1.9-1.3,3c0.1,0.5,0.2,0.9,0.3,1.4c0.1,0.6,0,1.2-0.1,1.7c-0.3,2.6-0.7,5.3-2,7.6
		c-0.9,1.7-2.3,3.1-3.5,4.5c-2.5,2.9-5,6.4-8.8,7.2c-2.3,0.5-4.7-0.1-6.8-1.1c-1.3-0.7-2.5-1.5-3.6-2.4c-1-0.8-2.1-1.5-2.9-2.4
		c-1.8-2-3.5-4.3-4.3-6.9c-0.5-1.6-0.7-3.3-1.1-4.9c-0.5-2.2-1.4-4.2-2.3-6.3c1.3,0.7,2.8,0.8,4.2,0.8c1.8,0,3.6-0.1,5.3-0.8
		c1.5-0.6,2.8-1.8,3.2-3.4l0.3,2.1l0.2-3.4c0.1-0.2,0.1-0.5,0.2-0.7c0.5-1.1,2-1.9,2.9-1.2c0.5,0.4,0.8,0.9,1,1.4l0.5,3.8l0.2-2.5
		c0.9,1.6,2.7,2.7,4.6,3c2.2,0.4,4.4-0.1,6.5-0.8c0.7-0.2,1.5-0.5,2-1c0.8-0.7,1.1-1.8,1.3-2.9c0.2-1.1,0.3-2.3,0.2-3.4
		c0-0.5-0.1-1,0.1-1.5c0.6-1.2,2.5-0.9,3.5-1.9c0.1,1,0.2,2,0.3,3c0.5-1.5,1-2.9,1.5-4.4c0.1-0.4,0.3-0.9,0.6-1.2
		c0.8-0.8,2.2-0.4,2.9,0.5c0.5,0.7,0.6,1.5,0.6,2.4C-2900.9,2147.2-2900.9,2147.5-2900.9,2147.7z"/>
</g>
<g>
	<path d="M-2900.9,2189.4c-0.2-0.8-0.3-1.7-0.6-2.6c1,0.1,2,0.2,2.9,0.3c0.3,1.2,0.4,2.2,0.5,2.8
		C-2898.8,2189.8-2899.8,2189.7-2900.9,2189.4z M-2913.6,2185.4c0.7,0.4,1.5,0.8,2.4,1.1c-0.2-0.8-0.4-1.6-0.7-2.2
		C-2912.6,2184.7-2913.1,2185.1-2913.6,2185.4z M-2944.1,2176.1c0.6-0.3,1.1-0.5,1.6-0.7c0-0.1,0-0.1,0-0.2
		c-0.5,0.2-1.1,0.5-1.7,0.8C-2944.1,2176-2944.1,2176.1-2944.1,2176.1z M-2941.8,2186.7c-0.9-0.2-1.7-0.5-2.6-0.8
		c-0.4,0.6-0.9,1.2-1.3,1.8c0.9,0.3,1.9,0.5,2.8,0.6C-2942.4,2187.8-2942.1,2187.2-2941.8,2186.7z M-2949.1,2190.9
		c0.5-0.8,1-1.7,1.6-2.5c-1.2-0.4-2.4-0.8-3.4-1.3c-1.2,1.2-2.2,2.3-2.8,3C-2952.6,2190.3-2951.1,2190.7-2949.1,2190.9z
		 M-2897.8,2186c-0.1-0.6-0.3-1.3-0.5-2c1.2,0,2.4,0,3.4-0.1c0.2,1,0.3,1.8,0.4,2.3C-2895.1,2186.2-2896.4,2186.2-2897.8,2186z
		 M-2901.4,2176.7c0.6,0.8,1,1.7,1.5,2.6c1.2,0,2.4-0.1,3.6-0.2c-0.3-0.7-0.6-1.3-1-2C-2898.8,2177.2-2900.1,2177-2901.4,2176.7z
		 M-2893.9,2182.7c1-0.1,1.8-0.1,2.3-0.2c0-0.6-0.2-1.6-0.5-2.8c-0.8,0.1-1.7,0.3-2.6,0.4
		C-2894.4,2181.1-2894.1,2181.9-2893.9,2182.7z M-2915.1,2186.3c-0.8,0.4-1.5,0.8-2.3,1.2c0.6,0.4,1.4,0.9,2.4,1.4
		C-2914.9,2187.8-2914.9,2187-2915.1,2186.3z M-2895.1,2182.8c-0.2-0.8-0.5-1.6-0.8-2.5c-1.1,0.1-2.3,0.2-3.5,0.2
		c0.3,0.8,0.6,1.6,0.8,2.4C-2897.4,2182.9-2896.1,2182.9-2895.1,2182.8z M-2904.4,2180.2c0.5,0.7,1,1.6,1.4,2.4
		c1,0.1,2.1,0.2,3.1,0.2c-0.3-0.8-0.5-1.6-0.9-2.3C-2901.9,2180.5-2903.2,2180.4-2904.4,2180.2z M-2901.6,2193.1
		c-0.1-0.6-0.2-1.6-0.4-2.7c-0.9-0.2-1.9-0.4-3-0.7c0.1,0.9,0.1,1.7,0.2,2.6C-2903.6,2192.6-2902.4,2192.9-2901.6,2193.1z
		 M-2902.2,2189.1c-0.2-0.8-0.4-1.6-0.6-2.5c-0.9-0.1-1.9-0.3-2.8-0.5c0.2,0.7,0.4,1.5,0.5,2.3
		C-2904.1,2188.7-2903.1,2188.9-2902.2,2189.1z M-2900.4,2173.8c-0.2,0.2-0.3,0.4-0.5,0.6c-0.3,0.3-0.6,0.7-0.9,1
		c1.2,0.3,2.3,0.5,3.6,0.5C-2898.9,2175.1-2899.6,2174.4-2900.4,2173.8z M-2911.1,2187.9c-1-0.4-1.9-0.8-2.7-1.2
		c0.1,0.8,0.1,1.7,0,2.7c0.9,0.4,1.9,0.7,2.9,1.1C-2911.1,2189.5-2911.1,2188.7-2911.1,2187.9z M-2911.6,2195.4
		c-1.1-0.5-2.3-1-3.4-1.6c-0.3,0.9-0.5,1.8-0.8,2.6c1.3,0.8,2.5,1.6,3.7,2.3C-2911.9,2198-2911.8,2196.8-2911.6,2195.4z
		 M-2911.1,2191.6c-1-0.3-2-0.7-3-1.1c-0.1,0.7-0.3,1.4-0.5,2.1c1.1,0.5,2.2,1,3.2,1.5C-2911.2,2193.4-2911.1,2192.5-2911.1,2191.6z
		 M-2905.1,2178.8c1.1,0.3,2.4,0.5,3.8,0.5c-0.5-1-1.1-1.9-1.7-2.6C-2903.6,2177.4-2904.4,2178.1-2905.1,2178.8z M-2908.1,2181.5
		c1.1,0.4,2.4,0.8,3.8,1c-0.5-1-1.1-1.9-1.8-2.6C-2906.9,2180.4-2907.4,2181-2908.1,2181.5z M-2895.1,2179c1-0.1,1.9-0.2,2.7-0.4
		c-0.2-0.7-0.5-1.3-0.8-2c-1,0.2-1.9,0.4-2.8,0.4C-2895.6,2177.7-2895.4,2178.4-2895.1,2179z M-2925.1,2194.9
		c-0.4-0.4-0.7-0.8-1-1.2c-0.6,0.7-1.3,1.3-2.1,2c0.4,0.5,0.7,1,1.1,1.5C-2926.4,2196.4-2925.8,2195.7-2925.1,2194.9z
		 M-2947.6,2177.5c0.1,0.1,0.2,0.3,0.3,0.4c0.7-0.4,1.3-0.9,2-1.2c-0.1-0.1-0.1-0.1-0.2-0.2
		C-2946.1,2176.8-2946.8,2177.2-2947.6,2177.5z M-2950.8,2180.5c0.8-0.6,1.7-1.3,2.6-1.9c-0.2-0.2-0.3-0.4-0.4-0.6
		c-1.1,0.5-2.3,1-3.4,1.5C-2951.6,2179.8-2951.2,2180.1-2950.8,2180.5z M-2927.9,2198c-0.4-0.5-0.8-1.1-1.2-1.6
		c-1,0.8-2.1,1.5-3.1,2.2c0.5,0.9,0.9,1.7,1.3,2.3C-2930.1,2200.1-2929.1,2199.2-2927.9,2198z M-2899.4,2184.1c-1,0-2-0.1-3-0.2
		c0.2,0.6,0.4,1.1,0.6,1.7c1,0.1,2,0.2,2.9,0.3C-2899.1,2185.3-2899.2,2184.7-2899.4,2184.1z M-2888.2,2177.9l-3.4-1.6
		c-0.1,0-0.2,0.1-0.3,0.1c0.3,0.7,0.6,1.4,0.8,2.1C-2889.9,2178.2-2888.8,2178-2888.2,2177.9z M-2896.8,2175.9
		c0.9,0,1.9-0.2,2.9-0.4c0-0.1-0.1-0.1-0.1-0.2c-0.1,0-0.1-0.1-0.1-0.2l-5.4-2.5c-0.1,0.1-0.1,0.1-0.2,0.2
		C-2898.4,2173.7-2897.6,2174.8-2896.8,2175.9z M-2922.6,2197.5c-0.6-0.6-1.1-1.1-1.7-1.7c-0.7,0.8-1.4,1.6-2.1,2.3
		c0.7,0.8,1.4,1.6,2,2.2C-2923.9,2199.7-2923.4,2198.7-2922.6,2197.5z M-2906.1,2193.2c-1.2-0.3-2.6-0.7-4-1.2
		c-0.1,0.9-0.1,1.8-0.2,2.6c1.5,0.6,3,1.2,4.1,1.6C-2906.1,2195.5-2906.1,2194.5-2906.1,2193.2z M-2903.8,2183.7
		c-1.1-0.1-2.2-0.3-3.2-0.6c0.3,0.5,0.6,1.1,0.9,1.8c1,0.2,1.9,0.4,2.9,0.5C-2903.4,2184.8-2903.6,2184.3-2903.8,2183.7z
		 M-2906.1,2191.9c0-0.8-0.1-1.7-0.2-2.5c-1.3-0.3-2.5-0.7-3.7-1.1c0,0.8,0.1,1.6,0,2.5C-2908.6,2191.2-2907.2,2191.6-2906.1,2191.9
		z M-2906.4,2188.1c-0.1-0.8-0.3-1.5-0.6-2.2c-1.3-0.3-2.5-0.6-3.5-1.1c0.2,0.7,0.4,1.4,0.5,2.2
		C-2908.9,2187.4-2907.6,2187.8-2906.4,2188.1z M-2920.9,2194.3c-0.5-0.4-1-0.8-1.4-1.1c-0.3,0.6-0.7,1.1-1.1,1.7
		c0.5,0.5,1,1.1,1.5,1.6C-2921.6,2195.7-2921.4,2195-2920.9,2194.3z M-2917.1,2196.9c-0.9-0.6-1.9-1.3-2.8-1.9
		c-0.4,0.8-0.8,1.6-1.1,2.3c1,0.9,1.9,1.9,2.8,2.7C-2918.1,2199.1-2917.6,2198.1-2917.1,2196.9z M-2910.8,2183.5
		c0.9,0.4,2,0.8,3.2,1.1c-0.4-0.8-1-1.6-1.6-2.2C-2909.6,2182.7-2910.2,2183.1-2910.8,2183.5z M-2945.1,2194.6
		c0.2-0.6,0.3-1.3,0.5-2c-1.3-0.1-2.6-0.2-3.9-0.4c-0.7,1.1-1.2,2.1-1.6,2.7C-2948.6,2194.9-2946.9,2194.8-2945.1,2194.6z
		 M-2950.1,2186.2c1,0.4,2.1,0.8,3.2,1.2c0.5-0.7,0.9-1.4,1.4-2c-0.8-0.4-1.6-0.9-2.4-1.3
		C-2948.6,2184.8-2949.4,2185.5-2950.1,2186.2z M-2946.9,2183.2c0.7,0.4,1.5,0.9,2.2,1.2c0.5-0.6,1.1-1.2,1.6-1.7
		c-0.7-0.4-1.3-0.8-1.9-1.2C-2945.6,2182.2-2946.2,2182.7-2946.9,2183.2z M-2939.8,2195c-1.5,0.3-3,0.5-4.4,0.7
		c-0.2,1.1-0.4,2-0.5,2.6c1.4-0.4,3.2-0.9,5.1-1.5C-2939.6,2196.2-2939.6,2195.6-2939.8,2195z M-2942.1,2189.6
		c-0.3,0.6-0.5,1.2-0.8,1.8c1.1,0,2.2,0,3.2-0.1c0.1-0.6,0.2-1.2,0.4-1.7C-2940.1,2189.8-2941.1,2189.8-2942.1,2189.6z
		 M-2942.8,2181.6c-0.1-0.5-0.1-1-0.1-1.5c-0.4,0.3-0.7,0.5-1.1,0.8C-2943.6,2181.1-2943.1,2181.4-2942.8,2181.6z M-2944.1,2191.4
		c0.2-0.7,0.5-1.3,0.8-1.9c-1-0.2-1.9-0.4-2.9-0.7c-0.5,0.8-1,1.6-1.5,2.3C-2946.6,2191.2-2945.4,2191.3-2944.1,2191.4z
		 M-2939.8,2192.5c-1.1,0.1-2.3,0.1-3.5,0.1c-0.2,0.6-0.4,1.2-0.5,1.8c1.3-0.2,2.7-0.4,4-0.6
		C-2939.8,2193.4-2939.9,2192.9-2939.8,2192.5z M-2953.9,2184.5c0.6,0.3,1.6,0.8,2.8,1.3c0.7-0.7,1.5-1.5,2.4-2.3
		c-0.7-0.5-1.4-1-2-1.4C-2952.1,2183-2953.2,2183.9-2953.9,2184.5z M-2881.1,2181.2l-6-2.8c0,0.3-0.2,0.5-0.4,0.5s-1.4,0.3-3.3,0.7
		c0.5,1.9,0.5,3.4,0.5,3.5c0,0.3-0.2,0.6-0.5,0.6c-0.1,0-1.2,0.1-2.7,0.2c0.3,1.6,0.4,2.8,0.4,2.9c0,0.2,0,0.3-0.2,0.4
		c-0.1,0.1-0.3,0.2-0.4,0.2c-0.2,0-1.6-0.1-3.6-0.2c0.4,1.8,0.6,3.2,0.6,3.3c0,0.2,0,0.4-0.2,0.5c-0.1,0.1-0.3,0.2-0.5,0.2
		s-1.4-0.2-3.2-0.6c0.3,1.7,0.4,3,0.4,3.1c0,0.2-0.1,0.4-0.2,0.5c-0.1,0.1-0.3,0.2-0.5,0.1c-0.4-0.1-1.9-0.4-3.8-0.9
		c0,2-0.2,3.4-0.3,3.6c0,0.2-0.1,0.3-0.3,0.4c-0.1,0.1-0.3,0.1-0.5,0.1c-0.2-0.1-2.1-0.7-4.5-1.7c-0.3,2.2-0.7,3.8-0.7,4
		c0,0.2-0.2,0.3-0.3,0.4c-0.2,0.1-0.4,0.1-0.5,0c-0.4-0.3-2.2-1.3-4.2-2.6c-0.7,1.8-1.3,3.2-1.4,3.6c-0.2,0.2-0.4,0.3-0.6,0.3
		s-0.4,0-0.5-0.1c-0.3-0.3-1.7-1.5-3.2-3c-1.1,1.8-2,3.1-2.1,3.2c-0.1,0.1-0.3,0.2-0.4,0.2l0,0c-0.2,0-0.3-0.1-0.4-0.2
		c-0.3-0.3-1.3-1.3-2.5-2.7c-1.8,1.8-3.4,3.1-3.5,3.2c-0.1,0.1-0.2,0.1-0.4,0.1h-0.1c-0.2,0-0.3-0.1-0.4-0.2
		c-0.1-0.1-0.9-1.3-1.7-2.9c-2.3,1.4-4.1,2.3-4.3,2.4c-0.1,0-0.2,0.1-0.3,0.1c-0.1,0-0.2,0-0.2,0c-0.2-0.1-0.3-0.2-0.3-0.4
		c0-0.1-0.5-1.5-0.8-3.4c-3.2,1.1-5.9,1.7-5.9,1.7c-0.2,0-0.4,0-0.5-0.1c-0.1-0.1-0.2-0.3-0.2-0.5c0-0.1,0.2-1.4,0.5-3.2
		c-3,0.3-5.4,0.4-5.6,0.4c-0.2,0-0.4-0.1-0.5-0.3c-0.1-0.2-0.1-0.4,0-0.6c0.1-0.2,0.8-1.5,1.8-3.3c-2.9-0.4-5-0.9-5.2-0.9
		s-0.4-0.2-0.4-0.4c-0.1-0.2,0-0.4,0.1-0.6c0.1-0.1,1.3-1.6,3.2-3.5c-1.8-0.8-3.1-1.4-3.2-1.5c-0.2-0.1-0.3-0.3-0.3-0.5
		s0.1-0.4,0.2-0.5c0.2-0.1,1.6-1.4,3.6-2.9c-0.6-0.5-1.1-0.9-1.4-1.2c-4.1,1.8-7.4,3.3-7.4,3.3l-11.3,22.8l97.3-0.2L-2881.1,2181.2z
		 M-2947.9,2182.6c0.6-0.6,1.3-1.1,2-1.7c-0.5-0.4-1-0.9-1.5-1.4c-0.8,0.6-1.6,1.1-2.4,1.7
		C-2949.2,2181.7-2948.6,2182.1-2947.9,2182.6z M-2946.4,2178.8c0.4,0.5,0.9,0.9,1.4,1.3c0.6-0.5,1.3-1,1.9-1.4
		c-0.3-0.3-0.8-0.7-1.3-1.2C-2945.1,2177.9-2945.8,2178.4-2946.4,2178.8z M-2939.6,2188.5c-0.4-0.4-0.7-0.7-1-1.2
		c-0.3,0.3-0.6,0.8-0.9,1.2C-2940.9,2188.6-2940.2,2188.6-2939.6,2188.5z M-2942.4,2183.7c-0.4,0.3-0.8,0.7-1.2,1.2
		c0.6,0.2,1.2,0.4,1.8,0.6C-2941.9,2185-2942.1,2184.4-2942.4,2183.7z M-2943.2,2177c0.2,0.1,0.3,0.3,0.4,0.4c0-0.2,0-0.4,0.1-0.6
		C-2942.9,2176.8-2943.1,2176.9-2943.2,2177z M-2915.2,2190.1c-1.1-0.5-2.1-1-2.8-1.6c-0.1,0.6-0.2,1.3-0.3,2
		c0.8,0.6,1.7,1.1,2.7,1.6C-2915.6,2191.4-2915.4,2190.7-2915.2,2190.1z M-2925.4,2190.5c-0.5,0.1-0.9,0.2-1.4,0.3
		c0.2,0.3,0.4,0.7,0.7,1.1C-2925.9,2191.4-2925.6,2190.9-2925.4,2190.5z M-2921.9,2192.1c0.4,0.3,0.9,0.7,1.3,1.1
		c0.3-0.7,0.5-1.5,0.8-2.2c-0.5-0.4-0.9-0.7-1.2-1.1C-2921.1,2190.6-2921.4,2191.3-2921.9,2192.1z M-2924.4,2191.3
		c-0.2,0.5-0.5,1-0.9,1.5c0.3,0.4,0.6,0.8,1,1.1c0.4-0.5,0.7-1,1.1-1.6C-2923.8,2192-2924.1,2191.6-2924.4,2191.3z M-2928.9,2194.7
		c0.8-0.6,1.5-1.3,2.1-2c-0.3-0.4-0.6-0.9-0.9-1.3c-0.4,0.7-1.1,1.3-2,2C-2929.6,2193.9-2929.2,2194.3-2928.9,2194.7z
		 M-2930.4,2192.4c0.6-0.4,1-0.9,1.4-1.3c-0.6,0.1-1.2,0.1-1.8,0.1C-2930.6,2191.6-2930.6,2192-2930.4,2192.4z M-2915.9,2193.3
		c-1-0.5-1.9-1.1-2.7-1.6c-0.2,0.7-0.5,1.5-0.8,2.2c0.9,0.6,1.8,1.3,2.8,1.9C-2916.6,2195-2916.2,2194.1-2915.9,2193.3z
		 M-2919.2,2188.3c-0.4,0.2-0.7,0.3-1.1,0.5c0.3,0.3,0.6,0.6,0.9,0.9C-2919.4,2189.2-2919.2,2188.8-2919.2,2188.3z M-2922.1,2189.5
		c-0.6,0.2-1.2,0.4-1.8,0.6c0.2,0.4,0.6,0.8,1.1,1.2C-2922.4,2190.7-2922.2,2190.1-2922.1,2189.5z M-2929.9,2195.5
		c-0.3-0.4-0.6-0.9-0.8-1.3c-0.8,0.5-1.8,1-2.9,1.5c0.2,0.6,0.5,1.2,0.8,1.8C-2931.9,2196.9-2930.9,2196.2-2929.9,2195.5z
		 M-2933.9,2198.1c-0.3-0.6-0.6-1.3-0.9-2c-0.7,0.3-1.3,0.6-2.1,0.8c-0.5,0.2-0.9,0.3-1.4,0.5c0.2,1,0.4,2,0.6,2.7
		C-2936.6,2199.7-2935.2,2199-2933.9,2198.1z M-2935.1,2195.1c-0.1-0.4-0.2-0.8-0.3-1.2c-1,0.3-2.1,0.6-3.2,0.9
		c0,0.5,0.1,1.1,0.2,1.6C-2937.2,2196-2936.1,2195.5-2935.1,2195.1z M-2938.4,2191.2c0.8-0.1,1.6-0.4,2.2-0.6
		c-0.6-0.2-1.2-0.5-1.8-0.8C-2938.2,2190.1-2938.4,2190.6-2938.4,2191.2z M-2938.6,2193.5c1.1-0.2,2.1-0.5,3.1-0.9
		c0-0.4,0-0.8,0-1.1c-0.9,0.4-1.9,0.7-3,0.8C-2938.6,2192.8-2938.6,2193.1-2938.6,2193.5z M-2934.2,2191c-0.1,0.4-0.1,0.8-0.1,1.2
		c0.7-0.3,1.3-0.6,1.7-1C-2933.2,2191.2-2933.8,2191.1-2934.2,2191z M-2931.8,2191.9c-0.7,0.6-1.5,1.1-2.5,1.5
		c0.1,0.4,0.2,0.8,0.3,1.1c1-0.5,1.9-1,2.7-1.5C-2931.4,2192.7-2931.6,2192.3-2931.8,2191.9z"/>
	<path d="M-2925.9,2176.2c-0.7,0-2.3-0.3-2.3-0.3s1.4,1,2.3,1c1,0,1.7,0,2.4-0.2s1.4-0.9,1.7-1.1c0.3-0.2-1.1,0.4-1.8,0.5
		C-2924.4,2176.2-2925.2,2176.2-2925.9,2176.2z"/>
	<path d="M-2926.1,2174.1c0.3,0,1.9-0.2,3-0.5c1.8-0.4,3.6-1.2,5.1-2.2c-1.2-0.8-2.4-0.7-3.6-1c-0.2,0-2.9-0.2-2.9-0.2l-1.3,0.9
		l-1.3-0.6c-0.7-0.2-2,0.3-2.7,0.4c-1.3,0.3-2.5,0.7-3.5,1.3c0.1,0.1,3.4,1.4,4.9,1.6C-2928.1,2173.9-2926.4,2174.1-2926.1,2174.1z"
		/>
	<path class="st3" d="M-2931.6,2164.7c0.7,0.2,1,0.1,2.2,1.3c0.4,0.4,0.9,0.7,1.8,0.7c1.3,0,1.6-0.7,2.3-1.3
		c0.2-0.2,0.4-0.5,0.6-0.7c0.8-0.8,1.2-1,2.2-1.2c0.3-0.1,0.9-0.1,1.2-0.3c0.9-0.5,0.8-1.3-0.1-2c0,0-0.4-0.2-0.3,0
		c1.4,1.6-1.1,1.7-1.8,1.9c-0.4,0.1-0.8,0.4-1.1,0.7c-0.6,0.6-0.9,1.3-1.7,1.8c-1,0.6-1.9,0.5-2.8-0.3c-0.7-0.6-1.5-0.8-2.3-1.1
		c-0.3-0.1-0.9-0.2-1-0.6c-0.2-1,0.4-2.1,0.4-2.2c0,0-0.2,0.1-0.3,0.3c-0.3,0.5-1,1.3-0.7,2.3
		C-2932.8,2164.5-2931.9,2164.6-2931.6,2164.7z"/>
	<path d="M-2936.6,2170.3c0.2-3.7,0.7-5,2.6-9.1c0.1-0.1-0.5,0.2-0.5,0.2c-2.1,3.5-2.6,5.2-2.3,8.8
		C-2936.8,2170.4-2936.8,2170.4-2936.6,2170.3z"/>
	<path d="M-2916.2,2167.9c0.4-2.6-0.9-4.8-3.3-6.4c0,0-0.4-0.1-0.4,0c1.9,1.7,3.2,4.4,3.5,6.5
		C-2916.2,2168-2916.2,2168-2916.2,2167.9z"/>
	<path d="M-2911.1,2165.4c0.2-3.1,1.3-7.5,3-11c0-0.1-0.4,0.1-0.4,0.1c-2.5,3.7-2.9,6.5-2.8,10.8
		C-2911.2,2165.4-2911.1,2165.4-2911.1,2165.4z"/>
	<path d="M-2904.6,2151.7c0.1,0.6,0,1.1-0.2,1.8c-0.2,0.8-0.4,1.2-0.4,1.2l0.5-0.1c0.8-1,1-1.3,1.2-1.6c0.4-0.6,0.6-1.5,0.6-2.2
		c0-0.6-0.4-0.9-0.6-1.3c-0.3-0.4-1.1-0.6-1.4-0.3c-0.4,0.3-0.4,1-0.1,1.2S-2904.6,2151.1-2904.6,2151.7z"/>
	<path d="M-2915.9,2153.4c-1.7,0.1-3.6,0.2-5.8-0.4c0,0-0.9-0.3-0.6,0.1c3,1,3.9,1,5.9,0.8
		C-2915.6,2153.8-2915.4,2153.3-2915.9,2153.4z"/>
	<path d="M-2932.6,2154c-1.4,0.7-2.5,1-4.4,1.4c-0.5,0.1,0.6,0.5,1.3,0.4c1.6-0.4,2.2-0.6,3.7-1.8
		C-2931.8,2153.6-2932.6,2154-2932.6,2154z"/>
	<path d="M-2940.9,2152.4c0.3-0.7,1.5-1.6,2.4-1.9c-0.1,0.3-0.2,0.6-0.2,0.9c0,1.1,0.9,1.9,2,1.8c1.1,0,1.9-0.9,1.8-2
		c0-0.1,0-0.3-0.1-0.4c0.6,0.3,1.2,0.8,1.7,1.3c-1.9,1.2-4,1.5-6.2,0.9c0,0-0.1,0-0.2-0.1c-0.4-0.1-0.8-0.3-1-0.3
		c-0.1,0-0.1,0-0.1,0.1c0,0.1,0,0.1,1,0.7c1,0.4,1.8,0.5,2.6,0.5c1.4,0,2.6-0.5,4.4-1.3c0.1,0.1,0.1,0.1,0.2,0.2
		c0.2,0.2,0.8-0.1,0.6-0.3c-0.9-1-1.8-1.8-3.2-2.3c-0.6-0.2-1.1-0.4-1.7-0.4c-0.3,0-0.7,0-1.1,0c-1.3,0.1-2.2,0.7-3.2,1.8
		C-2941.4,2151.9-2941.1,2152.6-2940.9,2152.4z M-2937.6,2150.6c0.3,0,0.5,0.2,0.5,0.5c0,0.3-0.2,0.5-0.5,0.5s-0.5-0.2-0.5-0.5
		C-2938.1,2150.8-2937.9,2150.6-2937.6,2150.6z"/>
	<path d="M-2922.1,2151.3c1.5,0.6,2.5,1,3.6,1c0.8,0,1.6-0.2,2.4-0.7c0.8-0.6,0.8-0.6,0.8-0.7c0,0,0,0-0.1,0c-0.1,0-0.3,0.1-0.8,0.3
		c-0.1,0-0.2,0.1-0.2,0.1c-0.7,0.3-1.4,0.5-2.2,0.5c-1,0-2.1-0.3-3.1-0.9c0.4-0.4,0.9-0.8,1.5-1.3v0.1c0,1,0.8,1.8,1.8,1.8
		s1.8-0.8,1.8-1.8c0-0.5-0.2-0.9-0.5-1.2c0.6,0.1,1.3,0.7,1.8,1.4c0.2,0.2,1,0.5,0.9,0.3c-0.8-1-1.8-2.3-3.2-2.3
		c-0.2,0-0.3,0-0.5,0.1c-0.6,0.1-1.2,0.3-1.7,0.6c-1.2,0.7-2.2,1.8-3.1,2.6C-2922.9,2151.4-2922.4,2151.4-2922.1,2151.3z
		 M-2919.1,2149c0.3,0,0.5,0.2,0.5,0.5s-0.2,0.5-0.5,0.5s-0.5-0.2-0.5-0.5S-2919.4,2149-2919.1,2149z"/>
	<path d="M-2942.4,2144c-0.6,0.2-1.1,0.6-1.8,1.1c-0.1,0.1-0.1,0.2-0.1,0.2c0.7-0.2,1.3-0.5,2-0.8c0.4-0.2,0.8-0.4,2.2-0.3
		c0.1,0-0.5-0.3-0.5-0.3C-2941.2,2143.8-2942.1,2143.9-2942.4,2144z"/>
	<path d="M-2935.6,2142.8c-0.7-0.4-5.1-0.3-5.7-0.2c-0.7,0.1-1.8,0.4-2.6,0.8c-0.4,0.3-0.2,0.1-0.1,0.2c1.3-0.1,2.5-0.3,2.8-0.4
		c0.4-0.1,4.8-0.5,6,0C-2935.1,2143.2-2935.6,2142.8-2935.6,2142.8z"/>
	<path d="M-2901.9,2148c0.2,0,0.2-2.6,0-2.7c-0.1-0.2-0.8-0.5-0.9-0.4C-2902.9,2145-2902.1,2148-2901.9,2148z"/>
	<path d="M-2947.6,2149.4c-0.1-0.1-0.6,0.4-0.7,0.5c-0.1,0.2,0.6,2.2,0.6,2C-2947.6,2150.5-2947.6,2149.5-2947.6,2149.4z"/>
	<path d="M-2900.4,2144.7c0-0.1-0.1-0.2-0.1-0.2s-0.5-1.2-2.3-1.6c-0.1,0-0.1,0-0.2,0c0.4-1.5,0.6-2.1,0.6-3.8
		c-0.1-1.8-0.1-6.7-1.6-10.1c-0.7-1.5-4.1-6-5.1-6.9c-2-1.9-4.4-1.9-6.9-2.1c-1.2-2.2-4.9-3.6-6.5-3.8c-6.1-0.8-13.8,1.5-19.1,4.9
		c-4.7,3-6.3,6.9-7.1,10.4c-0.7,3.2,0.7,10.9,0.9,13.5c0.1,1,0.2,1.8,0.3,2.5c-0.8,0.3-1.4,0.9-1.8,1.7c-0.5,1.1,0.3,3.8,0.9,4.8
		c0.3,0.5,0.7,1,1.2,1.5c0.3,0.3,0.6,0.7,0.8,0.9c0.2,0.2,0.2,0.4,0.2,0.8c0,0.1,0,0.3,0,0.4c0.1,0.9,0.8,2.9,0.8,3
		c-0.4,0.5-0.6,1.2-0.6,1.9c0,1.8,1.5,3.3,3.3,3.3c0.4,0,0.9-0.1,1.2-0.2c0.2,0.7,0.3,1.4,0.4,2.2c0,0.5,0.2,0.9,0.2,1.5
		c0.4,1.9,1,3.3,1.7,4.6c-0.5,0.2-1,0.4-1.5,0.7c-1.4,6.1-0.5,12.8,4.9,14.5c8.8,2.8,23.8-4.2,33.4-15.6c0.4-0.5,0.8-0.9,1.1-1.4
		l-6.4-3c0.1-0.6,0.2-1.2,0.3-1.8c0.1-0.6,0.2-3.8,0.3-4.6c0.6,0.5,1.4,0.9,2.2,0.9c1.8,0,3.3-1.5,3.3-3.3c0-1.1-0.5-2-1.3-2.6
		c0.2-0.2,0.4-0.4,0.5-0.6c0.6-0.9,1.6-5.8,1.7-5.9c0.3-1.1,0.2-2.2,0.4-3.3C-2900.1,2146.8-2899.9,2146-2900.4,2144.7z
		 M-2916.2,2123.2c0.4-0.1,0.8-0.1,1.2-0.1c0.7,0,1.3,0.1,1.9,0.4c0.6,0.3,0,0.4-0.3,0.3c-0.2-0.1-0.5-0.1-0.7-0.1
		c-0.7,0-1.5,0.1-2.1,0.2c-1,0.2-1.8,0.8-2.5,1.4c-0.2,0.2-1-0.2-0.9-0.3C-2918.6,2124-2917.6,2123.4-2916.2,2123.2z
		 M-2921.2,2121.9c0.4-0.2,0.7-0.3,1.1-0.4c0.4,0,0.9,0,1.6,0.1c0.1,0,0.5,0.1,0.2,0.2c-0.1,0-0.3,0-0.4,0.1
		c-0.8,0.1-1.7,0.1-2.3,0.7c-0.7,0.6-1.1,2.4-1.1,2.4c-0.1,0.1-0.8,0.3-0.8,0.2C-2923.1,2123.3-2922.6,2122.7-2921.2,2121.9z
		 M-2937.2,2123.4c1.4-0.4,3-0.5,4.4,0.2c1.6,0.7,4.3,3.5,4.4,4.1c0.1,0.6-1,0.2-1.3-0.2c0,0-2.1-2.5-3.4-3.1
		c-1.3-0.7-2.9-0.7-4.4-0.6C-2938.1,2123.7-2937.4,2123.4-2937.2,2123.4z M-2944.1,2136.2c0.8-0.8,4.3-2.8,7.1-3.4
		c-1.3-0.8-2.4-1.4-2.7-1.5c-1.3-0.6,0.1-0.6,2.3,0c2.4,0.7,3.6,2,2.6,0.9c-0.3-0.4-1.1-1-2-1.5c-0.8-0.5-2-1.2-2.7-1.3
		c-3.1-0.8-1.7-0.9,0-0.7c0.3,0,1.9,0.5,3.2,1.3c0.8,0.5,2,1.6,2.3,1.9c2.5,2.2,2.7,1,1.5-0.4c-0.5-0.6-2.1-2.5-3.4-3.4
		c-3.7-2.4-5.8-1.5-6.6-1.8c-0.6-0.2,1-0.7,2.5-0.6c1.1,0,3.2,0.6,4.5,1.4c2.8,1.7,4.6,4.8,5,5.1c0.3,0.3,0.5,0.3,0.6,0.3
		c6.2-3.3,11.2-2.3,14.2-1c3.1,1.4,0.4,1.3,0.4,1.3c5.3,3,1.4,2.3,1.4,2.4c4.8,2.5,1.7,2,1.5,2c-0.1,0,1.8,2.1,2.9,3.6
		c0.9,1.3,1.8,3.2,2.5,4.7l-2.4,1h-0.3l-0.1-0.5c0,0-2.3,0.1-3.8,0.2c-1.8-0.3-3.8-0.3-5.8,0c-0.3,0-0.6,0.1-0.9,0.2
		c1-0.5,2.7-1.3,3.1-1.5c0.6-0.2,1.4-0.4,1.9-0.6c0.5-0.1,1,0.1,1.7,0.1c0.7,0,1.6-0.4,1.3-0.4c-0.3,0-2.2-0.4-2.7-0.5
		c-0.5-0.1-1.5,0.1-1.9,0.2c-0.4,0.1-1.7,0.6-2.2,0.7c-0.5,0.1-2.5,1-3,1.3s-1.7,0.7-2.1,1c-0.4,0.2,0.3,0.7,0.5,0.8
		c-1.3,0.7-1.9,1.5-2.2,2.1c-0.4,0-1.6,0-2.2,0.1c-0.4,0-1.3,0.3-1.7,0.5c-0.5-0.8-1.6-1.8-4.2-2.2c0.2-0.1,0.5-0.2,0.6-0.5
		c0.2-0.5-0.6-0.6-0.6-0.6s-1.2-0.3-1.8-0.4c-0.7,0-1.3-0.1-2.1-0.1s-1.6-0.1-2.4,0c-0.8,0.1-1.5,0-2.2,0.5c-0.3,0.2-1,0.5-0.5,0.7
		c0.1,0,0.5-0.2,0.7-0.2c0.4-0.1,1.4-0.1,1.8-0.1c0.4,0,0.8,0.1,1.2,0.1c0.4,0.1,0.9,0.2,1.5,0.3c0.4,0.1,0.8,0.2,1.1,0.2
		c-0.1,0-0.1,0-0.2,0c-2,0.1-4,0.5-5.7,1.1c-0.4,0.1-0.8,0.1-1.3,0.2c-0.3,0-0.6,0.1-0.9,0.1c0,0,0-1.2,0-1.8c0-0.5,0-1-0.1-1.5
		c-0.1-0.7,0-2.2,0-2.9c-1,2-1.4,0.2,0-2.2c-1.4,1.6-1.5-0.9,0.4-2.4C-2946.6,2139.3-2944.9,2137-2944.1,2136.2z M-2925.6,2150.6
		c0-0.4,0.5-2.7,6.2-3.5c1-0.2,2-0.2,3-0.2s2,0.1,3,0.3c2.5,0.4,2.2,3.3,2.2,3.3c0,0.3-0.1,0.6-0.1,0.9c-0.1,0.6-0.1,1.3-0.2,1.9
		c-0.1,0.8-0.5,1.9-1,2.4c-0.5,0.4-1.2,0.6-1.9,0.8h-0.2c-1,0.3-1.9,0.5-2.8,0.5h-0.4c-0.6,0-1.2,0.1-1.8,0.1
		c-1.1,0-1.9-0.1-2.4-0.4c-1.3-0.7-1.9-1.7-2.7-3l-0.2-0.3C-2925.4,2152.6-2925.6,2151.5-2925.6,2150.6z M-2943.6,2156.8
		c0.1,0.3,0.2,0.6,0.3,0.9l0,0c-0.1-0.4-0.2-0.7-0.3-1.1c-0.3-1.2-0.7-2.4-1.1-3.7l0,0c0-0.1,0-0.2,0-0.3c0-0.3,0-0.7,0.1-1.1l0,0
		c0.1-0.4,0.3-0.8,0.7-1.1c0.2-0.2,0.5-0.4,0.9-0.5c1.7-0.7,3.7-1.1,5.8-1.2c0.3,0,0.7,0,1,0c3.7,0,5.4,1.2,5.8,2.3
		c0.3,0.9,0.3,2-0.1,2.9l-0.1,0.4c-0.5,1.4-1,2.6-2.1,3.5c-0.9,0.7-2.8,1-4.1,1.1h-0.4c-0.8,0.1-1.8,0.1-2.8,0h-0.2
		c-0.6-0.1-1.2-0.1-1.7-0.4c-0.1,0-0.2-0.1-0.2-0.1c-0.2-0.1-0.4-0.3-0.6-0.6c-0.1-0.1-0.2-0.2-0.3-0.4c-0.2-0.3-0.3-0.6-0.5-0.9
		C-2943.6,2157-2943.6,2157-2943.6,2156.8z M-2945.6,2155.8c-0.5-0.7-1.8-1.5-2.3-2.2c-0.6-1-1-3.5-0.8-4.2c0.1-0.4,0.6-1,1.3-1.3
		c0.2,0.9,0.3,1.5,0.5,2l-0.7,0.2l0.3,1.2c0,0,0.4-0.2,0.8,0c0.1,0.1,0.2,0.2,0.4,0.3c0.1,0.4,0.2,0.7,0.3,1.1
		c0,0.2,0.1,0.3,0.1,0.5c0,0.1-0.1,0.1-0.1,0.2c-0.1,0.3,0.4,2.6,0.8,3.1l0.1,0.1l0.1,0.1c0,0.1,0.1,0.3,0.1,0.4
		c0.1,0.3,0.2,0.6,0.2,0.9c0.1,0.4,0.2,0.8,0.4,1.2c-0.4,0.1-0.7,0.3-1,0.6c-0.2-0.8-0.4-1.7-0.5-2.6
		C-2945.2,2156.8-2945.2,2156.3-2945.6,2155.8z M-2942.6,2164.8c-1.3,0-2.4-1.1-2.4-2.4c0-0.2,0-0.4,0.1-0.6
		c0.1-0.3,0.3-0.7,0.5-0.9c0.3-0.3,0.6-0.6,1-0.7c0.1,0.2,0.1,0.3,0.2,0.5c0.1,0.3,0.3,0.7,0.4,1.1c0,0,0,0-0.1,0.1c0,0,0,0,0.1-0.1
		c0.1,0.3,0.2,0.6,0.3,0.8c0.1,0.2,0.1,0.3,0.2,0.4c0.2,0.5,0.5,1,0.7,1.5C-2941.9,2164.8-2942.2,2164.8-2942.6,2164.8z
		 M-2926.9,2187.4c-1.9-0.2-4.4-3.9-6.4-7.6c0.2,0.2,0.5,0.4,0.7,0.5c0.7,0.4,1,0.7,1.5,1c0.3,0.2,0.9,0.7,1.2,0.9
		c1.3,0.9,2.1,1.1,4,1.5c0.5,0.2,2.5,0,4.5-0.4C-2923.8,2185.8-2925.9,2187.5-2926.9,2187.4z M-2902.4,2160c0,1.3-1.1,2.4-2.4,2.4
		c-0.8,0-1.4-0.4-1.9-0.9c-0.1-0.2-0.3-0.4-0.3-0.6c-0.1-0.3-0.2-0.6-0.2-0.9c0-1.3,1.1-2.4,2.4-2.4c0.2,0,0.3,0,0.5,0.1
		c0.3,0.1,0.6,0.2,0.9,0.4C-2902.8,2158.5-2902.4,2159.2-2902.4,2160z M-2900.9,2147.7c-0.2,3.2-1.1,6.4-2.5,9.3
		c-1-0.5-2.3-0.3-3.2,0.4c-0.9,0.7-1.4,1.9-1.3,3c0.1,0.5,0.2,0.9,0.3,1.4c0.1,0.6,0,1.2-0.1,1.7c-0.3,2.6-0.7,5.3-2,7.6
		c-0.9,1.7-2.3,3.1-3.5,4.5c-2.5,2.9-5,6.4-8.8,7.2c-2.3,0.5-4.7-0.1-6.8-1.1c-1.3-0.7-2.5-1.5-3.6-2.4c-1-0.8-2.1-1.5-2.9-2.4
		c-1.8-2-3.5-4.3-4.3-6.9c-0.5-1.6-0.7-3.3-1.1-4.9c-0.5-2.2-1.4-4.2-2.3-6.3c1.3,0.7,2.8,0.8,4.2,0.8c1.8,0,3.6-0.1,5.3-0.8
		c1.5-0.6,2.8-1.8,3.2-3.4l0.3,2.1l0.2-3.4c0.1-0.2,0.1-0.5,0.2-0.7c0.5-1.1,2-1.9,2.9-1.2c0.5,0.4,0.8,0.9,1,1.4l0.5,3.8l0.2-2.5
		c0.9,1.6,2.7,2.7,4.6,3c2.2,0.4,4.4-0.1,6.5-0.8c0.7-0.2,1.5-0.5,2-1c0.8-0.7,1.1-1.8,1.3-2.9c0.2-1.1,0.3-2.3,0.2-3.4
		c0-0.5-0.1-1,0.1-1.5c0.6-1.2,2.5-0.9,3.5-1.9c0.1,1,0.2,2,0.3,3c0.5-1.5,1-2.9,1.5-4.4c0.1-0.4,0.3-0.9,0.6-1.2
		c0.8-0.8,2.2-0.4,2.9,0.5c0.5,0.7,0.6,1.5,0.6,2.4C-2900.9,2147.2-2900.9,2147.5-2900.9,2147.7z"/>
</g>
</svg>
