<svg xmlns="http://www.w3.org/2000/svg" xmlns:xlink="http://www.w3.org/1999/xlink" version="1.1" x="0px" y="0px" viewBox="0 0 100 100" enable-background="new 0 0 100 100" xml:space="preserve"><path fill="#ffffff" d="M87.099,92.745h-4.603c-3.089,0-5.603-2.514-5.603-5.603v-1.302H23.664v1.302c0,3.089-2.513,5.603-5.603,5.603h-4.603  c-3.089,0-5.603-2.514-5.603-5.603V82.54c0-3.089,2.513-5.603,5.603-5.603h1.301V23.708h-1.301c-3.089,0-5.603-2.513-5.603-5.603  v-4.603c0-3.089,2.513-5.603,5.603-5.603h4.603c3.089,0,5.603,2.513,5.603,5.603v1.301h53.229v-1.301  c0-3.089,2.514-5.603,5.603-5.603h4.603c3.089,0,5.603,2.513,5.603,5.603v4.603c0,3.089-2.514,5.603-5.603,5.603h-1.301v53.229  h1.301c3.089,0,5.603,2.514,5.603,5.603v4.603C92.701,90.231,90.188,92.745,87.099,92.745z M82.496,78.938  c-1.986,0-3.603,1.616-3.603,3.603v4.603c0,1.986,1.616,3.603,3.603,3.603h4.603c1.986,0,3.603-1.616,3.603-3.603V82.54  c0-1.986-1.616-3.603-3.603-3.603H82.496z M13.459,78.938c-1.986,0-3.603,1.616-3.603,3.603v4.603c0,1.986,1.616,3.603,3.603,3.603  h4.603c1.986,0,3.603-1.616,3.603-3.603V82.54c0-1.986-1.616-3.603-3.603-3.603H13.459z M23.664,83.841h53.229V82.54  c0-3.089,2.514-5.603,5.603-5.603h1.302V23.708h-1.302c-3.089,0-5.603-2.513-5.603-5.603v-1.301H23.664v1.301  c0,3.089-2.513,5.603-5.603,5.603H16.76v53.229h1.301c3.089,0,5.603,2.514,5.603,5.603V83.841z M82.496,9.901  c-1.986,0-3.603,1.616-3.603,3.603v4.603c0,1.986,1.616,3.603,3.603,3.603h4.603c1.986,0,3.603-1.616,3.603-3.603v-4.603  c0-1.986-1.616-3.603-3.603-3.603H82.496z M13.459,9.901c-1.986,0-3.603,1.616-3.603,3.603v4.603c0,1.986,1.616,3.603,3.603,3.603  h4.603c1.986,0,3.603-1.616,3.603-3.603v-4.603c0-1.986-1.616-3.603-3.603-3.603H13.459z"></path></svg>