<svg xmlns="http://www.w3.org/2000/svg" xmlns:xlink="http://www.w3.org/1999/xlink" version="1.1" x="0px" y="0px" viewBox="0 0 50 50" enable-background="new 0 0 50 50" xml:space="preserve"><g fill="#ffffff"><path fill-rule="evenodd" clip-rule="evenodd" d="M6.847,21.789h12.369c2.602,0,4.726,2.176,4.726,4.777v14.387   H21.55V29.01h-2.549v11.943H7.161V29.01H4.615v11.943H2.066V26.566C2.066,23.965,4.192,21.789,6.847,21.789L6.847,21.789z    M13.002,9.047c3.134,0,5.681,2.547,5.681,5.68c0,3.132-2.547,5.682-5.681,5.682c-3.133,0-5.681-2.55-5.681-5.682   C7.321,11.594,9.869,9.047,13.002,9.047z"></path><path fill-rule="evenodd" clip-rule="evenodd" d="M30.84,21.789h12.318c2.65,0,4.775,2.176,4.775,4.777v14.387   h-2.125l-2.121-11.096l-2.375,0.269l1.631,10.827l0,0H31.16l0,0l2.182-10.827l-2.393-0.269L28.82,40.953h-0.211h-2.547V26.566   C26.063,23.965,28.188,21.789,30.84,21.789L30.84,21.789z M36.998,9.047c3.135,0,5.678,2.547,5.678,5.68   c0,3.132-2.543,5.682-5.678,5.682s-5.68-2.55-5.68-5.682C31.318,11.594,33.863,9.047,36.998,9.047z"></path></g></svg>