<svg xmlns="http://www.w3.org/2000/svg" xmlns:xlink="http://www.w3.org/1999/xlink" version="1.1" x="0px" y="0px" viewBox="0 0 100 100" enable-background="new 0 0 100 100" xml:space="preserve"><g fill="#ffffff"><path d="M81.889,53.141c0,4.086-3.324,7.409-7.41,7.409c-4.084,0-7.408-3.323-7.408-7.409c0-0.414-0.336-0.75-0.75-0.75   s-0.75,0.336-0.75,0.75c0,4.086-3.324,7.409-7.41,7.409c-4.085,0-7.409-3.323-7.409-7.409c0-0.414-0.336-0.75-0.75-0.75   s-0.75,0.336-0.75,0.75c0,4.086-3.324,7.409-7.409,7.409s-7.409-3.323-7.409-7.409c0-0.414-0.336-0.75-0.75-0.75   s-0.75,0.336-0.75,0.75c0,3.852-2.956,7.023-6.717,7.375V6.701l55.206,19.74l0.506-1.412L23.877,4.272l-0.506,1.412l1.344,0.48   v54.34c-3.707-0.404-6.603-3.551-6.603-7.363h-1.5c0,4.641,3.567,8.459,8.103,8.868v6.126c-0.945,0.316-1.632,1.199-1.632,2.249   s0.687,1.933,1.632,2.249v16.383c0,3.7,3.011,6.713,6.712,6.713c3.701,0,6.713-3.013,6.713-6.713v-3.385   c0-0.354-0.248-0.66-0.594-0.732c-0.351-0.076-0.696,0.104-0.842,0.429l-1.341,3.014l1.276,0.567v0.107   c0,2.873-2.339,5.213-5.213,5.213s-5.212-2.34-5.212-5.213V72.633c0.945-0.316,1.632-1.199,1.632-2.249s-0.687-1.933-1.632-2.249   v-6.137c3.34-0.26,6.175-2.346,7.467-5.28c1.381,3.138,4.519,5.332,8.159,5.332c3.64,0,6.778-2.194,8.159-5.332   c1.381,3.138,4.519,5.332,8.159,5.332c3.642,0,6.779-2.194,8.16-5.332c1.381,3.138,4.519,5.332,8.158,5.332   c4.912,0,8.909-3.997,8.909-8.909H81.889z M25.465,71.266c-0.486,0-0.882-0.396-0.882-0.882c0-0.485,0.396-0.882,0.882-0.882   c0.486,0,0.882,0.396,0.882,0.882C26.347,70.87,25.951,71.266,25.465,71.266z"></path></g></svg>