<svg xmlns="http://www.w3.org/2000/svg" xmlns:xlink="http://www.w3.org/1999/xlink" version="1.1" x="0px" y="0px" viewBox="0 0 100 74.453" enable-background="new 0 0 100 74.453" xml:space="preserve"><path fill="#ffffff" d="M99.803,53.196l-6.555-14.761c1.877-3.533,2.827-7.276,2.827-11.143C96.076,12.244,81.659,0,63.94,0  C50.364,0,38.187,7.393,33.679,18.142C17.071,19.183,3.924,30.964,3.924,45.332c0,3.861,0.95,7.607,2.827,11.149L0.196,71.234  c-0.384,0.867-0.194,1.882,0.478,2.553c0.438,0.436,1.021,0.666,1.614,0.666c0.317,0,0.637-0.065,0.938-0.201l14.501-6.528  c5.415,3.209,11.724,4.901,18.332,4.901c13.932,0,25.784-7.583,30.229-18.135c5.759-0.355,11.236-1.991,15.985-4.805l14.499,6.527  c0.301,0.137,0.621,0.201,0.938,0.201c0.592,0,1.175-0.23,1.613-0.666C99.998,55.08,100.187,54.063,99.803,53.196z M36.059,68.047  c-6.166,0-12.018-1.672-16.921-4.834c-0.375-0.241-0.807-0.364-1.24-0.364c-0.319,0-0.639,0.067-0.938,0.201L6.811,67.619  l4.588-10.324c0.299-0.676,0.255-1.455-0.119-2.09c-1.846-3.136-2.78-6.456-2.78-9.873c0-12.526,12.362-22.716,27.559-22.716  c15.194,0,27.555,10.19,27.555,22.716C63.614,57.857,51.253,68.047,36.059,68.047z M83.042,45.012  c-0.704-0.315-1.526-0.26-2.179,0.165c-3.869,2.494-8.362,4.047-13.139,4.593c0.282-1.448,0.465-2.924,0.465-4.438  c0-14.282-12.99-26.017-29.458-27.177C43.083,10.032,52.957,4.577,63.94,4.577c15.196,0,27.559,10.19,27.559,22.716  c0,3.419-0.935,6.738-2.777,9.862c-0.376,0.637-0.421,1.414-0.121,2.092l4.59,10.333L83.042,45.012z"></path></svg>