<svg xmlns="http://www.w3.org/2000/svg" xmlns:xlink="http://www.w3.org/1999/xlink" xmlns:sketch="http://www.bohemiancoding.com/sketch/ns" viewBox="0 0 22 22" version="1.1" x="0px" y="0px"><title>editor_flag_notification_outline_stroke</title><description>Created with Sketch.</description><defs><path id="a" d="M4,22 L4,1.56970333 L4.97777778,1.5680103 C5.04323462,1.64009453 5.1135828,1.71104599 5.18885507,1.78002137 C6.33024,2.82592337 7.97660316,2.97350133 10.3396178,1.56970333 C13.2168467,-0.139575436 15.3596387,-0.199610719 17.0795279,0.539905597 C17.438277,0.694159819 17.6870359,0.854576486 17.8266459,0.97459773 L17.9968262,1.12090017 L17.9968262,9.22371186 L17.9968262,10.2887201 L17.1892287,9.5944368 C17.1216202,9.53631475 16.9560071,9.429516 16.6932949,9.31655529 C15.2665856,8.70309995 13.4522907,8.73624586 10.8390104,10.2887203 C9.03069649,11.3629872 7.32692376,11.4182657 6.06787109,11.0943089 C6.06787109,11.0943089 5.18885505,10.8117063 4.97777778,10.6701657 L4.97777778,9.59443636 C5.48699951,9.89086886 6.06787109,10.077683 6.06787109,10.077683 C7.10703572,10.4376137 8.63140138,10.4628934 10.3396178,9.44809204 C13.2168467,7.73881328 15.3596387,7.678778 17.0795279,8.41829382 L17.0795283,1.69988004 C17.0795283,1.69988004 16.9560071,1.55112729 16.6932949,1.43816657 C15.2665856,0.82471173 13.4522907,0.857857636 10.8390104,2.41033164 C8.37747787,3.87265648 6.41305876,3.86166088 4.97777778,2.86167581 L4.97777778,22 L4,22 Z"></path></defs><g stroke="none" stroke-width="1" fill="none" fill-rule="evenodd" sketch:type="MSPage"><g><use fill="#ffffff" fill-rule="evenodd" sketch:type="MSShapeGroup" xlink:href="#a"></use><use fill="none" xlink:href="#a"></use></g></g></svg>