<svg xmlns="http://www.w3.org/2000/svg" xmlns:xlink="http://www.w3.org/1999/xlink" version="1.1" x="0px" y="0px" viewBox="0 0 100 100" enable-background="new 0 0 100 100" xml:space="preserve"><path fill="#000000" d="M49.999,67.125c9.948,0,18.015-1.574,18.015-3.523c-10.158,0-17.158-20.402-17.938-27.18  c1.865-0.04,3.366-1.557,3.366-3.431c0-1.899-1.54-3.442-3.442-3.442c-1.899,0-3.44,1.543-3.44,3.442  c0,1.874,1.502,3.392,3.366,3.431c-0.779,6.778-7.78,27.18-17.938,27.18C31.986,65.551,40.052,67.125,49.999,67.125z M49.999,22.878  c2.815,0,5.1-2.284,5.1-5.099c0-2.813-2.284-5.096-5.1-5.096c-2.813,0-5.097,2.283-5.097,5.096  C44.902,20.595,47.186,22.878,49.999,22.878z M49.999,76.58c15.336,0,27.762-3.674,27.762-8.207c0-1.84-2.062-3.529-5.513-4.896  c0.793,0.691,1.242,1.43,1.242,2.195c0,3.809-10.515,6.891-23.491,6.891c-12.974,0-23.488-3.082-23.488-6.891  c0-0.766,0.449-1.504,1.242-2.195c-3.451,1.367-5.516,3.057-5.516,4.896C22.237,72.906,34.666,76.58,49.999,76.58z M78.182,63.477  c1.888,1.414,2.976,2.982,2.976,4.648c0,6.045-13.95,10.947-31.158,10.947c-17.205,0-31.155-4.902-31.155-10.947  c0-1.666,1.088-3.234,2.976-4.648C11.565,65.936,5,69.697,5,73.92c0,7.396,20.146,13.396,44.999,13.396  c24.856,0,45.001-6,45.001-13.396C95,69.697,88.435,65.936,78.182,63.477z"></path></svg>