<svg xmlns="http://www.w3.org/2000/svg" xmlns:xlink="http://www.w3.org/1999/xlink" version="1.1" x="0px" y="0px" viewBox="0 0 100 100" enable-background="new 0 0 100 100" xml:space="preserve"><path fill="#000000" d="M72.1,80.9c-0.2-0.8-0.3-1.7-0.6-2.6c1,0.1,2,0.2,2.9,0.3c0.3,1.2,0.4,2.2,0.5,2.8  C74.3,81.3,73.3,81.2,72.1,80.9z M59.4,76.9c0.7,0.4,1.5,0.8,2.4,1.1c-0.2-0.8-0.4-1.6-0.7-2.2C60.5,76.2,59.9,76.6,59.4,76.9z   M28.9,67.6c0.6-0.3,1.1-0.5,1.6-0.7c0-0.1,0-0.1,0-0.2c-0.5,0.2-1.1,0.5-1.7,0.8C28.9,67.5,28.9,67.6,28.9,67.6z M31.3,78.2  c-0.9-0.2-1.7-0.5-2.6-0.8c-0.4,0.6-0.9,1.2-1.3,1.8c0.9,0.3,1.9,0.5,2.8,0.6C30.6,79.3,30.9,78.7,31.3,78.2z M24,82.4  c0.5-0.8,1-1.7,1.6-2.5c-1.2-0.4-2.4-0.8-3.4-1.3c-1.2,1.2-2.2,2.3-2.8,3C20.4,81.8,22,82.2,24,82.4z M75.3,77.5  c-0.1-0.6-0.3-1.3-0.5-2c1.2,0,2.4,0,3.4-0.1c0.2,1,0.3,1.8,0.4,2.3C77.9,77.7,76.7,77.7,75.3,77.5z M71.6,68.2  c0.6,0.8,1,1.7,1.5,2.6c1.2,0,2.4-0.1,3.6-0.2c-0.3-0.7-0.6-1.3-1-2C74.3,68.7,72.9,68.5,71.6,68.2z M79.2,74.2  c1-0.1,1.8-0.1,2.3-0.2c0-0.6-0.2-1.6-0.5-2.8c-0.8,0.1-1.7,0.3-2.6,0.4C78.7,72.6,79,73.4,79.2,74.2z M57.9,77.8  c-0.8,0.4-1.5,0.8-2.3,1.2c0.6,0.4,1.4,0.9,2.4,1.4C58.1,79.3,58.1,78.5,57.9,77.8z M77.9,74.3c-0.2-0.8-0.5-1.6-0.8-2.5  C76,71.9,74.8,72,73.6,72c0.3,0.8,0.6,1.6,0.8,2.4C75.7,74.4,76.9,74.4,77.9,74.3z M68.7,71.7c0.5,0.7,1,1.6,1.4,2.4  c1,0.1,2.1,0.2,3.1,0.2c-0.3-0.8-0.5-1.6-0.9-2.3C71.1,72,69.8,71.9,68.7,71.7z M71.5,84.6c-0.1-0.6-0.2-1.6-0.4-2.7  c-0.9-0.2-1.9-0.4-3-0.7c0.1,0.9,0.1,1.7,0.2,2.6C69.4,84.1,70.6,84.4,71.5,84.6z M70.8,80.6c-0.2-0.8-0.4-1.6-0.6-2.5  c-0.9-0.1-1.9-0.3-2.8-0.5c0.2,0.7,0.4,1.5,0.5,2.3C68.9,80.2,69.9,80.4,70.8,80.6z M72.7,65.3c-0.2,0.2-0.3,0.4-0.5,0.6  c-0.3,0.3-0.6,0.7-0.9,1c1.2,0.3,2.3,0.5,3.6,0.5C74.2,66.6,73.5,65.9,72.7,65.3z M61.9,79.4c-1-0.4-1.9-0.8-2.7-1.2  c0.1,0.8,0.1,1.7,0,2.7c0.9,0.4,1.9,0.7,2.9,1.1C62,81,62,80.2,61.9,79.4z M61.5,86.9c-1.1-0.5-2.3-1-3.4-1.6  c-0.3,0.9-0.5,1.8-0.8,2.6c1.3,0.8,2.5,1.6,3.7,2.3C61.1,89.5,61.3,88.3,61.5,86.9z M61.9,83.1c-1-0.3-2-0.7-3-1.1  c-0.1,0.7-0.3,1.4-0.5,2.1c1.1,0.5,2.2,1,3.2,1.5C61.8,84.9,61.9,84,61.9,83.1z M68,70.3c1.1,0.3,2.4,0.5,3.8,0.5  c-0.5-1-1.1-1.9-1.7-2.6C69.4,68.9,68.7,69.6,68,70.3z M64.9,73c1.1,0.4,2.4,0.8,3.8,1c-0.5-1-1.1-1.9-1.8-2.6  C66.2,71.9,65.6,72.5,64.9,73z M77.9,70.5c1-0.1,1.9-0.2,2.7-0.4c-0.2-0.7-0.5-1.3-0.8-2c-1,0.2-1.9,0.4-2.8,0.4  C77.4,69.2,77.7,69.9,77.9,70.5z M47.9,86.4c-0.4-0.4-0.7-0.8-1-1.2c-0.6,0.7-1.3,1.3-2.1,2c0.4,0.5,0.7,1,1.1,1.5  C46.6,87.9,47.3,87.2,47.9,86.4z M25.5,69c0.1,0.1,0.2,0.3,0.3,0.4c0.7-0.4,1.3-0.9,2-1.2c-0.1-0.1-0.1-0.1-0.2-0.2  C27,68.3,26.3,68.7,25.5,69z M22.3,72c0.8-0.6,1.7-1.3,2.6-1.9c-0.2-0.2-0.3-0.4-0.4-0.6c-1.1,0.5-2.3,1-3.4,1.5  C21.4,71.3,21.8,71.6,22.3,72z M45.1,89.5c-0.4-0.5-0.8-1.1-1.2-1.6c-1,0.8-2.1,1.5-3.1,2.2c0.5,0.9,0.9,1.7,1.3,2.3  C42.9,91.6,44,90.7,45.1,89.5z M73.6,75.6c-1,0-2-0.1-3-0.2c0.2,0.6,0.4,1.1,0.6,1.7c1,0.1,2,0.2,2.9,0.3  C73.9,76.8,73.8,76.2,73.6,75.6z M84.8,69.4l-3.4-1.6c-0.1,0-0.2,0.1-0.3,0.1c0.3,0.7,0.6,1.4,0.8,2.1  C83.2,69.7,84.3,69.5,84.8,69.4z M76.3,67.4c0.9,0,1.9-0.2,2.9-0.4c0-0.1-0.1-0.1-0.1-0.2C79,66.8,79,66.7,79,66.6l-5.4-2.5  c-0.1,0.1-0.1,0.1-0.2,0.2C74.6,65.2,75.5,66.3,76.3,67.4z M50.4,89c-0.6-0.6-1.1-1.1-1.7-1.7c-0.7,0.8-1.4,1.6-2.1,2.3  c0.7,0.8,1.4,1.6,2,2.2C49.1,91.2,49.7,90.2,50.4,89z M67,84.7c-1.2-0.3-2.6-0.7-4-1.2c-0.1,0.9-0.1,1.8-0.2,2.6  c1.5,0.6,3,1.2,4.1,1.6C67,87,67,86,67,84.7z M69.3,75.2c-1.1-0.1-2.2-0.3-3.2-0.6c0.3,0.5,0.6,1.1,0.9,1.8c1,0.2,1.9,0.4,2.9,0.5  C69.7,76.3,69.5,75.8,69.3,75.2z M67,83.4c0-0.8-0.1-1.7-0.2-2.5c-1.3-0.3-2.5-0.7-3.7-1.1c0,0.8,0.1,1.6,0,2.5  C64.4,82.7,65.8,83.1,67,83.4z M66.6,79.6c-0.1-0.8-0.3-1.5-0.6-2.2c-1.3-0.3-2.5-0.6-3.5-1.1c0.2,0.7,0.4,1.4,0.5,2.2  C64.1,78.9,65.4,79.3,66.6,79.6z M52.1,85.8c-0.5-0.4-1-0.8-1.4-1.1c-0.3,0.6-0.7,1.1-1.1,1.7c0.5,0.5,1,1.1,1.5,1.6  C51.4,87.2,51.7,86.5,52.1,85.8z M55.9,88.4c-0.9-0.6-1.9-1.3-2.8-1.9c-0.4,0.8-0.8,1.6-1.1,2.3c1,0.9,1.9,1.9,2.8,2.7  C55,90.6,55.5,89.6,55.9,88.4z M62.3,75c0.9,0.4,2,0.8,3.2,1.1c-0.4-0.8-1-1.6-1.6-2.2C63.4,74.2,62.8,74.6,62.3,75z M28,86.1  c0.2-0.6,0.3-1.3,0.5-2c-1.3-0.1-2.6-0.2-3.9-0.4c-0.7,1.1-1.2,2.1-1.6,2.7C24.4,86.4,26.1,86.3,28,86.1z M23,77.7  c1,0.4,2.1,0.8,3.2,1.2c0.5-0.7,0.9-1.4,1.4-2c-0.8-0.4-1.6-0.9-2.4-1.3C24.5,76.3,23.7,77,23,77.7z M26.2,74.7  c0.7,0.4,1.5,0.9,2.2,1.2c0.5-0.6,1.1-1.2,1.6-1.7c-0.7-0.4-1.3-0.8-1.9-1.2C27.5,73.7,26.8,74.2,26.2,74.7z M33.3,86.5  c-1.5,0.3-3,0.5-4.4,0.7c-0.2,1.1-0.4,2-0.5,2.6c1.4-0.4,3.2-0.9,5.1-1.5C33.5,87.7,33.4,87.1,33.3,86.5z M30.9,81.1  c-0.3,0.6-0.5,1.2-0.8,1.8c1.1,0,2.2,0,3.2-0.1c0.1-0.6,0.2-1.2,0.4-1.7C32.9,81.3,31.9,81.3,30.9,81.1z M30.3,73.1  c-0.1-0.5-0.1-1-0.1-1.5c-0.4,0.3-0.7,0.5-1.1,0.8C29.5,72.6,29.9,72.9,30.3,73.1z M28.9,82.9c0.2-0.7,0.5-1.3,0.8-1.9  c-1-0.2-1.9-0.4-2.9-0.7c-0.5,0.8-1,1.6-1.5,2.3C26.5,82.7,27.7,82.8,28.9,82.9z M33.3,84c-1.1,0.1-2.3,0.1-3.5,0.1  c-0.2,0.6-0.4,1.2-0.5,1.8c1.3-0.2,2.7-0.4,4-0.6C33.3,84.9,33.2,84.4,33.3,84z M19.1,76c0.6,0.3,1.6,0.8,2.8,1.3  c0.7-0.7,1.5-1.5,2.4-2.3c-0.7-0.5-1.4-1-2-1.4C20.9,74.5,19.8,75.4,19.1,76z M91.9,72.7l-6-2.8c0,0.3-0.2,0.5-0.4,0.5  c-0.2,0-1.4,0.3-3.3,0.7c0.5,1.9,0.5,3.4,0.5,3.5c0,0.3-0.2,0.6-0.5,0.6c-0.1,0-1.2,0.1-2.7,0.2c0.3,1.6,0.4,2.8,0.4,2.9  c0,0.2,0,0.3-0.2,0.4c-0.1,0.1-0.3,0.2-0.4,0.2c-0.2,0-1.6-0.1-3.6-0.2c0.4,1.8,0.6,3.2,0.6,3.3c0,0.2,0,0.4-0.2,0.5  c-0.1,0.1-0.3,0.2-0.5,0.2c-0.2,0-1.4-0.2-3.2-0.6c0.3,1.7,0.4,3,0.4,3.1c0,0.2-0.1,0.4-0.2,0.5c-0.1,0.1-0.3,0.2-0.5,0.1  c-0.4-0.1-1.9-0.4-3.8-0.9c0,2-0.2,3.4-0.3,3.6c0,0.2-0.1,0.3-0.3,0.4c-0.1,0.1-0.3,0.1-0.5,0.1c-0.2-0.1-2.1-0.7-4.5-1.7  c-0.3,2.2-0.7,3.8-0.7,4c0,0.2-0.2,0.3-0.3,0.4c-0.2,0.1-0.4,0.1-0.5,0c-0.4-0.3-2.2-1.3-4.2-2.6c-0.7,1.8-1.3,3.2-1.4,3.6  C55.4,92.9,55.2,93,55,93c-0.2,0-0.4,0-0.5-0.1c-0.3-0.3-1.7-1.5-3.2-3c-1.1,1.8-2,3.1-2.1,3.2c-0.1,0.1-0.3,0.2-0.4,0.2  c0,0,0,0,0,0c-0.2,0-0.3-0.1-0.4-0.2c-0.3-0.3-1.3-1.3-2.5-2.7c-1.8,1.8-3.4,3.1-3.5,3.2c-0.1,0.1-0.2,0.1-0.4,0.1c0,0-0.1,0-0.1,0  c-0.2,0-0.3-0.1-0.4-0.2c-0.1-0.1-0.9-1.3-1.7-2.9c-2.3,1.4-4.1,2.3-4.3,2.4c-0.1,0-0.2,0.1-0.3,0.1c-0.1,0-0.2,0-0.2,0  c-0.2-0.1-0.3-0.2-0.3-0.4c0-0.1-0.5-1.5-0.8-3.4c-3.2,1.1-5.9,1.7-5.9,1.7c-0.2,0-0.4,0-0.5-0.1c-0.1-0.1-0.2-0.3-0.2-0.5  c0-0.1,0.2-1.4,0.5-3.2c-3,0.3-5.4,0.4-5.6,0.4c-0.2,0-0.4-0.1-0.5-0.3c-0.1-0.2-0.1-0.4,0-0.6c0.1-0.2,0.8-1.5,1.8-3.3  c-2.9-0.4-5-0.9-5.2-0.9c-0.2,0-0.4-0.2-0.4-0.4c-0.1-0.2,0-0.4,0.1-0.6c0.1-0.1,1.3-1.6,3.2-3.5c-1.8-0.8-3.1-1.4-3.2-1.5  c-0.2-0.1-0.3-0.3-0.3-0.5s0.1-0.4,0.2-0.5c0.2-0.1,1.6-1.4,3.6-2.9c-0.6-0.5-1.1-0.9-1.4-1.2c-4.1,1.8-7.4,3.3-7.4,3.3L1.4,97.5  l97.3-0.2L91.9,72.7z M25.2,74.1c0.6-0.6,1.3-1.1,2-1.7c-0.5-0.4-1-0.9-1.5-1.4c-0.8,0.6-1.6,1.1-2.4,1.7  C23.8,73.2,24.5,73.6,25.2,74.1z M26.6,70.3c0.4,0.5,0.9,0.9,1.4,1.3c0.6-0.5,1.3-1,1.9-1.4c-0.3-0.3-0.8-0.7-1.3-1.2  C28,69.4,27.3,69.9,26.6,70.3z M33.4,80c-0.4-0.4-0.7-0.7-1-1.2c-0.3,0.3-0.6,0.8-0.9,1.2C32.2,80.1,32.8,80.1,33.4,80z M30.7,75.2  c-0.4,0.3-0.8,0.7-1.2,1.2c0.6,0.2,1.2,0.4,1.8,0.6C31.1,76.5,30.9,75.9,30.7,75.2z M29.8,68.5c0.2,0.1,0.3,0.3,0.4,0.4  c0-0.2,0-0.4,0.1-0.6C30.1,68.3,30,68.4,29.8,68.5z M57.8,81.6c-1.1-0.5-2.1-1-2.8-1.6c-0.1,0.6-0.2,1.3-0.3,2  c0.8,0.6,1.7,1.1,2.7,1.6C57.5,82.9,57.7,82.2,57.8,81.6z M47.6,82c-0.5,0.1-0.9,0.2-1.4,0.3c0.2,0.3,0.4,0.7,0.7,1.1  C47.2,82.9,47.5,82.4,47.6,82z M51.2,83.6c0.4,0.3,0.9,0.7,1.3,1.1c0.3-0.7,0.5-1.5,0.8-2.2c-0.5-0.4-0.9-0.7-1.2-1.1  C51.9,82.1,51.6,82.8,51.2,83.6z M48.6,82.8c-0.2,0.5-0.5,1-0.9,1.5c0.3,0.4,0.6,0.8,1,1.1c0.4-0.5,0.7-1,1.1-1.6  C49.3,83.5,48.9,83.1,48.6,82.8z M44.1,86.2c0.8-0.6,1.5-1.3,2.1-2c-0.3-0.4-0.6-0.9-0.9-1.3c-0.4,0.7-1.1,1.3-2,2  C43.5,85.4,43.8,85.8,44.1,86.2z M42.7,83.9c0.6-0.4,1-0.9,1.4-1.3c-0.6,0.1-1.2,0.1-1.8,0.1C42.4,83.1,42.5,83.5,42.7,83.9z   M57.1,84.8c-1-0.5-1.9-1.1-2.7-1.6c-0.2,0.7-0.5,1.5-0.8,2.2c0.9,0.6,1.8,1.3,2.8,1.9C56.5,86.5,56.8,85.6,57.1,84.8z M53.8,79.8  c-0.4,0.2-0.7,0.3-1.1,0.5c0.3,0.3,0.6,0.6,0.9,0.9C53.7,80.7,53.8,80.3,53.8,79.8z M50.9,81c-0.6,0.2-1.2,0.4-1.8,0.6  c0.2,0.4,0.6,0.8,1.1,1.2C50.6,82.2,50.8,81.6,50.9,81z M43.2,87c-0.3-0.4-0.6-0.9-0.8-1.3c-0.8,0.5-1.8,1-2.9,1.5  c0.2,0.6,0.5,1.2,0.8,1.8C41.2,88.4,42.2,87.7,43.2,87z M39.2,89.6c-0.3-0.6-0.6-1.3-0.9-2c-0.7,0.3-1.3,0.6-2.1,0.8  c-0.5,0.2-0.9,0.3-1.4,0.5c0.2,1,0.4,2,0.6,2.7C36.5,91.2,37.8,90.5,39.2,89.6z M38,86.6c-0.1-0.4-0.2-0.8-0.3-1.2  c-1,0.3-2.1,0.6-3.2,0.9c0,0.5,0.1,1.1,0.2,1.6C35.8,87.5,36.9,87,38,86.6z M34.6,82.7c0.8-0.1,1.6-0.4,2.2-0.6  c-0.6-0.2-1.2-0.5-1.8-0.8C34.8,81.6,34.7,82.1,34.6,82.7z M34.4,85c1.1-0.2,2.1-0.5,3.1-0.9c0-0.4,0-0.8,0-1.1  c-0.9,0.4-1.9,0.7-3,0.8C34.4,84.3,34.4,84.6,34.4,85z M38.8,82.5c-0.1,0.4-0.1,0.8-0.1,1.2c0.7-0.3,1.3-0.6,1.7-1  C39.8,82.7,39.3,82.6,38.8,82.5z M41.3,83.4c-0.7,0.6-1.5,1.1-2.5,1.5c0.1,0.4,0.2,0.8,0.3,1.1c1-0.5,1.9-1,2.7-1.5  C41.6,84.2,41.4,83.8,41.3,83.4z"></path><path fill="#000000" d="M47.1,67.7c-0.7,0-2.3-0.3-2.3-0.3s1.4,1,2.3,1c1,0,1.7,0,2.4-0.2c0.7-0.2,1.4-0.9,1.7-1.1  c0.3-0.2-1.1,0.4-1.8,0.5S47.8,67.7,47.1,67.7z"></path><path fill="#000000" d="M46.9,65.6c0.3,0,1.9-0.2,3-0.5c1.8-0.4,3.6-1.2,5.1-2.2c-1.2-0.8-2.4-0.7-3.6-1c-0.2,0-2.9-0.2-2.9-0.2  l-1.3,0.9l-1.3-0.6c-0.7-0.2-2,0.3-2.7,0.4c-1.3,0.3-2.5,0.7-3.5,1.3c0.1,0.1,3.4,1.4,4.9,1.6C45,65.4,46.6,65.6,46.9,65.6z"></path><path fill="#000000" stroke="#231F20" stroke-width="0.1895" stroke-miterlimit="10" d="M41.5,56.2c0.7,0.2,1,0.1,2.2,1.3  c0.4,0.4,0.9,0.7,1.8,0.7c1.3,0,1.6-0.7,2.3-1.3c0.2-0.2,0.4-0.5,0.6-0.7c0.8-0.8,1.2-1,2.2-1.2c0.3-0.1,0.9-0.1,1.2-0.3  c0.9-0.5,0.8-1.3-0.1-2c0,0-0.4-0.2-0.3,0c1.4,1.6-1.1,1.7-1.8,1.9c-0.4,0.1-0.8,0.4-1.1,0.7c-0.6,0.6-0.9,1.3-1.7,1.8  c-1,0.6-1.9,0.5-2.8-0.3c-0.7-0.6-1.5-0.8-2.3-1.1c-0.3-0.1-0.9-0.2-1-0.6c-0.2-1,0.4-2.1,0.4-2.2c0,0-0.2,0.1-0.3,0.3  c-0.3,0.5-1,1.3-0.7,2.3C40.3,56,41.2,56.1,41.5,56.2z"></path><path fill="#000000" d="M36.4,61.8c0.2-3.7,0.7-5,2.6-9.1c0.1-0.1-0.5,0.2-0.5,0.2c-2.1,3.5-2.6,5.2-2.3,8.8  C36.3,61.9,36.3,61.9,36.4,61.8z"></path><path fill="#000000" d="M56.8,59.4c0.4-2.6-0.9-4.8-3.3-6.4c0,0-0.4-0.1-0.4,0c1.9,1.7,3.2,4.4,3.5,6.5  C56.8,59.5,56.8,59.5,56.8,59.4z"></path><path fill="#000000" d="M61.9,56.9c0.2-3.1,1.3-7.5,3-11c0-0.1-0.4,0.1-0.4,0.1c-2.5,3.7-2.9,6.5-2.8,10.8  C61.8,56.9,61.9,56.9,61.9,56.9z"></path><path fill="#000000" d="M68.5,43.2c0.1,0.6,0,1.1-0.2,1.8c-0.2,0.8-0.4,1.2-0.4,1.2l0.5-0.1c0.8-1,1-1.3,1.2-1.6  c0.4-0.6,0.6-1.5,0.6-2.2c0-0.6-0.4-0.9-0.6-1.3c-0.3-0.4-1.1-0.6-1.4-0.3c-0.4,0.3-0.4,1-0.1,1.2C68.4,42.1,68.4,42.6,68.5,43.2z"></path><path fill="#000000" d="M57.2,44.9c-1.7,0.1-3.6,0.2-5.8-0.4c0,0-0.9-0.3-0.6,0.1c3,1,3.9,1,5.9,0.8C57.4,45.3,57.7,44.8,57.2,44.9z  "></path><path fill="#000000" d="M40.4,45.5c-1.4,0.7-2.5,1-4.4,1.4c-0.5,0.1,0.6,0.5,1.3,0.4c1.6-0.4,2.2-0.6,3.7-1.8  C41.3,45.1,40.4,45.5,40.4,45.5z"></path><path fill="#000000" d="M32.1,43.9c0.3-0.7,1.5-1.6,2.4-1.9c-0.1,0.3-0.2,0.6-0.2,0.9c0,1.1,0.9,1.9,2,1.8c1.1,0,1.9-0.9,1.8-2  c0-0.1,0-0.3-0.1-0.4c0.6,0.3,1.2,0.8,1.7,1.3c-1.9,1.2-4,1.5-6.2,0.9c0,0-0.1,0-0.2-0.1c-0.4-0.1-0.8-0.3-1-0.3  c-0.1,0-0.1,0-0.1,0.1c0,0.1,0,0.1,1,0.7c1,0.4,1.8,0.5,2.6,0.5c1.4,0,2.6-0.5,4.4-1.3c0.1,0.1,0.1,0.1,0.2,0.2  c0.2,0.2,0.8-0.1,0.6-0.3c-0.9-1-1.8-1.8-3.2-2.3c-0.6-0.2-1.1-0.4-1.7-0.4c-0.3,0-0.7,0-1.1,0c-1.3,0.1-2.2,0.7-3.2,1.8  C31.6,43.4,32,44.1,32.1,43.9z M35.5,42.1c0.3,0,0.5,0.2,0.5,0.5c0,0.3-0.2,0.5-0.5,0.5S35,42.9,35,42.6  C35,42.3,35.2,42.1,35.5,42.1z"></path><path fill="#000000" d="M51,42.8c1.5,0.6,2.5,1,3.6,1c0.8,0,1.6-0.2,2.4-0.7c0.8-0.6,0.8-0.6,0.8-0.7c0,0,0,0-0.1,0  c-0.1,0-0.3,0.1-0.8,0.3c-0.1,0-0.2,0.1-0.2,0.1c-0.7,0.3-1.4,0.5-2.2,0.5c-1,0-2.1-0.3-3.1-0.9c0.4-0.4,0.9-0.8,1.5-1.3  c0,0,0,0.1,0,0.1c0,1,0.8,1.8,1.8,1.8s1.8-0.8,1.8-1.8c0-0.5-0.2-0.9-0.5-1.2c0.6,0.1,1.3,0.7,1.8,1.4c0.2,0.2,1,0.5,0.9,0.3  c-0.8-1-1.8-2.3-3.2-2.3c-0.2,0-0.3,0-0.5,0.1c-0.6,0.1-1.2,0.3-1.7,0.6c-1.2,0.7-2.2,1.8-3.1,2.6C50.1,42.9,50.7,42.9,51,42.8z   M54,40.5c0.3,0,0.5,0.2,0.5,0.5c0,0.3-0.2,0.5-0.5,0.5c-0.3,0-0.5-0.2-0.5-0.5C53.5,40.7,53.7,40.5,54,40.5z"></path><path fill="#000000" d="M30.6,35.5c-0.6,0.2-1.1,0.6-1.8,1.1c-0.1,0.1-0.1,0.2-0.1,0.2c0.7-0.2,1.3-0.5,2-0.8  c0.4-0.2,0.8-0.4,2.2-0.3c0.1,0-0.5-0.3-0.5-0.3C31.8,35.3,31,35.4,30.6,35.5z"></path><path fill="#000000" d="M37.5,34.3c-0.7-0.4-5.1-0.3-5.7-0.2c-0.7,0.1-1.8,0.4-2.6,0.8c-0.4,0.3-0.2,0.1-0.1,0.2  c1.3-0.1,2.5-0.3,2.8-0.4c0.4-0.1,4.8-0.5,6,0C38,34.7,37.5,34.3,37.5,34.3z"></path><path fill="#000000" d="M71.2,39.5c0.2,0,0.2-2.6,0-2.7c-0.1-0.2-0.8-0.5-0.9-0.4C70.2,36.5,71,39.5,71.2,39.5z"></path><path fill="#000000" d="M25.4,40.9c-0.1-0.1-0.6,0.4-0.7,0.5c-0.1,0.2,0.6,2.2,0.6,2C25.4,42,25.5,41,25.4,40.9z"></path><path fill="#000000" d="M72.7,36.2c0-0.1-0.1-0.2-0.1-0.2c0,0-0.5-1.2-2.3-1.6c-0.1,0-0.1,0-0.2,0c0.4-1.5,0.6-2.1,0.6-3.8  c-0.1-1.8-0.1-6.7-1.6-10.1c-0.7-1.5-4.1-6-5.1-6.9c-2-1.9-4.4-1.9-6.9-2.1c-1.2-2.2-4.9-3.6-6.5-3.8c-6.1-0.8-13.8,1.5-19.1,4.9  c-4.7,3-6.3,6.9-7.1,10.4c-0.7,3.2,0.7,10.9,0.9,13.5c0.1,1,0.2,1.8,0.3,2.5c-0.8,0.3-1.4,0.9-1.8,1.7c-0.5,1.1,0.3,3.8,0.9,4.8  c0.3,0.5,0.7,1,1.2,1.5c0.3,0.3,0.6,0.7,0.8,0.9c0.2,0.2,0.2,0.4,0.2,0.8c0,0.1,0,0.3,0,0.4c0.1,0.9,0.8,2.9,0.8,3  c-0.4,0.5-0.6,1.2-0.6,1.9c0,1.8,1.5,3.3,3.3,3.3c0.4,0,0.9-0.1,1.2-0.2c0.2,0.7,0.3,1.4,0.4,2.2c0,0.5,0.2,0.9,0.2,1.5  c0.4,1.9,1,3.3,1.7,4.6c-0.5,0.2-1,0.4-1.5,0.7c-1.4,6.1-0.5,12.8,4.9,14.5c8.8,2.8,23.8-4.2,33.4-15.6c0.4-0.5,0.8-0.9,1.1-1.4  l-6.4-3c0.1-0.6,0.2-1.2,0.3-1.8c0.1-0.6,0.2-3.8,0.3-4.6c0.6,0.5,1.4,0.9,2.2,0.9c1.8,0,3.3-1.5,3.3-3.3c0-1.1-0.5-2-1.3-2.6  c0.2-0.2,0.4-0.4,0.5-0.6c0.6-0.9,1.6-5.8,1.7-5.9c0.3-1.1,0.2-2.2,0.4-3.3C72.9,38.3,73.2,37.5,72.7,36.2z M56.8,14.7  c0.4-0.1,0.8-0.1,1.2-0.1c0.7,0,1.3,0.1,1.9,0.4c0.6,0.3,0,0.4-0.3,0.3c-0.2-0.1-0.5-0.1-0.7-0.1c-0.7,0-1.5,0.1-2.1,0.2  c-1,0.2-1.8,0.8-2.5,1.4c-0.2,0.2-1-0.2-0.9-0.3C54.4,15.5,55.4,14.9,56.8,14.7z M51.8,13.4c0.4-0.2,0.7-0.3,1.1-0.4  c0.4,0,0.9,0,1.6,0.1c0.1,0,0.5,0.1,0.2,0.2c-0.1,0-0.3,0-0.4,0.1c-0.8,0.1-1.7,0.1-2.3,0.7c-0.7,0.6-1.1,2.4-1.1,2.4  c-0.1,0.1-0.8,0.3-0.8,0.2C50,14.8,50.5,14.2,51.8,13.4z M35.8,14.9c1.4-0.4,3-0.5,4.4,0.2c1.6,0.7,4.3,3.5,4.4,4.1s-1,0.2-1.3-0.2  c0,0-2.1-2.5-3.4-3.1c-1.3-0.7-2.9-0.7-4.4-0.6C35,15.2,35.6,14.9,35.8,14.9z M28.9,27.7c0.8-0.8,4.3-2.8,7.1-3.4  c-1.3-0.8-2.4-1.4-2.7-1.5c-1.3-0.6,0.1-0.6,2.3,0c2.4,0.7,3.6,2,2.6,0.9c-0.3-0.4-1.1-1-2-1.5c-0.8-0.5-2-1.2-2.7-1.3  c-3.1-0.8-1.7-0.9,0-0.7c0.3,0,1.9,0.5,3.2,1.3c0.8,0.5,2,1.6,2.3,1.9c2.5,2.2,2.7,1,1.5-0.4c-0.5-0.6-2.1-2.5-3.4-3.4  c-3.7-2.4-5.8-1.5-6.6-1.8c-0.6-0.2,1-0.7,2.5-0.6c1.1,0,3.2,0.6,4.5,1.4c2.8,1.7,4.6,4.8,5,5.1C42.8,24,43,24,43.1,24  c6.2-3.3,11.2-2.3,14.2-1c3.1,1.4,0.4,1.3,0.4,1.3c5.3,3,1.4,2.3,1.4,2.4c4.8,2.5,1.7,2,1.5,2c-0.1,0,1.8,2.1,2.9,3.6  c0.9,1.3,1.8,3.2,2.5,4.7l-2.4,1l-0.3,0l-0.1-0.5c0,0-2.3,0.1-3.8,0.2c-1.8-0.3-3.8-0.3-5.8,0c-0.3,0-0.6,0.1-0.9,0.2  c1-0.5,2.7-1.3,3.1-1.5c0.6-0.2,1.4-0.4,1.9-0.6c0.5-0.1,1,0.1,1.7,0.1s1.6-0.4,1.3-0.4S58.5,35.1,58,35c-0.5-0.1-1.5,0.1-1.9,0.2  s-1.7,0.6-2.2,0.7s-2.5,1-3,1.3s-1.7,0.7-2.1,1c-0.4,0.2,0.3,0.7,0.5,0.8c-1.3,0.7-1.9,1.5-2.2,2.1c-0.4,0-1.6,0-2.2,0.1  c-0.4,0-1.3,0.3-1.7,0.5c-0.5-0.8-1.6-1.8-4.2-2.2c0.2-0.1,0.5-0.2,0.6-0.5c0.2-0.5-0.6-0.6-0.6-0.6s-1.2-0.3-1.8-0.4  c-0.7,0-1.3-0.1-2.1-0.1s-1.6-0.1-2.4,0c-0.8,0.1-1.5,0-2.2,0.5c-0.3,0.2-1,0.5-0.5,0.7c0.1,0,0.5-0.2,0.7-0.2  c0.4-0.1,1.4-0.1,1.8-0.1c0.4,0,0.8,0.1,1.2,0.1c0.4,0.1,0.9,0.2,1.5,0.3c0.4,0.1,0.8,0.2,1.1,0.2c-0.1,0-0.1,0-0.2,0  c-2,0.1-4,0.5-5.7,1.1c-0.4,0.1-0.8,0.1-1.3,0.2c-0.3,0-0.6,0.1-0.9,0.1c0,0,0-1.2,0-1.8c0-0.5,0-1-0.1-1.5c-0.1-0.7,0-2.2,0-2.9  c-1,2-1.4,0.2,0-2.2c-1.4,1.6-1.5-0.9,0.4-2.4C26.4,30.8,28.1,28.5,28.9,27.7z M47.5,42.1c0-0.4,0.5-2.7,6.2-3.5c1-0.2,2-0.2,3-0.2  c1,0,2,0.1,3,0.3c2.5,0.4,2.2,3.3,2.2,3.3c0,0.3-0.1,0.6-0.1,0.9c-0.1,0.6-0.1,1.3-0.2,1.9c-0.1,0.8-0.5,1.9-1,2.4  c-0.5,0.4-1.2,0.6-1.9,0.8L58.5,48c-1,0.3-1.9,0.5-2.8,0.5l-0.4,0c-0.6,0-1.2,0.1-1.8,0.1c-1.1,0-1.9-0.1-2.4-0.4  c-1.3-0.7-1.9-1.7-2.7-3l-0.2-0.3C47.7,44.1,47.4,43,47.5,42.1z M29.4,48.3c0.1,0.3,0.2,0.6,0.3,0.9l0,0c-0.1-0.4-0.2-0.7-0.3-1.1  c-0.3-1.2-0.7-2.4-1.1-3.7c0,0,0,0,0,0c0-0.1,0-0.2,0-0.3c0-0.3,0-0.7,0.1-1.1l0,0c0.1-0.4,0.3-0.8,0.7-1.1c0.2-0.2,0.5-0.4,0.9-0.5  c1.7-0.7,3.7-1.1,5.8-1.2c0.3,0,0.7,0,1,0c3.7,0,5.4,1.2,5.8,2.3c0.3,0.9,0.3,2-0.1,2.9l-0.1,0.4c-0.5,1.4-1,2.6-2.1,3.5  c-0.9,0.7-2.8,1-4.1,1.1l-0.4,0c-0.8,0.1-1.8,0.1-2.8,0l-0.2,0c-0.6-0.1-1.2-0.1-1.7-0.4c-0.1,0-0.2-0.1-0.2-0.1  c-0.2-0.1-0.4-0.3-0.6-0.6c-0.1-0.1-0.2-0.2-0.3-0.4c-0.2-0.3-0.3-0.6-0.5-0.9C29.4,48.5,29.4,48.5,29.4,48.3z M27.5,47.3  c-0.5-0.7-1.8-1.5-2.3-2.2c-0.6-1-1-3.5-0.8-4.2c0.1-0.4,0.6-1,1.3-1.3c0.2,0.9,0.3,1.5,0.5,2l-0.7,0.2l0.3,1.2c0,0,0.4-0.2,0.8,0  c0.1,0.1,0.2,0.2,0.4,0.3c0.1,0.4,0.2,0.7,0.3,1.1c0,0.2,0.1,0.3,0.1,0.5c0,0.1-0.1,0.1-0.1,0.2c-0.1,0.3,0.4,2.6,0.8,3.1  c0,0,0.1,0.1,0.1,0.1c0,0,0.1,0.1,0.1,0.1c0,0.1,0.1,0.3,0.1,0.4c0.1,0.3,0.2,0.6,0.2,0.9c0.1,0.4,0.2,0.8,0.4,1.2  c-0.4,0.1-0.7,0.3-1,0.6c-0.2-0.8-0.4-1.7-0.5-2.6C27.8,48.3,27.8,47.8,27.5,47.3z M30.4,56.3c-1.3,0-2.4-1.1-2.4-2.4  c0-0.2,0-0.4,0.1-0.6c0.1-0.3,0.3-0.7,0.5-0.9c0.3-0.3,0.6-0.6,1-0.7c0.1,0.2,0.1,0.3,0.2,0.5c0.1,0.3,0.3,0.7,0.4,1.1  c0,0,0,0-0.1,0.1c0,0,0,0,0.1-0.1c0.1,0.3,0.2,0.6,0.3,0.8c0.1,0.2,0.1,0.3,0.2,0.4c0.2,0.5,0.5,1,0.7,1.5  C31.1,56.3,30.8,56.3,30.4,56.3z M46.2,78.9c-1.9-0.2-4.4-3.9-6.4-7.6c0.2,0.2,0.5,0.4,0.7,0.5c0.7,0.4,1,0.7,1.5,1  c0.3,0.2,0.9,0.7,1.2,0.9c1.3,0.9,2.1,1.1,4,1.5c0.5,0.2,2.5,0,4.5-0.4C49.3,77.3,47.1,79,46.2,78.9z M70.7,51.5  c0,1.3-1.1,2.4-2.4,2.4c-0.8,0-1.4-0.4-1.9-0.9c-0.1-0.2-0.3-0.4-0.3-0.6c-0.1-0.3-0.2-0.6-0.2-0.9c0-1.3,1.1-2.4,2.4-2.4  c0.2,0,0.3,0,0.5,0.1c0.3,0.1,0.6,0.2,0.9,0.4C70.3,50,70.7,50.7,70.7,51.5z M72.1,39.2c-0.2,3.2-1.1,6.4-2.5,9.3  c-1-0.5-2.3-0.3-3.2,0.4c-0.9,0.7-1.4,1.9-1.3,3c0.1,0.5,0.2,0.9,0.3,1.4c0.1,0.6,0,1.2-0.1,1.7c-0.3,2.6-0.7,5.3-2,7.6  c-0.9,1.7-2.3,3.1-3.5,4.5c-2.5,2.9-5,6.4-8.8,7.2c-2.3,0.5-4.7-0.1-6.8-1.1c-1.3-0.7-2.5-1.5-3.6-2.4c-1-0.8-2.1-1.5-2.9-2.4  c-1.8-2-3.5-4.3-4.3-6.9c-0.5-1.6-0.7-3.3-1.1-4.9c-0.5-2.2-1.4-4.2-2.3-6.3c1.3,0.7,2.8,0.8,4.2,0.8c1.8,0,3.6-0.1,5.3-0.8  c1.5-0.6,2.8-1.8,3.2-3.4L43,49l0.2-3.4c0.1-0.2,0.1-0.5,0.2-0.7c0.5-1.1,2-1.9,2.9-1.2c0.5,0.4,0.8,0.9,1,1.4l0.5,3.8l0.2-2.5  c0.9,1.6,2.7,2.7,4.6,3c2.2,0.4,4.4-0.1,6.5-0.8c0.7-0.2,1.5-0.5,2-1c0.8-0.7,1.1-1.8,1.3-2.9c0.2-1.1,0.3-2.3,0.2-3.4  c0-0.5-0.1-1,0.1-1.5c0.6-1.2,2.5-0.9,3.5-1.9c0.1,1,0.2,2,0.3,3c0.5-1.5,1-2.9,1.5-4.4c0.1-0.4,0.3-0.9,0.6-1.2  c0.8-0.8,2.2-0.4,2.9,0.5c0.5,0.7,0.6,1.5,0.6,2.4C72.1,38.7,72.1,39,72.1,39.2z"></path></svg>