<svg xmlns="http://www.w3.org/2000/svg" xmlns:xlink="http://www.w3.org/1999/xlink" version="1.1" x="0px" y="0px" viewBox="0 0 90 90" enable-background="new 0 0 90 90" xml:space="preserve"><path fill="none" d="M50.5,67.1c0.9,0.3,2.1,0.5,3.5,0.5c3.3,0,5.4-1,6.1-1.9c0,0,0,0,0,0c0.1-0.2,0.2-0.4,0.2-0.5  c0-0.1,0-0.2-0.1-0.3c-0.4-0.9-2.6-2.2-6.3-2.2c-1.6,0-2.9,0.2-3.9,0.6c0,0,0,0,0,0c-1.6,0.5-2.5,1.3-2.5,1.9  C47.6,65.6,48.6,66.5,50.5,67.1z"></path><path fill="none" d="M40.1,65.2c0-0.1,0-0.2-0.1-0.4c-1.6,0.8-3.8,1.3-6.2,1.3c-1.6,0-3.1-0.2-4.3-0.6c0,0-0.1,0-0.1,0  c-0.7-0.2-1.3-0.4-1.8-0.7c-0.1,0.1-0.1,0.3-0.1,0.4c0,0.3,0.2,0.6,0.6,0.9c0,0,0,0,0.1,0c1,0.7,2.9,1.5,5.7,1.5  C37.9,67.7,40.1,66.1,40.1,65.2z"></path><path fill="none" d="M44.6,36.7c12.4,0,22.9-4.8,23.1-10.6v-0.6c0-1.7-1.3-3.5-3.6-5.1c-3.8,3.8-10.9,6.2-19.5,6.2  c-8.5,0-15.7-2.4-19.5-6.2c-2.3,1.6-3.6,3.5-3.6,5.2v0.5C21.8,31.9,32.2,36.7,44.6,36.7z"></path><path fill="none" d="M58.2,72.5c4.1,0,6.3-1.6,6.3-2.4c0-0.5-1-1.4-2.8-2c-1.6,1.4-4.4,2.4-7.8,2.4c-0.7,0-1.4,0-2-0.1  C52.4,71.2,54.5,72.5,58.2,72.5z"></path><path fill="none" d="M31.1,17.5c0.3,0.2,0.7,0.4,1.1,0.6c3.2,1.6,7.8,2.6,12.5,2.6s9.3-0.9,12.5-2.6c0.4-0.2,0.7-0.4,1.1-0.6  c1.9-1.2,3-2.5,3-3.7c0-0.5-0.2-1.1-0.6-1.6c-0.7-0.9-1.9-1.8-3.5-2.6C53.9,8,49.3,7,44.6,7S35.4,8,32.1,9.6  c-1.6,0.8-2.8,1.7-3.5,2.6c-0.4,0.6-0.6,1.1-0.6,1.6C28,15,29.1,16.4,31.1,17.5z"></path><path fill="none" d="M67.7,32.4c-4.3,4.4-12.9,7.3-23.1,7.3c-10.2,0-18.8-2.9-23.1-7.3v30.9c0.9-0.7,1.9-1.3,3-1.9  c0-0.2-0.1-0.4-0.1-0.6c0-3.1,4-5.4,9.3-5.4c2.8,0,5.3,0.7,7,1.8c1.3-0.1,2.6-0.1,3.9-0.1c9.5,0,17.9,2.4,23.1,6.2V32.4z"></path><path fill="none" d="M67.3,71.3c-0.9,2.5-4.5,4.2-9.1,4.2c-5.3,0-9.3-2.3-9.3-5.4c0-0.1,0-0.3,0-0.4c-2.6-0.9-4.3-2.6-4.3-4.6  c0-0.8,0.3-1.5,0.7-2.1c-0.3,0-0.5,0-0.8,0c-0.8,0-1.6,0-2.3,0.1c0,0,0,0,0,0c0,0,0,0,0,0c0.5,0.7,0.8,1.4,0.8,2.2  c0,3.1-4,5.4-9.3,5.4c-3.7,0-6.8-1.2-8.3-2.9c0,0,0,0,0-0.1c-2.5,1.7-3.9,3.6-3.9,5.4c0,4.8,9.5,10.1,23.1,10.1  c13.5,0,23-5.2,23.1-10v-0.2C67.7,72.4,67.6,71.8,67.3,71.3z M41.5,81.8c-5.3,0-9.3-2.3-9.3-5.4c0-3.1,4-5.4,9.3-5.4  s9.3,2.3,9.3,5.4C50.8,79.5,46.8,81.8,41.5,81.8z"></path><path fill="none" d="M41.5,74c-4.1,0-6.3,1.6-6.3,2.4c0,0.8,2.2,2.4,6.3,2.4s6.3-1.6,6.3-2.4C47.8,75.6,45.6,74,41.5,74z"></path><path fill="none" d="M27.4,60.8c0,0.1,0,0.2,0.1,0.4c0.4,0.6,1.6,1.4,3.7,1.8c0.8,0.1,1.6,0.2,2.6,0.2c1,0,1.8-0.1,2.6-0.2  c2-0.4,3.3-1.2,3.7-1.8c0.1-0.1,0.1-0.3,0.1-0.4c0-0.8-2.2-2.4-6.3-2.4c-0.3,0-0.6,0-0.9,0c-0.1,0-0.1,0-0.2,0  c-2.1,0.2-3.6,0.8-4.5,1.4c0,0-0.1,0.1-0.2,0.1C27.6,60.2,27.4,60.6,27.4,60.8z"></path><path d="M41.5,71c-5.3,0-9.3,2.3-9.3,5.4c0,3.1,4,5.4,9.3,5.4s9.3-2.3,9.3-5.4C50.8,73.3,46.8,71,41.5,71z M41.5,78.9  c-4.1,0-6.3-1.6-6.3-2.4c0-0.8,2.2-2.4,6.3-2.4s6.3,1.6,6.3,2.4C47.8,77.2,45.6,78.9,41.5,78.9z"></path><path d="M73.6,25.6c0-4-2.5-7.5-6.7-10.3c0.1-0.5,0.1-1,0.1-1.5c0-7.2-9.7-12.7-22.5-12.7S22.1,6.6,22.1,13.9c0,0.5,0.1,1,0.1,1.5  c-4.2,2.8-6.7,6.3-6.7,10.3V73c0,9,12.7,16,29,16s29-7,29-16C73.6,73,73.6,25.6,73.6,25.6z M28.6,12.2c0.7-0.9,1.9-1.8,3.5-2.6  C35.4,8,39.9,7,44.6,7S53.9,8,57.1,9.6c1.6,0.8,2.8,1.7,3.5,2.6c0.4,0.6,0.6,1.1,0.6,1.6c0,1.2-1.1,2.5-3,3.7  c-0.3,0.2-0.7,0.4-1.1,0.6c-3.2,1.6-7.8,2.6-12.5,2.6s-9.3-0.9-12.5-2.6c-0.4-0.2-0.7-0.4-1.1-0.6c-1.9-1.2-3-2.5-3-3.7  C28,13.3,28.2,12.8,28.6,12.2z M25.1,20.4c3.8,3.8,10.9,6.2,19.5,6.2c8.5,0,15.7-2.4,19.5-6.2c2.3,1.6,3.6,3.4,3.6,5.1v0.6  C67.5,31.9,57,36.7,44.6,36.7c-12.4,0-22.8-4.8-23.1-10.6v-0.5C21.5,23.8,22.8,22,25.1,20.4z M50.1,63.2  C50.1,63.2,50.1,63.2,50.1,63.2c1-0.3,2.3-0.6,3.9-0.6c3.7,0,5.9,1.3,6.3,2.2c0,0.1,0.1,0.2,0.1,0.3c0,0.2-0.1,0.3-0.2,0.5  c0,0,0,0,0,0c-0.7,0.8-2.8,1.9-6.1,1.9c-1.4,0-2.6-0.2-3.5-0.5c-1.9-0.5-2.8-1.4-2.8-2C47.6,64.6,48.5,63.8,50.1,63.2z M54,70.5  c3.3,0,6.1-0.9,7.8-2.4c1.9,0.5,2.8,1.4,2.8,2c0,0.8-2.2,2.4-6.3,2.4c-3.7,0-5.9-1.3-6.3-2.2C52.6,70.4,53.3,70.5,54,70.5z   M44.6,57.1c-1.3,0-2.6,0.1-3.9,0.1c-1.7-1.1-4.1-1.8-7-1.8c-5.3,0-9.3,2.3-9.3,5.4c0,0.2,0,0.4,0.1,0.6c-1.1,0.6-2.1,1.2-3,1.9  V32.4c4.3,4.4,12.9,7.3,23.1,7.3c10.2,0,18.8-2.9,23.1-7.3v30.9C62.5,59.5,54.2,57.1,44.6,57.1z M28,66.2c-0.4-0.3-0.6-0.7-0.6-0.9  c0-0.1,0-0.2,0.1-0.4c0.5,0.3,1.2,0.5,1.8,0.7c0,0,0.1,0,0.1,0c1.3,0.4,2.8,0.6,4.3,0.6c2.4,0,4.6-0.5,6.2-1.3  c0.1,0.1,0.1,0.3,0.1,0.4c0,0.8-2.2,2.4-6.3,2.4C31,67.7,29,66.9,28,66.2C28.1,66.2,28.1,66.2,28,66.2z M28.2,59.8  c0.8-0.6,2.4-1.2,4.5-1.4c0.1,0,0.1,0,0.2,0c0.3,0,0.6,0,0.9,0c4.1,0,6.3,1.6,6.3,2.4c0,0.1,0,0.2-0.1,0.4c-0.4,0.6-1.6,1.4-3.7,1.8  c-0.8,0.1-1.6,0.2-2.6,0.2c-1,0-1.8-0.1-2.6-0.2c-2-0.4-3.3-1.2-3.7-1.8c-0.1-0.1-0.1-0.3-0.1-0.4c0-0.3,0.2-0.6,0.6-0.9  C28.1,59.9,28.1,59.8,28.2,59.8z M44.6,83.1C31,83.1,21.5,77.8,21.5,73c0-1.8,1.4-3.7,3.9-5.4c0,0,0,0,0,0.1  c1.5,1.8,4.6,2.9,8.3,2.9c5.3,0,9.3-2.3,9.3-5.4c0-0.8-0.3-1.5-0.8-2.2c0,0,0,0,0,0c0,0,0,0,0,0c0.8,0,1.5-0.1,2.3-0.1  c0.3,0,0.5,0,0.8,0c-0.5,0.7-0.7,1.4-0.7,2.1c0,2,1.7,3.6,4.3,4.6c0,0.1,0,0.3,0,0.4c0,3.1,4,5.4,9.3,5.4c4.6,0,8.2-1.7,9.1-4.2  c0.3,0.6,0.4,1.1,0.4,1.7v0.2C67.6,77.9,58.2,83.1,44.6,83.1z"></path></svg>