<svg xmlns="http://www.w3.org/2000/svg" xmlns:xlink="http://www.w3.org/1999/xlink" version="1.1" x="0px" y="0px" viewBox="-346 256 100 100" enable-background="new -346 256 100 100" xml:space="preserve"><g><path d="M-275.103,338.151c-9.254,9.213-12.579,17.849-12.579,17.849h41.548v-91.382c-1.09-0.149-2.194-0.253-3.325-0.253   c-11.033,0-21.206,8.286-23.319,17.41c-0.469,2.028-1.001,7.327-1.001,7.327l-6.199,12.791c-0.101,0.227-0.15,0.491-0.15,0.76   c0,1.081,0.873,1.959,1.957,1.959h4.393v6.794c0,5.301,4.286,9.594,9.583,9.594h3.809v6.692   C-264.891,329.998-270.34,333.409-275.103,338.151z"></path><circle cx="-309.82" cy="290.819" r="3.131"></circle><path d="M-327.009,305.556c-1.5,0-3.001-0.471-4.365-1.389c-1.865-1.257-3.256-3.217-3.916-5.521   c-0.849-2.962-0.702-5.583,0.426-7.579c0.971-1.719,2.584-2.892,4.794-3.488c3.441-0.929,7,1.336,8.096,5.157   c0.287,0.998-0.29,2.038-1.288,2.324c-0.997,0.285-2.039-0.291-2.324-1.288c-0.516-1.797-2.093-2.951-3.506-2.565   c-1.219,0.329-2.037,0.887-2.5,1.708c-0.612,1.084-0.642,2.751-0.085,4.696c0.417,1.455,1.27,2.677,2.402,3.438   c1.031,0.694,2.171,0.914,3.21,0.615c0.997-0.285,2.038,0.291,2.324,1.289c0.286,0.998-0.292,2.038-1.289,2.324   C-325.682,305.463-326.345,305.556-327.009,305.556L-327.009,305.556z"></path><path d="M-286.537,296.012c0-19.257-13.337-34.923-29.731-34.923S-346,276.755-346,296.012c0,18.518,12.336,33.708,27.861,34.847   v17.207c-6.683,0.752-11.852,3.958-12.611,7.935h31.248c-0.759-3.977-5.928-7.183-12.611-7.935v-17.479   C-297.68,328.204-286.537,313.61-286.537,296.012z M-339.139,296.012c0-14.858,9.461-27.048,21.378-27.996   c6.755,2.446,12.184,8.098,13.59,14.168c0.417,1.799,0.884,6.5,0.884,6.5l6.406,11.348c0.089,0.201,0.134,0.436,0.134,0.673   c0,0.959-0.773,1.739-1.737,1.739h-4.803v6.026c0,4.704-3.798,7.895-8.497,7.895h-3.381v7.673   c-0.366,0.021-0.733,0.035-1.103,0.035C-328.879,324.073-339.139,311.485-339.139,296.012z"></path></g></svg>