<svg xmlns="http://www.w3.org/2000/svg" xmlns:xlink="http://www.w3.org/1999/xlink" version="1.1" x="0px" y="0px" viewBox="0 0 100 100" enable-background="new 0 0 100 100" xml:space="preserve"><g><g><circle cx="50" cy="33.999" r="5"></circle></g><path d="M47.501,79.998v-20.67c-1.494-0.865-2.5-2.479-2.5-4.33v-9.999c0-2.761,2.239-4.999,5-4.999c2.761,0,5,2.238,5,4.999v9.999   c0,1.852-1.006,3.467-2.5,4.33V77.5c1.381,0,2.5,1.119,2.5,2.5L47.501,79.998z"></path></g><g><g><circle cx="39.001" cy="33.999" r="5"></circle></g><path d="M36.501,79.998v-20.67c-1.494-0.865-2.5-2.479-2.5-4.33v-9.999c0-2.761,2.238-4.999,5-4.999s5,2.238,5,4.999v9.999   c0,1.852-1.006,3.467-2.5,4.33V77.5c1.381,0,2.5,1.119,2.5,2.5L36.501,79.998z"></path></g><g><g><circle cx="61" cy="33.999" r="5"></circle></g><path d="M58.5,79.998v-20.67c-1.494-0.865-2.5-2.479-2.5-4.33v-9.999C56,42.238,58.24,40,61,40c2.762,0,5,2.238,5,4.999v9.999   c0,1.852-1.006,3.467-2.5,4.33V77.5c1.381,0,2.5,1.119,2.5,2.5L58.5,79.998z"></path></g></svg>