<svg xmlns="http://www.w3.org/2000/svg" xmlns:xlink="http://www.w3.org/1999/xlink" version="1.1" x="0px" y="0px" viewBox="0 0 100 100" enable-background="new 0 0 100 100" xml:space="preserve"><g fill="#ffffff"><path d="M25.516,27.833c-0.247-0.08-0.512-0.124-0.785-0.124h-7.062c-0.225,0-0.44,0.032-0.648,0.086   c-1.097,0.287-1.908,1.282-1.908,2.47v44.922c0,1.188,0.812,2.183,1.908,2.471c0.208,0.055,0.424,0.086,0.648,0.086h7.062   c0.273,0,0.538-0.044,0.785-0.124c1.027-0.332,1.771-1.294,1.771-2.433V30.265C27.287,29.127,26.543,28.164,25.516,27.833z    M24.429,40.301h-6.32v-1.062h6.32V40.301z M24.429,38.09h-6.32v-1.982h6.32V38.09z"></path><path d="M53.168,34.558c-0.213-0.068-0.439-0.106-0.675-0.106h-2.056h-3.704c-0.192,0-0.379,0.027-0.557,0.074   c-0.944,0.246-1.014,1.104-1.014,2.125V75.6c0,1.021,0.069,1.877,1.014,2.124c0.178,0.047,0.364,0.073,0.557,0.073h3.704h2.056   c0.235,0,0.462-0.036,0.675-0.106c0.884-0.284,0.896-1.113,0.896-2.091V36.65C54.063,35.671,54.052,34.844,53.168,34.558z    M53.168,47.298h-6.991v-2.714h6.991V47.298z M53.168,42.824h-6.991v-5.426h6.991V42.824z"></path><path d="M70.608,74.627L64.48,31.397c-0.137-0.969-0.265-1.788-1.18-1.945c-0.221-0.038-0.45-0.044-0.684-0.011l-3.901,0.553   l-3.667,0.52c-0.19,0.027-0.372,0.081-0.542,0.152c-0.899,0.376-0.847,1.234-0.705,2.245L59.93,76.14   c0.144,1.012,0.333,1.85,1.302,1.962c0.184,0.021,0.372,0.021,0.562-0.005l3.668-0.52l3.9-0.553   c0.233-0.034,0.452-0.104,0.654-0.201C70.851,76.416,70.746,75.596,70.608,74.627z M55.505,37.701l8.788-1.246l0.198,1.397   l-8.788,1.246L55.505,37.701z M55.723,39.599l8.788-1.246l0.065,0.468l-8.787,1.246L55.723,39.599z M56.716,45.541l-0.066-0.468   l8.788-1.246l0.066,0.468L56.716,45.541z"></path><path d="M84.606,73.766l-9.251-29.356c-0.294-0.934-0.554-1.721-1.482-1.727c-0.224-0.002-0.451,0.03-0.676,0.102l-1.916,0.587   l-3.532,1.113c-0.184,0.058-0.354,0.141-0.51,0.238c-0.826,0.52-0.635,1.356-0.327,2.331l9.249,29.356   c0.307,0.975,0.63,1.77,1.604,1.722c0.185-0.009,0.37-0.039,0.555-0.097l3.532-1.112l1.916-0.588   c0.224-0.07,0.43-0.175,0.611-0.305C85.138,75.493,84.9,74.699,84.606,73.766z M74.902,54.271l-3.609,0.481L70.33,51.7l3.235-1.628   l1.766,0.068l0.961,3.051L74.902,54.271z"></path><path d="M44.614,30.265v-5.842c0-1.139-0.743-2.103-1.771-2.434c-0.247-0.079-0.511-0.124-0.785-0.124H30.249   c-0.224,0-0.44,0.031-0.648,0.086c-1.097,0.287-1.908,1.283-1.908,2.472v5.842h1.908v0.844h-1.908v0.423h1.908v0.844h-1.908v7.651   h1.908v0.843h-1.908v0.423h1.908v0.844h-1.908v33.051c0,1.188,0.812,2.183,1.908,2.471c0.208,0.055,0.425,0.086,0.648,0.086h11.809   c0.274,0,0.538-0.044,0.785-0.124c1.028-0.332,1.771-1.294,1.771-2.433V42.136h-1.77v-0.844h1.77v-0.423h-1.77v-0.843h1.77v-7.651   h-1.77v-0.844h1.77v-0.423h-1.77v-0.844H44.614z M42.843,42.136H29.655v-0.844h13.188V42.136z M42.843,40.869H29.655v-0.843h13.188   V40.869z M42.843,32.375H29.655v-0.844h13.188V32.375z M42.843,31.108H29.655v-0.844h13.188V31.108z"></path></g></svg>