<svg xmlns="http://www.w3.org/2000/svg" xmlns:xlink="http://www.w3.org/1999/xlink" version="1.1" x="0px" y="0px" viewBox="0 0 100 100" enable-background="new 0 0 100 100" xml:space="preserve"><g fill="#ffffff"><path d="M64.957,95H34.643c-0.154,0-0.29-0.104-0.329-0.254c-6.83-25.783-1.755-36.811,3.152-47.475   c0.4-0.87,0.799-1.737,1.188-2.607c7.979-17.797-3.132-35.181-4.208-36.792c-0.599-0.118-1.053-0.647-1.053-1.281V6.303   C33.393,5.584,33.979,5,34.697,5h30.208c0.718,0,1.303,0.585,1.303,1.304v0.289c0,0.634-0.455,1.163-1.054,1.281   c-1.074,1.611-12.182,19.003-4.21,36.792c0.391,0.87,0.788,1.737,1.19,2.608c4.909,10.663,9.983,21.69,3.151,47.474   C65.247,94.896,65.111,95,64.957,95z"></path></g></svg>