<svg xmlns="http://www.w3.org/2000/svg" xmlns:xlink="http://www.w3.org/1999/xlink" version="1.1" x="0px" y="0px" viewBox="0 0 90 90" enable-background="new 0 0 90 90" xml:space="preserve"><g fill="#ffffff"><path d="M41.628,45.97c-0.963,0.933-3.271,0.737-4.297,0.155c-0.447-0.254-1.007-0.111-1.286,0.311   c-2.143-0.064-4.708-0.387-6.933-0.746c-0.506-0.926-1.068-1.744-1.684-2.438c3.373-1.267,6.176-3.698,7.92-6.805   c-1.08,0.488-2.3,0.705-3.519,0.705c-2.338,0-4.656-0.771-5.906-1.843c-0.233-0.2-0.26-0.55-0.06-0.783   c0.2-0.233,0.55-0.26,0.783-0.06c1.871,1.603,6.916,2.356,9.556,0.193c0.053-0.044-0.061,0.02,0,0   c0.699-1.744,1.087-3.647,1.087-5.641c0-8.396-6.806-15.202-15.202-15.202c-8.396,0-15.202,6.806-15.202,15.202   c0,6.516,4.1,12.072,9.86,14.234c-3.505,3.945-5.229,11.925-5.229,20.713c0,12.468,3.523,12.217,10.57,12.217   c7.047,0,10.57,0.251,10.57-12.217c0-6.596-0.971-12.736-2.937-17.057c2.092,0.317,4.394,0.584,6.352,0.639   c0.078,0.106,0.179,0.199,0.301,0.268c0.781,0.443,1.952,0.736,3.146,0.736c1.28,0,2.586-0.337,3.462-1.185   c0.386-0.374,0.395-0.989,0.022-1.374C42.629,45.606,42.013,45.597,41.628,45.97z M30.704,26.239c1.047,0,1.895,0.849,1.895,1.895   s-0.849,1.895-1.895,1.895c-1.047,0-1.895-0.849-1.895-1.895S29.657,26.239,30.704,26.239z"></path><path d="M36.987,43.14l2.539,2.539l2.539-2.539c0.701-0.701,0.701-1.838,0-2.539c-0.701-0.701-1.838-0.701-2.539,0   c-0.701-0.701-1.838-0.701-2.539,0C36.286,41.303,36.286,42.439,36.987,43.14z"></path><path d="M83.116,29.019c0-8.396-6.806-15.202-15.202-15.202c-8.396,0-15.202,6.806-15.202,15.202   c0,1.422,0.199,2.797,0.565,4.102c3.416,1.352,8.09,0.33,10.079-1.374c0.294-0.252,0.736-0.218,0.988,0.076   c0.141,0.165,0.189,0.376,0.155,0.574c0.69,2.318-1.601,7.474-7.183,7.509c1.49,1.451,3.273,2.602,5.256,3.348   c-0.973,1.096-1.809,2.503-2.509,4.152c-1.932,0.282-4.118,0.336-6.213,0.118c-0.023-0.219-0.115-0.432-0.286-0.598   c-1.693-1.64-4.99-1.367-6.608-0.45c-0.34,0.193-0.517,0.56-0.487,0.926c-0.08,0.324,0.006,0.68,0.264,0.93   c0.876,0.849,2.182,1.185,3.462,1.185c1.194,0,2.366-0.293,3.146-0.736c0.084-0.048,0.155-0.109,0.219-0.175   c0.94,0.104,1.9,0.156,2.854,0.156c1.087,0,2.164-0.066,3.191-0.19c-1.512,4.165-2.261,9.603-2.261,15.393   c0,12.468,3.523,12.217,10.57,12.217s10.57,0.251,10.57-12.217c0-8.789-1.724-16.768-5.229-20.713   C79.015,41.09,83.116,35.534,83.116,29.019z M59.296,30.03c-1.047,0-1.895-0.849-1.895-1.895s0.849-1.895,1.895-1.895   c1.047,0,1.895,0.849,1.895,1.895S60.343,30.03,59.296,30.03z"></path><path d="M53.277,33.123"></path></g></svg>