<svg xmlns="http://www.w3.org/2000/svg" xmlns:xlink="http://www.w3.org/1999/xlink" version="1.1" x="0px" y="0px" viewBox="0 0 100 100" enable-background="new 0 0 100 100" xml:space="preserve"><g fill="#ffffff"><path d="M62.8,21.6c0.2,0.1,0.4,0.1,0.5,0.1c0.5,0,1-0.3,1.2-0.8l0.1-0.1l3.9-9c0.3-0.7,0-1.5-0.7-1.8   c-0.7-0.3-1.5,0-1.8,0.7l-3.9,9l-0.1,0.2C61.8,20.5,62.1,21.3,62.8,21.6z"></path><path d="M44.6,18c0.1,0.7,0.7,1.2,1.3,1.2c0.1,0,0.1,0,0.2,0c0.7-0.1,1.3-0.7,1.2-1.5l0-0.4l-1.1-9.5   c-0.1-0.7-0.8-1.3-1.5-1.2c-0.7,0.1-1.3,0.7-1.2,1.5l1.1,9.5L44.6,18z"></path><path d="M28.1,24.7l0.4,0.5c0.3,0.4,0.7,0.5,1.1,0.5c0.3,0,0.6-0.1,0.8-0.3c0.6-0.4,0.7-1.3,0.3-1.9l-0.4-0.5   l-5.5-7.5c-0.4-0.6-1.3-0.7-1.9-0.3c-0.6,0.4-0.7,1.3-0.3,1.9L28.1,24.7z"></path><path d="M9,35.5l8.5,3.7l0.6,0.3c0.2,0.1,0.4,0.1,0.5,0.1c0.5,0,1-0.3,1.2-0.8c0.3-0.7,0-1.5-0.7-1.8l-0.6-0.3   l-8.5-3.7c-0.7-0.3-1.5,0-1.8,0.7C8.1,34.5,8.4,35.2,9,35.5z"></path><path d="M16.4,57c0.7-0.1,1.3-0.7,1.2-1.5c-0.1-0.7-0.8-1.3-1.5-1.2l-0.6,0.1l-9.3,1.1C5.5,55.6,4.9,56.3,5,57   c0.1,0.7,0.7,1.2,1.3,1.2c0.1,0,0.1,0,0.2,0l9.4-1.1L16.4,57z"></path><path d="M22,71l-0.3,0.2L14,76.9c-0.6,0.4-0.7,1.3-0.3,1.9c0.3,0.4,0.7,0.5,1.1,0.5c0.3,0,0.6-0.1,0.8-0.3l7.8-5.8   l0.2-0.2c0.6-0.4,0.7-1.3,0.3-1.9C23.5,70.6,22.6,70.5,22,71z"></path><path d="M37.2,81.7c-0.7-0.3-1.5,0-1.8,0.7l0,0l-4,9.1c-0.3,0.7,0,1.5,0.7,1.8c0.2,0.1,0.4,0.1,0.5,0.1   c0.5,0,1-0.3,1.2-0.8l4-9.2c0,0,0,0,0,0C38.2,82.7,37.9,81.9,37.2,81.7z"></path><path d="M93.5,45.1l-5.8,0.7c-1.8-2.3-3.8-4.3-6.2-6c-2.3-1.6-4.8-2.9-7.5-3.9c-3.7-5.9-9.5-10.5-16.6-12.5   c-2.6-0.7-5.3-1.1-8-1.1c-12.9,0-24.4,8.7-28,21.2c-4.2,14.9,4.1,30.4,18.6,35.4c1.5,2.4,3.4,4.5,5.5,6.4   c5.1,4.5,11.8,7.2,19.1,7.2c16,0,29.1-13,29.1-29.1c0-5.5-1.6-10.7-4.3-15.1l4.3-0.5c0.7-0.1,1.3-0.7,1.2-1.5   C94.9,45.5,94.2,45,93.5,45.1z M90.7,67.6c-0.1,0.9-0.3,1.8-0.6,2.6c-1.9,6.9-6.4,12.7-12.5,16.1c-0.8,0.4-1.6,0.8-2.4,1.2   c-3.2,1.4-6.8,2.2-10.5,2.2c-5.3,0-10.3-1.6-14.5-4.3c-2.3-1.5-4.4-3.4-6.1-5.6c-0.4-0.5-0.8-1.1-1.2-1.6c-0.4-0.5-0.7-1.1-1-1.7   c-2.3-3.9-3.6-8.4-3.6-13.2c0-14.6,11.8-26.4,26.4-26.4c2.7,0,5.2,0.4,7.6,1.1c0.6,0.2,1.3,0.4,1.9,0.7c0.6,0.3,1.3,0.5,1.9,0.8   c2.5,1.2,4.8,2.8,6.8,4.7c0.6,0.6,1.2,1.2,1.7,1.8c0.7,0.8,1.3,1.6,1.9,2.5c2.9,4.2,4.5,9.3,4.5,14.8   C91.1,64.8,90.9,66.2,90.7,67.6z"></path><path d="M77.2,32.6c0.2,0,0.5-0.1,0.7-0.2c0,0,0.1,0,0.1,0l8-5.9c0.6-0.4,0.7-1.3,0.3-1.9c-0.4-0.6-1.3-0.7-1.9-0.3   l-8,5.9c0,0-0.1,0.1-0.1,0.1c-0.5,0.5-0.6,1.2-0.2,1.8C76.4,32.4,76.8,32.6,77.2,32.6z"></path><path d="M78.2,46.6c0.3-0.1,0.6-0.3,0.8-0.6c0.1-0.2,0.2-0.5,0.2-0.7c0-0.4-0.2-0.8-0.5-1.2S78,43.3,77.5,43   c-0.1,0-0.1,0-0.2-0.1c-0.2-0.1-0.3-0.1-0.5-0.2c-0.4-0.1-0.7-0.2-1-0.2c-0.1,0-0.2,0-0.3,0c-0.4,0-0.7,0.2-1,0.4   c-0.1,0.1-0.3,0.2-0.4,0.4c-0.4,0.7-0.1,1.6,0.6,2.4c0.2,0.2,0.4,0.3,0.6,0.5c0.1,0.1,0.2,0.1,0.2,0.2c0.4,0.2,0.8,0.4,1.2,0.4   C77.3,46.8,77.8,46.8,78.2,46.6z"></path><path d="M58.6,50.6C58.6,50.6,58.6,50.6,58.6,50.6L58.6,50.6c0,0.3,0,0.6,0.1,0.9c0.2,0.8,0.6,1.6,1.3,2   c1.1,0.6,2.6,0.3,3.7-0.6c0.3-0.1,0.7-0.2,0.9-0.3c0.9-0.5,1.4-1.4,1.4-2.5c0-0.4-0.1-0.8-0.3-1.2c-0.2-0.4-0.4-0.7-0.7-0.9   c-0.2-0.6-0.6-1-1.1-1.3c-0.3-0.2-0.7-0.3-1-0.3c-1.1-0.1-2.2,0.4-3.1,1.3h0c-0.3-0.3-0.8-0.6-1.3-0.6c-0.5,0-0.9,0.2-1.3,0.5   c-0.3,0.3-0.5,0.8-0.5,1.3c0,0.5,0.2,0.9,0.5,1.3C57.7,50.4,58.1,50.6,58.6,50.6z"></path><path d="M74,49.3c-0.5-0.3-1.1-0.5-1.8-0.5h0c-0.5,0-1.1,0.1-1.5,0.4c-0.4,0.2-0.8,0.6-1.1,1   c-2,0.1-3.6,1.8-3.6,3.9c0,1.7,1.1,3.1,2.5,3.6c0.1-0.5,0.5-0.8,1-0.8c0.5,0,1,0.4,1.1,0.9c1.1-0.2,2.1-0.9,2.7-1.9   c0.2-0.4,0.4-0.8,0.4-1.3c0.2-0.1,0.5-0.3,0.7-0.5c0.6-0.6,1-1.4,1-2.2c0-0.4-0.1-0.8-0.2-1.2C74.9,50.1,74.5,49.6,74,49.3z"></path><path d="M81.6,49.7c-0.4-0.2-0.8-0.2-1.2-0.2c-0.7,0-1.3,0.3-1.8,0.7c-0.1,0.1-0.3,0.2-0.4,0.3   c-0.6,0.6-0.9,1.4-0.9,2.2c0,0.9,0.4,1.7,0.9,2.2c0.1,0.1,0.1,0.1,0.2,0.1c0.6,0.5,1.3,0.8,2,0.8c0.4,0,0.8-0.1,1.2-0.2   c0.8-0.3,1.4-0.9,1.7-1.7c0.2-0.4,0.2-0.8,0.2-1.2c0-0.4-0.1-0.8-0.2-1.2C82.9,50.6,82.3,50,81.6,49.7z"></path><path d="M78.8,59.6c-0.2-0.1-0.3-0.1-0.5-0.1c-0.4,0-0.7,0.1-0.9,0.4c-0.1,0.1-0.2,0.2-0.2,0.4   c0,0.1-0.1,0.2-0.1,0.3c0,0.1-0.1,0.2-0.1,0.3c0,0.4,0.1,0.7,0.4,0.9c0.2,0.2,0.6,0.4,0.9,0.4c0.2,0,0.4,0,0.5-0.1   c0.5-0.2,0.8-0.7,0.8-1.2S79.3,59.8,78.8,59.6z"></path><circle cx="50.8" cy="45.8" r="1.3"></circle><path d="M81.6,46.6c0.2,0.1,0.3,0.1,0.5,0.1c0.2,0,0.4-0.1,0.6-0.2c-0.6-0.6-1.2-1.2-1.8-1.8   c-0.1,0.2-0.1,0.4-0.1,0.6C80.8,45.9,81.1,46.4,81.6,46.6z"></path><path d="M70.7,79.2c-0.2,0-0.3,0.1-0.4,0.2c-0.1,0.1-0.2,0.3-0.2,0.4c0,0.2,0.1,0.3,0.2,0.4   c0.1,0.1,0.3,0.2,0.4,0.2c0.3,0,0.6-0.3,0.6-0.6C71.3,79.5,71,79.2,70.7,79.2z"></path><path d="M61.5,56.4c-0.2-0.1-0.4-0.1-0.7-0.1c-0.7,0-1.3,0.3-1.5,0.8c-0.1,0.2-0.1,0.3-0.1,0.5s0,0.3,0.1,0.5   c0.3,0.5,0.8,0.8,1.5,0.8c0.2,0,0.5,0,0.7-0.1c0.3-0.1,0.6-0.3,0.7-0.5c0.1-0.1,0.2-0.2,0.2-0.3c0-0.1,0.1-0.2,0.1-0.4   s0-0.3-0.1-0.4c0-0.1-0.1-0.2-0.2-0.3C62,56.6,61.8,56.5,61.5,56.4z"></path><path d="M66.2,73.4c-0.1-0.2-0.3-0.4-0.5-0.6c-0.1-0.1-0.3-0.3-0.5-0.4c-0.6-0.4-1.3-0.7-2.1-0.7   c-2,0-3.7,1.6-3.7,3.7c0,0.1,0,0.2,0,0.3c0,0.5,0.2,0.9,0.4,1.3c0.3,0.4,0.6,0.8,1.1,1c0.6,0.3,1.3,0.5,2.1,0.5   c1,0,1.9-0.3,2.6-0.8c0.2-0.1,0.3-0.3,0.4-0.4c0.4-0.5,0.6-1.1,0.6-1.8c0-0.3,0-0.5-0.1-0.8C66.7,74.2,66.5,73.8,66.2,73.4z"></path><path d="M55.7,74.3c0.2,0.2,0.4,0.4,0.7,0.6c0.3,0.1,0.6,0.2,0.9,0.2c0.6,0,1.1-0.2,1.4-0.6   c0.4-0.4,0.6-0.9,0.6-1.4s-0.2-1.1-0.6-1.4c-0.4-0.4-0.9-0.6-1.4-0.6h0c-0.8,0-1.6,0.5-1.9,1.2v0c-0.3-0.6-0.7-1.2-1.2-1.6   c0,0,0,0,0,0c2.6-0.5,4.6-2.8,4.6-5.5c0-3.1-2.5-5.6-5.6-5.6c-0.6,0-1.3,0.1-1.8,0.3c0.8-0.8,1.3-1.9,1.3-3.2c0-0.2,0-0.4,0-0.6   c0.2-0.2,0.4-0.4,0.5-0.6c0.3-0.4,0.5-0.9,0.6-1.5c0.1-0.3,0.1-0.5,0.1-0.8c0-2.2-1.8-4-4-4h0c-0.5,0-1,0.1-1.5,0.3   c-0.9,0.4-1.7,1.1-2.1,2c-0.2,0.4-0.3,0.8-0.4,1.3c0.8,0.1,1.5,0.8,1.5,1.7c0,0.9-0.8,1.7-1.7,1.7c-0.7,0-1.3-0.5-1.6-1.1   c-0.2,0.5-0.4,1.1-0.4,1.7c0,0.9,0.3,1.7,0.7,2.4c-0.3,0.3-0.5,0.3-0.8,0.3c-0.3-0.1-0.5-0.2-0.8-0.5c-0.4-0.4-0.7-0.9-0.9-1.3   c-0.1-0.1-0.1-0.3-0.2-0.4c-0.1-0.3-0.2-0.6-0.3-0.8c-0.1-0.3-0.1-0.5-0.2-0.7c-0.7,2.1-1.1,4.3-1.2,6.5c0,0.3,0,0.7,0,1   c0,0.3,0,0.6,0,0.9c1-0.3,2.2,0.6,2.6,2c0.4,1.4,0,2.8-1,3.1c-0.3,0.1-0.6,0.1-0.9,0c0,0.1,0,0.2,0.1,0.3c0.6,2.1,1.4,4.1,2.5,5.9   c0-0.1,0.1-0.3,0.2-0.4c0.4-0.3,1-0.1,1.3,0.4c0.4,0.5,0.3,1.1,0,1.4c0,0,0,0,0,0c0.3,0.2,0.7,0.4,1.1,0.6c0.5,0.2,1,0.4,1.5,0.5   c0.3,0.1,0.6,0,0.9,0c-0.3,0.2-0.5,0.6-0.5,1c0,0,0,0.1,0,0.1c0,0.6,0.5,1.1,1.2,1.1c0.6,0,1.1-0.5,1.1-1c0,0,0-0.1,0-0.1   c0-0.5-0.3-0.9-0.8-1.1c0.1,0,0.3-0.1,0.4-0.1c0.1,0,0.2,0,0.3-0.1c0.1,0,0.1,0,0.2,0.1c0.5,0.2,0.9,0.3,1.5,0.3   c0.7,0,1.4-0.2,2-0.6c0.7-0.4,1.3-0.9,1.7-1.6C55.4,75.3,55.6,74.8,55.7,74.3z M48.7,72c-0.6,0-1.1-0.5-1.1-1.1   c0-0.6,0.5-1.1,1.1-1.1s1.1,0.5,1.1,1.1C49.8,71.5,49.3,72,48.7,72z M52.3,68.3c-0.9,0-1.6-0.7-1.6-1.6c0-0.1,0-0.2,0.1-0.4   c-0.2,0.2-0.5,0.4-0.9,0.5c-1.3,0.4-2.6-0.2-2.9-1.4c-0.2-0.6-0.1-1.1,0.2-1.6c-0.2,0-0.4,0-0.6,0c-0.2-0.5-0.5-0.9-0.8-1.3   c-0.3-0.4-0.7-0.7-1.1-0.9l1.4-0.9c0.6,0.3,1.3,0.5,2.1,0.5h0c0.4,0,0.9-0.1,1.3-0.2c-0.6,0.5-1,1.2-1.3,1.9   c0.2-0.1,0.3-0.2,0.5-0.2c1.3-0.4,2.6,0.2,2.9,1.4c0.1,0.5,0.1,0.9-0.1,1.3c0.2-0.2,0.5-0.3,0.8-0.3c0.9,0,1.6,0.7,1.6,1.6   C53.8,67.6,53.1,68.3,52.3,68.3z"></path><path d="M58.4,82.2c0.2-0.3,0.4-0.8,0.4-1.2c0-0.5-0.2-1-0.6-1.4c-0.2-0.2-0.4-0.3-0.7-0.4   c-0.2-0.1-0.4-0.1-0.7-0.1h0c-0.6,0-1.1,0.3-1.5,0.7c-0.3,0.3-0.5,0.8-0.4,1.3c0.1,0.8,1.1,0.9,2,1.6c0.2,0.2,0.4,0.2,0.6,0.2   C57.8,82.8,58.1,82.6,58.4,82.2z"></path><path d="M60.4,86.2c-0.4-0.2-1-0.3-1.5-0.1c-0.5,0.2-0.9,0.5-1.2,0.9c1.2,0.3,2.4,0.6,3.7,0.8h0   c0-0.1,0-0.3-0.1-0.4C61.2,86.9,60.9,86.5,60.4,86.2z"></path></g></svg>