<svg xmlns="http://www.w3.org/2000/svg" xmlns:xlink="http://www.w3.org/1999/xlink" version="1.1" x="0px" y="0px" viewBox="0 0 100 100" enable-background="new 0 0 100 100" xml:space="preserve"><g fill="#ffffff" transform="translate(0.000000,1138.000000) scale(0.100000,-0.100000)"><path d="M669.6,11293.5c-5.2-1.8-10.4-4.9-13.1-7.8c-2.2-2.3-4.4-7.4-4.4-10c0-1.8,0-1.8-2.7,0.1c-4,2.9-11.1,3.2-14.8,0.6   c-4.4-3-6.2-5.9-6.6-11l-0.3-4.5l-5.6-2.7c-22.6-11.1-45.8-33-61.2-57.9c-15.6-25.2-25.3-53.9-29.1-86.5   c-1.3-11.2-1.1-38.5,0.3-50.6c7.1-57.5,34.9-106.1,76-133.4c5.1-3.3,11.8-7.4,14.8-8.8l5.5-2.8l-0.4-3.9   c-0.9-9.5,8.4-17.1,17.2-14.3c1.8,0.6,3.5,1.2,4,1.4c0.5,0.2,1.3-1,1.8-2.8c2.3-7.5,11-13.6,22.5-15.5c10.5-1.8,21.7,1.2,28.8,7.4   c3.7,3.3,6.5,8.4,6.6,11.8v2l2.5-2.2c9-7.6,23,0.8,21.4,12.9l-0.5,4l6.9,3.8c28.2,15.5,50.9,39.8,66.7,71.3   c9.4,18.9,15,36,19.1,58.9c2.1,11.1,2.3,14.1,2.3,35.5c0.1,25.6-0.7,33.3-5.4,52.7c-6.4,27.1-18.7,53.2-35,74.4   c-5.3,6.9-17.7,19.7-24.8,25.5c-6.9,5.7-18.2,13.1-24.7,16.3l-4.6,2.3v4.9c0,5.5-1.5,8.3-6.3,11.5c-3.3,2.2-9.2,2.5-12.9,0.6   c-1.3-0.8-2.5-1.2-2.6-1.1c-0.1,0.2-0.8,2-1.6,4.2c-1.8,5-7.4,10-13.8,12.5C689,11295.1,676.1,11295.5,669.6,11293.5z M694.8,11241   c39.6-6.9,73.6-38.3,91.6-84.9c3.9-10.2,8.3-27.4,10-39.7c1.8-12.2,2-38.2,0.4-49.8c-5.5-41.2-21.7-75.2-47.4-99.5   c-15.9-15.1-33.5-24.4-52.8-28.1c-8.3-1.6-26.6-1.6-34.7-0.1c-49.7,9.5-90.4,59.7-99.7,122.6c-9.2,63.2,13.7,127.4,57.2,160   C641.9,11238.5,669.1,11245.5,694.8,11241z"></path><path d="M664.6,11228.5c-30.9-5.3-57.6-27.4-74.9-61.9c-7.1-14.4-11.2-26.1-14.2-40.8c-15.7-77.5,20.1-156.2,79.3-174.1   c20.2-6.2,40.7-4.3,60.4,5.4c35.3,17.3,61.4,59,67.8,108.2c1.7,12.9,1.6,34.5-0.1,47.6c-7.9,60.8-44.7,107.6-91.4,115.7   C683.1,11230,673.2,11230,664.6,11228.5z M698.5,11219.3c39.6-11.5,69.8-53.9,77-107.4c1.6-11.6,1.6-34.4,0-46.3   c-6-45.4-29.4-83.7-61.5-100.9c-27-14.5-58-11.5-84,7.9c-42.7,32.1-61.7,102.5-44.1,163.9c12.9,45,43.3,77.8,78.5,84.5   C674.1,11222.8,688.9,11222,698.5,11219.3z"></path><path d="M661.9,11181.6c-8.4-2.1-14.7-5.9-22.1-13.3c-12-12-15.1-19.6-16.5-40.1c-1.3-20.3-1.3-20.6,11-48.3   c2.3-5.3,6.9-14.3,10.2-20c5.3-9,6-11,6.4-15.6c0.7-8.8,0.4-9.2-8.9-13.5c-4.4-2.1-14.8-6.4-22.9-9.8c-8.2-3.3-14.9-6.4-14.9-6.9   c0-1.8,7.5-13.6,12.9-20.2c12-14.8,26.8-24.8,43.7-29.7c5.3-1.5,8.7-1.8,17.4-1.8c11.7,0,18.6,1.3,28.5,5.8   c13.1,5.9,28.4,19,37.8,32.8c4.6,6.9,10.6,17.7,10,18.2c-0.2,0.1-6.3,2.2-13.6,4.6c-12.8,4.2-26.1,10-27.4,12   c-0.3,0.5-0.7,3.6-0.7,6.9c0,5.9,0.1,6.1,4.7,13c2.6,3.8,6.7,10.9,9.1,15.7c2.4,4.9,5.4,10.5,6.5,12.5s3.2,7.2,4.3,11.3   c2,6.5,2.3,9.5,2.7,22.6c0.5,18.2-0.3,24.6-4.3,32.6c-5.6,11.2-15.4,20-30.6,27.4l-8.8,4.3l-15.1,0.2   C671,11182.8,665.4,11182.5,661.9,11181.6z"></path><path d="M238.4,11062.2c-4.9-1.7-7-2.9-11.5-7.2c-4-3.7-8.9-12.1-8.9-15.3c0-0.8-0.3-1.9-0.5-2.7c-0.4-1.2-0.8-1.2-2.8-0.1   c-3.1,1.6-9.5,1.6-12.5,0c-3.3-1.7-6.6-5.9-7.3-9.2l-0.5-2.8l-3.8,2c-7.2,3.8-17.3,2.1-22.2-3.8c-2.1-2.6-2.3-2.6-4.1-1.4   c-3.1,2.2-6.9,1.7-9.4-1.3c-1.2-1.4-2.2-3.4-2.2-4.6c0-1.8-0.3-1.9-2.5-1.4c-3,0.6-9.1-1.6-11.3-3.9c-1.4-1.6-2.8-1.7-39.1-1.7   H62.4v-36.1v-36.1l-3.3-2.8c-1.8-1.5-3.8-4.1-4.3-5.7c-0.5-1.6-1.5-2.9-2.2-2.9c-2.6,0-6-2.5-6.9-5.1c-0.8-2.2-0.7-3.3,0.5-5.6   l1.5-2.9l-3.4-3.5c-5.6-5.8-6.8-14.4-2.8-21.2c1.9-3.3,1.9-3.5,0.3-3.5c-2.7,0-7.2-2.8-9.1-5.8c-3-4.5-3.4-8.4-1.4-12.9l1.7-3.8   l-3.3-0.5c-5.3-0.9-13-5.2-16.6-9.3c-8.6-9.8-10.5-23.1-4.9-34.1c4-7.9,13.2-14.8,21.3-16.1c3.5-0.5,3.5-0.6,2.3-2.8   c-4.1-7.9-0.8-16.6,7.7-19.8c1.9-0.8,3.6-1.5,3.6-1.7c0-0.1-0.8-1.7-1.8-3.4c-3.8-6.5-1.7-17.6,4.2-22l2.4-1.8l-1.6-3.2   c-1.2-2.4-1.3-3.7-0.8-5.3c1-2.6,4.8-5.7,6.9-5.7c1.3,0,1.6-0.7,1.6-3.4c0-4.6,2.2-8.9,5.5-11l2.8-1.8v-32.4v-32.5h32.9H128   l1.7-3.2c1.1-2,3-3.8,5.6-5.2c2.6-1.3,4.1-2.8,4.4-4.2c1.3-5.2,7.5-7.6,11.9-4.6c1.6,1.1,1.8,1.1,3.1-0.8c0.8-1.1,3.1-3.1,5.3-4.3   c5.3-3.1,12.5-3.3,17.2-0.4c1.8,1,3.3,1.8,3.4,1.8c0.2,0,0.7-1.4,1.2-3.2c2-6.7,10-11.2,16.9-9.4c1.8,0.5,3.5,1.3,3.8,1.7   c0.9,1.4,2.1,0,2.1-2.3c0-3.5,4.5-12.2,8.4-16.1c1.9-1.9,6-4.7,9-6.1c4.9-2.3,6.4-2.6,12.4-2.5c5.8,0,7.6,0.4,12.3,2.6   c8.9,4.2,15.6,12.5,17,21c0.6,3.6,1.5,4.9,2.4,3.4c1.1-1.7,6.9-2.6,10.8-1.6c4.6,1.2,9.4,5.9,10.2,10.3l0.5,3l2-1.6   c6.2-4.9,16.3-4.1,22.5,1.9c3.2,3,3.8,3.3,5.1,2.4c1.6-1.2,5.9-1.4,8.3-0.6c1.5,0.6,3.8,4.6,3.8,6.8c0,1.3,0.8,1.5,4.4,1.5   c5.2,0,9.6,2.8,11.5,7l1,2.6l39.1,0.2l39,0.3l0.4,36c0.4,33,0.6,36.2,2,39.6c1.3,2.7,2,3.5,3.6,3.5c4.8,0,7.9,7.2,4.9,11.4   c-1.2,1.6-1,2,2.1,5c5.9,5.7,7,13.8,3.1,21.5c-1.5,3-1.5,3.2-0.1,3.6c6.7,2.2,9.6,4.9,11,10.1c0.9,3.2-0.2,9.9-1.7,10.8   c-1.6,0.9-0.6,1.8,2.7,2.3c4.8,0.8,10.1,3.4,14.5,7.3c12.9,11.3,13.4,31.4,1.2,43.7c-4.1,4.1-10.4,7.4-16,8.4l-3.1,0.6l1.4,2.7   c1.8,3.6,1.8,8.9-0.3,12.8c-1.8,3.5-6.9,7-10.1,7h-1.9l2,3.6c4.4,7.6,3.3,15.9-2.7,21.8c-3.1,3-3.3,3.4-2.1,5   c3.1,4.4-0.2,11.4-5.4,11.4c-2.3,0-2.4,0.1-2,3.2c0.3,2.1-0.1,4.3-1.1,6.4c-1.4,3-1.6,6.6-2,39.7l-0.4,36.4l-36.4,0.3l-36.3,0.2   l-2.2,2c-1.2,1.1-3.2,2.3-4.6,2.8c-1.9,0.6-2.6,1.4-3,3.7c-0.3,1.5-1.4,3.5-2.4,4.3c-2.3,1.8-6.5,1.9-8.9,0.3   c-1.6-1.1-1.9-1-4.2,1.3c-4.2,4.4-8.2,6-14.5,5.6c-4-0.2-6.3-0.8-8.1-2.1l-2.6-1.8l-1,3.2c-1.9,6.6-6.7,10.1-13.6,10.1   c-2-0.1-4.5-0.6-5.7-1.3c-2.9-1.7-3.1-1.7-3.6,2.2c-1.1,8.2-7.8,16.8-16.6,21.3c-3.6,1.8-5.8,2.3-11.5,2.6   C244.6,11063.2,240.5,11062.8,238.4,11062.2z M390.7,10831.6v-143.4H243.5H96.3l-0.3,142.6c-0.1,78.5,0,143.1,0.3,143.7   c0.3,0.8,30.2,1,147.4,0.8l147-0.3V10831.6z"></path><path d="M109.8,10961.5c-0.3-0.3-0.6-58.8-0.6-130.1v-129.5h134.2h134.2v130.1v130.1H244   C170.5,10962.1,110.1,10961.8,109.8,10961.5z M370.2,10832v-122.5H243.5H116.7v122.5v122.5h126.7h126.7V10832z"></path><path d="M139.8,10909.8c-2.7-0.6-7.4-2.3-10.5-3.8l-5.5-2.8l-0.3-93.1l-0.2-93h67.8h67.8v2.3c0,3.6-3.1,14.9-5.4,20.1   c-6.1,13.3-11.5,17.1-36.1,25.3c-19.6,6.5-31.4,11.5-32.4,13.8c-0.3,0.8-0.5,3.5-0.5,6.2c0,4.3,0.3,5.4,4.7,11.8   c2.6,3.9,6.2,10.3,8,14.2c1.9,3.8,4.3,8.4,5.4,10c1.1,1.6,2.9,6.4,4.2,10.5c1.8,6.4,2.3,9.6,2.6,21c0.8,22.9-1.3,29.6-13.1,41.3   c-7.9,7.9-18,13.9-27.2,16.3C163,10911.3,146.9,10911.4,139.8,10909.8z"></path><path d="M286.5,10878.7c-6.4-1.8-10.5-4.3-16-10.1c-9.3-9.7-12-18.7-11.5-36.8l0.3-10.7l4.9-10.9c2.6-5.9,6.9-14.8,9.6-19.7   c5.1-9.1,6.4-13.5,5.5-17.7c-0.5-2.2-1.5-2.9-7.4-5.6c-3.8-1.8-10.9-4.8-15.8-6.7c-5-2-9-3.8-9-4s1.5-2.2,3.3-4.3   c6-6.8,10.6-18.4,13-32.1l0.5-3.2h49.7h49.8v19.9v19.8l-13.6,4.5c-13.4,4.3-23.1,8.5-24.3,10.5c-0.3,0.5-0.7,2.6-0.7,4.7   c0,3.2,0.7,4.9,3.8,9.6c2.2,3.3,5.4,9,7.2,12.7c1.8,3.8,3.6,7.1,4,7.4s1.8,3.6,3,7.4c1.7,5.4,2.3,9.1,2.6,18.2   c0.8,18.4-1.3,25-10.6,34.3c-3.8,3.9-7.7,6.7-13.4,9.6l-7.9,4.2l-11.3,0.2C294.3,10880,289.8,10879.7,286.5,10878.7z"></path><path d="M507.4,10640v-174.8h243.8H995l-0.2,174.6l-0.3,174.6l-243.6,0.3l-243.7,0.2V10640z M987.3,10639.9l0.2-167.1H750.8H514   v166.7c0,91.8,0.3,167,0.6,167.3c0.3,0.3,106.7,0.5,236.5,0.4l236-0.3L987.3,10639.9z"></path><path d="M524.9,10639.2v-156.4h225.4h225.4v156.4v156.4H750.3H524.9V10639.2z M946.1,10639.2v-126.7H750.3H554.6l-0.3,125.9   c-0.1,69.3,0,126.4,0.3,127c0.3,0.8,39.9,1,195.9,0.8l195.6-0.3V10639.2z"></path><path d="M572.6,10637.9v-110.8h178.2h178.2v110.8v110.8H750.8H572.6V10637.9z M921.4,10637.9v-103.3H750.3H579.3v103.3v103.3h171.1   h171.1V10637.9z"></path><path d="M731.9,10734.5c-8.8-1.3-15-3.9-25.1-10.8c-15.1-10.2-24.6-22.6-31-40.6c-4-11.4-6-22.3-7-39c-1.5-23.3-3.7-31.1-12-42.2   c-3.7-5-15.1-13.7-17.8-13.7c-6.1,0,11.6-10,26-14.6c8.8-2.8,17.1-4.5,25.5-5.2c5.1-0.4,6.5-0.8,5.4-1.4c-0.8-0.4-9.8-4.2-20-8.3   c-21.7-8.7-30.6-13.4-30.6-15.9c0-0.3,47.4-0.7,105.4-0.7c63.7,0,105.4,0.3,105.4,0.8c0,1.3-6.9,6.9-11.8,9.3   c-2.6,1.3-13.5,5.4-24.3,8.9l-19.6,6.5l4.6,0.7c16.3,2.4,26.4,5.2,37.6,10.4c6.7,3.1,14.3,7.7,14.3,8.6c0,0.3-1.9,1.4-4.3,2.6   c-5.6,2.7-13.5,10-17.6,16.2c-5.4,8.4-7.3,16.1-8.6,35.2c-1.3,18.2-2,23.4-4.6,33.2c-5.8,22.1-17.5,38.9-34.5,49.5   c-7.4,4.6-19.9,9.5-27.4,10.5C753.4,10735.5,738.9,10735.5,731.9,10734.5z"></path></g></svg>