<svg xmlns="http://www.w3.org/2000/svg" xmlns:xlink="http://www.w3.org/1999/xlink" version="1.1" x="0px" y="0px" viewBox="0 0 100 100" enable-background="new 0 0 100 100" xml:space="preserve"><path fill="#ffffff" d="M87.201,54.976l2.892-2.722L79.887,40.772l-3.017,0.072c2.06-0.776,3.527-2.759,3.527-5.09c0-3.005-2.437-5.442-5.442-5.442  c-3.007,0-5.443,2.437-5.443,5.442c0,2.419,1.579,4.467,3.761,5.175l-0.529,0.013h-2.807l-7.368,8.412l-7.627-8.582l-3.018,0.072  c2.061-0.776,3.527-2.759,3.527-5.09c0-3.005-2.436-5.442-5.442-5.442s-5.443,2.437-5.443,5.442c0,2.419,1.579,4.467,3.762,5.175  l-0.53,0.013h-2.807l-7.333,8.374l-7.594-8.544l-3.017,0.072c2.059-0.776,3.527-2.759,3.527-5.09c0-3.005-2.437-5.442-5.443-5.442  c-3.006,0-5.443,2.437-5.443,5.442c0,2.419,1.579,4.467,3.762,5.175l-0.53,0.013h-2.807L9.907,52.593l2.977,2.808l8.419-8.079v6.464  l-4.592,15.817h4.933l3.742-9.95l3.657,10.035l4.592-0.169l-4.507-15.819v-6.293l5.804,5.327l2.83,2.668l8.419-8.079v6.464  l-4.592,15.817h4.933l3.742-9.95l3.657,10.035l4.592-0.169l-4.507-15.819v-6.293l8.249,7.57l0.001-0.002l0.452,0.427l8.42-8.079  v6.464l-4.593,15.817h4.933l3.742-9.95l3.657,10.035l4.592-0.169l-4.507-15.819v-6.293L87.201,54.976z"></path></svg>