<svg xmlns="http://www.w3.org/2000/svg" xmlns:xlink="http://www.w3.org/1999/xlink" version="1.1" x="0px" y="0px" viewBox="0 0 100 100" enable-background="new 0 0 100 100" xml:space="preserve"><g fill="#ffffff"><path d="M50,0C39.035,0,28.896,3.529,20.654,9.514L0,0l9.514,20.654C3.529,28.896,0,39.036,0,50.001   c0,16.42,7.916,30.989,20.139,40.104c-1.227-2.801-3.123-7.131-3.123-7.131c-0.482-1.098-0.105-2.396,1.041-2.898   s2.467-0.018,2.947,1.08l-1.012-2.311c-0.48-1.098,0.059-2.396,1.205-2.898s2.467-0.02,2.947,1.08l-0.928-2.117   c-0.48-1.099,0.059-2.397,1.205-2.899s2.467-0.018,2.947,1.08l-4.174-10.42c-0.48-1.1-0.297-2.336,0.85-2.838   c1.146-0.504,2.182,0.113,2.662,1.213c0,0,9.006,18.204,10.867,22.448c1.828,4.178,0.189,7.346,3.775,15.76   C44.16,99.742,47.051,100,50,100c1.525,0,3.035-0.068,4.527-0.203c1.188-1.678,7.018-10.822,0.494-20.516   c-1.324-1.967-1.586-1.152-6.193-0.254s-6.303,0.486-8.008-2.396c-1.221-2.063-0.172-3.884-1.148-5.134   c-0.879-1.125-2.996-0.369-3.539-0.391c-0.543-0.023-1.33-1.166-0.641-2.313c0.463-0.764,2.01-1.209-0.246-1.383   c-0.889-0.068-1.607-0.633-1.48-1.414c0.172-1.061,1.018-1.158,2.156-2.693c0.734-0.99,0.291-2.205-1.422-2.141   c-0.66,0.025-2.602,0.094-3.555-0.881c-1.826-1.869,4.916-8.367,5.215-11.891c0.104-1.238-0.104-1.941-1.068-4.588   c-1.107-3.039-0.195-9.693,1.904-14.449c2.1-4.755,12.795-23.009,37.141-14.034c18.609,6.859,16.93,29.179,13.553,34.534   c-3.375,5.357-5.721,9.275-4.922,16.326c0.799,7.053,2.361,11.187,4.184,13.333c0.391,0.463,1.1,1.088,2.004,1.836   C95.865,72.774,100,61.87,100,50.001C100,22.387,77.615,0,50,0z"></path></g></svg>