<svg xmlns="http://www.w3.org/2000/svg" xmlns:xlink="http://www.w3.org/1999/xlink" version="1.1" x="0px" y="0px" viewBox="0 0 100 100" enable-background="new 0 0 100 100" xml:space="preserve"><g><g><path d="M58.8,12.5h-1.8V7.5c0-0.3-0.3-0.6-0.6-0.6H43.3c-0.3,0-0.6,0.3-0.6,0.6v5.1H41V7.5c0-1.3,1.1-2.4,2.4-2.4h13.1    c1.3,0,2.4,1.1,2.4,2.4V12.5z"></path></g><g><path d="M27.1,85.1C27.1,85.1,27.1,85.1,27.1,85.1c-2.7,0-5.3-1.1-7.3-3c-4.1-4-4.2-10.6-0.2-14.7l0,0    c0.2-0.2,15.9-15.6,18.7-18.4c2.4-2.4,2.2-4.5,2.2-4.6l0-0.1l0-0.1v-31c0-1,0.8-1.7,1.7-1.7h15.3c1,0,1.7,0.8,1.7,1.7v40.2    c0.1,0.5,0.2,3.2-2.7,6C53.8,62.5,34.8,81.8,34.6,82C32.6,84,30,85.1,27.1,85.1z M21,68.7c-1.6,1.6-2.5,3.8-2.5,6.1    c0,2.3,0.9,4.5,2.6,6.1c1.6,1.6,3.8,2.5,6,2.5c0,0,0,0,0,0c2.3,0,4.5-0.9,6.2-2.6c0.2-0.2,19.3-19.5,22.1-22.3    c2.4-2.4,2.2-4.5,2.2-4.6l0-0.1l0-0.1V13.4H42.3v30.9c0.1,0.5,0.2,3.2-2.7,6C36.9,53.1,21.4,68.4,21,68.7z"></path></g><g><path d="M50.3,45.2h-0.8c-1.4,0-2.6-1.2-2.6-2.6V13h1.8v29.7c0,0.4,0.4,0.8,0.8,0.8h0.8c0.4,0,0.8-0.4,0.8-0.8V13h1.8v29.7    C52.9,44.1,51.8,45.2,50.3,45.2z"></path></g><g><path d="M31.5,76.4c-0.4,0-0.8-0.3-0.9-0.7c-1.1-4.6-5.8-7.5-10.4-6.4c-0.5,0.1-0.9-0.2-1.1-0.7c-0.1-0.5,0.2-0.9,0.7-1.1    c2.7-0.6,5.5-0.2,7.9,1.3c2.4,1.5,4,3.7,4.7,6.4c0.1,0.5-0.2,0.9-0.7,1.1C31.7,76.4,31.6,76.4,31.5,76.4z"></path></g><g><path d="M80.5,22.6h-1.8v-5.1c0-0.3-0.3-0.6-0.6-0.6H65c-0.3,0-0.6,0.3-0.6,0.6v5.1h-1.8v-5.1c0-1.3,1.1-2.4,2.4-2.4h13.1    c1.3,0,2.4,1.1,2.4,2.4V22.6z"></path></g><g><path d="M48.8,95.2C48.8,95.2,48.8,95.2,48.8,95.2c-2.7,0-5.3-1.1-7.3-3c-2-1.9-3.1-4.5-3.1-7.3s1-5.4,3-7.4l0,0    c0.2-0.2,15.9-15.6,18.7-18.4c2.4-2.4,2.2-4.5,2.2-4.6l0-0.1l0-0.1v-31c0-1,0.8-1.7,1.7-1.7h15.3c1,0,1.7,0.8,1.7,1.7v40.2    c0.1,0.5,0.2,3.2-2.7,6C75.4,72.5,56.4,91.8,56.2,92C54.2,94.1,51.6,95.2,48.8,95.2z M42.6,78.8c-1.6,1.6-2.5,3.8-2.5,6.1    c0,2.3,0.9,4.5,2.6,6.1c1.6,1.6,3.8,2.5,6,2.5c0,0,0,0,0,0c2.3,0,4.5-0.9,6.2-2.6c0.2-0.2,19.3-19.5,22.1-22.3    c2.4-2.4,2.2-4.5,2.2-4.6l0-0.1l0-0.1V23.4H63.9v30.9c0.1,0.5,0.2,3.2-2.7,6C58.5,63.2,43,78.4,42.6,78.8z"></path></g><g><path d="M72,55.3h-0.8c-1.4,0-2.6-1.2-2.6-2.6V23h1.8v29.7c0,0.4,0.4,0.8,0.8,0.8H72c0.4,0,0.8-0.4,0.8-0.8V23h1.8v29.7    C74.5,54.1,73.4,55.3,72,55.3z"></path></g><g><path d="M53,86.6c-0.4,0-0.8-0.3-0.9-0.7c-1.1-4.6-5.7-7.4-10.3-6.3c-0.5,0.1-0.9-0.2-1.1-0.7c-0.1-0.5,0.2-0.9,0.7-1.1    c5.5-1.3,11.1,2.1,12.4,7.6c0.1,0.5-0.2,0.9-0.7,1.1C53.2,86.5,53.1,86.6,53,86.6z"></path></g><g><rect x="44.7" y="6" width="0.9" height="6.6"></rect></g><g><rect x="49.6" y="6" width="0.9" height="6.6"></rect></g><g><rect x="54.5" y="6" width="0.9" height="6.6"></rect></g><g><rect x="66.2" y="16" width="0.9" height="6.6"></rect></g><g><rect x="71.1" y="16" width="0.9" height="6.6"></rect></g><g><rect x="76" y="16" width="0.9" height="6.6"></rect></g></g></svg>