<svg xmlns="http://www.w3.org/2000/svg" xmlns:xlink="http://www.w3.org/1999/xlink" version="1.1" x="0px" y="0px" viewBox="0 0 48 48" enable-background="new 0 0 48 48" xml:space="preserve"><g><path fill="#000000" d="M14,47.5C14,47.5,14,47.5,14,47.5c-3.3,0-6.8-0.5-10.4-1.6c-0.7-0.2-1.3-0.8-1.5-1.5   c-2.9-10.1-1.8-18.8,3.2-25.8C16.9,2.3,45.2,0.6,46.4,0.5c0.3,0,0.6,0.1,0.8,0.3c0.2,0.2,0.3,0.5,0.3,0.8C47.5,2,44.6,47.5,14,47.5   z M45.4,2.6C40,3.1,16.7,6,6.9,19.8C2.3,26.3,1.3,34.4,4,43.9C4,44,4,44,4.1,44c3.5,1,6.8,1.5,9.9,1.5C40.1,45.5,44.8,9.5,45.4,2.6   z"></path><path fill="#000000" d="M6.1,42.9c-0.3,0-0.5-0.1-0.7-0.3c-0.4-0.4-0.4-1,0-1.4L39.9,6.7c0.4-0.4,1-0.4,1.4,0c0.4,0.4,0.4,1,0,1.4   L6.8,42.6C6.6,42.8,6.4,42.9,6.1,42.9z"></path><path fill="#000000" d="M26.7,21.2c-0.5,0-0.9-0.3-1-0.8l-0.6-2.6c-0.2-0.8-0.4-1.7-0.3-2.7c0.1-0.9,0.4-1.7,0.7-2.5   c0.8-2,1.6-4,2.8-5.9c0.3-0.5,0.9-0.6,1.4-0.3c0.5,0.3,0.6,0.9,0.3,1.4c-1.1,1.7-1.9,3.6-2.6,5.5c-0.3,0.6-0.5,1.3-0.6,1.9   c-0.1,0.6,0.1,1.4,0.3,2.1l0.6,2.6c0.1,0.5-0.2,1.1-0.7,1.2C26.8,21.2,26.7,21.2,26.7,21.2z"></path><path fill="#000000" d="M16.5,32.2c-0.5,0-1-0.4-1-1c-0.2-4.3,0.7-10.7,3.1-15.3c0.3-0.5,0.9-0.7,1.4-0.4c0.5,0.3,0.7,0.9,0.4,1.4   c-1.9,3.6-3.1,9.5-2.9,14.3C17.5,31.7,17.1,32.2,16.5,32.2C16.5,32.2,16.5,32.2,16.5,32.2z"></path><path fill="#000000" d="M9.4,38.5c-0.3,0-0.5-0.1-0.7-0.3c-1.2-1.2-1.5-2.9-1.7-4.5c-0.3-3.2-0.2-6.5,0.5-9.7   c0.1-0.5,0.6-0.9,1.2-0.8c0.5,0.1,0.9,0.6,0.8,1.2c-0.6,3-0.8,6.1-0.5,9.1c0.1,1.2,0.3,2.5,1.1,3.3c0.4,0.4,0.4,1,0,1.4   C9.9,38.4,9.7,38.5,9.4,38.5z"></path><path fill="#000000" d="M14.9,36.7c-0.9,0-1.7-0.1-2.5-0.2c-0.5-0.1-0.9-0.6-0.9-1.1c0.1-0.5,0.6-0.9,1.1-0.9   c1,0.1,2.1,0.3,3.2,0.1c0.7-0.1,1.8-0.3,2.6-1c0.4-0.4,1-0.3,1.4,0.1c0.4,0.4,0.3,1-0.1,1.4c-0.9,0.8-2.2,1.4-3.7,1.5   C15.7,36.7,15.3,36.7,14.9,36.7z"></path><path fill="#000000" d="M25.1,28.5c-1.4,0-2.7-0.1-4-0.3c-0.5-0.1-0.9-0.6-0.9-1.1c0.1-0.5,0.6-0.9,1.1-0.9   c4.5,0.6,9.1,0.1,13.3-1.4c0.5-0.2,1.1,0.1,1.3,0.6c0.2,0.5-0.1,1.1-0.6,1.3C32,27.9,28.6,28.5,25.1,28.5z"></path><path fill="#000000" d="M34.4,14.7c-0.4,0-0.8-0.2-0.9-0.6c-0.2-0.5,0-1.1,0.6-1.3c0.7-0.3,1.4-0.3,2.1-0.3c1.7,0,3.4,0,4.5-0.9   c0.5-0.3,1.1-0.2,1.4,0.2c0.3,0.5,0.2,1.1-0.2,1.4c-1.7,1.2-3.7,1.3-5.7,1.2c-0.5,0-1,0-1.3,0.1C34.7,14.7,34.6,14.7,34.4,14.7z"></path></g></svg>