<svg xmlns:dc="http://purl.org/dc/elements/1.1/" xmlns:cc="http://creativecommons.org/ns#" xmlns:rdf="http://www.w3.org/1999/02/22-rdf-syntax-ns#" xmlns:svg="http://www.w3.org/2000/svg" xmlns="http://www.w3.org/2000/svg" viewBox="0 0 133.33333 133.33333" xml:space="preserve" version="1.1" x="0px" y="0px"><defs><clipPath id="a" clipPathUnits="userSpaceOnUse"><path d="M 0,100 100,100 100,0 0,0 0,100 Z"></path></clipPath></defs><g transform="matrix(1.3333333,0,0,-1.3333333,0,133.33333)"><g><g clip-path="url(#a)"><g transform="translate(42.7419,41.2903)"><path style="" d="M 0,0 C 0.802,0 1.452,0.65 1.452,1.452 1.452,2.253 0.802,2.903 0,2.903 -0.802,2.903 -1.452,2.253 -1.452,1.452 -1.452,0.65 -0.802,0 0,0 m -7.258,7.984 c 0.802,0 1.452,0.65 1.452,1.451 0,0.802 -0.65,1.452 -1.452,1.452 -0.802,0 -1.452,-0.65 -1.452,-1.452 0,-0.801 0.65,-1.451 1.452,-1.451 M 5.806,9.435 c 0,-0.801 0.65,-1.451 1.452,-1.451 0.802,0 1.452,0.65 1.452,1.451 0,0.802 -0.65,1.452 -1.452,1.452 -0.802,0 -1.452,-0.65 -1.452,-1.452 M -29.032,0 c 0.801,0 1.451,0.65 1.451,1.452 0,0.801 -0.65,1.451 -1.451,1.451 -0.802,0 -1.452,-0.65 -1.452,-1.451 0,-0.802 0.65,-1.452 1.452,-1.452 M 13.065,1.452 C 13.065,0.65 13.714,0 14.516,0 c 0.802,0 1.452,0.65 1.452,1.452 0,0.801 -0.65,1.451 -1.452,1.451 -0.802,0 -1.451,-0.65 -1.451,-1.451 m -34.839,6.532 c 0.801,0 1.451,0.65 1.451,1.451 0,0.802 -0.65,1.452 -1.451,1.452 -0.802,0 -1.452,-0.65 -1.452,-1.452 0,-0.801 0.65,-1.451 1.452,-1.451 M -14.516,0 c 0.802,0 1.451,0.65 1.451,1.452 0,0.801 -0.649,1.451 -1.451,1.451 -0.802,0 -1.452,-0.65 -1.452,-1.451 0,-0.802 0.65,-1.452 1.452,-1.452 m 21.361,28.121 6.779,-1.816 c 1.738,3.234 3.583,5.444 5.427,6.909 C 14.61,32.68 10.35,30.907 6.845,28.121 m 29.863,0.176 c 0.83,-2.3 1.144,-5.111 0.936,-8.428 l 6.758,-1.81 C 42.8,22.127 40.115,25.653 36.708,28.297 M 16.516,25.53 34.786,20.635 c 0.401,8.929 -3.541,11.083 -6.63,11.911 -4.431,1.189 -8.34,-1.179 -11.64,-7.016 m -14.05,1.513 c -0.134,0.502 0.011,1.037 0.38,1.403 5.022,4.985 11.956,7.844 19.025,7.844 2.365,0 4.733,-0.313 7.039,-0.931 9.277,-2.486 16.602,-9.773 19.116,-19.018 0.137,-0.502 -0.006,-1.037 -0.372,-1.405 -0.277,-0.277 -0.648,-0.428 -1.029,-0.428 -0.125,0 -0.251,0.017 -0.375,0.05 L 26.096,19.958 23.176,9.06 C 23.172,9.045 23.163,9.035 23.158,9.021 23.116,8.878 23.057,8.742 22.975,8.621 22.973,8.617 22.969,8.613 22.966,8.609 22.887,8.496 22.789,8.398 22.682,8.311 22.663,8.296 22.646,8.28 22.627,8.266 22.518,8.186 22.399,8.124 22.271,8.077 22.245,8.067 22.219,8.06 22.192,8.052 22.063,8.013 21.929,7.986 21.787,7.985 c -0.004,0 -0.008,-0.002 -0.012,-0.002 -0.006,0 -0.013,0.003 -0.019,0.003 -0.113,0.001 -0.221,0.018 -0.325,0.043 -0.011,0.003 -0.022,0.002 -0.032,0.004 -0.03,0.008 -0.055,0.022 -0.083,0.032 -0.052,0.017 -0.103,0.035 -0.152,0.057 -0.04,0.019 -0.078,0.041 -0.116,0.063 -0.043,0.025 -0.084,0.05 -0.124,0.079 -0.038,0.027 -0.073,0.058 -0.108,0.088 -0.034,0.031 -0.069,0.062 -0.1,0.096 -0.032,0.034 -0.06,0.07 -0.088,0.106 -0.029,0.038 -0.057,0.076 -0.083,0.116 -0.023,0.038 -0.043,0.078 -0.064,0.118 -0.021,0.043 -0.042,0.086 -0.06,0.131 -0.016,0.044 -0.029,0.089 -0.041,0.135 -0.013,0.044 -0.025,0.088 -0.033,0.134 -0.008,0.051 -0.012,0.103 -0.015,0.156 -0.002,0.031 -0.009,0.06 -0.009,0.091 0,0.014 0.003,0.027 0.004,0.041 10e-4,0.049 0.008,0.097 0.014,0.146 0.007,0.051 0.013,0.102 0.025,0.151 0.003,0.013 0.003,0.025 0.006,0.038 l 2.92,10.898 -9.281,2.487 C 14.007,23.197 14.004,23.198 14,23.199 L 3.493,26.014 C 2.991,26.148 2.599,26.541 2.466,27.043 M 27.581,1.452 C 27.581,0.65 28.231,0 29.032,0 c 0.802,0 1.452,0.65 1.452,1.452 0,0.801 -0.65,1.451 -1.452,1.451 -0.801,0 -1.451,-0.65 -1.451,-1.451 M -36.29,7.984 c 0.801,0 1.451,0.65 1.451,1.451 0,0.802 -0.65,1.452 -1.451,1.452 -0.802,0 -1.452,-0.65 -1.452,-1.452 0,-0.801 0.65,-1.451 1.452,-1.451 m 87.096,0 c 0.802,0 1.452,0.65 1.452,1.451 0,0.802 -0.65,1.452 -1.452,1.452 -0.801,0 -1.451,-0.65 -1.451,-1.452 0,-0.801 0.65,-1.451 1.451,-1.451 m 0,-23.952 c -1.505,0 -2.176,0.491 -3.103,1.171 -1.053,0.772 -2.363,1.732 -4.819,1.732 -2.456,0 -3.767,-0.96 -4.82,-1.732 -0.927,-0.68 -1.598,-1.171 -3.103,-1.171 -1.504,0 -2.174,0.491 -3.101,1.17 -1.052,0.773 -2.362,1.733 -4.817,1.733 -2.455,0 -3.765,-0.96 -4.818,-1.733 -0.927,-0.679 -1.596,-1.17 -3.101,-1.17 -1.504,0 -2.174,0.491 -3.1,1.17 -1.053,0.773 -2.363,1.733 -4.817,1.733 -2.455,0 -3.765,-0.961 -4.817,-1.733 -0.926,-0.679 -1.595,-1.17 -3.098,-1.17 -1.504,0 -2.173,0.491 -3.099,1.17 -1.052,0.772 -2.362,1.733 -4.816,1.733 -2.455,0 -3.765,-0.961 -4.817,-1.733 -0.927,-0.679 -1.597,-1.17 -3.1,-1.17 -1.504,0 -2.174,0.491 -3.1,1.171 -1.053,0.772 -2.363,1.732 -4.817,1.732 -2.454,0 -3.764,-0.96 -4.817,-1.733 -0.926,-0.679 -1.596,-1.17 -3.1,-1.17 -1.504,0 -2.174,0.491 -3.1,1.171 -1.053,0.772 -2.362,1.732 -4.816,1.732 -0.802,0 -1.452,-0.649 -1.452,-1.451 0,-0.802 0.65,-1.452 1.452,-1.452 1.503,0 2.173,-0.491 3.099,-1.17 1.053,-0.772 2.363,-1.733 4.817,-1.733 2.455,0 3.765,0.96 4.817,1.733 0.927,0.679 1.596,1.17 3.1,1.17 1.504,0 2.174,-0.491 3.1,-1.17 1.053,-0.772 2.362,-1.733 4.817,-1.733 2.454,0 3.764,0.96 4.816,1.732 0.927,0.68 1.596,1.171 3.101,1.171 1.503,0 2.173,-0.491 3.099,-1.17 1.052,-0.773 2.362,-1.733 4.816,-1.733 2.453,0 3.763,0.96 4.815,1.733 0.927,0.679 1.596,1.17 3.1,1.17 1.504,0 2.174,-0.491 3.1,-1.17 1.053,-0.773 2.362,-1.733 4.817,-1.733 2.455,0 3.765,0.96 4.818,1.732 0.927,0.68 1.597,1.171 3.101,1.171 1.504,0 2.174,-0.491 3.101,-1.17 1.052,-0.773 2.362,-1.733 4.817,-1.733 2.456,0 3.766,0.96 4.819,1.732 0.928,0.68 1.598,1.171 3.104,1.171 1.505,0 2.176,-0.491 3.103,-1.171 1.053,-0.772 2.363,-1.732 4.819,-1.732 0.802,0 1.452,0.65 1.452,1.452 0,0.801 -0.65,1.451 -1.452,1.451 m -88.548,9.436 c 0,-0.802 0.65,-1.452 1.452,-1.452 1.503,0 2.173,-0.491 3.099,-1.17 1.053,-0.772 2.363,-1.733 4.817,-1.733 2.455,0 3.765,0.96 4.817,1.733 0.927,0.679 1.596,1.17 3.1,1.17 1.504,0 2.174,-0.491 3.1,-1.17 1.053,-0.772 2.362,-1.733 4.817,-1.733 2.454,0 3.764,0.96 4.816,1.732 0.927,0.68 1.596,1.171 3.101,1.171 1.503,0 2.173,-0.491 3.099,-1.17 1.052,-0.773 2.362,-1.733 4.816,-1.733 2.453,0 3.763,0.96 4.815,1.733 0.927,0.679 1.596,1.17 3.1,1.17 1.504,0 2.174,-0.491 3.1,-1.17 1.053,-0.773 2.362,-1.733 4.817,-1.733 2.455,0 3.765,0.96 4.818,1.732 0.927,0.68 1.597,1.171 3.101,1.171 1.504,0 2.174,-0.491 3.101,-1.17 1.052,-0.773 2.362,-1.733 4.817,-1.733 2.456,0 3.766,0.96 4.819,1.732 0.928,0.68 1.598,1.171 3.104,1.171 1.505,0 2.176,-0.491 3.103,-1.171 1.053,-0.772 2.363,-1.732 4.819,-1.732 0.802,0 1.452,0.65 1.452,1.452 0,0.801 -0.65,1.451 -1.452,1.451 -1.505,0 -2.176,0.491 -3.103,1.171 -1.053,0.772 -2.363,1.732 -4.819,1.732 -2.456,0 -3.767,-0.96 -4.82,-1.732 -0.927,-0.68 -1.598,-1.171 -3.103,-1.171 -1.504,0 -2.174,0.491 -3.101,1.17 -1.052,0.773 -2.362,1.733 -4.817,1.733 -2.455,0 -3.765,-0.96 -4.818,-1.733 -0.927,-0.679 -1.596,-1.17 -3.101,-1.17 -1.504,0 -2.174,0.491 -3.1,1.17 -1.053,0.773 -2.363,1.733 -4.817,1.733 -2.455,0 -3.765,-0.961 -4.817,-1.733 -0.926,-0.679 -1.595,-1.17 -3.098,-1.17 -1.504,0 -2.173,0.491 -3.099,1.17 -1.052,0.772 -2.362,1.733 -4.816,1.733 -2.455,0 -3.765,-0.961 -4.817,-1.733 -0.927,-0.679 -1.597,-1.17 -3.1,-1.17 -1.504,0 -2.174,0.491 -3.1,1.171 -1.053,0.772 -2.363,1.732 -4.817,1.732 -2.454,0 -3.764,-0.96 -4.817,-1.733 -0.926,-0.679 -1.596,-1.17 -3.1,-1.17 -1.504,0 -2.174,0.491 -3.1,1.171 -1.053,0.772 -2.362,1.732 -4.816,1.732 -0.802,0 -1.452,-0.65 -1.452,-1.451 M 34.839,9.435 c 0,-0.801 0.65,-1.451 1.451,-1.451 0.802,0 1.452,0.65 1.452,1.451 0,0.802 -0.65,1.452 -1.452,1.452 -0.801,0 -1.451,-0.65 -1.451,-1.452 M 43.548,2.903 C 44.35,2.903 45,2.253 45,1.452 45,0.65 44.35,0 43.548,0 c -0.801,0 -1.451,0.65 -1.451,1.452 0,0.801 0.65,1.451 1.451,1.451" fill="#110f0d" fill-opacity="1" fill-rule="nonzero" stroke="none"></path></g></g></g></g></svg>