<svg xmlns="http://www.w3.org/2000/svg" xmlns:xlink="http://www.w3.org/1999/xlink" version="1.1" x="0px" y="0px" viewBox="0 0 100 100" enable-background="new 0 0 100 100" xml:space="preserve"><path d="M10.2,47.2v4h10.7c-0.6-1.3-1.2-2.6-1.7-4H10.2z"></path><path d="M89.8,47.6h-9.5c-0.5,1.4-1.1,2.7-1.8,4h11.3V47.6z"></path><path d="M36.7,35.2c0.4-0.7,1.3-1.1,2.1-0.9c0.8,0.2,1.5,0.9,1.6,1.7l1.8,17.1l2.7-4.6c0.4-0.6,1-1,1.7-1h4.8l7.2-13.7  c0.4-0.7,1.2-1.2,2-1.1c0.8,0.1,1.5,0.7,1.7,1.6l3.9,18.8l2.6-4.6c0.4-0.6,1-1,1.7-1h9.7c1.5-3.8,2.4-7.9,2.4-12.2  c0-8.5-7-16-15.8-16c-10.1,0-17,9.6-17.1,9.5c-0.1,0.1-7-9.5-17.1-9.5c-8.7,0-15.8,7.5-15.8,16c0,4.2,0.8,8.1,2.2,11.8h10.5  L36.7,35.2z"></path><path d="M67.2,59.8c-0.4,0.7-1.2,1.1-2,1c-0.8-0.1-1.5-0.8-1.6-1.6l-3.9-18.5l-5.2,9.9c-0.3,0.7-1,1.1-1.8,1.1h-4.9l-5.2,8.8  c-0.4,0.6-1,1-1.7,1c-0.1,0-0.3,0-0.4,0c-0.8-0.2-1.5-0.9-1.6-1.7l-1.9-17.1l-4.6,7.8c-0.4,0.6-1,1-1.7,1h-9.9  c8.4,16.8,27.4,27.8,29,29.3c1.6-1.5,20.2-12.4,28.7-29h-6.7L67.2,59.8z"></path></svg>