<?xml version="1.0" encoding="UTF-8" standalone="no"?>
<svg width="100%" height="100%" viewBox="0 0 817 410" preserveAspectRatio="xMidYMid meet" version="1.1" xmlns="http://www.w3.org/2000/svg" xmlns:xlink="http://www.w3.org/1999/xlink" xmlns:sketch="http://www.bohemiancoding.com/sketch/ns">
    <!-- Generator: Sketch 3.3.3 (12072) - http://www.bohemiancoding.com/sketch -->
    <title>spacedeck-logo</title>
    <desc>Created with Sketch.</desc>
    <defs></defs>
    <g id="Page-1" stroke="none" stroke-width="1" fill="none" fill-rule="evenodd" sketch:type="MSPage">
        <g id="spacedeck-logo" sketch:type="MSArtboardGroup">
            <g sketch:type="MSLayerGroup">
                <path d="M191.848,15.145 C191.929,9.258 195.877,3.663 201.393,1.594 C203.352,0.764 205.503,0.546 207.621,0.555 C266.895,0.569 326.158,0.614 385.422,0.608 C387.502,0.62 389.612,0.533 391.639,1.075 C396.39,2.239 400.384,5.924 402.041,10.511 C403.572,14.468 402.718,18.766 402.944,22.897 C402.91,107.619 402.902,192.343 402.856,277.071 C402.994,282.925 399.338,288.66 393.943,290.954 C390.309,292.735 386.176,292.188 382.278,292.279 C370.969,292.293 359.672,292.18 348.372,292.334 C341.601,293.576 334.878,295.138 328.142,296.603 C326.967,297.416 326.202,298.735 324.991,299.536 C276.053,335.242 227.11,370.95 178.162,406.656 C175.24,408.649 171.666,409.722 168.129,409.361 C164.041,409.007 160.15,406.856 157.67,403.592 C106.718,333.745 55.758,263.903 4.81,194.054 C3.485,192.274 2.089,190.494 1.32,188.386 C-1.439,181.704 1.641,173.527 7.828,169.946 C25.42,157.096 43.024,144.271 60.617,131.431 C61.377,131.072 60.814,130.202 60.655,129.657 C57.778,122.685 54.959,115.698 52.115,108.72 C49.701,102.98 51.471,95.877 56.2,91.857 C57.764,90.468 59.663,89.548 61.604,88.801 C78.491,81.937 95.372,75.06 112.258,68.192 C113.455,67.697 114.703,67.296 115.795,66.589 C114.974,62.078 113.131,57.478 114.29,52.859 C115.547,47.255 120.341,42.719 125.961,41.62 C146.531,37.213 167.108,32.818 187.667,28.378 C189.083,28.044 190.577,27.951 191.905,27.317 C191.778,23.26 191.804,19.205 191.848,15.145 L191.848,15.145 Z M201.573,10.633 C200.462,11.898 199.654,13.498 199.654,15.207 C199.542,19.594 199.676,23.975 199.615,28.362 C199.603,111.448 199.554,194.532 199.544,277.622 C199.651,281.522 203.352,284.704 207.202,284.413 C266.704,284.445 326.197,284.46 385.697,284.478 C387.469,284.442 389.35,284.637 390.979,283.775 C393.652,282.563 395.239,279.592 395.048,276.705 C395.125,190.471 395.118,104.229 395.16,17.998 C395.147,16.17 395.354,14.223 394.452,12.554 C393.283,9.949 390.459,8.265 387.609,8.408 C327.501,8.381 267.396,8.368 207.286,8.346 C205.169,8.258 202.985,9.005 201.573,10.633 L201.573,10.633 Z M122.222,53.665 C121.059,56.272 122.164,59.062 122.649,61.685 C140.458,144.67 158.191,227.672 175.978,310.663 C176.462,313.022 176.813,315.656 178.688,317.378 C180.597,319.259 183.511,319.792 186.05,319.045 C227.827,310.127 269.582,301.101 311.379,292.243 C276.274,292.101 241.162,292.226 206.051,292.142 C200.316,291.976 194.956,288.097 192.883,282.757 C191.424,279.503 191.824,275.871 191.8,272.413 C191.813,194.701 191.859,116.996 191.864,39.288 C191.853,38.022 192.005,36.731 191.684,35.483 C170.425,40.05 149.155,44.586 127.89,49.141 C125.439,49.652 123.06,51.208 122.222,53.665 L122.222,53.665 Z M59.301,105.692 C62.043,112.726 64.978,119.674 67.797,126.67 C97.705,200.225 127.676,273.758 157.598,347.33 C158.419,349.927 160.561,352.161 163.321,352.591 C166.011,353.225 168.526,351.712 170.941,350.756 C201.253,338.439 231.552,326.084 261.868,313.775 C266.959,311.571 272.217,309.758 277.233,307.382 C247.121,313.903 216.955,320.305 186.819,326.777 C180.459,328.276 173.373,324.952 170.461,319.103 C169.02,316.553 168.82,313.576 168.118,310.786 C151.208,232.004 134.461,153.187 117.443,74.439 C99.541,81.793 81.588,89.023 63.674,96.353 C59.939,97.546 57.822,102.073 59.301,105.692 L59.301,105.692 Z M11.393,176.941 C9.028,178.535 7.682,181.551 8.232,184.366 C8.495,186.165 9.687,187.572 10.729,188.988 C61.764,258.933 112.776,328.9 163.825,398.823 C166.131,401.924 170.949,402.537 173.957,400.102 C209.818,373.955 245.663,347.795 281.521,321.64 C289.152,316.215 296.546,310.439 304.29,305.183 C303.047,304.948 301.994,305.805 300.882,306.199 C258.906,323.325 216.893,340.375 174.913,357.503 C171.843,358.607 168.891,360.305 165.564,360.444 C159.546,360.897 153.468,357.251 151.064,351.715 C122.07,280.662 93.29,209.527 64.205,138.513 C46.508,151.191 29.035,164.182 11.393,176.941 L11.393,176.941 Z" id="Shape" fill="#404041" sketch:type="MSShapeGroup"></path>
                <g id="Group" transform="translate(218.000000, 26.000000)" sketch:type="MSShapeGroup">
                    <path d="M118.839,64.097 C117.551,64.093 116.514,63.05 116.518,61.761 C116.522,60.473 117.565,59.436 118.854,59.44 L133.369,59.485 C134.195,59.488 134.976,59.316 135.699,59.044 L135.683,64.134 L118.839,64.082 L118.839,64.097 L118.839,64.097 Z" id="Shape" fill="#808184"></path>
                    <path d="M161.839,102.812 L122.939,102.692 C119.341,102.681 116.414,99.736 116.425,96.134 L116.513,67.837 C117.234,68.113 118.015,68.275 118.84,68.277 L161.945,68.411 L161.839,102.812 L161.839,102.812 Z" id="Shape" fill="#A6A8AB"></path>
                    <path d="M112.367,61.763 C112.367,61.893 112.366,62.037 112.381,62.167 C112.381,62.241 112.366,62.326 112.365,62.4 L112.295,85.015 L98.716,84.973 C97.443,84.969 96.406,83.926 96.409,82.652 C96.413,81.379 97.456,80.342 98.73,80.345 L106.637,80.369 C107.781,80.373 108.724,79.435 108.728,78.295 L108.793,57.327 C108.797,56.183 107.859,55.24 106.715,55.236 L98.808,55.212 C97.535,55.208 96.498,54.165 96.501,52.891 C96.505,51.618 97.548,50.581 98.822,50.584 L133.409,50.691 C134.697,50.695 135.734,51.738 135.73,53.027 C135.726,54.315 134.683,55.352 133.394,55.348 L118.879,55.303 C115.294,55.279 112.379,58.176 112.367,61.763 L112.367,61.763 Z" id="Shape" fill="#A6A8AB"></path>
                    <g>
                        <g transform="translate(8.000000, 23.000000)">
                            <path d="M17.105,182.049 L17.116,178.405 L28.715,178.441 C28.962,178.442 29.19,178.381 29.409,178.302 L29.391,184.189 C28.009,183.305 26.381,182.77 24.622,182.764 L16.962,182.74 C17.042,182.523 17.104,182.296 17.105,182.049 L17.105,182.049 Z" id="Shape" fill="#A6A8AB"></path>
                            <path d="M10.298,186.885 L24.608,186.929 C26.493,186.935 28.104,188.042 28.874,189.634 L23.459,189.617 L6.013,189.563 C6.792,187.976 8.414,186.879 10.298,186.885 L10.298,186.885 Z" id="Shape" fill="#A6A8AB"></path>
                            <rect id="Rectangle-path" fill="#A6A8AB" transform="translate(13.429320, 194.713767) rotate(180.177616) translate(-13.429320, -194.713767) " x="5.49728149" y="193.747762" width="15.8640762" height="1.93200928"></rect>
                            <rect id="Rectangle-path" fill="#A6A8AB" transform="translate(27.441353, 194.757531) rotate(180.177616) translate(-27.441353, -194.757531) " x="25.5248437" y="193.791527" width="3.83301842" height="1.93200928"></rect>
                            <rect id="Rectangle-path" fill="#A6A8AB" transform="translate(51.030379, 194.830601) rotate(180.177616) translate(-51.030379, -194.830601) " x="49.11237" y="193.864596" width="3.83601843" height="1.93200928"></rect>
                            <rect id="Rectangle-path" fill="#A6A8AB" transform="translate(65.043684, 194.878033) rotate(0.177616) translate(-65.043684, -194.878033) " x="57.1126463" y="193.912029" width="15.8620762" height="1.93200928"></rect>
                            <path d="M72.49,189.77 L55.046,189.716 L49.628,189.699 C50.407,188.114 52.029,187.014 53.913,187.02 L68.22,187.064 C70.106,187.07 71.721,188.177 72.49,189.77 L72.49,189.77 Z" id="Shape" fill="#A6A8AB"></path>
                            <path d="M53.927,182.857 C52.167,182.852 50.534,183.374 49.146,184.252 L49.164,178.507 L60.899,178.543 L60.888,182.187 C60.887,182.434 60.948,182.662 61.027,182.881 L53.927,182.859 L53.927,182.857 L53.927,182.857 Z" id="Shape" fill="#A6A8AB"></path>
                            <path d="M0.765,97.977 L6.793,97.996 C7.942,98 8.877,97.07 8.881,95.921 L8.917,84.253 C8.921,83.104 7.991,82.169 6.842,82.165 L0.814,82.146 L0.859,67.472 L12.915,67.509 L12.73,127.192 L0.674,127.155 L0.765,97.977 L0.765,97.977 Z" id="Shape" fill="#E6E7E8"></path>
                            <path d="M39.319,129.415 C33.951,129.398 29.408,133.825 29.392,139.079 L29.282,174.505 C29.063,174.427 28.836,174.362 28.589,174.361 L16.99,174.325 L17.012,167.164 C22.196,166.495 26.237,162.111 26.253,156.743 C26.27,151.375 22.256,146.961 17.076,146.262 L17.139,125.974 L18.863,125.979 C18.785,126.198 18.72,126.425 18.719,126.672 L18.714,128.262 C18.71,129.411 19.64,130.346 20.789,130.35 C21.938,130.354 22.873,129.424 22.877,128.275 L22.882,126.685 C22.883,126.438 22.822,126.21 22.743,125.991 L25.596,126 C25.518,126.219 25.453,126.446 25.452,126.693 L25.447,128.283 C25.443,129.432 26.373,130.367 27.522,130.371 C28.671,130.375 29.606,129.445 29.61,128.296 L29.615,126.706 C29.616,126.459 29.555,126.231 29.476,126.012 L47.694,126.068 C47.616,126.287 47.551,126.514 47.55,126.761 L47.545,128.351 C47.541,129.5 48.471,130.435 49.62,130.439 C50.769,130.443 51.704,129.513 51.708,128.364 L51.713,126.774 C51.714,126.527 51.653,126.299 51.574,126.08 L54.96,126.09 C54.882,126.309 54.817,126.536 54.816,126.783 L54.811,128.373 C54.807,129.522 55.737,130.457 56.886,130.461 C58.035,130.465 58.97,129.535 58.974,128.386 L58.979,126.796 C58.98,126.549 58.919,126.321 58.84,126.102 L60.219,126.106 C60.463,126.107 60.691,126.046 60.911,125.969 L60.848,146.421 C55.794,147.205 51.892,151.542 51.876,156.818 C51.86,162.094 55.732,166.452 60.786,167.267 L60.764,174.455 L49.029,174.419 L49.138,139.14 C49.164,133.797 44.753,129.431 39.319,129.415 L39.319,129.415 Z" id="Shape" fill="#E6E7E8"></path>
                            <path d="M60.932,122.088 C60.713,122.012 60.486,121.948 60.241,121.947 L17.152,121.814 L17.293,76.186 L61.067,76.322 L60.993,100.194 C60.993,100.319 60.992,100.447 60.992,100.583 L60.932,122.088 L60.932,122.088 Z" id="Shape" fill="#E6E7E8"></path>
                            <path d="M39.667,0.063 C60.619,0.128 77.609,17.436 77.544,38.64 L77.467,63.538 L1.012,63.301 L1.089,38.403 C1.154,17.199 18.46,-0.002 39.667,0.063 L39.667,0.063 Z" id="Shape" fill="#E6E7E8"></path>
                            <path d="M39.874,11.964 C52.136,12.002 62.08,22.011 62.042,34.275 C62.004,46.537 51.998,56.484 39.736,56.446 C27.471,56.408 17.525,46.399 17.563,34.138 C17.601,21.873 27.61,11.926 39.874,11.964 L39.874,11.964 Z" id="Shape" fill="#BBBDBF"></path>
                            <g transform="translate(27.000000, 89.000000)" id="Oval" fill="#FFFFFF">
                                <circle cx="21.711" cy="2.339" r="1.903"></circle>
                                <circle cx="2.659" cy="2.28" r="1.904"></circle>
                            </g>
                            <circle id="Oval" fill="#FFFFFF" cx="39.284" cy="107.462" r="1.904"></circle>
                            <path d="M65.109,98.892 L65.206,67.462 L77.22,67.499 L77.22,67.646 L77.22,67.649 C77.214,70.488 77.203,74.838 77.192,79.424 L71.028,79.405 C69.88,79.401 68.946,80.33 68.942,81.478 C68.938,82.626 69.867,83.56 71.015,83.564 L77.181,83.583 C77.179,84.365 77.176,85.138 77.174,85.906 L71.008,85.887 C69.86,85.883 68.926,86.812 68.922,87.96 C68.918,89.108 69.847,90.042 70.995,90.046 L77.161,90.065 C77.148,95.314 77.132,99.378 77.123,99.711 C77.07,100.69 76.963,105.727 80.014,108.986 C80.688,109.706 81.54,110.274 82.473,110.771 L79.157,122.337 C75.468,120.864 72.871,118.807 71.155,116.936 C64.825,110.007 65.006,100.783 65.109,98.892 L65.109,98.892 Z" id="Shape" fill="#E6E7E8"></path>
                        </g>
                        <path d="M47.867,34.883 C60.131,34.921 70.077,44.929 70.039,57.208 C70.001,69.469 59.993,79.414 47.729,79.377 C35.468,79.339 25.508,69.331 25.546,57.071 C25.583,44.791 35.606,34.845 47.867,34.883 L47.867,34.883 Z M47.716,83.541 C62.279,83.586 74.158,71.78 74.203,57.221 C74.248,42.658 62.442,30.764 47.879,30.719 C33.319,30.674 21.425,42.48 21.38,57.058 C21.336,71.617 33.156,83.496 47.716,83.541 L47.716,83.541 Z" id="Shape" fill="#404041"></path>
                        <path d="M33.59,54.608 C33.592,54.086 33.379,53.523 32.987,53.129 C32.208,52.345 30.82,52.341 30.04,53.12 C29.646,53.511 29.426,54.029 29.425,54.595 C29.423,55.143 29.64,55.71 30.031,56.07 C30.418,56.464 30.94,56.68 31.502,56.682 C32.05,56.684 32.587,56.471 32.977,56.079 C33.357,55.692 33.588,55.17 33.59,54.608 L33.59,54.608 Z" id="Shape" fill="#404041"></path>
                        <path d="M32.753,50.063 C33.1,50.282 33.474,50.384 33.866,50.385 C34.558,50.387 35.24,50.041 35.631,49.421 C38.306,45.209 42.871,42.706 47.842,42.721 C48.986,42.725 49.929,41.787 49.933,40.647 C49.937,39.503 48.999,38.56 47.855,38.556 C41.436,38.536 35.555,41.757 32.11,47.185 C31.5,48.152 31.785,49.438 32.753,50.063 L32.753,50.063 Z" id="Shape" fill="#404041"></path>
                        <path d="M161.839,102.812 L122.939,102.692 C119.341,102.681 116.414,99.736 116.425,96.134 L116.513,67.837 C117.234,68.113 118.015,68.275 118.84,68.277 L161.945,68.411 L161.839,102.812 L161.839,102.812 Z M112.367,61.763 C112.367,61.893 112.366,62.037 112.381,62.167 C112.381,62.241 112.366,62.326 112.365,62.4 L112.295,85.015 L98.716,84.973 C97.443,84.969 96.406,83.926 96.409,82.652 C96.413,81.379 97.456,80.342 98.73,80.345 L106.637,80.369 C107.781,80.373 108.724,79.435 108.728,78.295 L108.793,57.327 C108.797,56.183 107.859,55.24 106.715,55.236 L98.808,55.212 C97.535,55.208 96.498,54.165 96.501,52.891 C96.505,51.618 97.548,50.581 98.822,50.584 L133.409,50.691 C134.697,50.695 135.734,51.738 135.73,53.027 C135.726,54.315 134.683,55.352 133.394,55.348 L118.879,55.303 C115.294,55.279 112.379,58.176 112.367,61.763 L112.367,61.763 Z M104.368,141.604 C104.358,144.888 101.673,147.556 98.393,147.546 C95.772,147.538 93.448,147.253 91.38,146.799 L94.685,135.285 C95.277,135.387 95.899,135.448 96.55,135.509 L96.534,140.625 C96.53,141.769 97.468,142.712 98.608,142.716 C99.752,142.72 100.695,141.782 100.699,140.638 L100.713,136.085 C102.865,136.987 104.376,139.117 104.368,141.604 L104.368,141.604 Z M73.336,122.073 L73.434,90.592 L85.465,90.629 L85.465,90.773 C85.456,93.623 85.443,97.977 85.443,102.56 L79.268,102.541 C78.128,102.537 77.185,103.475 77.181,104.615 C77.177,105.759 78.115,106.702 79.255,106.706 L85.43,106.725 C85.428,107.506 85.425,108.287 85.423,109.053 L79.248,109.034 C78.108,109.03 77.165,109.968 77.161,111.108 C77.157,112.252 78.095,113.195 79.235,113.199 L85.41,113.218 C85.394,118.467 85.381,122.543 85.365,122.876 C85.321,123.861 85.202,128.906 88.261,132.169 C88.936,132.893 89.79,133.462 90.725,133.954 L87.409,145.542 C83.712,144.072 81.116,142.009 79.4,140.138 C73.057,133.207 73.23,123.968 73.336,122.073 L73.336,122.073 Z M69.074,145.038 C68.856,144.967 68.627,144.892 68.379,144.891 L25.274,144.758 L25.415,99.121 L69.201,99.257 L69.127,123.131 C69.127,123.261 69.126,123.379 69.126,123.523 L69.074,145.038 L69.074,145.038 Z M61.93,205.909 C60.164,205.904 58.53,206.42 57.154,207.312 L57.172,201.57 L68.914,201.606 L68.903,205.252 C68.902,205.496 68.957,205.73 69.045,205.945 L61.93,205.923 L61.93,205.909 L61.93,205.909 Z M80.503,212.822 L57.625,212.751 C58.411,211.162 60.036,210.067 61.916,210.073 L76.231,210.117 C78.113,210.124 79.727,211.228 80.503,212.822 L80.503,212.822 Z M80.977,218.925 L65.114,218.876 L65.12,216.94 L80.983,216.989 L80.977,218.925 L80.977,218.925 Z M57.124,216.915 L60.955,216.927 L60.949,218.863 L57.118,218.851 L57.124,216.915 L57.124,216.915 Z M68.948,185.992 C66.2,185.243 64.171,182.764 64.181,179.788 C64.19,176.808 66.234,174.341 68.972,173.613 L68.948,185.992 L68.948,185.992 Z M47.462,152.36 C42.094,152.343 37.542,156.768 37.526,162.032 L37.416,197.478 C37.198,197.403 36.968,197.332 36.72,197.331 L25.126,197.295 L25.148,190.136 C30.325,189.471 34.374,185.074 34.391,179.71 C34.408,174.342 30.386,169.921 25.213,169.227 L25.276,148.922 L26.994,148.927 C26.923,149.145 26.848,149.374 26.847,149.623 L26.842,151.211 C26.838,152.355 27.776,153.298 28.92,153.302 C30.06,153.306 31.003,152.368 31.007,151.224 L31.012,149.636 C31.013,149.388 30.958,149.158 30.87,148.94 L33.72,148.949 C33.645,149.167 33.574,149.396 33.573,149.645 L33.568,151.233 C33.564,152.377 34.502,153.32 35.642,153.324 C36.786,153.328 37.729,152.39 37.733,151.246 L37.738,149.658 C37.739,149.41 37.68,149.18 37.596,148.962 L55.817,149.018 C55.742,149.236 55.668,149.465 55.667,149.714 L55.662,151.302 C55.658,152.446 56.596,153.389 57.74,153.393 C58.884,153.397 59.823,152.459 59.827,151.315 L59.832,149.727 C59.833,149.479 59.778,149.249 59.69,149.031 L63.074,149.041 C63.003,149.259 62.928,149.488 62.927,149.737 L62.922,151.325 C62.918,152.469 63.856,153.412 65,153.416 C66.14,153.42 67.083,152.482 67.087,151.338 L67.092,149.75 C67.093,149.502 67.038,149.272 66.95,149.054 L68.323,149.058 C68.571,149.059 68.801,149.004 69.019,148.916 L68.956,169.376 C63.908,170.156 60.004,174.498 59.987,179.777 C59.971,185.056 63.848,189.418 68.906,190.229 L68.884,197.418 L57.142,197.382 L57.251,162.095 C57.31,156.744 52.882,152.377 47.462,152.36 L47.462,152.36 Z M33.524,216.842 L37.355,216.854 L37.349,218.79 L33.518,218.778 L33.524,216.842 L33.524,216.842 Z M13.482,216.78 L29.345,216.829 L29.339,218.765 L13.476,218.716 L13.482,216.78 L13.482,216.78 Z M18.29,209.938 L32.605,209.982 C34.486,209.988 36.1,211.092 36.876,212.687 L13.998,212.616 C14.77,211.027 16.395,209.933 18.29,209.938 L18.29,209.938 Z M25.087,205.102 L25.098,201.459 L36.692,201.495 C36.94,201.496 37.17,201.437 37.388,201.349 L37.37,207.235 C35.985,206.35 34.354,205.808 32.603,205.802 L24.94,205.778 C25.026,205.58 25.086,205.347 25.087,205.102 L25.087,205.102 Z M14.794,161.528 C11.47,161.518 8.772,158.807 8.782,155.479 L8.786,154.265 L20.847,154.302 L20.843,155.516 C20.832,158.845 18.122,161.539 14.794,161.528 L14.794,161.528 Z M25.185,173.403 C28.059,174.049 30.221,176.617 30.211,179.697 C30.201,182.762 28.024,185.328 25.146,185.956 L25.185,173.403 L25.185,173.403 Z M8.889,120.918 L14.919,120.937 C16.063,120.941 17.006,120.003 17.01,118.863 L17.046,107.195 C17.05,106.051 16.112,105.108 14.968,105.104 L8.938,105.085 L8.983,90.407 L21.044,90.444 L20.859,150.152 L8.798,150.115 L8.889,120.918 L8.889,120.918 Z M8.925,109.235 L12.875,109.247 L12.852,116.751 L8.902,116.739 L8.925,109.235 L8.925,109.235 Z M69.255,95.092 L25.195,94.956 L25.209,90.458 L69.269,90.594 L69.255,95.092 L69.255,95.092 Z M47.659,22.966 C68.612,23.031 85.609,40.349 85.544,61.565 L85.467,86.464 L8.997,86.227 L9.074,61.328 C9.139,40.113 26.443,22.901 47.659,22.966 L47.659,22.966 Z M104.623,59.396 L104.571,76.199 L100.884,76.188 L100.936,59.385 L104.623,59.396 L104.623,59.396 Z M118.839,64.097 C117.551,64.093 116.514,63.05 116.518,61.761 C116.522,60.473 117.565,59.436 118.854,59.44 L133.369,59.485 C134.195,59.488 134.976,59.316 135.699,59.044 L135.683,64.134 L118.839,64.082 L118.839,64.097 L118.839,64.097 Z M7.38,10.581 C8.783,10.585 9.909,11.729 9.904,13.117 C9.9,14.52 8.752,15.646 7.364,15.641 C5.961,15.637 4.839,14.489 4.843,13.101 C4.848,11.698 5.991,10.576 7.38,10.581 L7.38,10.581 Z M164.043,64.237 L139.862,64.162 L139.894,53.737 C139.894,53.648 139.854,53.578 139.854,53.504 C139.866,53.345 139.896,53.201 139.896,53.041 C139.907,49.469 137.01,46.539 133.423,46.528 L100.976,46.427 L100.997,39.675 C101.001,38.531 100.063,37.588 98.919,37.584 C97.779,37.58 96.836,38.518 96.832,39.662 L96.81,46.777 C94.231,47.62 92.347,50.017 92.338,52.879 C92.329,55.744 94.199,58.149 96.772,59.008 L96.718,76.477 C96.718,76.492 96.733,76.507 96.733,76.521 C94.139,77.364 92.255,79.761 92.246,82.623 C92.237,85.488 94.107,87.893 96.68,88.756 L96.548,131.343 C94.146,131.102 92.327,130.43 91.29,129.328 C89.718,127.646 89.439,124.525 89.502,123.222 C89.517,123.078 89.544,122.859 89.617,90.786 L89.707,61.578 C89.78,38.063 70.922,18.873 47.671,18.801 C30.694,18.748 16.029,28.695 9.129,43.063 L9.202,19.523 C12.011,18.721 14.073,16.18 14.082,13.115 C14.091,10.153 12.144,7.66 9.489,6.767 L9.503,2.314 C9.507,1.174 8.569,0.231 7.425,0.227 C6.285,0.223 5.342,1.161 5.338,2.301 L5.324,6.754 C2.645,7.63 0.701,10.112 0.692,13.074 C0.683,15.954 2.512,18.388 5.052,19.351 L4.631,155.426 C4.614,161.049 9.171,165.632 14.794,165.649 C17.167,165.656 19.339,164.812 21.076,163.458 L20.947,205.045 C20.946,205.293 21.005,205.523 21.089,205.741 L18.313,205.732 C13.382,205.717 9.364,209.71 9.349,214.641 L9.33,220.742 C9.326,221.886 10.264,222.829 11.408,222.833 L39.431,222.92 C40.575,222.924 41.518,221.986 41.522,220.842 L41.704,162.045 C41.713,159.054 44.353,156.515 47.463,156.525 C50.554,156.535 53.152,159.075 53.143,162.081 L52.961,220.923 C52.957,222.067 53.891,223.006 55.035,223.01 L83.058,223.097 C84.202,223.101 85.145,222.167 85.149,221.023 L85.168,214.919 C85.183,209.988 81.19,205.97 76.259,205.955 L72.931,205.945 C73.006,205.731 73.077,205.498 73.078,205.253 L73.284,138.807 C74.135,140.213 75.126,141.619 76.351,142.937 C78.731,145.547 82.509,148.465 88.086,150.188 C88.145,150.218 88.189,150.248 88.245,150.277 C88.334,150.303 88.434,150.304 88.519,150.319 C90.86,151.007 93.52,151.464 96.53,151.617 L96.335,214.723 C96.331,215.867 97.265,216.806 98.409,216.81 C99.553,216.814 100.492,215.88 100.496,214.736 L100.692,151.441 C100.692,151.441 100.692,151.441 100.692,151.426 C105.178,150.4 108.563,146.405 108.578,141.603 C108.593,136.802 105.233,132.786 100.753,131.732 L100.885,89.116 L112.309,89.151 L112.287,96.122 C112.269,102.023 117.055,106.839 122.956,106.857 L163.936,106.984 C165.08,106.988 166.023,106.05 166.027,104.906 L166.147,66.325 C166.12,65.184 165.183,64.24 164.043,64.237 L164.043,64.237 Z" id="Shape" fill="#404041"></path>
                        <path d="M47.257,138.377 C43.152,138.364 39.819,135.015 39.832,130.906 L39.866,119.859 C42.112,118.97 43.726,116.791 43.733,114.244 C43.737,113.045 43.377,111.914 42.773,110.976 C45.352,109 49.113,108.956 51.74,110.845 C51.071,111.824 50.663,112.996 50.66,114.266 C50.652,116.928 52.377,119.188 54.777,120.006 L54.743,130.953 C54.716,135.061 51.366,138.39 47.257,138.377 L47.257,138.377 Z M37.665,112.319 C38.72,112.322 39.573,113.176 39.569,114.231 C39.565,115.286 38.708,116.139 37.653,116.135 C36.598,116.132 35.745,115.274 35.749,114.219 C35.752,113.179 36.61,112.316 37.665,112.319 L37.665,112.319 Z M58.612,114.29 C58.609,115.345 57.755,116.198 56.696,116.194 C55.641,116.191 54.792,115.333 54.795,114.278 C54.798,113.223 55.652,112.374 56.707,112.377 C57.751,112.381 58.615,113.235 58.612,114.29 L58.612,114.29 Z M56.735,108.213 C56.232,108.211 55.754,108.28 55.291,108.394 C53.143,106.351 50.34,105.199 47.36,105.189 C44.339,105.18 41.5,106.33 39.324,108.418 C38.806,108.257 38.255,108.156 37.677,108.154 C34.338,108.144 31.594,110.852 31.583,114.206 C31.575,116.868 33.304,119.128 35.7,119.946 L35.666,130.893 C35.646,137.301 40.839,142.522 47.243,142.542 C53.651,142.562 58.872,137.373 58.892,130.965 L58.926,119.918 C61.168,119.029 62.767,116.85 62.775,114.303 C62.787,110.964 60.078,108.224 56.735,108.213 L56.735,108.213 Z" id="Shape" fill="#404041"></path>
                        <path d="M47.276,132.317 C46.221,132.314 45.372,131.46 45.375,130.405 C45.378,129.346 46.232,128.497 47.287,128.501 C48.342,128.505 49.195,129.358 49.191,130.417 C49.189,131.471 48.316,132.32 47.276,132.317 L47.276,132.317 Z M47.301,124.35 C43.962,124.34 41.221,127.048 41.211,130.406 C41.201,133.745 43.909,136.486 47.263,136.496 C50.617,136.506 53.346,133.798 53.357,130.444 C53.367,127.086 50.644,124.361 47.301,124.35 L47.301,124.35 Z" id="Shape" fill="#404041"></path>
                        <path d="M16.544,137.904 C16.537,140.133 13.183,140.122 13.19,137.894 C13.197,135.669 16.551,135.679 16.544,137.904" id="Shape" fill="#000000"></path>
                        <path d="M16.67,97.013 C16.663,99.238 13.309,99.227 13.316,97.003 C13.323,94.759 16.677,94.77 16.67,97.013" id="Shape" fill="#000000"></path>
                        <path d="M80.95,97.212 C80.943,99.437 77.6,99.426 77.607,97.202 C77.614,94.958 80.957,94.969 80.95,97.212" id="Shape" fill="#000000"></path>
                        <rect id="Rectangle-path" fill="#E6E7E8" transform="translate(47.040956, 92.628324) rotate(0.177616) translate(-47.040956, -92.628324) " x="25.0398506" y="90.3813132" width="44.0022114" height="4.49402159"></rect>
                    </g>
                </g>
                <g id="Group" transform="translate(14.000000, 156.000000)" sketch:type="MSShapeGroup">
                    <g id="Shape">
                        <path d="M36.229,49.66 L36.724,49.279 C35.099,48.712 33.211,47.085 31.099,44.432 C30.843,44.562 30.592,44.687 30.344,44.809 C31.954,46.993 34.589,49.772 36.229,49.66 L36.229,49.66 Z"></path>
                        <path d="M43.999,59.846 C44.028,59.829 47.176,57.978 47.699,55.311 C47.939,54.095 47.584,52.857 46.643,51.635 C45.481,50.126 43.443,48.838 41.209,49.738 C41.148,49.761 41.083,49.779 41.018,49.787 C40.878,49.802 40.184,49.837 39.004,49.316 L36.944,50.903 C36.856,50.971 36.753,51.018 36.642,51.038 C33.767,51.578 30.195,47.022 29.045,45.431 C24.809,47.389 21.98,48.049 20.399,48.265 C23.804,52.073 35.844,64.509 43.999,59.846 L43.999,59.846 Z M40.213,52.754 C40.157,52.367 40.428,52.009 40.818,51.951 C42.795,51.675 44.736,52.603 45.764,54.313 C46.338,55.271 46.573,56.412 46.423,57.521 C46.398,57.712 46.295,57.876 46.152,57.987 C46.005,58.1 45.818,58.154 45.625,58.126 C45.236,58.075 44.963,57.716 45.016,57.33 C45.126,56.527 44.96,55.735 44.544,55.043 C43.813,53.822 42.425,53.159 41.015,53.359 C40.628,53.414 40.268,53.141 40.213,52.754 L40.213,52.754 Z"></path>
                        <path d="M32.711,25.769 C32.264,25.189 31.842,24.6 31.444,24.008 C28.612,25.925 23.351,31.161 23.351,31.161 C25.073,32.215 28.203,32.522 28.203,32.522 C22.566,37.496 15.03,42.878 12.66,44.545 C15.112,46.895 17.475,47.812 18.463,47.104 C18.465,47.102 18.467,47.099 18.47,47.097 C18.631,46.971 18.821,46.921 19.003,46.94 C19.286,46.949 23.043,46.979 30.918,42.908 C30.947,42.89 30.977,42.874 31.008,42.861 C34.609,40.992 39.064,38.269 44.436,34.302 C41.023,33.861 36.513,30.705 32.711,25.769 L32.711,25.769 Z"></path>
                        <path d="M48.48,30.095 C48.675,30.15 48.867,30.195 49.056,30.235 C48.867,30.196 48.675,30.15 48.48,30.095 L48.48,30.095 Z"></path>
                        <path d="M29.436,9.751 C29.416,9.767 29.395,9.782 29.375,9.793 C29.286,9.847 20.678,15.253 13.114,25.504 C12.89,25.887 12.639,26.426 12.638,26.879 C12.714,27.082 12.708,27.31 12.58,27.507 L7.49,35.342 C7.606,37.232 8.805,39.899 10.648,42.292 C11.059,42.826 11.478,43.318 11.898,43.77 C17.606,39.105 21.439,35.542 23.869,33.67 C21.785,34.369 18.152,33.452 18.152,33.452 C21.705,29.672 28.498,24.323 30.609,22.687 C28.313,18.875 27.101,15.028 27.439,12.302 C27.487,11.91 27.842,11.637 28.232,11.682 C28.618,11.73 28.896,12.085 28.848,12.472 C28.463,15.584 30.421,20.461 33.838,24.897 C38.928,31.507 44.706,34.129 46.909,32.433 C46.914,32.429 46.92,32.426 46.926,32.423 C47.541,31.937 47.882,31.067 47.949,29.935 C47.947,29.934 47.946,29.934 47.944,29.933 C44.75,28.841 40.927,25.839 37.608,21.529 C34.289,17.219 32.363,12.755 32.123,9.388 L32.123,9.385 C30.997,9.155 30.063,9.269 29.436,9.751 L29.436,9.751 Z"></path>
                        <path d="M10.29,28.425 C6.216,29.868 3.84,30.681 2.431,31.093 L6.573,34.144 L10.29,28.425 L10.29,28.425 Z"></path>
                        <path d="M41.958,18.088 C43.185,19.682 44.335,20.048 44.515,19.936 L46.63,18.307 C45.975,17.618 45.328,16.876 44.706,16.069 C44.052,15.219 43.472,14.363 42.955,13.51 C42.954,13.508 42.953,13.506 42.952,13.504 L40.824,15.143 C40.67,15.29 40.728,16.491 41.958,18.088 L41.958,18.088 Z"></path>
                        <path d="M51.484,7.924 L48.857,9.022 C48.818,9.039 48.777,9.051 48.733,9.061 C48.564,9.21 48.619,10.41 49.851,12.01 C51.081,13.607 52.223,13.969 52.406,13.86 C52.409,13.858 52.41,13.848 52.413,13.845 C52.434,13.806 52.457,13.769 52.483,13.735 L54.222,11.472 L55.137,10.283 L59.533,4.554 L52.865,7.345 L51.484,7.924 L51.484,7.924 Z"></path>
                        <path d="M42.441,3.419 C41.881,3.85 41.618,4.707 41.659,5.851 C41.683,6.417 41.782,7.059 41.958,7.75 C42.239,8.849 42.707,10.08 43.384,11.389 C43.597,11.799 43.835,12.219 44.089,12.638 C44.592,13.479 45.168,14.338 45.834,15.202 C46.468,16.026 47.116,16.763 47.766,17.438 C48.108,17.791 48.452,18.129 48.791,18.441 C49.915,19.475 51.027,20.277 52.047,20.844 C52.669,21.192 53.263,21.453 53.806,21.619 C54.902,21.951 55.797,21.915 56.357,21.484 C57.717,20.437 57.347,16.891 55.016,12.78 L53.649,14.556 C53.554,14.723 53.43,14.864 53.28,14.98 L53.277,14.982 C52.07,15.911 50.075,14.624 48.728,12.875 C47.379,11.123 46.646,8.868 47.851,7.94 C48,7.825 48.169,7.742 48.358,7.689 L50.404,6.834 C47.058,3.612 43.785,2.384 42.441,3.419 L42.441,3.419 Z"></path>
                        <path d="M41.015,53.359 C42.425,53.159 43.813,53.822 44.544,55.043 C44.96,55.735 45.126,56.527 45.016,57.33 C44.963,57.716 45.236,58.076 45.625,58.126 C45.819,58.154 46.005,58.1 46.152,57.987 C46.295,57.877 46.398,57.712 46.423,57.521 C46.572,56.412 46.338,55.271 45.764,54.313 C44.737,52.603 42.795,51.675 40.818,51.951 C40.428,52.009 40.157,52.367 40.213,52.754 C40.268,53.141 40.628,53.414 41.015,53.359 L41.015,53.359 Z" fill="#1A1A1A"></path>
                        <path d="M39.232,49.14 L39.004,49.316 C40.184,49.837 40.878,49.802 41.018,49.787 C41.082,49.779 41.148,49.761 41.209,49.738 C43.444,48.838 45.481,50.126 46.643,51.635 C47.584,52.857 47.94,54.095 47.699,55.311 C47.176,57.978 44.028,59.829 43.999,59.846 C35.844,64.509 23.803,52.072 20.398,48.264 C19.803,48.345 19.384,48.364 19.134,48.365 C19.014,48.438 18.887,48.499 18.756,48.552 C19.85,49.826 23.163,53.531 27.389,56.8 C34.29,62.137 40.279,63.616 44.709,61.082 C44.76,61.052 45.185,60.804 45.754,60.366 C46.908,59.477 48.66,57.806 49.09,55.594 C49.416,53.957 48.97,52.335 47.766,50.771 C45.94,48.4 43.221,47.47 40.807,48.372 C40.722,48.365 40.563,48.344 40.342,48.287 L39.246,49.131 C39.241,49.133 39.238,49.136 39.232,49.14 L39.232,49.14 Z" fill="#1A1A1A"></path>
                        <path fill="#1A1A1A" d="M18.47,47.098 C18.468,47.1 18.466,47.103 18.463,47.105 C18.473,47.098 18.483,47.092 18.493,47.085 C18.63,46.979 18.806,46.929 18.984,46.941 C18.986,46.941 18.993,46.941 19.002,46.942 C18.821,46.921 18.631,46.972 18.47,47.098 L18.47,47.098 Z"></path>
                        <path d="M33.837,24.897 C30.421,20.461 28.462,15.584 28.847,12.472 C28.895,12.085 28.617,11.731 28.231,11.682 C27.841,11.637 27.487,11.91 27.438,12.302 C27.1,15.027 28.313,18.875 30.608,22.687 C31.017,22.37 31.253,22.19 31.253,22.19 L31.993,23.66 C31.823,23.758 31.639,23.875 31.444,24.007 C31.842,24.6 32.264,25.188 32.711,25.768 C36.512,30.704 41.022,33.859 44.435,34.301 C45.239,33.707 46.061,33.088 46.906,32.437 C46.912,32.432 46.917,32.426 46.924,32.421 C46.919,32.425 46.912,32.427 46.907,32.431 C44.705,34.13 38.927,31.507 33.837,24.897 L33.837,24.897 Z" fill="#1A1A1A"></path>
                        <path fill="#1A1A1A" d="M47.774,33.564 L47.777,33.56 L47.772,33.564 L47.774,33.564 Z"></path>
                        <path d="M49.056,30.235 C48.866,30.195 48.675,30.15 48.48,30.095 C48.304,30.045 48.128,29.995 47.947,29.934 C47.881,31.066 47.54,31.937 46.924,32.422 C47.234,32.197 47.668,32.257 47.903,32.562 C48.141,32.871 48.084,33.32 47.776,33.56 C48.701,32.845 49.208,31.713 49.337,30.296 L49.337,30.296 C49.335,30.296 49.333,30.296 49.332,30.295 C49.242,30.28 49.148,30.255 49.056,30.235 L49.056,30.235 Z" fill="#1A1A1A"></path>
                        <path d="M19.47,47.196 C19.491,47.222 19.822,47.621 20.398,48.265 C21.979,48.049 24.808,47.388 29.044,45.431 C28.883,45.208 28.769,45.042 28.711,44.958 C28.489,44.634 28.571,44.189 28.9,43.973 C29.224,43.751 29.663,43.838 29.885,44.162 C30.026,44.369 30.18,44.586 30.344,44.81 C30.592,44.688 30.842,44.563 31.099,44.433 C30.973,44.275 30.847,44.114 30.719,43.949 C30.48,43.638 30.538,43.192 30.848,42.953 C30.87,42.936 30.894,42.924 30.917,42.91 C23.042,46.982 19.285,46.952 19.002,46.942 C19.18,46.96 19.348,47.046 19.47,47.196 L19.47,47.196 Z" fill="#1A1A1A"></path>
                        <path d="M18.463,47.104 C17.475,47.812 15.112,46.895 12.66,44.545 C12.182,44.881 11.91,45.069 11.91,45.069 C11.363,44.565 11.291,44.266 11.291,44.266 C11.498,44.098 11.696,43.935 11.898,43.77 C11.478,43.318 11.059,42.826 10.648,42.292 C8.805,39.898 7.606,37.232 7.49,35.342 L12.58,27.507 C12.708,27.31 12.714,27.082 12.638,26.879 C12.639,26.425 12.89,25.886 13.114,25.504 C20.679,15.254 29.287,9.847 29.375,9.793 C29.395,9.782 29.416,9.767 29.436,9.751 C30.062,9.269 30.997,9.155 32.121,9.385 C32.083,8.882 32.084,8.407 32.127,7.959 L32.127,7.956 C30.738,7.721 29.522,7.907 28.599,8.603 C28.022,8.968 19.798,14.279 12.402,24.082 C10.314,25.092 1.2,29.525 0.397,30.143 C0.35,30.179 0.317,30.227 0.28,30.275 C0.258,30.296 0.23,30.314 0.211,30.338 C0.028,30.586 0.036,30.911 0.202,31.156 C0.268,31.273 0.335,31.366 0.471,31.416 L6.079,35.545 C6.255,37.725 7.523,40.567 9.52,43.16 C12.697,47.286 16.498,49.454 18.756,48.551 C18.532,48.29 18.399,48.129 18.372,48.096 C18.126,47.796 18.169,47.356 18.463,47.104 L18.463,47.104 Z M2.431,31.094 C3.84,30.682 6.216,29.869 10.29,28.426 L6.573,34.146 L2.431,31.094 L2.431,31.094 Z" fill="#1A1A1A"></path>
                        <path d="M31.008,42.862 C31.298,42.74 31.644,42.82 31.845,43.081 C31.942,43.207 32.03,43.317 32.126,43.435 L33.505,42.625 C33.487,42.602 33.469,42.578 33.451,42.555 C33.212,42.244 33.27,41.798 33.58,41.559 C33.891,41.32 34.337,41.378 34.576,41.688 C34.733,41.892 34.886,42.085 35.036,42.273 C38.623,40.173 42.853,37.353 47.772,33.565 L47.773,33.564 C46.89,34.243 45.744,34.471 44.437,34.302 C39.064,38.27 34.609,40.993 31.008,42.862 L31.008,42.862 Z" fill="#1A1A1A"></path>
                        <path d="M20.398,48.264 C19.822,47.62 19.492,47.221 19.47,47.195 C19.347,47.045 19.179,46.959 19.002,46.94 C18.992,46.94 18.985,46.939 18.984,46.939 C18.806,46.927 18.63,46.977 18.493,47.083 C18.484,47.09 18.473,47.096 18.463,47.103 C18.168,47.355 18.126,47.795 18.372,48.096 C18.399,48.129 18.532,48.29 18.756,48.551 C18.887,48.499 19.014,48.438 19.134,48.364 C19.384,48.364 19.803,48.346 20.398,48.264 L20.398,48.264 Z" fill="#1A1A1A"></path>
                        <path d="M47.904,32.562 C47.669,32.257 47.235,32.197 46.925,32.422 C46.919,32.427 46.914,32.433 46.907,32.438 C46.062,33.089 45.239,33.708 44.436,34.302 C45.743,34.471 46.889,34.244 47.772,33.564 C47.774,33.563 47.775,33.561 47.777,33.56 C48.085,33.32 48.142,32.872 47.904,32.562 L47.904,32.562 Z" fill="#1A1A1A"></path>
                        <path d="M46.63,18.308 L44.515,19.937 C44.334,20.049 43.185,19.683 41.958,18.089 C40.728,16.492 40.67,15.29 40.824,15.144 L42.952,13.505 C42.699,13.092 42.464,12.678 42.244,12.266 C42.243,12.264 42.242,12.262 42.241,12.26 L39.957,14.018 C38.753,14.945 39.483,17.202 40.832,18.954 C42.179,20.703 44.174,21.99 45.381,21.061 L47.649,19.315 C47.307,18.997 46.971,18.665 46.632,18.31 C46.632,18.31 46.631,18.309 46.63,18.308 L46.63,18.308 Z" fill="#1A1A1A"></path>
                        <path d="M52.652,22.699 C53.406,25.484 53.172,27.614 52.032,28.492 C51.406,28.974 50.47,29.088 49.345,28.857 C48.885,28.763 48.399,28.611 47.883,28.406 C45.217,27.327 41.863,24.729 38.734,20.665 C35.605,16.601 33.949,12.695 33.587,9.842 C33.516,9.29 33.498,8.781 33.521,8.315 C33.586,7.168 33.932,6.29 34.559,5.807 C35.698,4.93 37.817,5.249 40.317,6.684 C40.245,6.105 40.226,5.559 40.268,5.056 C37.616,3.714 35.24,3.49 33.693,4.681 C32.764,5.396 32.255,6.534 32.128,7.956 L32.131,7.956 C32.091,8.408 32.089,8.884 32.125,9.385 L32.123,9.385 C32.122,9.386 32.122,9.387 32.122,9.387 C32.362,12.755 34.288,17.218 37.607,21.528 C40.926,25.838 44.75,28.84 47.943,29.932 C47.945,29.933 47.946,29.933 47.948,29.934 L47.948,29.933 C48.128,29.995 48.304,30.045 48.481,30.095 C48.676,30.15 48.868,30.195 49.057,30.235 C49.151,30.255 49.247,30.28 49.339,30.296 C50.742,30.533 51.966,30.33 52.894,29.616 C54.44,28.426 54.83,26.073 54.212,23.169 C53.719,23.078 53.195,22.918 52.655,22.701 C52.655,22.701 52.653,22.7 52.652,22.699 L52.652,22.699 Z" fill="#1A1A1A"></path>
                        <path fill="#1A1A1A" d="M32.121,9.385 C32.121,9.385 32.123,9.385 32.124,9.386 C32.088,8.885 32.09,8.409 32.13,7.957 L32.127,7.957 L32.127,7.96 C32.084,8.407 32.083,8.882 32.121,9.385 L32.121,9.385 Z"></path>
                        <path fill="#1A1A1A" d="M47.947,29.933 L47.947,29.933 C48.128,29.995 48.304,30.045 48.48,30.095 C48.304,30.045 48.127,29.996 47.947,29.933 L47.947,29.933 Z"></path>
                        <path fill="#1A1A1A" d="M49.333,30.296 C49.335,30.296 49.337,30.296 49.338,30.297 C49.246,30.281 49.15,30.256 49.056,30.236 C49.148,30.255 49.242,30.28 49.333,30.296 L49.333,30.296 Z"></path>
                        <path d="M55.016,12.779 C57.347,16.891 57.717,20.436 56.357,21.483 C55.797,21.914 54.902,21.95 53.806,21.618 C53.262,21.452 52.669,21.191 52.047,20.843 C51.027,20.276 49.915,19.475 48.791,18.44 C48.452,18.127 48.109,17.79 47.766,17.437 C47.116,16.762 46.468,16.024 45.834,15.201 C45.169,14.337 44.592,13.478 44.089,12.637 C43.835,12.217 43.597,11.798 43.384,11.388 C42.707,10.08 42.24,8.848 41.958,7.749 C41.781,7.058 41.683,6.416 41.659,5.85 C41.618,4.706 41.882,3.849 42.441,3.418 C43.785,2.383 47.057,3.611 50.404,6.833 L50.413,6.829 L51.822,6.241 C47.951,2.326 43.771,0.607 41.578,2.296 C40.796,2.898 40.37,3.861 40.272,5.062 C40.23,5.565 40.249,6.111 40.321,6.69 C40.529,8.34 41.18,10.258 42.241,12.26 L42.243,12.258 C42.463,12.671 42.7,13.087 42.954,13.503 L42.952,13.505 C42.953,13.507 42.954,13.509 42.955,13.511 C43.472,14.364 44.051,15.22 44.706,16.07 C45.328,16.878 45.974,17.62 46.63,18.308 L46.63,18.308 C46.969,18.663 47.308,18.995 47.649,19.315 L47.649,19.315 C47.65,19.316 47.651,19.317 47.652,19.318 C49.348,20.909 51.079,22.067 52.651,22.699 C52.651,22.697 52.65,22.696 52.65,22.695 C53.188,22.915 53.714,23.076 54.211,23.164 C54.211,23.166 54.212,23.167 54.212,23.169 C54.213,23.169 54.214,23.17 54.216,23.17 C55.402,23.382 56.441,23.217 57.226,22.612 C59.441,20.907 58.812,16.356 55.95,11.566 L55.024,12.77 L55.016,12.779 L55.016,12.779 Z" fill="#1A1A1A"></path>
                        <path d="M42.952,13.505 L42.954,13.503 C42.7,13.087 42.463,12.672 42.243,12.258 L42.241,12.26 C42.242,12.262 42.243,12.264 42.244,12.266 C42.464,12.678 42.699,13.092 42.952,13.505 L42.952,13.505 Z" fill="#1A1A1A"></path>
                        <path d="M46.63,18.308 L46.63,18.308 C46.631,18.309 46.631,18.31 46.632,18.311 C46.97,18.665 47.306,18.998 47.649,19.316 L47.649,19.316 C47.309,18.995 46.97,18.663 46.63,18.308 L46.63,18.308 Z" fill="#1A1A1A"></path>
                        <path fill="#1A1A1A" d="M52.65,22.695 C52.65,22.697 52.651,22.698 52.651,22.699 C52.652,22.699 52.653,22.7 52.653,22.7 C53.194,22.917 53.718,23.078 54.211,23.168 C54.211,23.166 54.21,23.165 54.21,23.163 C53.714,23.075 53.189,22.914 52.65,22.695 L52.65,22.695 Z"></path>
                        <path d="M60.5,0.901 C59.841,1.409 59.539,2.206 59.624,2.976 L51.83,6.238 L51.822,6.241 C51.824,6.243 51.827,6.246 51.829,6.248 L50.412,6.84 C50.41,6.838 50.407,6.835 50.405,6.833 L48.359,7.688 C48.17,7.74 48.001,7.824 47.852,7.939 C46.647,8.867 47.38,11.121 48.729,12.874 C50.076,14.623 52.071,15.91 53.278,14.981 C53.278,14.981 53.278,14.981 53.281,14.979 C53.431,14.863 53.555,14.722 53.65,14.555 L55.017,12.779 C55.016,12.778 55.016,12.777 55.015,12.776 L55.948,11.563 C55.949,11.564 55.949,11.565 55.95,11.566 L55.957,11.556 L61.092,4.866 C61.815,5.144 62.662,5.056 63.321,4.549 C64.329,3.773 64.518,2.326 63.741,1.318 C62.954,0.313 61.507,0.125 60.5,0.901 L60.5,0.901 Z M55.136,10.283 L54.221,11.472 L52.482,13.735 C52.457,13.769 52.434,13.806 52.412,13.845 C52.409,13.847 52.408,13.857 52.405,13.86 C52.222,13.969 51.08,13.607 49.85,12.01 C48.618,10.41 48.563,9.211 48.732,9.061 C48.776,9.051 48.817,9.038 48.856,9.022 L51.483,7.924 L52.864,7.346 L59.532,4.555 L55.136,10.283 L55.136,10.283 Z" fill="#1A1A1A"></path>
                        <path d="M50.404,6.833 L50.412,6.84 L51.828,6.249 L51.822,6.242 L50.413,6.83 L50.404,6.833 Z" fill="#1A1A1A"></path>
                        <path d="M55.015,12.776 L55.016,12.779 L55.024,12.769 L55.95,11.565 L55.948,11.563 L55.015,12.776 Z" fill="#1A1A1A"></path>
                        <path d="M28.203,32.522 C28.203,32.522 25.074,32.215 23.351,31.161 C23.351,31.161 28.612,25.925 31.444,24.008 C31.15,23.57 30.874,23.129 30.608,22.688 C28.497,24.324 21.704,29.673 18.151,33.453 C18.151,33.453 21.784,34.37 23.868,33.671 C21.437,35.543 17.605,39.106 11.897,43.771 C12.151,44.044 12.405,44.303 12.659,44.546 C15.03,42.879 22.566,37.496 28.203,32.522 L28.203,32.522 Z" fill="#1A1A1A"></path>
                        <path d="M31.994,23.661 L31.254,22.191 C31.254,22.191 31.018,22.371 30.609,22.688 C30.875,23.129 31.15,23.57 31.445,24.008 C31.64,23.876 31.824,23.759 31.994,23.661 L31.994,23.661 Z" fill="#1A1A1A"></path>
                        <path d="M11.291,44.266 C11.291,44.266 11.363,44.566 11.91,45.069 C11.91,45.069 12.183,44.881 12.66,44.545 C12.406,44.302 12.152,44.043 11.898,43.77 C11.696,43.935 11.498,44.098 11.291,44.266 L11.291,44.266 Z" fill="#1A1A1A"></path>
                        <path fill="#1A1A1A" d="M31.008,42.862 C30.977,42.875 30.947,42.891 30.918,42.909 C30.948,42.893 30.978,42.877 31.008,42.862 L31.008,42.862 Z"></path>
                        <path d="M36.724,49.279 L36.229,49.66 C34.588,49.772 31.954,46.993 30.344,44.808 C29.897,45.028 29.463,45.236 29.043,45.43 C30.193,47.021 33.765,51.577 36.64,51.037 C36.751,51.017 36.855,50.97 36.942,50.902 L39.002,49.315 C38.87,49.257 38.733,49.193 38.589,49.12 C38.238,48.942 38.101,48.515 38.275,48.167 C38.452,47.815 38.879,47.678 39.228,47.853 C39.694,48.09 40.065,48.216 40.338,48.286 L40.885,47.865 C41.169,47.646 41.245,47.247 41.063,46.939 C40.898,46.652 40.553,46.524 40.239,46.626 C40.109,46.637 38.546,46.666 35.033,42.272 C33.623,43.098 32.311,43.813 31.097,44.43 C33.211,47.085 35.099,48.712 36.724,49.279 L36.724,49.279 Z" fill="#1A1A1A"></path>
                        <path d="M38.278,48.168 C38.103,48.517 38.241,48.944 38.592,49.121 C38.736,49.194 38.873,49.257 39.005,49.316 L39.233,49.14 C39.239,49.135 39.242,49.133 39.245,49.131 L40.341,48.287 C40.068,48.217 39.698,48.091 39.231,47.854 C38.881,47.679 38.455,47.816 38.278,48.168 L38.278,48.168 Z" fill="#1A1A1A"></path>
                        <path d="M33.58,41.558 C33.269,41.797 33.212,42.243 33.451,42.554 C33.469,42.577 33.487,42.601 33.505,42.624 L32.126,43.434 C32.031,43.316 31.942,43.206 31.845,43.08 C31.644,42.819 31.298,42.739 31.008,42.861 C30.978,42.877 30.948,42.892 30.918,42.908 C30.895,42.922 30.871,42.934 30.849,42.951 C30.538,43.19 30.481,43.636 30.72,43.947 C30.847,44.113 30.974,44.273 31.1,44.431 C32.314,43.813 33.626,43.098 35.036,42.273 C34.886,42.085 34.733,41.892 34.576,41.688 C34.336,41.377 33.89,41.319 33.58,41.558 L33.58,41.558 Z" fill="#1A1A1A"></path>
                        <path d="M28.9,43.972 C28.571,44.188 28.489,44.634 28.711,44.957 C28.768,45.041 28.883,45.207 29.044,45.43 C29.463,45.236 29.898,45.028 30.345,44.808 C30.18,44.585 30.026,44.367 29.886,44.16 C29.663,43.837 29.224,43.75 28.9,43.972 L28.9,43.972 Z" fill="#1A1A1A"></path>
                    </g>
                    <g transform="translate(2.000000, 3.000000)" id="Shape">
                        <path d="M34.229,46.66 L34.724,46.279 C33.099,45.712 31.211,44.085 29.099,41.432 C28.843,41.562 28.592,41.687 28.344,41.809 C29.954,43.993 32.589,46.772 34.229,46.66 L34.229,46.66 Z" fill="#BBBDBF"></path>
                        <path d="M41.999,56.846 C42.028,56.829 45.176,54.978 45.699,52.311 C45.939,51.095 45.584,49.857 44.643,48.635 C43.481,47.126 41.443,45.838 39.209,46.738 C39.148,46.761 39.083,46.779 39.018,46.787 C38.878,46.802 38.184,46.837 37.004,46.316 L34.944,47.903 C34.856,47.971 34.753,48.018 34.642,48.038 C31.767,48.578 28.195,44.022 27.045,42.431 C22.809,44.389 19.98,45.049 18.399,45.265 C21.804,49.073 33.844,61.509 41.999,56.846 L41.999,56.846 Z M38.213,49.754 C38.157,49.367 38.428,49.009 38.818,48.951 C40.795,48.675 42.736,49.603 43.764,51.313 C44.338,52.271 44.573,53.412 44.423,54.521 C44.398,54.712 44.295,54.876 44.152,54.987 C44.005,55.1 43.818,55.154 43.625,55.126 C43.236,55.075 42.963,54.716 43.016,54.33 C43.126,53.527 42.96,52.735 42.544,52.043 C41.813,50.822 40.425,50.159 39.015,50.359 C38.628,50.414 38.268,50.141 38.213,49.754 L38.213,49.754 Z" fill="#808184"></path>
                        <path d="M30.711,22.769 C30.264,22.189 29.842,21.6 29.444,21.008 C26.612,22.925 21.351,28.161 21.351,28.161 C23.073,29.215 26.203,29.522 26.203,29.522 C20.566,34.496 13.03,39.878 10.66,41.545 C13.112,43.895 15.475,44.812 16.463,44.104 C16.465,44.102 16.467,44.099 16.47,44.097 C16.631,43.971 16.821,43.921 17.003,43.94 C17.286,43.949 21.043,43.979 28.918,39.908 C28.947,39.89 28.977,39.874 29.008,39.861 C32.609,37.992 37.064,35.269 42.436,31.302 C39.023,30.861 34.513,27.705 30.711,22.769 L30.711,22.769 Z" fill="#BBBDBF"></path>
                        <path d="M27.436,6.751 C27.416,6.767 27.395,6.782 27.375,6.793 C27.286,6.847 18.678,12.253 11.114,22.504 C10.89,22.887 10.639,23.426 10.638,23.879 C10.714,24.082 10.708,24.31 10.58,24.507 L5.49,32.342 C5.606,34.232 6.805,36.899 8.648,39.292 C9.059,39.826 9.478,40.318 9.898,40.77 C15.606,36.105 19.439,32.542 21.869,30.67 C19.785,31.369 16.152,30.452 16.152,30.452 C19.705,26.672 26.498,21.323 28.609,19.687 C26.313,15.875 25.101,12.028 25.439,9.302 C25.487,8.91 25.842,8.637 26.232,8.682 C26.618,8.73 26.896,9.085 26.848,9.472 C26.463,12.584 28.421,17.461 31.838,21.897 C36.928,28.507 42.706,31.129 44.909,29.433 C44.914,29.429 44.92,29.426 44.926,29.423 C45.541,28.937 45.882,28.067 45.949,26.935 C45.947,26.934 45.946,26.934 45.944,26.933 C42.75,25.841 38.927,22.839 35.608,18.529 C32.289,14.219 30.363,9.755 30.123,6.388 L30.123,6.385 C28.997,6.155 28.063,6.269 27.436,6.751 L27.436,6.751 Z" fill="#BBBDBF"></path>
                        <path d="M8.29,25.425 C4.216,26.868 1.84,27.681 0.431,28.093 L4.573,31.144 L8.29,25.425 L8.29,25.425 Z" fill="#808184"></path>
                        <path d="M39.958,15.088 C41.185,16.682 42.335,17.048 42.515,16.936 L44.63,15.307 C43.975,14.618 43.328,13.876 42.706,13.069 C42.052,12.219 41.472,11.363 40.955,10.51 C40.954,10.508 40.953,10.506 40.952,10.504 L38.824,12.143 C38.67,12.29 38.728,13.491 39.958,15.088 L39.958,15.088 Z" fill="#BBBDBF"></path>
                        <path d="M49.484,4.924 L46.857,6.022 C46.818,6.039 46.777,6.051 46.733,6.061 C46.564,6.21 46.619,7.41 47.851,9.01 C49.081,10.607 50.223,10.969 50.406,10.86 C50.409,10.858 50.41,10.848 50.413,10.845 C50.434,10.806 50.457,10.769 50.483,10.735 L52.222,8.472 L53.137,7.283 L57.533,1.554 L50.865,4.345 L49.484,4.924 L49.484,4.924 Z" fill="#BBBDBF"></path>
                        <path d="M40.441,0.419 C39.881,0.85 39.618,1.707 39.659,2.851 C39.683,3.417 39.782,4.059 39.958,4.75 C40.239,5.849 40.707,7.08 41.384,8.389 C41.597,8.799 41.835,9.219 42.089,9.638 C42.592,10.479 43.168,11.338 43.834,12.202 C44.468,13.026 45.116,13.763 45.766,14.438 C46.108,14.791 46.452,15.129 46.791,15.441 C47.915,16.475 49.027,17.277 50.047,17.844 C50.669,18.192 51.263,18.453 51.806,18.619 C52.902,18.951 53.797,18.915 54.357,18.484 C55.717,17.437 55.347,13.891 53.016,9.78 L51.649,11.556 C51.554,11.723 51.43,11.864 51.28,11.98 L51.277,11.982 C50.07,12.911 48.075,11.624 46.728,9.875 C45.379,8.123 44.646,5.868 45.851,4.94 C46,4.825 46.169,4.742 46.358,4.689 L48.404,3.834 C45.058,0.612 41.785,-0.616 40.441,0.419 L40.441,0.419 Z" fill="#D0D2D3"></path>
                    </g>
                </g>
                <g id="Group" transform="translate(79.000000, 90.000000)" sketch:type="MSShapeGroup">
                    <g transform="translate(2.000000, 6.000000)" id="Shape">
                        <path d="M33.062,45.447 C33.557,40.621 32.877,35.726 31.906,31.655 C32.995,32.658 34.368,34.11 35.759,36.045 C37.567,38.559 39.639,42.265 40.984,47.218 C37.693,45.623 34.624,45.42 33.062,45.447" fill="#BBBDBF"></path>
                        <path d="M42.152,53.452 C40.215,51.623 36.852,49.492 32.163,50.131 C32.475,49.06 32.708,47.973 32.875,46.869 C34.327,46.824 37.856,46.974 41.436,49.062 C41.743,50.442 41.987,51.899 42.152,53.452" fill="#A6A8AB"></path>
                        <path d="M29.644,51.626 L21.834,54.745 C9.938,49.394 3.927,32.093 3.864,31.907 C0.908,23.568 0.498,16.791 1.019,11.712 L15.109,6.084 C18.787,9.254 23.248,14.437 26.935,22.702 C27.018,22.87 34.581,39.541 29.644,51.626" fill="#D0D2D3"></path>
                        <path d="M29.392,55.328 L24.371,57.333 L23.342,56.174 L29.427,53.743 L29.392,55.328 Z" fill="#BBBDBF"></path>
                        <path d="M14.027,64.686 C13.083,63.449 12.251,62.227 11.524,61.016 C12.68,57.048 15.135,54.496 16.223,53.527 C17.103,54.207 18.02,54.835 18.984,55.396 C15.14,58.165 14.172,62.031 14.027,64.686" fill="#A6A8AB"></path>
                        <path d="M6.448,41.843 C8.547,45.458 11.424,49.472 15.104,52.619 C13.955,53.675 11.868,55.932 10.581,59.356 C6.593,51.952 6.238,45.387 6.448,41.843" fill="#BBBDBF"></path>
                        <path d="M1.433,8.87 L12.859,4.306 C13.184,4.536 13.52,4.794 13.859,5.06 L1.224,10.106 C1.288,9.685 1.356,9.272 1.433,8.87" fill="#BBBDBF"></path>
                        <path d="M4.165,1.089 C4.45,0.97 5.111,0.706 5.477,0.56 C6.325,0.793 8.572,1.529 11.443,3.355 L1.8,7.206 C2.614,3.919 3.711,1.847 4.165,1.089" fill="#D0D2D3"></path>
                    </g>
                    <path d="M16.044,31.881 C13.713,32.812 12.576,35.461 13.507,37.792 L16.876,46.226 C17.807,48.557 20.456,49.694 22.787,48.763 L23.873,48.329 C26.204,47.398 27.341,44.749 26.41,42.418 L23.041,33.984 C22.11,31.653 19.461,30.516 17.13,31.447 L16.044,31.881 L16.044,31.881 Z" id="Shape" fill="#A6A8AB"></path>
                    <path d="M17.986,34.76 C16.818,35.226 16.245,36.56 16.711,37.728 C17.177,38.896 18.512,39.469 19.68,39.002 C20.848,38.536 21.421,37.206 20.953,36.033 C20.487,34.866 19.154,34.294 17.986,34.76" id="Shape" fill="#FFFFFF"></path>
                    <path d="M12.375,20.712 C11.207,21.178 10.634,22.512 11.1,23.68 C11.566,24.848 12.901,25.421 14.069,24.954 C15.237,24.488 15.81,23.158 15.342,21.985 C14.876,20.817 13.543,20.245 12.375,20.712" id="Shape" fill="#FFFFFF"></path>
                    <g id="Shape" fill="#404041">
                        <path d="M12.331,20.729 C11.163,21.195 10.59,22.529 11.056,23.697 C11.522,24.865 12.857,25.438 14.025,24.971 C15.193,24.505 15.766,23.175 15.298,22.002 C14.832,20.835 13.499,20.263 12.331,20.729 M14.725,26.723 C12.59,27.576 10.158,26.532 9.305,24.397 C8.452,22.262 9.497,19.83 11.632,18.978 C13.767,18.125 16.198,19.169 17.051,21.304 C17.903,23.439 16.859,25.871 14.725,26.723"></path>
                        <path d="M17.944,34.783 C16.776,35.249 16.203,36.584 16.67,37.752 C17.136,38.92 18.471,39.492 19.639,39.025 C20.807,38.559 21.379,37.225 20.913,36.057 C20.444,34.885 19.112,34.316 17.944,34.783 M20.336,40.772 C18.201,41.625 15.769,40.581 14.916,38.447 C14.063,36.312 15.108,33.879 17.242,33.027 C19.377,32.174 21.809,33.219 22.661,35.354 C23.514,37.488 22.471,39.919 20.336,40.772"></path>
                        <path d="M16.044,31.881 C13.713,32.812 12.576,35.461 13.507,37.792 L16.876,46.226 C17.807,48.557 20.456,49.694 22.787,48.763 L23.873,48.329 C26.204,47.398 27.341,44.749 26.41,42.418 L23.041,33.984 C22.11,31.653 19.461,30.516 17.13,31.447 L16.044,31.881 L16.044,31.881 Z M24.573,50.081 L23.487,50.515 C20.194,51.83 16.44,50.219 15.125,46.926 L11.756,38.492 C10.441,35.199 12.052,31.445 15.345,30.13 L16.431,29.696 C19.724,28.381 23.478,29.992 24.793,33.285 L28.162,41.719 C29.478,45.017 27.866,48.766 24.573,50.081 L24.573,50.081 Z"></path>
                        <path d="M35.053,51.428 C35.548,46.602 34.868,41.707 33.897,37.636 C34.986,38.639 36.359,40.091 37.75,42.026 C39.558,44.54 41.63,48.246 42.975,53.199 C39.684,51.604 36.614,51.401 35.053,51.428 L35.053,51.428 Z M44.143,59.433 C42.206,57.604 38.843,55.473 34.154,56.112 C34.466,55.041 34.699,53.954 34.866,52.85 C36.318,52.805 39.847,52.955 43.427,55.043 C43.734,56.423 43.978,57.88 44.143,59.433 L44.143,59.433 Z M31.635,57.606 L23.825,60.725 C11.929,55.374 5.918,38.073 5.855,37.887 C2.899,29.548 2.489,22.771 3.01,17.692 L17.1,12.064 C20.778,15.234 25.239,20.417 28.926,28.682 C29.009,28.851 36.572,45.521 31.635,57.606 L31.635,57.606 Z M31.383,61.308 L26.362,63.313 L25.333,62.153 L31.418,59.723 L31.383,61.308 L31.383,61.308 Z M16.017,70.667 C15.073,69.43 14.241,68.208 13.514,66.997 C14.67,63.029 17.125,60.477 18.213,59.508 C19.093,60.188 20.01,60.816 20.974,61.377 C17.131,64.145 16.163,68.012 16.017,70.667 L16.017,70.667 Z M8.439,47.824 C10.538,51.439 13.415,55.453 17.095,58.6 C15.946,59.656 13.859,61.913 12.572,65.337 C8.583,57.932 8.229,51.367 8.439,47.824 L8.439,47.824 Z M3.424,14.851 L14.85,10.287 C15.175,10.517 15.511,10.775 15.85,11.041 L3.215,16.087 C3.278,15.666 3.346,15.253 3.424,14.851 L3.424,14.851 Z M6.156,7.069 C6.441,6.95 7.102,6.686 7.468,6.54 C8.316,6.773 10.563,7.509 13.434,9.335 L3.791,13.186 C4.604,9.9 5.702,7.827 6.156,7.069 L6.156,7.069 Z M33.052,34.498 C31.928,30.732 30.77,28.175 30.647,27.906 C22.432,9.497 10.57,5.407 7.961,4.715 L5.847,1.117 C5.582,0.666 5.005,0.516 4.554,0.782 C4.426,0.859 4.319,0.96 4.243,1.075 C4.027,1.278 3.912,1.582 3.96,1.902 C4.279,4.012 4.466,5.233 4.613,5.962 C3.36,7.949 -2.781,19.139 4.076,38.503 C4.173,38.788 5.093,41.445 6.877,44.948 C6.404,47.273 4.437,60.383 16.398,74.107 C16.663,74.414 17.088,74.514 17.459,74.366 C17.481,74.357 17.509,74.346 17.534,74.331 C17.917,74.136 18.124,73.704 18.032,73.286 C18.014,73.215 16.566,66.186 22.903,62.376 C22.962,62.405 23.026,62.433 23.084,62.457 L25.389,65.065 C25.651,65.362 26.077,65.462 26.446,65.314 L32.663,62.831 C33.014,62.691 33.25,62.353 33.258,61.975 L33.336,58.437 C33.373,58.342 33.412,58.254 33.444,58.161 C40.626,56.557 44.336,62.458 44.496,62.712 C44.719,63.083 45.161,63.251 45.577,63.127 C45.606,63.121 45.629,63.112 45.656,63.101 C46.026,62.953 46.266,62.588 46.247,62.183 C45.456,43.998 34.996,35.858 33.052,34.498 L33.052,34.498 Z"></path>
                    </g>
                </g>
                <g id="Group" transform="translate(133.000000, 47.000000)" sketch:type="MSShapeGroup">
                    <g id="Shape">
                        <path d="M33.487,53.508 C19.798,56.365 6.384,47.18 3.456,33.148 C0.673,19.81 8.371,6.825 20.771,3.028 C17.306,8.473 16.014,15.033 17.346,21.412 C20.324,35.681 35.362,44.519 50.409,40.655 C46.931,47.191 40.797,51.983 33.487,53.508 L33.487,53.508 Z" fill="#D0D2D3"></path>
                        <path d="M33.908,47.969 C29.159,49.565 24.296,48.884 20.042,45.902 C19.481,45.533 18.785,45.679 18.418,46.241 C18.049,46.802 18.195,47.498 18.757,47.865 C22.987,50.734 27.922,51.765 32.677,50.773 C33.371,50.628 34.066,50.483 34.742,50.223 C35.298,49.986 35.642,49.309 35.521,48.729 C35.139,48.07 34.464,47.733 33.908,47.969 L33.908,47.969 Z" fill="#404041"></path>
                        <path d="M33.962,55.787 C19.082,58.892 4.375,48.95 1.177,33.624 C-0.28,26.644 0.867,19.441 4.406,13.343 C7.927,7.275 13.496,2.822 20.089,0.803 C20.158,0.782 20.227,0.764 20.296,0.75 C21.168,0.568 22.076,0.9 22.623,1.619 C23.213,2.395 23.258,3.456 22.735,4.279 C19.536,9.306 18.432,15.222 19.624,20.937 C22.248,33.511 35.261,41.47 48.631,38.68 C49.03,38.597 49.433,38.503 49.829,38.401 C49.864,38.392 49.898,38.384 49.933,38.377 C50.795,38.197 51.689,38.519 52.237,39.216 C52.807,39.941 52.896,40.934 52.463,41.749 C48.593,49.024 41.849,54.141 33.962,55.787 L33.962,55.787 Z" fill="#404041"></path>
                        <path d="M33.487,53.508 C19.798,56.365 6.384,47.18 3.456,33.148 C0.673,19.81 8.372,6.825 20.771,3.028 C17.306,8.473 16.014,15.033 17.346,21.412 C20.324,35.681 35.362,44.519 50.409,40.655 C46.931,47.191 40.797,51.983 33.487,53.508 L33.487,53.508 Z" fill="#D0D2D3"></path>
                    </g>
                    <path d="M33.908,47.969 C29.159,49.565 24.296,48.884 20.042,45.902 C19.481,45.533 18.785,45.679 18.418,46.241 C18.049,46.802 18.195,47.498 18.757,47.865 C22.987,50.734 27.922,51.765 32.677,50.773 C33.371,50.628 34.066,50.483 34.742,50.223 C35.298,49.986 35.642,49.309 35.521,48.729 C35.139,48.07 34.464,47.733 33.908,47.969 L33.908,47.969 Z" id="Shape" fill="#404041"></path>
                </g>
                <g id="Group" transform="translate(338.000000, 103.000000)" sketch:type="MSShapeGroup">
                    <g transform="translate(22.000000, 0.000000)" id="Shape">
                        <path d="M15.009,14.816 C10.57,13.458 8.072,8.758 9.431,4.319 C9.808,3.086 10.444,2.003 11.259,1.11 C7.025,0.95 3.047,3.635 1.749,7.877 C0.202,12.933 3.047,18.285 8.102,19.832 C12.647,21.223 17.431,19.064 19.475,14.941 C18.05,15.293 16.514,15.277 15.009,14.816 L15.009,14.816 Z" fill="#D0D2D3"></path>
                        <path d="M10.804,20.707 C9.847,20.697 8.893,20.549 7.969,20.266 C5.408,19.482 3.305,17.749 2.048,15.383 C0.791,13.018 0.531,10.305 1.314,7.744 C1.96,5.632 3.246,3.836 5.033,2.548 C6.762,1.302 8.881,0.628 11.001,0.649 C11.092,0.65 11.184,0.652 11.276,0.656 C11.453,0.663 11.609,0.771 11.678,0.934 C11.746,1.097 11.713,1.285 11.594,1.415 C10.795,2.289 10.213,3.31 9.865,4.45 C8.582,8.643 10.95,13.098 15.142,14.38 C16.516,14.801 17.98,14.841 19.367,14.499 C19.539,14.457 19.719,14.518 19.83,14.656 C19.941,14.794 19.961,14.983 19.883,15.142 C18.186,18.562 14.623,20.746 10.804,20.707 L10.804,20.707 Z M10.292,1.578 C8.602,1.694 6.946,2.288 5.564,3.285 C3.939,4.456 2.77,6.09 2.182,8.011 C1.469,10.34 1.706,12.808 2.849,14.959 C3.992,17.11 5.905,18.687 8.234,19.4 C9.075,19.657 9.942,19.792 10.813,19.801 C13.968,19.833 16.931,18.198 18.603,15.567 C17.358,15.729 16.086,15.621 14.876,15.251 C10.205,13.822 7.567,8.859 8.996,4.187 C9.286,3.239 9.72,2.366 10.292,1.578 L10.292,1.578 Z" fill="#231F20"></path>
                    </g>
                    <g transform="translate(30.000000, 0.000000)" id="Shape" fill="#231F20">
                        <path d="M9.384,15.366 C8.565,15.358 7.747,15.232 6.956,14.99 C2.428,13.605 -0.128,8.794 1.257,4.266 C1.633,3.035 2.262,1.932 3.125,0.988 C3.193,0.914 3.307,0.909 3.381,0.977 C3.455,1.044 3.46,1.159 3.393,1.233 C2.567,2.137 1.965,3.193 1.604,4.372 C0.277,8.708 2.726,13.315 7.062,14.642 C8.484,15.077 9.995,15.12 11.432,14.765 C11.529,14.741 11.628,14.8 11.652,14.898 C11.676,14.995 11.617,15.094 11.519,15.118 C10.818,15.291 10.101,15.373 9.384,15.366 L9.384,15.366 Z"></path>
                    </g>
                    <g id="Shape">
                        <path d="M17.022,1.334 L13.418,7.65 L9.944,1.262 L1.596,1.176 L1.406,19.779 L9.754,19.864 L9.842,11.244 L13.326,16.724 L16.92,11.316 L16.832,19.937 L25.181,20.022 L25.371,1.42 L17.022,1.334 Z" fill="#D0D2D3"></path>
                        <path d="M25.176,20.476 L16.828,20.391 C16.577,20.388 16.376,20.183 16.379,19.932 L16.452,12.842 L13.705,16.976 C13.62,17.104 13.476,17.18 13.322,17.179 C13.168,17.177 13.026,17.098 12.944,16.969 L10.282,12.78 L10.209,19.87 C10.206,20.121 10.001,20.322 9.751,20.319 L1.403,20.234 C1.152,20.231 0.951,20.026 0.954,19.775 L1.144,1.172 C1.147,0.922 1.352,0.721 1.602,0.723 L9.95,0.808 C10.115,0.81 10.265,0.9 10.344,1.045 L13.429,6.718 L16.629,1.109 C16.711,0.966 16.863,0.879 17.028,0.88 L25.376,0.965 C25.627,0.968 25.828,1.173 25.825,1.423 L25.635,20.026 C25.632,20.277 25.427,20.479 25.176,20.476 L25.176,20.476 Z M17.29,19.488 L24.731,19.564 L24.912,1.869 L17.284,1.791 L13.812,7.875 C13.73,8.018 13.578,8.105 13.413,8.104 C13.248,8.102 13.098,8.012 13.019,7.867 L9.672,1.713 L2.044,1.635 L1.863,19.33 L9.304,19.406 L9.388,11.239 C9.39,11.038 9.524,10.862 9.717,10.807 C9.91,10.752 10.117,10.83 10.224,11 L13.333,15.892 L16.541,11.065 C16.652,10.898 16.86,10.823 17.052,10.882 C17.244,10.941 17.374,11.119 17.372,11.32 L17.29,19.488 L17.29,19.488 Z" fill="#231F20"></path>
                    </g>
                </g>
                <g id="text" transform="translate(430.000000, 51.000000)" fill="#404041" sketch:type="MSShapeGroup">
                    <path d="M1.602,80.292 L4.508,76.065 C6.622,73.158 8.868,73.026 12.171,74.875 C15.209,76.99 21.946,81.745 31.194,81.745 C39.914,81.745 45.198,77.386 45.198,71.044 C45.198,53.209 1.47,56.908 1.47,27.712 C1.47,11.199 15.209,0.497 33.044,0.497 C44.142,0.497 53.257,4.725 57.221,7.631 C60.127,9.745 60.523,12.255 58.938,15.161 L56.56,19.521 C54.578,23.353 51.804,22.824 49.029,21.37 C45.198,19.125 40.046,16.218 32.779,16.218 C24.061,16.218 18.512,20.446 18.512,26.787 C18.512,44.358 62.24,39.866 62.24,69.723 C62.24,84.916 50.879,97.466 31.194,97.466 C17.852,97.466 7.019,91.522 2.395,87.954 C0.28,86.105 -1.041,83.859 1.602,80.292" id="Fill-1"></path>
                    <path d="M78.229,7.631 C78.229,4.065 80.078,2.082 83.646,2.082 L114.295,2.082 C131.866,2.082 144.152,14.368 144.152,32.6 C144.152,50.831 131.866,63.514 114.295,63.514 L95.139,63.514 L95.139,90.332 C95.139,94.031 93.289,95.881 89.723,95.881 L83.646,95.881 C80.078,95.881 78.229,94.031 78.229,90.332 L78.229,7.631 L78.229,7.631 Z M111.124,48.718 C121.165,48.718 126.846,42.376 126.846,32.6 C126.846,22.956 121.165,16.747 111.389,16.747 L95.139,16.747 L95.139,48.718 L111.124,48.718 L111.124,48.718 Z" id="Fill-2"></path>
                    <path d="M173.615,6.575 C174.672,3.535 176.654,2.082 179.824,2.082 L188.279,2.082 C191.45,2.082 193.565,3.535 194.489,6.575 L223.817,89.539 C225.139,93.371 223.421,95.881 219.326,95.881 L213.249,95.881 C210.078,95.881 207.964,94.428 207.039,91.389 L200.434,71.837 L167.538,71.837 L161.065,91.257 C160.141,94.428 158.026,95.881 154.856,95.881 L148.778,95.881 C144.684,95.881 142.966,93.371 144.287,89.539 L173.615,6.575 L173.615,6.575 Z M196.206,57.965 L187.884,32.865 C186.298,27.58 184.185,18.332 184.185,18.332 L183.92,18.332 C183.92,18.332 181.807,27.58 180.221,32.865 L171.766,57.965 L196.206,57.965 L196.206,57.965 Z" id="Fill-3"></path>
                    <path d="M278.515,0.497 C293.84,0.497 304.144,6.31 309.164,9.877 C311.939,11.991 312.07,14.633 310.221,17.539 L307.843,21.37 C305.993,24.409 303.483,24.673 300.312,22.692 C296.218,20.05 288.819,16.086 279.175,16.086 C258.698,16.086 247.732,31.015 247.732,48.322 C247.732,65.892 259.095,81.877 279.308,81.877 C289.876,81.877 297.935,76.858 302.295,73.687 C305.201,71.573 307.843,71.573 309.957,74.612 L312.6,78.178 C314.581,80.821 314.448,83.595 311.807,85.841 C306.523,90.069 295.293,97.466 278.647,97.466 C249.187,97.466 230.162,76.197 230.162,48.585 C230.162,21.37 250.11,0.497 278.515,0.497" id="Fill-4"></path>
                    <path d="M328.721,7.631 C328.721,4.065 330.57,2.082 334.137,2.082 L379.319,2.082 C382.886,2.082 384.867,4.065 384.867,7.631 L384.867,11.33 C384.867,14.898 382.886,16.747 379.319,16.747 L345.631,16.747 L345.631,41.32 L371.789,41.32 C375.356,41.32 377.337,43.169 377.337,46.736 L377.337,50.435 C377.337,54.134 375.356,55.984 371.789,55.984 L345.631,55.984 L345.631,81.217 L381.433,81.217 C385,81.217 386.981,83.067 386.981,86.633 L386.981,90.332 C386.981,94.031 385,95.881 381.433,95.881 L334.137,95.881 C330.57,95.881 328.721,94.031 328.721,90.332 L328.721,7.631" id="Fill-5"></path>
                    <path d="M8.735,115.748 C8.735,114.295 9.528,113.502 10.981,113.502 L37.8,113.502 C65.279,113.502 83.906,130.412 83.906,159.741 C83.906,189.201 65.279,205.979 37.8,205.979 L10.981,205.979 C9.528,205.979 8.735,205.186 8.735,203.733 L8.735,115.748 L8.735,115.748 Z M36.875,200.695 C61.448,200.695 77.962,186.295 77.962,159.741 C77.962,133.318 61.448,118.786 36.875,118.786 L14.416,118.786 L14.416,200.695 L36.875,200.695 L36.875,200.695 Z" id="Fill-6"></path>
                    <path d="M105.444,115.748 C105.444,114.295 106.237,113.502 107.69,113.502 L153.797,113.502 C155.25,113.502 156.043,114.295 156.043,115.748 L156.043,116.541 C156.043,117.994 155.25,118.786 153.797,118.786 L111.125,118.786 L111.125,156.702 L145.738,156.702 C147.191,156.702 147.984,157.495 147.984,158.948 L147.984,159.741 C147.984,161.194 147.191,161.986 145.738,161.986 L111.125,161.986 L111.125,200.695 L156.308,200.695 C157.761,200.695 158.553,201.487 158.553,202.941 L158.553,203.733 C158.553,205.186 157.761,205.979 156.308,205.979 L107.69,205.979 C106.237,205.979 105.444,205.186 105.444,203.733 L105.444,115.748" id="Fill-7"></path>
                    <path d="M216.025,111.917 C233.067,111.917 243.636,118.919 247.468,122.089 C248.524,123.013 248.524,124.071 247.731,125.26 L247.071,126.053 C246.146,127.109 245.089,127.241 243.9,126.316 C240.069,123.542 230.425,117.333 216.157,117.333 C192.642,117.333 176.128,135.168 176.128,159.08 C176.128,183.124 192.51,202.148 216.554,202.148 C232.011,202.148 242.315,194.486 246.278,191.182 C247.335,190.259 248.393,190.259 249.449,191.315 L249.977,191.975 C250.902,193.032 250.902,194.09 249.846,195.146 C245.882,198.714 234.389,207.564 216.554,207.564 C188.811,207.564 170.183,185.898 170.183,159.08 C170.183,132.262 189.207,111.917 216.025,111.917" id="Fill-8"></path>
                    <path d="M270.856,115.748 C270.856,114.295 271.648,113.502 273.102,113.502 L274.29,113.502 C275.743,113.502 276.536,114.295 276.536,115.748 L276.536,154.721 L293.71,154.721 L319.208,114.955 C319.868,113.898 320.661,113.502 321.85,113.502 L323.699,113.502 C325.549,113.502 326.21,114.691 325.285,116.276 L298.599,157.098 L298.599,157.362 L327.135,203.337 C328.191,204.79 327.53,205.979 325.682,205.979 L323.699,205.979 C322.511,205.979 321.718,205.583 321.058,204.526 L293.71,160.005 L276.536,160.005 L276.536,203.733 C276.536,205.186 275.743,205.979 274.29,205.979 L273.102,205.979 C271.648,205.979 270.856,205.186 270.856,203.733 L270.856,115.748" id="Fill-9"></path>
                </g>
            </g>
        </g>
    </g>
</svg>