<svg xmlns="http://www.w3.org/2000/svg" viewBox="0 0 300 300" enable-background="new 0 0 300 300"><circle cx="223.869" cy="101.193" r="21.68" fill="#D1D3D4"/><path d="M29.06 233.293c1.57 1.57 4.135 1.57 5.705 0l162.783-162.783c7.623-7.606 17.738-11.804 28.501-11.804 10.763 0 20.9 4.182 28.505 11.804 7.601 7.618 11.804 17.738 11.804 28.501s-4.203 20.9-11.804 28.518l-79.988 79.988c-1.57 1.57-1.57 4.131 0 5.701 1.57 1.57 4.135 1.57 5.705 0l79.984-79.984c9.142-9.142 14.17-21.293 14.17-34.223s-5.028-25.081-14.17-34.206c-9.142-9.142-21.293-14.17-34.206-14.17-12.926 0-25.081 5.028-34.206 14.17l-162.783 162.782c-1.587 1.588-1.587 4.131 0 5.706zM176.813 172.435c-.791-.796-1.816-1.194-2.857-1.194-1.041 0-2.07.398-2.861 1.194l-63.617 63.634c-1.574 1.57-1.574 4.131 0 5.701 1.57 1.574 4.131 1.574 5.701 0l63.634-63.634c1.588-1.57 1.588-4.131 0-5.701zM118.982 183.329c-.791-.796-1.816-1.189-2.857-1.189-1.028 0-2.07.394-2.861 1.189l-58.509 58.526c-1.574 1.57-1.574 4.135 0 5.705 1.57 1.57 4.131 1.57 5.701 0l58.526-58.526c1.587-1.574 1.587-4.118 0-5.705zM208.163 85.505c4.199-4.203 9.768-6.501 15.707-6.501 5.934 0 11.504 2.315 15.706 6.501 4.199 4.199 6.497 9.768 6.497 15.707 0 5.934-2.315 11.504-6.497 15.69-4.203 4.199-9.773 6.514-15.706 6.514-5.938 0-11.508-2.315-15.707-6.514-4.203-4.186-6.497-9.773-6.497-15.69 0-5.939 2.294-11.508 6.497-15.707zm15.706 45.977c8.084 0 15.69-3.14 21.408-8.88 5.722-5.718 8.863-13.324 8.863-21.408 0-8.088-3.157-15.69-8.863-21.412-5.718-5.722-13.324-8.88-21.408-8.88-8.088 0-15.69 3.157-21.412 8.88-5.722 5.722-8.863 13.324-8.863 21.412 0 8.084 3.157 15.69 8.863 21.408 5.723 5.739 13.324 8.88 21.412 8.88zM220.28 108.932c0-7.225 10.843-7.225 10.843 0s-10.843 7.224-10.843 0" fill="#414042"/><path d="M231.936 97.259c0-3.009 4.495-3.009 4.495 0s-4.495 3.009-4.495 0" fill="#58595B"/><path d="M212.675 106.714c.876-.876.876-2.315 0-3.191-.876-.876-2.298-.876-3.191.017-.876.876-.876 2.298 0 3.174.892.876 2.315.876 3.191 0zM216.446 91.143c0-3.009 4.495-3.009 4.495 0s-4.495 3.009-4.495 0" fill="#414042"/><path d="M135.183 159.886c1.49-1.49 1.49-3.902 0-5.375-1.486-1.486-3.885-1.486-5.371 0-1.49 1.473-1.49 3.885 0 5.375 1.473 1.485 3.886 1.485 5.371 0zM42.684 195.264c0-2.992 4.499-2.992 4.499 0 0 3.01-4.499 3.01-4.499 0M80.678 236.467c0-3.009 4.512-3.009 4.512 0s-4.512 3.009-4.512 0M136.411 183.033c0-3.009 4.512-3.009 4.512 0-.001 2.992-4.512 2.992-4.512 0" fill="#414042"/><path d="M151.305 218.526c0-3.009 4.512-3.009 4.512 0s-4.512 3.009-4.512 0" fill="#58595B"/><path d="M195.648 161.49c-1.388 1.388-1.388 3.653 0 5.058 1.388 1.388 3.669 1.388 5.058 0 1.405-1.405 1.405-3.67 0-5.058-1.406-1.405-3.67-1.405-5.058 0z" fill="#414042"/><path d="M187.183 120.19c1.405-1.388 1.405-3.67 0-5.058-1.388-1.392-3.657-1.392-5.062.013-1.388 1.392-1.388 3.657 0 5.062 1.388 1.388 3.674 1.388 5.062-.017z" fill="#58595B"/><path d="M245.561 160.017c-1.392 1.388-1.405 3.653 0 5.058 1.388 1.392 3.669 1.392 5.058 0 1.405-1.388 1.388-3.67 0-5.058-1.389-1.405-3.653-1.405-5.058 0z" fill="#414042"/><path d="M90.133 160.199c1.388-1.388 1.388-3.67 0-5.058s-3.653-1.388-5.058 0c-1.392 1.388-1.392 3.653 0 5.058 1.389 1.388 3.67 1.388 5.058 0z" fill="#58595B"/></svg>