<?xml version="1.0" encoding="iso-8859-1"?>
<!-- Generator: Adobe Illustrator 19.0.1, SVG Export Plug-In . SVG Version: 6.00 Build 0)  -->
<svg version="1.1" id="Layer_1" xmlns="http://www.w3.org/2000/svg" xmlns:xlink="http://www.w3.org/1999/xlink" x="0px" y="0px"
	 viewBox="0 0 300 300" style="enable-background:new 0 0 300 300;" xml:space="preserve">
<g>
	<path style="fill:#A7A9AC;" d="M76.562,248.517v-3.851h12.256c0.261,0,0.502-0.065,0.733-0.15v6.22
		c-1.463-0.93-3.185-1.49-5.044-1.49h-8.094C76.498,249.018,76.562,248.778,76.562,248.517z"/>
	<path style="fill:#A7A9AC;" d="M69.386,253.649h15.121c1.991,0,3.698,1.164,4.516,2.845h-5.722H64.866
		C65.685,254.813,67.394,253.649,69.386,253.649z"/>
	<rect x="64.338" y="260.893" style="fill:#A7A9AC;" width="16.764" height="2.041"/>
	<rect x="85.501" y="260.893" style="fill:#A7A9AC;" width="4.05" height="2.041"/>
	<rect x="110.427" y="260.893" style="fill:#A7A9AC;" width="4.053" height="2.041"/>
	<rect x="118.879" y="260.893" style="fill:#A7A9AC;" width="16.761" height="2.041"/>
	<path style="fill:#A7A9AC;" d="M135.112,256.494H116.68h-5.725c0.818-1.678,2.528-2.845,4.519-2.845h15.118
		C132.584,253.649,134.294,254.813,135.112,256.494z"/>
	<path style="fill:#A7A9AC;" d="M115.474,249.25c-1.859,0-3.584,0.557-5.047,1.49v-6.071h12.4v3.851c0,0.261,0.065,0.501,0.15,0.733
		h-7.502V249.25z"/>
	<path style="fill:#A7A9AC;" d="M177.707,248.517v-3.851h12.256c0.261,0,0.502-0.065,0.733-0.15v6.22
		c-1.463-0.93-3.185-1.49-5.044-1.49h-8.094C177.643,249.018,177.707,248.778,177.707,248.517z"/>
	<path style="fill:#A7A9AC;" d="M170.531,253.649h15.121c1.991,0,3.698,1.164,4.516,2.845h-5.722h-18.435
		C166.83,254.813,168.539,253.649,170.531,253.649z"/>
	<rect x="165.484" y="260.893" style="fill:#A7A9AC;" width="16.764" height="2.041"/>
	<rect x="186.646" y="260.893" style="fill:#A7A9AC;" width="4.05" height="2.041"/>
	<rect x="211.572" y="260.893" style="fill:#A7A9AC;" width="4.053" height="2.041"/>
	<rect x="220.024" y="260.893" style="fill:#A7A9AC;" width="16.761" height="2.041"/>
	<path style="fill:#A7A9AC;" d="M236.257,256.494h-18.432H212.1c0.818-1.678,2.528-2.845,4.519-2.845h15.118
		C233.729,253.649,235.439,254.813,236.257,256.494z"/>
	<path style="fill:#A7A9AC;" d="M216.619,249.25c-1.859,0-3.584,0.557-5.047,1.49v-6.071h12.4v3.851c0,0.261,0.065,0.501,0.15,0.733
		h-7.502V249.25z"/>
	<rect x="76.16" y="127.499" style="fill:#E6E7E8;" width="46.543" height="4.754"/>
	<path style="fill:#E6E7E8;" d="M59.021,159.733h6.37c1.214,0,2.2-0.985,2.2-2.2v-12.329c0-1.214-0.985-2.2-2.2-2.2h-6.37v-15.506
		h12.74v63.066h-12.74L59.021,159.733z"/>
	<path style="fill:#E6E7E8;" d="M99.863,192.826c-5.672,0-10.458,4.692-10.458,10.244v37.434c-0.232-0.082-0.472-0.15-0.733-0.15
		H76.416v-7.567c5.475-0.724,9.731-5.37,9.731-11.042s-4.255-10.323-9.731-11.045v-21.439h1.821c-0.082,0.232-0.15,0.472-0.15,0.733
		v1.68c0,1.214,0.985,2.2,2.2,2.2s2.2-0.985,2.2-2.2v-1.68c0-0.261-0.065-0.501-0.15-0.733h3.015
		c-0.082,0.232-0.15,0.472-0.15,0.733v1.68c0,1.214,0.985,2.2,2.2,2.2s2.2-0.985,2.2-2.2v-1.68c0-0.261-0.065-0.501-0.15-0.733
		h19.251c-0.082,0.232-0.15,0.472-0.15,0.733v1.68c0,1.214,0.985,2.2,2.2,2.2s2.2-0.985,2.2-2.2v-1.68
		c0-0.261-0.065-0.501-0.15-0.733h3.578c-0.082,0.232-0.15,0.472-0.15,0.733v1.68c0,1.214,0.985,2.2,2.2,2.2
		c1.214,0,2.2-0.985,2.2-2.2v-1.68c0-0.261-0.065-0.501-0.15-0.733h1.458c0.258,0,0.499-0.065,0.73-0.147v21.612
		c-5.338,0.845-9.446,5.44-9.446,11.015c0,5.575,4.106,10.168,9.449,11.013v7.596h-12.4v-37.278
		C110.28,197.425,105.606,192.826,99.863,192.826z"/>
	<path style="fill:#E6E7E8;" d="M122.677,185.013c-0.232-0.079-0.472-0.147-0.73-0.147H76.416v-48.215h46.256v25.225
		c0,0.132,0,0.267,0,0.411L122.677,185.013z"/>
	<path style="fill:#E6E7E8;" d="M127.103,160.745v-33.246h12.708v0.155l0,0c0,0.003,0,0.003,0,0.003
		c0.003,3.003,0.006,7.605,0.009,12.456h-6.52c-1.214,0-2.2,0.985-2.2,2.2s0.985,2.2,2.2,2.2h6.522c0,0.827,0,1.645,0,2.458H133.3
		c-1.214,0-2.2,0.985-2.2,2.2s0.985,2.2,2.2,2.2h6.522c0.003,5.552,0,9.851-0.009,10.203c-0.053,1.035-0.15,6.364,3.088,9.801
		c0.716,0.76,1.619,1.358,2.607,1.88l-3.469,12.244c-3.906-1.546-6.66-3.713-8.482-5.687
		C126.839,172.502,127,162.745,127.103,160.745z"/>
	<rect x="178.356" y="127.499" style="fill:#E6E7E8;" width="46.543" height="4.754"/>
	<path style="fill:#E6E7E8;" d="M242.038,190.565h-12.74v-63.066h12.74v15.506h-6.37c-1.214,0-2.2,0.985-2.2,2.2v12.329
		c0,1.214,0.985,2.2,2.2,2.2h6.37L242.038,190.565z"/>
	<path style="fill:#E6E7E8;" d="M190.788,203.073v37.278h-12.4v-7.596c5.344-0.845,9.449-5.437,9.449-11.013
		c0-5.575-4.109-10.171-9.446-11.015v-21.612c0.232,0.082,0.472,0.147,0.73,0.147h1.458c-0.085,0.232-0.15,0.472-0.15,0.733v1.68
		c0,1.214,0.985,2.2,2.2,2.2s2.2-0.985,2.2-2.2v-1.68c0-0.261-0.067-0.501-0.15-0.733h3.578c-0.085,0.232-0.15,0.472-0.15,0.733
		v1.68c0,1.214,0.985,2.2,2.2,2.2c1.214,0,2.2-0.985,2.2-2.2v-1.68c0-0.261-0.067-0.501-0.15-0.733h19.251
		c-0.085,0.232-0.15,0.472-0.15,0.733v1.68c0,1.214,0.985,2.2,2.2,2.2c1.214,0,2.2-0.985,2.2-2.2v-1.68
		c0-0.261-0.067-0.501-0.15-0.733h3.015c-0.085,0.232-0.15,0.472-0.15,0.733v1.68c0,1.214,0.985,2.2,2.2,2.2s2.2-0.985,2.2-2.2
		v-1.68c0-0.261-0.067-0.501-0.15-0.733h1.821v21.439c-5.475,0.721-9.731,5.373-9.731,11.045s4.255,10.318,9.731,11.042v7.567
		h-12.256c-0.261,0-0.502,0.067-0.733,0.15V203.07c0-5.552-4.786-10.244-10.458-10.244
		C195.454,192.826,190.779,197.425,190.788,203.073z"/>
	<path style="fill:#E6E7E8;" d="M178.388,162.287c0-0.144,0-0.279,0-0.411v-25.225h46.256v48.215h-45.531
		c-0.258,0-0.499,0.067-0.73,0.147L178.388,162.287z"/>
	<path style="fill:#E6E7E8;" d="M167.502,179.811c-1.821,1.974-4.575,4.141-8.482,5.687l-3.469-12.244
		c0.988-0.522,1.892-1.12,2.607-1.88c3.238-3.437,3.141-8.766,3.088-9.801c-0.009-0.352-0.012-4.651-0.009-10.203h6.522
		c1.214,0,2.2-0.985,2.2-2.2s-0.985-2.2-2.2-2.2h-6.522c0-0.812,0-1.631,0-2.458h6.522c1.214,0,2.2-0.985,2.2-2.2
		s-0.985-2.2-2.2-2.2h-6.52c0.003-4.851,0.006-9.452,0.009-12.456c0,0,0,0,0-0.003l0,0v-0.155h12.708v33.246
		C174.06,162.745,174.221,172.502,167.502,179.811z"/>
	<path style="fill:#E6E7E8;" d="M99.807,56.142c22.14,0,40.15,18.233,40.15,40.639v26.31H59.168v-26.31
		C59.168,74.375,77.398,56.142,99.807,56.142z"/>
	<path style="fill:#E6E7E8;" d="M201.806,56.142c22.14,0,40.15,18.233,40.15,40.639v26.31h-80.789v-26.31
		C161.166,74.375,179.397,56.142,201.806,56.142z"/>
	<path style="fill:#BCBEC0;" d="M100.065,68.717c12.957,0,23.497,10.543,23.497,23.503c0,12.957-10.54,23.5-23.497,23.5
		c-12.96,0-23.503-10.543-23.503-23.5C76.562,79.26,87.106,68.717,100.065,68.717z"/>
	<path style="fill:#BCBEC0;" d="M201.064,68.717c12.957,0,23.497,10.543,23.497,23.503c0,12.957-10.54,23.5-23.497,23.5
		c-12.96,0-23.503-10.543-23.503-23.5C177.561,79.26,188.104,68.717,201.064,68.717z"/>
	<g>
		<g>
			<path style="fill:#414042;" d="M100.065,120.117c15.382,0,27.897-12.517,27.897-27.899c0-15.385-12.514-27.902-27.897-27.902
				c-15.385,0-27.902,12.517-27.902,27.902S84.68,120.117,100.065,120.117z M100.065,68.717c12.957,0,23.497,10.543,23.497,23.503
				c0,12.957-10.54,23.5-23.497,23.5c-12.96,0-23.503-10.543-23.503-23.5C76.562,79.26,87.106,68.717,100.065,68.717z"/>
			<path style="fill:#414042;" d="M85.041,89.601c0-0.554-0.235-1.144-0.645-1.554c-0.821-0.818-2.288-0.818-3.109,0
				c-0.414,0.414-0.648,0.968-0.648,1.554c0,0.587,0.235,1.173,0.648,1.554c0.411,0.411,0.968,0.645,1.551,0.645
				c0.587,0,1.147-0.235,1.554-0.645C84.8,90.745,85.041,90.188,85.041,89.601z"/>
			<path style="fill:#414042;" d="M84.149,84.797c0.367,0.229,0.771,0.337,1.17,0.337c0.73,0,1.446-0.364,1.865-1.026
				c2.807-4.455,7.622-7.112,12.881-7.112c1.214,0,2.2-0.985,2.2-2.2c0-1.214-0.985-2.2-2.2-2.2c-6.781,0-12.986,3.425-16.602,9.162
				C82.815,82.791,83.123,84.152,84.149,84.797z"/>
			<path style="fill:#414042;" d="M151.806,170.452c-2.537-0.243-4.461-0.947-5.558-2.115c-1.672-1.771-1.971-5.068-1.903-6.44
				c0.015-0.155,0.041-0.387,0.012-34.261V96.778c0-24.835-19.984-45.039-44.549-45.039c-17.925,0-33.396,10.558-40.637,25.753
				V52.631c2.956-0.851,5.135-3.549,5.135-6.775c0-3.129-2.056-5.763-4.88-6.696v-4.701c0-1.214-0.985-2.2-2.2-2.2
				s-2.2,0.985-2.2,2.2v4.701c-2.824,0.933-4.88,3.566-4.88,6.696c0,3.038,1.933,5.613,4.625,6.616v44.303v28.51v19.905v12.329
				v35.231v3.484c0,5.936,4.83,10.769,10.769,10.769c2.508,0,4.792-0.9,6.625-2.343v43.93c0,0.261,0.065,0.501,0.15,0.733h-2.927
				c-5.209,0-9.446,4.235-9.446,9.444v6.44c0,1.214,0.985,2.2,2.2,2.2h21.163h8.449c1.214,0,2.2-0.985,2.2-2.2v-6.44v-55.705
				c0-3.167,2.774-5.845,6.059-5.845c3.261,0,6.018,2.678,6.018,5.845v55.708v5.698v0.742c0,1.214,0.985,2.2,2.2,2.2h8.452h21.16
				c1.214,0,2.2-0.985,2.2-2.2v-6.44c0-5.206-4.235-9.444-9.446-9.444h-3.516c0.082-0.232,0.15-0.472,0.15-0.733l-0.003-70.181
				c0.897,1.487,1.956,2.956,3.247,4.358c2.525,2.748,6.525,5.816,12.423,7.619c0.062,0.023,0.103,0.067,0.167,0.085
				c0.097,0.029,0.194,0.026,0.293,0.041c2.472,0.716,5.285,1.188,8.455,1.337 M147.101,118.999 M57.223,43.178
				c1.478,0,2.681,1.202,2.681,2.681s-1.202,2.681-2.681,2.681s-2.681-1.202-2.681-2.681S55.745,43.178,57.223,43.178z
				 M99.807,56.138c22.14,0,40.15,18.233,40.15,40.639v26.31H59.168v-26.31C59.168,74.371,77.398,56.138,99.807,56.138z
				 M122.85,132.241H76.307v-4.754h46.543V132.241z M59.168,147.392h4.17v7.93h-4.17V147.392z M59.168,159.721h6.37
				c1.214,0,2.2-0.985,2.2-2.2v-12.329c0-1.214-0.985-2.2-2.2-2.2h-6.37v-15.506h12.74v63.066h-12.74L59.168,159.721z
				 M76.562,215.112c3.044,0.672,5.332,3.381,5.332,6.625c0,3.244-2.288,5.951-5.332,6.622V215.112z M65.538,202.604
				c-3.511,0-6.37-2.859-6.37-6.37v-1.285h12.74v1.285C71.908,199.747,69.051,202.604,65.538,202.604z M76.562,248.593v-3.851
				h12.256c0.261,0,0.502-0.065,0.733-0.15v6.22c-1.463-0.93-3.185-1.49-5.044-1.49h-8.094
				C76.498,249.094,76.562,248.854,76.562,248.593z M69.386,253.725h15.121c1.991,0,3.698,1.164,4.516,2.845h-5.722H64.866
				C65.685,254.89,67.394,253.725,69.386,253.725z M64.338,260.969h16.764v2.041H64.338L64.338,260.969z M85.501,260.969h4.05v2.041
				h-4.05V260.969z M100.01,192.814c-5.672,0-10.458,4.692-10.458,10.244v37.434c-0.232-0.082-0.472-0.15-0.733-0.15H76.562v-7.567
				c5.475-0.724,9.731-5.37,9.731-11.042s-4.255-10.323-9.731-11.045v-21.439h1.821c-0.082,0.232-0.15,0.472-0.15,0.733v1.68
				c0,1.214,0.985,2.2,2.2,2.2s2.2-0.985,2.2-2.2v-1.68c0-0.261-0.065-0.502-0.15-0.733h3.015c-0.082,0.232-0.15,0.472-0.15,0.733
				v1.68c0,1.214,0.985,2.2,2.2,2.2s2.2-0.985,2.2-2.2v-1.68c0-0.261-0.065-0.502-0.15-0.733h19.251
				c-0.082,0.232-0.15,0.472-0.15,0.733v1.68c0,1.214,0.985,2.2,2.2,2.2s2.2-0.985,2.2-2.2v-1.68c0-0.261-0.065-0.502-0.15-0.733
				h3.578c-0.082,0.232-0.15,0.472-0.15,0.733v1.68c0,1.214,0.985,2.2,2.2,2.2c1.214,0,2.2-0.985,2.2-2.2v-1.68
				c0-0.261-0.065-0.502-0.15-0.733h1.458c0.258,0,0.499-0.065,0.73-0.147v21.612c-5.338,0.845-9.446,5.44-9.446,11.016
				c0,5.575,4.106,10.168,9.449,11.013v7.596h-12.4v-37.278C110.427,197.413,105.752,192.814,100.01,192.814z M122.824,228.269
				c-2.898-0.774-5.05-3.393-5.05-6.534c0-3.141,2.15-5.763,5.047-6.537L122.824,228.269z M110.427,260.969h4.053v2.041h-4.053
				V260.969z M135.64,263.01h-16.761v-2.041h16.761V263.01z M135.112,256.57H116.68h-5.725c0.818-1.678,2.528-2.845,4.519-2.845
				h15.118C132.584,253.725,134.294,254.89,135.112,256.57z M115.474,249.326c-1.859,0-3.584,0.557-5.047,1.49v-6.071h12.4v3.851
				c0,0.261,0.065,0.501,0.15,0.733h-7.502V249.326z M122.824,185.001c-0.232-0.079-0.472-0.147-0.73-0.147H76.562V136.64h46.256
				v25.225c0,0.132,0,0.267,0,0.411L122.824,185.001z M127.249,160.733v-33.246h12.708v0.155l0,0c0,0.003,0,0.003,0,0.003
				c0.003,3.003,0.006,7.605,0.009,12.455h-6.52c-1.214,0-2.2,0.985-2.2,2.2s0.985,2.2,2.2,2.2h6.522c0,0.827,0,1.645,0,2.458
				h-6.522c-1.214,0-2.2,0.985-2.2,2.2s0.985,2.2,2.2,2.2h6.522c0.003,5.552,0,9.851-0.009,10.203
				c-0.053,1.035-0.15,6.364,3.088,9.801c0.716,0.76,1.619,1.358,2.607,1.88l-3.469,12.244c-3.906-1.546-6.66-3.713-8.482-5.687
				C126.985,172.49,127.147,162.733,127.249,160.733z"/>
			<path style="fill:#414042;" d="M109.667,146.151c-0.528,0-1.032,0.082-1.525,0.202c-2.279-2.153-5.232-3.361-8.388-3.361
				c-3.194,0-6.182,1.229-8.479,3.431c-0.557-0.161-1.135-0.273-1.745-0.273c-3.534,0-6.411,2.874-6.411,6.411
				c0,2.815,1.836,5.188,4.364,6.047v11.567c0,6.766,5.502,12.271,12.268,12.271c6.766,0,12.268-5.505,12.268-12.271V158.51
				c2.37-0.941,4.053-3.247,4.053-5.948C116.076,149.028,113.198,146.151,109.667,146.151z M111.676,152.562
				c0,1.109-0.9,2.012-2.009,2.012s-2.012-0.903-2.012-2.012s0.903-2.012,2.012-2.012S111.676,151.453,111.676,152.562z
				 M89.534,150.55c1.109,0,2.012,0.903,2.012,2.012s-0.903,2.012-2.012,2.012c-1.109,0-2.012-0.903-2.012-2.012
				S88.425,150.55,89.534,150.55z M99.755,178.045c-4.338,0-7.869-3.531-7.869-7.872v-11.667c2.373-0.941,4.056-3.247,4.056-5.948
				c0-1.273-0.384-2.452-1.026-3.452c2.719-2.091,6.684-2.153,9.467-0.167c-0.707,1.032-1.126,2.273-1.126,3.616
				c0,2.815,1.836,5.188,4.364,6.047v11.567C107.623,174.514,104.095,178.045,99.755,178.045z"/>
			<path style="fill:#414042;" d="M99.755,163.217c-3.534,0-6.411,2.874-6.411,6.414c0,3.534,2.874,6.411,6.411,6.411
				s6.411-2.874,6.411-6.411C106.166,166.091,103.289,163.217,99.755,163.217z M99.755,171.64c-1.109,0-2.012-0.903-2.012-2.012
				c0-1.112,0.903-2.015,2.012-2.015s2.012,0.903,2.012,2.015C101.766,170.736,100.863,171.64,99.755,171.64z"/>
			<circle style="fill:#414042;" cx="65.538" cy="177.643" r="1.768"/>
			<circle style="fill:#414042;" cx="65.538" cy="134.44" r="1.768"/>
			<circle style="fill:#414042;" cx="133.449" cy="134.44" r="1.768"/>
		</g>
		<g>
			<path style="fill:#414042;" d="M228.961,92.217c0-15.385-12.517-27.902-27.902-27.902c-15.382,0-27.897,12.517-27.897,27.902
				c0,15.382,12.514,27.899,27.897,27.899C216.443,120.117,228.961,107.603,228.961,92.217z M224.561,92.22
				c0,12.957-10.543,23.5-23.503,23.5c-12.957,0-23.497-10.543-23.497-23.5c0-12.96,10.54-23.503,23.497-23.503
				C214.018,68.717,224.561,79.26,224.561,92.22z"/>
			<path style="fill:#414042;" d="M216.731,91.156c0.408,0.411,0.968,0.645,1.554,0.645c0.584,0,1.141-0.235,1.551-0.645
				c0.414-0.381,0.648-0.968,0.648-1.554c0-0.587-0.235-1.141-0.648-1.554c-0.821-0.818-2.288-0.818-3.109,0
				c-0.411,0.411-0.645,1-0.645,1.554C216.083,90.188,216.323,90.745,216.731,91.156z"/>
			<path style="fill:#414042;" d="M217.661,81.759c-3.616-5.737-9.822-9.162-16.602-9.162c-1.214,0-2.2,0.985-2.2,2.2
				c0,1.214,0.985,2.2,2.2,2.2c5.258,0,10.074,2.657,12.881,7.112c0.419,0.663,1.135,1.026,1.865,1.026
				c0.399,0,0.804-0.109,1.17-0.337C218.001,84.152,218.309,82.791,217.661,81.759z"/>
			<path style="fill:#414042;" d="M149.312,191.852c3.17-0.15,5.983-0.622,8.455-1.337c0.1-0.015,0.196-0.012,0.293-0.041
				c0.065-0.018,0.106-0.062,0.167-0.085c5.898-1.804,9.898-4.871,12.423-7.619c1.29-1.402,2.349-2.871,3.247-4.358l-0.003,70.181
				c0,0.261,0.067,0.501,0.15,0.733h-3.516c-5.212,0-9.446,4.238-9.446,9.444v6.44c0,1.214,0.985,2.2,2.2,2.2h21.16h8.452
				c1.214,0,2.2-0.985,2.2-2.2v-0.742v-5.698v-55.708c0-3.167,2.757-5.845,6.018-5.845c3.285,0,6.059,2.678,6.059,5.845v55.705v6.44
				c0,1.214,0.985,2.2,2.2,2.2h8.449h21.163c1.214,0,2.2-0.985,2.2-2.2v-6.44c0-5.209-4.238-9.444-9.446-9.444h-2.927
				c0.085-0.232,0.15-0.472,0.15-0.733v-43.93c1.833,1.443,4.118,2.343,6.625,2.343c5.939,0,10.769-4.833,10.769-10.769v-3.484
				v-35.231v-12.329v-19.905v-28.51V52.472c2.692-1.003,4.625-3.578,4.625-6.616c0-3.129-2.056-5.763-4.88-6.696v-4.701
				c0-1.214-0.985-2.2-2.2-2.2s-2.2,0.985-2.2,2.2v4.701c-2.824,0.933-4.88,3.566-4.88,6.696c0,3.226,2.179,5.924,5.135,6.775
				v24.861c-7.241-15.195-22.711-25.753-40.637-25.753c-24.565,0-44.549,20.204-44.549,45.039v30.859
				c-0.029,33.874-0.003,34.105,0.012,34.261c0.067,1.373-0.232,4.669-1.903,6.44c-1.097,1.167-3.021,1.871-5.558,2.115
				 M154.022,118.999 M246.581,45.859c0,1.478-1.202,2.681-2.681,2.681s-2.681-1.202-2.681-2.681s1.202-2.681,2.681-2.681
				S246.581,44.381,246.581,45.859z M241.956,96.778v26.31h-80.789v-26.31c0-22.406,18.01-40.639,40.15-40.639
				C223.726,56.138,241.956,74.371,241.956,96.778z M178.273,127.487h46.543v4.754h-46.543V127.487z M241.956,155.322h-4.17v-7.93
				h4.17V155.322z M241.956,190.553h-12.74v-63.066h12.74v15.506h-6.37c-1.214,0-2.2,0.985-2.2,2.2v12.329
				c0,1.214,0.985,2.2,2.2,2.2h6.37V190.553z M224.561,228.36c-3.044-0.672-5.332-3.379-5.332-6.622
				c0-3.244,2.288-5.954,5.332-6.625V228.36z M229.216,196.234v-1.285h12.74v1.285c0,3.511-2.859,6.37-6.37,6.37
				C232.072,202.604,229.216,199.747,229.216,196.234z M224.711,249.323h-8.094c-1.859,0-3.581,0.56-5.044,1.49v-6.22
				c0.232,0.085,0.472,0.15,0.733,0.15h12.256v3.851C224.561,248.854,224.626,249.094,224.711,249.323z M236.257,256.57h-18.435
				H212.1c0.818-1.68,2.525-2.845,4.516-2.845h15.121C233.729,253.725,235.439,254.89,236.257,256.57z M236.785,263.01h-16.764
				v-2.041h16.764L236.785,263.01z M215.622,263.01h-4.05v-2.041h4.05V263.01z M190.705,203.062v37.278h-12.4v-7.596
				c5.344-0.845,9.449-5.437,9.449-11.013c0-5.575-4.109-10.171-9.446-11.016v-21.612c0.232,0.082,0.472,0.147,0.73,0.147h1.458
				c-0.085,0.232-0.15,0.472-0.15,0.733v1.68c0,1.214,0.985,2.2,2.2,2.2c1.214,0,2.2-0.985,2.2-2.2v-1.68
				c0-0.261-0.067-0.502-0.15-0.733h3.578c-0.085,0.232-0.15,0.472-0.15,0.733v1.68c0,1.214,0.985,2.2,2.2,2.2s2.2-0.985,2.2-2.2
				v-1.68c0-0.261-0.067-0.502-0.15-0.733h19.251c-0.085,0.232-0.15,0.472-0.15,0.733v1.68c0,1.214,0.985,2.2,2.2,2.2
				s2.2-0.985,2.2-2.2v-1.68c0-0.261-0.067-0.502-0.15-0.733h3.015c-0.085,0.232-0.15,0.472-0.15,0.733v1.68
				c0,1.214,0.985,2.2,2.2,2.2s2.2-0.985,2.2-2.2v-1.68c0-0.261-0.067-0.502-0.15-0.733h1.821v21.439
				c-5.475,0.721-9.731,5.373-9.731,11.045s4.255,10.317,9.731,11.042v7.567h-12.256c-0.261,0-0.502,0.067-0.733,0.15v-37.434
				c0-5.552-4.786-10.244-10.458-10.244C195.371,192.814,190.697,197.413,190.705,203.062z M178.303,215.197
				c2.898,0.774,5.047,3.396,5.047,6.537c0,3.141-2.153,5.76-5.05,6.534L178.303,215.197z M190.697,263.01h-4.053v-2.041h4.053
				V263.01z M165.484,260.969h16.761v2.041h-16.761V260.969z M170.531,253.725h15.118c1.991,0,3.701,1.167,4.519,2.845h-5.725
				h-18.433C166.83,254.89,168.539,253.725,170.531,253.725z M185.649,249.329h-7.502c0.085-0.232,0.15-0.472,0.15-0.733v-3.851
				h12.4v6.071c-1.463-0.933-3.188-1.49-5.047-1.49V249.329z M178.306,162.275c0-0.144,0-0.279,0-0.411V136.64h46.256v48.215H179.03
				c-0.258,0-0.499,0.067-0.73,0.147L178.306,162.275z M167.419,179.799c-1.821,1.974-4.575,4.141-8.482,5.687l-3.469-12.244
				c0.988-0.522,1.892-1.12,2.607-1.88c3.238-3.437,3.141-8.766,3.088-9.801c-0.009-0.352-0.012-4.651-0.009-10.203h6.522
				c1.214,0,2.2-0.985,2.2-2.2s-0.985-2.2-2.2-2.2h-6.522c0-0.812,0-1.631,0-2.458h6.522c1.214,0,2.2-0.985,2.2-2.2
				s-0.985-2.2-2.2-2.2h-6.52c0.003-4.851,0.006-9.452,0.009-12.455c0,0,0,0,0-0.003l0,0v-0.155h12.708v33.246
				C173.977,162.733,174.138,172.49,167.419,179.799z"/>
			<path style="fill:#414042;" d="M185.051,152.562c0,2.701,1.683,5.006,4.053,5.948v11.667c0,6.766,5.502,12.271,12.268,12.271
				c6.766,0,12.268-5.505,12.268-12.271v-11.567c2.528-0.859,4.364-3.232,4.364-6.047c0-3.537-2.877-6.411-6.411-6.411
				c-0.61,0-1.188,0.111-1.745,0.273c-2.296-2.203-5.285-3.431-8.479-3.431c-3.156,0-6.109,1.208-8.388,3.361
				c-0.493-0.12-0.997-0.202-1.525-0.202C187.925,146.151,185.048,149.028,185.051,152.562z M191.456,150.55
				c1.109,0,2.012,0.903,2.012,2.012s-0.903,2.012-2.012,2.012s-2.009-0.903-2.009-2.012S190.348,150.55,191.456,150.55z
				 M213.602,152.562c0,1.109-0.903,2.012-2.012,2.012c-1.109,0-2.012-0.903-2.012-2.012s0.903-2.012,2.012-2.012
				C212.698,150.55,213.602,151.453,213.602,152.562z M193.503,170.17v-11.567c2.528-0.859,4.364-3.232,4.364-6.047
				c0-1.343-0.419-2.584-1.126-3.616c2.783-1.986,6.748-1.924,9.467,0.167c-0.642,1-1.026,2.179-1.026,3.452
				c0,2.701,1.683,5.006,4.056,5.948v11.667c0,4.341-3.531,7.872-7.869,7.872C197.028,178.045,193.5,174.514,193.503,170.17z"/>
			<path style="fill:#414042;" d="M194.958,169.631c0,3.537,2.874,6.411,6.411,6.411c3.537,0,6.411-2.877,6.411-6.411
				c0-3.54-2.877-6.414-6.411-6.414C197.835,163.217,194.958,166.091,194.958,169.631z M199.357,169.628
				c0-1.112,0.903-2.015,2.012-2.015s2.012,0.903,2.012,2.015c0,1.109-0.903,2.012-2.012,2.012
				C200.26,171.64,199.357,170.736,199.357,169.628z"/>
			<circle style="fill:#414042;" cx="235.586" cy="177.643" r="1.768"/>
			<circle style="fill:#414042;" cx="235.586" cy="134.44" r="1.768"/>
			<circle style="fill:#414042;" cx="167.674" cy="134.44" r="1.768"/>
		</g>
	</g>
	<g>
		<circle style="fill:#FFFFFF;" cx="109.663" cy="152.562" r="2.01"/>
		<circle style="fill:#FFFFFF;" cx="89.531" cy="152.562" r="2.012"/>
	</g>
	<g>
		<circle style="fill:#FFFFFF;" cx="211.715" cy="152.562" r="2.01"/>
		<circle style="fill:#FFFFFF;" cx="191.583" cy="152.562" r="2.012"/>
	</g>
	<circle style="fill:#FFFFFF;" cx="99.755" cy="169.629" r="2.012"/>
	<circle style="fill:#FFFFFF;" cx="201.527" cy="169.629" r="2.012"/>
</g>
</svg>
