<?xml version="1.0" encoding="UTF-8" standalone="no"?>
<svg width="32px" height="32px" viewBox="0 0 32 32" version="1.1" xmlns="http://www.w3.org/2000/svg" xmlns:xlink="http://www.w3.org/1999/xlink" xmlns:sketch="http://www.bohemiancoding.com/sketch/ns">
    <!-- Generator: Sketch 3.3.3 (12072) - http://www.bohemiancoding.com/sketch -->
    <title>open_card</title>
    <desc>Created with Sketch.</desc>
    <defs></defs>
    <g id="Page-1" stroke="none" stroke-width="1" fill="none" fill-rule="evenodd" sketch:type="MSPage">
        <g id="open_card" sketch:type="MSArtboardGroup" fill="#FFFFFF">
            <g id="box" sketch:type="MSLayerGroup" transform="translate(8.000000, 10.000000)">
                <path d="M13.9777403,9.98374831 L13.9777403,5.7636852 L16.0445947,3.50869772 L16.066237,12 L0,12 L0,0.0270384462 L11.0023746,0.0270384462 L9.01261282,2.0203762 L2,2 L2,10 L13.9777403,9.98374831 Z" id="Rectangle-2-Copy-5" sketch:type="MSShapeGroup"></path>
            </g>
            <g id="arrow" sketch:type="MSLayerGroup" transform="translate(15.000000, 8.000000)">
                <path d="M1.4375,8.90301989 C0.842415365,8.30793526 0.841732339,7.34379546 1.44180815,6.74371965 L6.91124488,1.27428292 L9.06623697,3.42927502 L3.59680024,8.89871175 C2.99933628,9.49617571 2.03673346,9.50225335 1.4375,8.90301989 L1.4375,8.90301989 L1.4375,8.90301989 Z" id="Rectangle-2-Copy-3" sketch:type="MSShapeGroup"></path>
                <path d="M10.6136364,9.22026988e-09 L10.6136364,5.38286846 L4.84593498,9.22027022e-09 L10.6136364,9.22026988e-09 Z" id="Triangle-1" sketch:type="MSShapeGroup"></path>
            </g>
        </g>
    </g>
</svg>